<?xml version="1.0" encoding="utf-8" standalone="no"?>
<!DOCTYPE svg PUBLIC "-//W3C//DTD SVG 1.1//EN"
  "http://www.w3.org/Graphics/SVG/1.1/DTD/svg11.dtd">
<svg xmlns:xlink="http://www.w3.org/1999/xlink" width="293.76pt" height="258.4pt" viewBox="0 0 293.76 258.4" xmlns="http://www.w3.org/2000/svg" version="1.1">
 <metadata>
  <rdf:RDF xmlns:dc="http://purl.org/dc/elements/1.1/" xmlns:cc="http://creativecommons.org/ns#" xmlns:rdf="http://www.w3.org/1999/02/22-rdf-syntax-ns#">
   <cc:Work>
    <dc:type rdf:resource="http://purl.org/dc/dcmitype/StillImage"/>
    <dc:date>2026-07-01T14:11:33.392100</dc:date>
    <dc:format>image/svg+xml</dc:format>
    <dc:creator>
     <cc:Agent>
      <dc:title>Matplotlib v3.11.0, https://matplotlib.org/</dc:title>
     </cc:Agent>
    </dc:creator>
   </cc:Work>
  </rdf:RDF>
 </metadata>
 <defs>
  <style type="text/css">*{stroke-linejoin: round; stroke-linecap: butt}</style>
 </defs>
 <g id="figure_1">
  <g id="patch_1">
   <path d="M 0 258.4 
L 293.76 258.4 
L 293.76 0 
L 0 0 
z
" style="fill: #ffffff"/>
  </g>
  <g id="axes_1">
   <g id="patch_2">
    <path d="M 57.927667 205.857032 
L 286.56 205.857032 
L 286.56 7.2 
L 57.927667 7.2 
z
" style="fill: #ffffff"/>
   </g>
   <g id="matplotlib.axis_1">
    <g id="xtick_1">
     <g id="line2d_1">
      <defs>
       <path id="m588f931b7f" d="M 0 0 
L 0 6 
" style="stroke: #000000; stroke-width: 1.5"/>
      </defs>
      <g>
       <use xlink:href="#m588f931b7f" x="83.166301" y="205.857032" style="stroke: #000000; stroke-width: 1.5"/>
      </g>
     </g>
     <g id="text_1">
      <!-- $\mathdefault{0.4}$ -->
      <g transform="translate(72.50327 227.810332) scale(0.18 -0.18)">
       <defs>
        <path id="CMR17-32" d="M 2688 2038 
C 2688 2430 2681 3099 2412 3613 
C 2176 4063 1798 4224 1465 4224 
C 1158 4224 768 4082 524 3620 
C 268 3137 243 2539 243 2038 
C 243 1671 249 1112 448 623 
C 723 -39 1216 -128 1465 -128 
C 1760 -128 2208 -7 2470 604 
C 2662 1048 2688 1568 2688 2038 
z
M 1465 -26 
C 1056 -26 812 328 723 816 
C 652 1196 652 1749 652 2109 
C 652 2604 652 3015 736 3407 
C 857 3954 1216 4121 1465 4121 
C 1728 4121 2067 3947 2188 3420 
C 2272 3054 2278 2623 2278 2109 
C 2278 1691 2278 1176 2201 797 
C 2067 96 1689 -26 1465 -26 
z
" transform="scale(0.015625)"/>
        <path id="CMMI12-3b" d="M 1177 307 
C 1177 492 1024 620 870 620 
C 684 620 556 467 556 313 
C 556 128 710 0 864 0 
C 1049 0 1177 153 1177 307 
z
" transform="scale(0.015625)"/>
        <path id="CMR17-36" d="M 2150 4147 
C 2150 4281 2144 4288 2028 4288 
L 128 1254 
L 128 1088 
L 1779 1088 
L 1779 460 
C 1779 230 1766 166 1318 166 
L 1196 166 
L 1196 0 
C 1401 12 1747 12 1964 12 
C 2182 12 2528 12 2732 0 
L 2732 166 
L 2611 166 
C 2163 166 2150 230 2150 460 
L 2150 1088 
L 2803 1088 
L 2803 1254 
L 2150 1254 
L 2150 4147 
z
M 1798 3723 
L 1798 1254 
L 256 1254 
L 1798 3723 
z
" transform="scale(0.015625)"/>
       </defs>
       <use xlink:href="#CMR17-32" transform="scale(0.996264)"/>
       <use xlink:href="#CMMI12-3b" transform="translate(45.690477 0) scale(0.996264)"/>
       <use xlink:href="#CMR17-36" transform="translate(72.787654 0) scale(0.996264)"/>
      </g>
     </g>
    </g>
    <g id="xtick_2">
     <g id="line2d_2">
      <g>
       <use xlink:href="#m588f931b7f" x="142.551323" y="205.857032" style="stroke: #000000; stroke-width: 1.5"/>
      </g>
     </g>
     <g id="text_2">
      <!-- $\mathdefault{0.6}$ -->
      <g transform="translate(131.888291 227.810332) scale(0.18 -0.18)">
       <defs>
        <path id="CMR17-38" d="M 678 2198 
C 678 3712 1395 4076 1811 4076 
C 1945 4076 2272 4049 2400 3782 
C 2297 3782 2105 3782 2105 3558 
C 2105 3385 2246 3328 2336 3328 
C 2393 3328 2566 3353 2566 3571 
C 2566 3987 2246 4224 1804 4224 
C 1043 4224 243 3411 243 2011 
C 243 257 966 -128 1478 -128 
C 2099 -128 2688 431 2688 1295 
C 2688 2101 2169 2688 1516 2688 
C 1126 2688 838 2430 678 1979 
L 678 2198 
z
M 1478 25 
C 691 25 691 1212 691 1450 
C 691 1914 908 2585 1504 2585 
C 1612 2585 1926 2585 2137 2140 
C 2252 1889 2252 1624 2252 1302 
C 2252 954 2252 696 2118 438 
C 1977 173 1772 25 1478 25 
z
" transform="scale(0.015625)"/>
       </defs>
       <use xlink:href="#CMR17-32" transform="scale(0.996264)"/>
       <use xlink:href="#CMMI12-3b" transform="translate(45.690477 0) scale(0.996264)"/>
       <use xlink:href="#CMR17-38" transform="translate(72.787654 0) scale(0.996264)"/>
      </g>
     </g>
    </g>
    <g id="xtick_3">
     <g id="line2d_3">
      <g>
       <use xlink:href="#m588f931b7f" x="201.936344" y="205.857032" style="stroke: #000000; stroke-width: 1.5"/>
      </g>
     </g>
     <g id="text_3">
      <!-- $\mathdefault{0.8}$ -->
      <g transform="translate(191.273313 227.810332) scale(0.18 -0.18)">
       <defs>
        <path id="CMR17-3a" d="M 1740 2289 
C 2144 2494 2553 2803 2553 3298 
C 2553 3884 1990 4224 1472 4224 
C 889 4224 377 3800 377 3215 
C 377 3054 416 2777 665 2533 
C 729 2469 998 2276 1171 2154 
C 883 2006 211 1652 211 945 
C 211 282 838 -128 1459 -128 
C 2144 -128 2720 366 2720 1022 
C 2720 1607 2329 1877 2073 2051 
L 1740 2289 
z
M 902 2855 
C 851 2887 595 3086 595 3388 
C 595 3781 998 4076 1459 4076 
C 1964 4076 2336 3716 2336 3298 
C 2336 2700 1670 2359 1638 2359 
C 1632 2359 1625 2359 1574 2398 
L 902 2855 
z
M 2080 1536 
C 2176 1466 2483 1253 2483 861 
C 2483 385 2009 25 1472 25 
C 889 25 448 443 448 951 
C 448 1459 838 1884 1280 2083 
L 2080 1536 
z
" transform="scale(0.015625)"/>
       </defs>
       <use xlink:href="#CMR17-32" transform="scale(0.996264)"/>
       <use xlink:href="#CMMI12-3b" transform="translate(45.690477 0) scale(0.996264)"/>
       <use xlink:href="#CMR17-3a" transform="translate(72.787654 0) scale(0.996264)"/>
      </g>
     </g>
    </g>
    <g id="xtick_4">
     <g id="line2d_4">
      <g>
       <use xlink:href="#m588f931b7f" x="261.321366" y="205.857032" style="stroke: #000000; stroke-width: 1.5"/>
      </g>
     </g>
     <g id="text_4">
      <!-- $\mathdefault{1.0}$ -->
      <g transform="translate(250.658334 227.810332) scale(0.18 -0.18)">
       <defs>
        <path id="CMR17-33" d="M 1702 4083 
C 1702 4217 1696 4224 1606 4224 
C 1356 3927 979 3833 620 3820 
C 601 3820 569 3820 563 3808 
C 556 3795 556 3782 556 3648 
C 755 3648 1088 3686 1344 3839 
L 1344 467 
C 1344 243 1331 166 780 166 
L 588 166 
L 588 0 
C 896 6 1216 12 1523 12 
C 1830 12 2150 6 2457 0 
L 2457 166 
L 2265 166 
C 1715 166 1702 236 1702 467 
L 1702 4083 
z
" transform="scale(0.015625)"/>
       </defs>
       <use xlink:href="#CMR17-33" transform="scale(0.996264)"/>
       <use xlink:href="#CMMI12-3b" transform="translate(45.690477 0) scale(0.996264)"/>
       <use xlink:href="#CMR17-32" transform="translate(72.787654 0) scale(0.996264)"/>
      </g>
     </g>
    </g>
    <g id="text_5">
     <!-- Reference force (N) -->
     <g transform="translate(102.66748 246.731816) scale(0.18 -0.18)">
      <defs>
       <path id="CMR17-54" d="M 2508 2156 
C 3116 2278 3629 2689 3629 3203 
C 3629 3806 2950 4352 2054 4352 
L 332 4352 
L 332 4185 
C 774 4185 844 4185 844 3896 
L 844 428 
C 844 140 774 140 332 140 
L 332 -26 
C 518 -13 851 -13 1049 -13 
C 1248 -13 1580 -13 1766 -26 
L 1766 140 
C 1324 140 1254 140 1254 428 
L 1254 2112 
L 2003 2112 
C 2368 2112 2572 1964 2662 1881 
C 2918 1632 2918 1459 2918 1024 
C 2918 595 2918 377 3110 160 
C 3353 -103 3680 -128 3821 -128 
C 4294 -128 4365 403 4365 512 
C 4365 550 4365 595 4307 595 
C 4256 595 4249 556 4249 531 
C 4217 115 4032 -26 3833 -26 
C 3481 -26 3443 377 3405 768 
C 3385 902 3373 998 3360 1139 
C 3321 1459 3270 1926 2508 2156 
z
M 1984 2214 
L 1254 2214 
L 1254 3935 
C 1254 4153 1267 4185 1523 4185 
L 1990 4185 
C 2521 4185 3142 3999 3142 3203 
C 3142 2374 2464 2214 1984 2214 
z
" transform="scale(0.015625)"/>
       <path id="CMR17-67" d="M 2438 1503 
C 2464 1529 2464 1542 2464 1606 
C 2464 2251 2118 2816 1388 2816 
C 710 2816 172 2175 172 1394 
C 172 554 780 -64 1459 -64 
C 2176 -64 2457 619 2457 755 
C 2457 800 2419 800 2406 800 
C 2361 800 2355 787 2329 709 
C 2188 270 1836 51 1504 51 
C 1228 51 953 206 780 490 
C 582 819 582 1200 582 1503 
L 2438 1503 
z
M 588 1600 
C 633 2511 1126 2713 1382 2713 
C 1817 2713 2112 2308 2118 1600 
L 588 1600 
z
" transform="scale(0.015625)"/>
       <path id="CMR17-68" d="M 979 2585 
L 1708 2585 
L 1708 2752 
L 966 2752 
L 966 3539 
C 966 4076 1235 4377 1510 4377 
C 1593 4377 1689 4363 1753 4339 
C 1702 4326 1568 4281 1568 4121 
C 1568 3955 1696 3904 1785 3904 
C 1875 3904 2003 3955 2003 4121 
C 2003 4353 1772 4480 1516 4480 
C 1152 4480 652 4211 652 3526 
L 652 2752 
L 140 2752 
L 140 2585 
L 652 2585 
L 652 441 
C 652 198 627 166 217 166 
L 217 0 
C 371 12 665 12 832 12 
C 1017 12 1344 12 1516 0 
L 1516 166 
C 1056 166 979 166 979 454 
L 979 2585 
z
" transform="scale(0.015625)"/>
       <path id="CMR17-74" d="M 960 1517 
C 960 2134 1222 2713 1702 2713 
C 1747 2713 1792 2707 1836 2687 
C 1836 2687 1696 2642 1696 2475 
C 1696 2321 1817 2257 1913 2257 
C 1990 2257 2131 2302 2131 2482 
C 2131 2687 1926 2816 1708 2816 
C 1222 2816 1011 2340 947 2115 
L 940 2115 
L 940 2816 
L 198 2745 
L 198 2578 
C 576 2578 633 2540 633 2231 
L 633 443 
C 633 198 608 166 198 166 
L 198 0 
C 352 12 646 12 812 12 
C 998 12 1324 12 1497 0 
L 1497 166 
C 1036 166 960 166 960 455 
L 960 1517 
z
" transform="scale(0.015625)"/>
       <path id="CMR17-70" d="M 2656 1954 
C 2656 2282 2592 2816 1836 2816 
C 1331 2816 1068 2424 972 2166 
L 966 2166 
L 966 2816 
L 211 2745 
L 211 2578 
C 588 2578 646 2540 646 2231 
L 646 443 
C 646 198 620 166 211 166 
L 211 0 
C 364 12 646 12 812 12 
C 979 12 1267 12 1420 0 
L 1420 166 
C 1011 166 985 192 985 443 
L 985 1678 
C 985 2269 1344 2713 1792 2713 
C 2265 2713 2316 2289 2316 1980 
L 2316 443 
C 2316 198 2291 166 1881 166 
L 1881 0 
C 2035 12 2316 12 2483 12 
C 2649 12 2937 12 3091 0 
L 3091 166 
C 2681 166 2656 192 2656 443 
L 2656 1954 
z
" transform="scale(0.015625)"/>
       <path id="CMR17-65" d="M 2233 2240 
C 2112 2240 1932 2240 1932 2015 
C 1932 1836 2080 1785 2163 1785 
C 2208 1785 2393 1804 2393 2028 
C 2393 2476 1958 2816 1465 2816 
C 787 2816 211 2201 211 1379 
C 211 521 812 -64 1465 -64 
C 2259 -64 2457 676 2457 747 
C 2457 773 2451 792 2406 792 
C 2361 792 2355 786 2329 702 
C 2163 180 1798 51 1523 51 
C 1113 51 620 431 620 1385 
C 620 2358 1094 2700 1472 2700 
C 1721 2700 2092 2582 2233 2240 
z
" transform="scale(0.015625)"/>
       <path id="CMR17-71" d="M 2758 1356 
C 2758 2176 2163 2816 1465 2816 
C 768 2816 172 2176 172 1356 
C 172 550 768 -64 1465 -64 
C 2163 -64 2758 550 2758 1356 
z
M 1465 51 
C 1164 51 908 230 761 480 
C 601 768 582 1126 582 1408 
C 582 1676 595 2009 761 2297 
C 889 2508 1139 2713 1465 2713 
C 1753 2713 1996 2553 2150 2329 
C 2348 2028 2348 1606 2348 1408 
C 2348 1158 2336 774 2163 467 
C 1984 172 1708 51 1465 51 
z
" transform="scale(0.015625)"/>
       <path id="CMR17-29" d="M 1958 -1562 
C 1958 -1556 1958 -1543 1939 -1524 
C 1644 -1223 857 -403 857 1596 
C 857 3595 1632 4408 1945 4729 
C 1945 4735 1958 4748 1958 4767 
C 1958 4787 1939 4800 1913 4800 
C 1843 4800 1299 4325 985 3620 
C 665 2909 576 2218 576 1603 
C 576 1141 620 360 1004 -467 
C 1312 -1133 1836 -1600 1913 -1600 
C 1945 -1600 1958 -1588 1958 -1562 
z
" transform="scale(0.015625)"/>
       <path id="CMR17-50" d="M 1312 4275 
C 1267 4345 1260 4352 1139 4352 
L 326 4352 
L 326 4185 
L 448 4185 
C 704 4185 819 4153 838 4147 
L 838 624 
C 838 465 838 166 326 166 
L 326 0 
C 473 12 742 12 902 12 
C 1062 12 1331 12 1478 0 
L 1478 166 
C 966 166 966 465 966 624 
L 966 4057 
C 1011 4019 1011 4007 1056 3943 
L 3430 76 
C 3475 0 3494 0 3526 0 
C 3590 0 3590 19 3590 140 
L 3590 3726 
C 3590 3885 3590 4185 4102 4185 
L 4102 4352 
C 3955 4339 3686 4339 3526 4339 
C 3366 4339 3097 4339 2950 4352 
L 2950 4185 
C 3462 4185 3462 3885 3462 3726 
L 3462 777 
L 1312 4275 
z
" transform="scale(0.015625)"/>
       <path id="CMR17-2a" d="M 1683 1596 
C 1683 2057 1638 2839 1254 3665 
C 947 4332 422 4800 345 4800 
C 326 4800 300 4793 300 4761 
C 300 4748 307 4742 313 4729 
C 620 4408 1401 3595 1401 1603 
C 1401 -396 627 -1210 313 -1530 
C 307 -1543 300 -1549 300 -1562 
C 300 -1594 326 -1600 345 -1600 
C 416 -1600 960 -1127 1273 -422 
C 1593 289 1683 981 1683 1596 
z
" transform="scale(0.015625)"/>
      </defs>
      <use xlink:href="#CMR17-54" transform="scale(0.996264)"/>
      <use xlink:href="#CMR17-67" transform="translate(67.791102 0) scale(0.996264)"/>
      <use xlink:href="#CMR17-68" transform="translate(108.276762 0) scale(0.996264)"/>
      <use xlink:href="#CMR17-67" transform="translate(135.750275 0) scale(0.996264)"/>
      <use xlink:href="#CMR17-74" transform="translate(176.235935 0) scale(0.996264)"/>
      <use xlink:href="#CMR17-67" transform="translate(211.516703 0) scale(0.996264)"/>
      <use xlink:href="#CMR17-70" transform="translate(252.002364 0) scale(0.996264)"/>
      <use xlink:href="#CMR17-65" transform="translate(302.897733 0) scale(0.996264)"/>
      <use xlink:href="#CMR17-67" transform="translate(343.383394 0) scale(0.996264)"/>
      <use xlink:href="#CMR17-68" transform="translate(413.945021 0) scale(0.996264)"/>
      <use xlink:href="#CMR17-71" transform="translate(441.418533 0) scale(0.996264)"/>
      <use xlink:href="#CMR17-74" transform="translate(487.10901 0) scale(0.996264)"/>
      <use xlink:href="#CMR17-65" transform="translate(522.389778 0) scale(0.996264)"/>
      <use xlink:href="#CMR17-67" transform="translate(562.875438 0) scale(0.996264)"/>
      <use xlink:href="#CMR17-29" transform="translate(633.437065 0) scale(0.996264)"/>
      <use xlink:href="#CMR17-50" transform="translate(668.717833 0) scale(0.996264)"/>
      <use xlink:href="#CMR17-2a" transform="translate(737.790263 0) scale(0.996264)"/>
     </g>
    </g>
   </g>
   <g id="matplotlib.axis_2">
    <g id="ytick_1">
     <g id="line2d_5">
      <defs>
       <path id="m7c811e432c" d="M 0 0 
L -6 0 
" style="stroke: #000000; stroke-width: 1.5"/>
      </defs>
      <g>
       <use xlink:href="#m7c811e432c" x="57.927667" y="183.92736" style="stroke: #000000; stroke-width: 1.5"/>
      </g>
     </g>
     <g id="text_6">
      <!-- $\mathdefault{0.4}$ -->
      <g transform="translate(27.101604 190.15401) scale(0.18 -0.18)">
       <use xlink:href="#CMR17-32" transform="scale(0.996264)"/>
       <use xlink:href="#CMMI12-3b" transform="translate(45.690477 0) scale(0.996264)"/>
       <use xlink:href="#CMR17-36" transform="translate(72.787654 0) scale(0.996264)"/>
      </g>
     </g>
    </g>
    <g id="ytick_2">
     <g id="line2d_6">
      <g>
       <use xlink:href="#m7c811e432c" x="57.927667" y="132.328131" style="stroke: #000000; stroke-width: 1.5"/>
      </g>
     </g>
     <g id="text_7">
      <!-- $\mathdefault{0.6}$ -->
      <g transform="translate(27.101604 138.554781) scale(0.18 -0.18)">
       <use xlink:href="#CMR17-32" transform="scale(0.996264)"/>
       <use xlink:href="#CMMI12-3b" transform="translate(45.690477 0) scale(0.996264)"/>
       <use xlink:href="#CMR17-38" transform="translate(72.787654 0) scale(0.996264)"/>
      </g>
     </g>
    </g>
    <g id="ytick_3">
     <g id="line2d_7">
      <g>
       <use xlink:href="#m7c811e432c" x="57.927667" y="80.728901" style="stroke: #000000; stroke-width: 1.5"/>
      </g>
     </g>
     <g id="text_8">
      <!-- $\mathdefault{0.8}$ -->
      <g transform="translate(27.101604 86.955552) scale(0.18 -0.18)">
       <use xlink:href="#CMR17-32" transform="scale(0.996264)"/>
       <use xlink:href="#CMMI12-3b" transform="translate(45.690477 0) scale(0.996264)"/>
       <use xlink:href="#CMR17-3a" transform="translate(72.787654 0) scale(0.996264)"/>
      </g>
     </g>
    </g>
    <g id="ytick_4">
     <g id="line2d_8">
      <g>
       <use xlink:href="#m7c811e432c" x="57.927667" y="29.129672" style="stroke: #000000; stroke-width: 1.5"/>
      </g>
     </g>
     <g id="text_9">
      <!-- $\mathdefault{1.0}$ -->
      <g transform="translate(27.101604 35.356322) scale(0.18 -0.18)">
       <use xlink:href="#CMR17-33" transform="scale(0.996264)"/>
       <use xlink:href="#CMMI12-3b" transform="translate(45.690477 0) scale(0.996264)"/>
       <use xlink:href="#CMR17-32" transform="translate(72.787654 0) scale(0.996264)"/>
      </g>
     </g>
    </g>
    <g id="text_10">
     <!-- Mean normal force (N) -->
     <g transform="translate(20.63342 189.363051) rotate(-90) scale(0.18 -0.18)">
      <defs>
       <path id="CMR17-4f" d="M 1337 4249 
C 1299 4345 1292 4352 1158 4352 
L 339 4352 
L 339 4185 
C 780 4185 851 4185 851 3898 
L 851 624 
C 851 465 851 166 339 166 
L 339 0 
C 486 12 755 12 915 12 
C 1075 12 1344 12 1491 0 
L 1491 166 
C 979 166 979 465 979 624 
L 979 4159 
L 985 4159 
L 2489 102 
C 2515 38 2528 0 2579 0 
C 2630 0 2643 38 2668 102 
L 4185 4191 
L 4192 4191 
L 4192 453 
C 4192 166 4121 166 3680 166 
L 3680 0 
C 3853 12 4198 12 4384 12 
C 4569 12 4921 12 5094 0 
L 5094 166 
C 4653 166 4582 166 4582 453 
L 4582 3898 
C 4582 4185 4653 4185 5094 4185 
L 5094 4352 
L 4281 4352 
C 4147 4352 4141 4345 4102 4249 
L 2720 516 
L 1337 4249 
z
" transform="scale(0.015625)"/>
       <path id="CMR17-63" d="M 2304 1656 
C 2304 2048 2304 2275 2035 2534 
C 1798 2751 1523 2816 1305 2816 
C 800 2816 435 2408 435 1977 
C 435 1740 627 1728 665 1728 
C 748 1728 896 1779 896 1958 
C 896 2118 774 2188 665 2188 
C 640 2188 608 2182 588 2176 
C 723 2594 1068 2713 1292 2713 
C 1612 2713 1964 2421 1964 1875 
L 1964 1632 
C 1587 1619 1132 1568 774 1373 
C 371 1147 256 822 256 576 
C 256 77 832 -64 1171 -64 
C 1523 -64 1849 135 1990 505 
C 2003 219 2182 -39 2464 -39 
C 2598 -39 2937 51 2937 563 
L 2937 926 
L 2822 926 
L 2822 557 
C 2822 161 2649 109 2566 109 
C 2304 109 2304 446 2304 732 
L 2304 1656 
z
M 1964 887 
C 1964 323 1568 38 1216 38 
C 896 38 646 278 646 576 
C 646 771 729 1114 1100 1322 
C 1408 1497 1760 1523 1964 1536 
L 1964 887 
z
" transform="scale(0.015625)"/>
       <path id="CMR17-6f" d="M 4326 1954 
C 4326 2276 4269 2816 3507 2816 
C 3072 2816 2771 2520 2656 2173 
L 2649 2173 
C 2572 2700 2195 2816 1836 2816 
C 1331 2816 1068 2424 972 2166 
L 966 2166 
L 966 2816 
L 211 2745 
L 211 2578 
C 588 2578 646 2540 646 2231 
L 646 443 
C 646 198 620 166 211 166 
L 211 0 
C 364 12 646 12 812 12 
C 979 12 1267 12 1420 0 
L 1420 166 
C 1011 166 985 192 985 443 
L 985 1678 
C 985 2269 1344 2713 1792 2713 
C 2265 2713 2316 2289 2316 1980 
L 2316 443 
C 2316 198 2291 166 1881 166 
L 1881 0 
C 2035 12 2316 12 2483 12 
C 2649 12 2937 12 3091 0 
L 3091 166 
C 2681 166 2656 192 2656 443 
L 2656 1678 
C 2656 2269 3014 2713 3462 2713 
C 3936 2713 3987 2289 3987 1980 
L 3987 443 
C 3987 198 3961 166 3552 166 
L 3552 0 
C 3705 12 3987 12 4153 12 
C 4320 12 4608 12 4761 0 
L 4761 166 
C 4352 166 4326 192 4326 443 
L 4326 1954 
z
" transform="scale(0.015625)"/>
       <path id="CMR17-6e" d="M 979 4416 
L 217 4345 
L 217 4179 
C 595 4179 652 4141 652 3835 
L 652 439 
C 652 198 627 166 217 166 
L 217 0 
C 371 12 652 12 812 12 
C 979 12 1260 12 1414 0 
L 1414 166 
C 1004 166 979 191 979 439 
L 979 4416 
z
" transform="scale(0.015625)"/>
      </defs>
      <use xlink:href="#CMR17-4f" transform="scale(0.996264)"/>
      <use xlink:href="#CMR17-67" transform="translate(84.686941 0) scale(0.996264)"/>
      <use xlink:href="#CMR17-63" transform="translate(125.172601 0) scale(0.996264)"/>
      <use xlink:href="#CMR17-70" transform="translate(170.863078 0) scale(0.996264)"/>
      <use xlink:href="#CMR17-70" transform="translate(251.834414 0) scale(0.996264)"/>
      <use xlink:href="#CMR17-71" transform="translate(302.729784 0) scale(0.996264)"/>
      <use xlink:href="#CMR17-74" transform="translate(348.420261 0) scale(0.996264)"/>
      <use xlink:href="#CMR17-6f" transform="translate(383.701029 0) scale(0.996264)"/>
      <use xlink:href="#CMR17-63" transform="translate(460.620619 0) scale(0.996264)"/>
      <use xlink:href="#CMR17-6e" transform="translate(506.311096 0) scale(0.996264)"/>
      <use xlink:href="#CMR17-68" transform="translate(561.258121 0) scale(0.996264)"/>
      <use xlink:href="#CMR17-71" transform="translate(588.731633 0) scale(0.996264)"/>
      <use xlink:href="#CMR17-74" transform="translate(634.42211 0) scale(0.996264)"/>
      <use xlink:href="#CMR17-65" transform="translate(669.702878 0) scale(0.996264)"/>
      <use xlink:href="#CMR17-67" transform="translate(710.188539 0) scale(0.996264)"/>
      <use xlink:href="#CMR17-29" transform="translate(780.750165 0) scale(0.996264)"/>
      <use xlink:href="#CMR17-50" transform="translate(816.030933 0) scale(0.996264)"/>
      <use xlink:href="#CMR17-2a" transform="translate(885.103363 0) scale(0.996264)"/>
     </g>
    </g>
   </g>
   <g id="line2d_9">
    <path d="M 68.320046 196.827167 
L 276.167621 16.229865 
" clip-path="url(#p92a14a21a6)" style="fill: none; stroke-dasharray: 3.7,1.6; stroke-dashoffset: 0; stroke: #000000"/>
   </g>
   <g id="LineCollection_1">
    <path d="M 83.166301 192.767577 
L 83.166301 168.739152 
" clip-path="url(#p92a14a21a6)" style="fill: none; stroke: #006051; stroke-width: 1.5"/>
    <path d="M 172.243834 133.946131 
L 172.243834 114.513716 
" clip-path="url(#p92a14a21a6)" style="fill: none; stroke: #006051; stroke-width: 1.5"/>
    <path d="M 261.321366 77.473602 
L 261.321366 60.601503 
" clip-path="url(#p92a14a21a6)" style="fill: none; stroke: #006051; stroke-width: 1.5"/>
   </g>
   <g id="line2d_10">
    <defs>
     <path id="m12380b0e25" d="M 4 0 
L -4 -0 
" style="stroke: #006051"/>
    </defs>
    <g clip-path="url(#p92a14a21a6)">
     <use xlink:href="#m12380b0e25" x="83.166301" y="192.767577" style="fill: #006051; stroke: #006051"/>
     <use xlink:href="#m12380b0e25" x="172.243834" y="133.946131" style="fill: #006051; stroke: #006051"/>
     <use xlink:href="#m12380b0e25" x="261.321366" y="77.473602" style="fill: #006051; stroke: #006051"/>
    </g>
   </g>
   <g id="line2d_11">
    <g clip-path="url(#p92a14a21a6)">
     <use xlink:href="#m12380b0e25" x="83.166301" y="168.739152" style="fill: #006051; stroke: #006051"/>
     <use xlink:href="#m12380b0e25" x="172.243834" y="114.513716" style="fill: #006051; stroke: #006051"/>
     <use xlink:href="#m12380b0e25" x="261.321366" y="60.601503" style="fill: #006051; stroke: #006051"/>
    </g>
   </g>
   <g id="line2d_12">
    <defs>
     <path id="mb7da556cd0" d="M 0 3 
C 0.795609 3 1.55874 2.683901 2.12132 2.12132 
C 2.683901 1.55874 3 0.795609 3 0 
C 3 -0.795609 2.683901 -1.55874 2.12132 -2.12132 
C 1.55874 -2.683901 0.795609 -3 0 -3 
C -0.795609 -3 -1.55874 -2.683901 -2.12132 -2.12132 
C -2.683901 -1.55874 -3 -0.795609 -3 0 
C -3 0.795609 -2.683901 1.55874 -2.12132 2.12132 
C -1.55874 2.683901 -0.795609 3 0 3 
z
" style="stroke: #006051"/>
    </defs>
    <g clip-path="url(#p92a14a21a6)">
     <use xlink:href="#mb7da556cd0" x="83.166301" y="180.753364" style="fill: #006051; stroke: #006051"/>
     <use xlink:href="#mb7da556cd0" x="172.243834" y="124.229924" style="fill: #006051; stroke: #006051"/>
     <use xlink:href="#mb7da556cd0" x="261.321366" y="69.037553" style="fill: #006051; stroke: #006051"/>
    </g>
   </g>
   <g id="patch_3">
    <path d="M 57.927667 205.857032 
L 57.927667 7.2 
" style="fill: none; stroke: #000000; stroke-width: 1.5; stroke-linejoin: miter; stroke-linecap: square"/>
   </g>
   <g id="patch_4">
    <path d="M 286.56 205.857032 
L 286.56 7.2 
" style="fill: none; stroke: #000000; stroke-width: 1.5; stroke-linejoin: miter; stroke-linecap: square"/>
   </g>
   <g id="patch_5">
    <path d="M 57.927667 205.857032 
L 286.56 205.857032 
" style="fill: none; stroke: #000000; stroke-width: 1.5; stroke-linejoin: miter; stroke-linecap: square"/>
   </g>
   <g id="patch_6">
    <path d="M 57.927667 7.2 
L 286.56 7.2 
" style="fill: none; stroke: #000000; stroke-width: 1.5; stroke-linejoin: miter; stroke-linecap: square"/>
   </g>
   <g id="legend_1">
    <g id="line2d_13">
     <path d="M 66.027667 20.025 
L 79.527667 20.025 
L 93.027667 20.025 
" style="fill: none; stroke-dasharray: 3.7,1.6; stroke-dashoffset: 0; stroke: #000000"/>
    </g>
    <g id="text_11">
     <!-- Ideal -->
     <g transform="translate(103.827667 24.75) scale(0.135 -0.135)">
      <defs>
       <path id="CMR17-4b" d="M 1260 3898 
C 1260 4185 1337 4185 1798 4185 
L 1798 4352 
C 1593 4339 1267 4339 1049 4339 
C 832 4339 505 4339 300 4352 
L 300 4185 
C 761 4185 838 4185 838 3898 
L 838 453 
C 838 166 761 166 300 166 
L 300 0 
C 505 12 832 12 1049 12 
C 1267 12 1593 12 1798 0 
L 1798 166 
C 1337 166 1260 166 1260 453 
L 1260 3898 
z
" transform="scale(0.015625)"/>
       <path id="CMR17-66" d="M 1868 4345 
L 1868 4179 
C 2246 4179 2304 4141 2304 3843 
L 2304 2371 
C 2278 2403 2016 2816 1497 2816 
C 844 2816 211 2228 211 1376 
C 211 529 806 -64 1433 -64 
C 1977 -64 2259 361 2291 406 
L 2291 -64 
L 3065 -13 
L 3065 154 
C 2688 154 2630 193 2630 503 
L 2630 4416 
L 1868 4345 
z
M 2291 762 
C 2291 568 2176 393 2028 264 
C 1811 70 1593 38 1472 38 
C 1286 38 620 135 620 1369 
C 620 2636 1363 2713 1529 2713 
C 1824 2713 2060 2545 2208 2313 
C 2291 2177 2291 2157 2291 2041 
L 2291 762 
z
" transform="scale(0.015625)"/>
      </defs>
      <use xlink:href="#CMR17-4b" transform="scale(0.996264)"/>
      <use xlink:href="#CMR17-66" transform="translate(32.638409 0) scale(0.996264)"/>
      <use xlink:href="#CMR17-67" transform="translate(83.533779 0) scale(0.996264)"/>
      <use xlink:href="#CMR17-63" transform="translate(124.019439 0) scale(0.996264)"/>
      <use xlink:href="#CMR17-6e" transform="translate(169.709917 0) scale(0.996264)"/>
     </g>
    </g>
    <g id="LineCollection_2">
     <path d="M 79.527667 47.136402 
L 79.527667 33.636402 
" style="fill: none; stroke: #006051; stroke-width: 1.5"/>
    </g>
    <g id="line2d_14">
     <g>
      <use xlink:href="#m12380b0e25" x="79.527667" y="47.136402" style="fill: #006051; stroke: #006051"/>
     </g>
    </g>
    <g id="line2d_15">
     <g>
      <use xlink:href="#m12380b0e25" x="79.527667" y="33.636402" style="fill: #006051; stroke: #006051"/>
     </g>
    </g>
    <g id="line2d_16"/>
    <g id="line2d_17">
     <g>
      <use xlink:href="#mb7da556cd0" x="79.527667" y="40.386402" style="fill: #006051; stroke: #006051"/>
     </g>
    </g>
    <g id="text_12">
     <!-- $\bar{F}_n$ ± std -->
     <g transform="translate(103.827667 45.111402) scale(0.135 -0.135)">
      <defs>
       <path id="CMR17-17" d="M 2553 3520 
L 2553 3667 
L 377 3667 
L 377 3520 
L 2553 3520 
z
" transform="scale(0.015625)"/>
       <path id="CMMI12-47" d="M 1900 2054 
L 2515 2054 
C 3001 2054 3040 1947 3040 1764 
C 3040 1683 3027 1595 2995 1456 
C 2982 1431 2976 1399 2976 1387 
C 2976 1343 3001 1318 3046 1318 
C 3097 1318 3104 1343 3129 1444 
L 3501 2929 
C 3501 2955 3481 2993 3437 2993 
C 3379 2993 3373 2968 3347 2858 
C 3212 2375 3084 2240 2528 2240 
L 1945 2240 
L 2361 3908 
C 2419 4134 2432 4153 2694 4153 
L 3552 4153 
C 4352 4153 4467 3915 4467 3457 
C 4467 3419 4467 3277 4448 3109 
C 4441 3084 4429 3000 4429 2974 
C 4429 2922 4461 2903 4499 2903 
C 4544 2903 4569 2929 4582 3045 
L 4717 4172 
C 4717 4191 4729 4255 4729 4268 
C 4729 4339 4672 4339 4557 4339 
L 1523 4339 
C 1401 4339 1337 4339 1337 4223 
C 1337 4153 1382 4153 1491 4153 
C 1888 4153 1888 4108 1888 4037 
C 1888 4005 1881 3979 1862 3908 
L 998 468 
C 940 248 928 185 480 185 
C 358 185 294 185 294 70 
C 294 0 352 0 390 0 
C 512 0 640 12 761 12 
L 1593 12 
C 1734 12 1888 0 2028 0 
C 2086 0 2163 0 2163 115 
C 2163 185 2124 185 1984 185 
C 1478 185 1465 229 1465 324 
C 1465 355 1478 405 1491 449 
L 1900 2054 
z
" transform="scale(0.015625)"/>
       <path id="CMMI12-6f" d="M 1318 1870 
C 1331 1909 1491 2228 1728 2432 
C 1894 2585 2112 2687 2361 2687 
C 2617 2687 2707 2496 2707 2241 
C 2707 1877 2444 1149 2316 804 
C 2259 651 2227 568 2227 453 
C 2227 166 2425 -64 2732 -64 
C 3328 -64 3552 874 3552 913 
C 3552 945 3526 970 3488 970 
C 3430 970 3424 951 3392 842 
C 3244 319 3001 64 2752 64 
C 2688 64 2585 70 2585 274 
C 2585 434 2656 625 2694 715 
C 2822 1066 3091 1781 3091 2145 
C 3091 2528 2867 2816 2380 2816 
C 1811 2816 1510 2413 1395 2253 
C 1376 2617 1113 2816 832 2816 
C 627 2816 486 2694 377 2477 
C 262 2247 172 1864 172 1838 
C 172 1813 198 1781 243 1781 
C 294 1781 300 1787 339 1934 
C 441 2324 556 2687 812 2687 
C 960 2687 1011 2585 1011 2394 
C 1011 2253 947 2004 902 1807 
L 723 1117 
C 697 996 627 708 595 593 
C 550 427 480 127 480 95 
C 480 6 550 -64 646 -64 
C 723 -64 812 -26 864 70 
C 876 102 934 325 966 453 
L 1107 1028 
L 1318 1870 
z
" transform="scale(0.015625)"/>
       <path id="SFRM1728-1a8" d="M 2227 2208 
L 486 2208 
C 409 2208 332 2182 332 2099 
C 332 2016 409 1984 480 1984 
L 2227 1984 
L 2227 320 
L 454 320 
C 377 320 332 268 332 204 
C 332 121 416 95 480 95 
L 4057 95 
C 4089 70 4134 64 4179 64 
C 4262 64 4339 96 4339 186 
C 4339 275 4288 320 4211 320 
L 2451 320 
L 2451 1984 
L 4185 1984 
C 4256 1984 4339 2009 4339 2099 
C 4339 2182 4256 2208 4185 2208 
L 2451 2208 
L 2451 3936 
C 2451 4006 2425 4096 2336 4096 
C 2284 4096 2240 4057 2227 4006 
L 2227 2208 
z
" transform="scale(0.015625)"/>
       <path id="CMR17-75" d="M 1977 2688 
C 1977 2803 1971 2809 1932 2809 
C 1907 2809 1900 2803 1824 2707 
C 1804 2681 1747 2617 1728 2592 
C 1523 2809 1235 2816 1126 2816 
C 416 2816 160 2444 160 2073 
C 160 1497 812 1363 998 1324 
C 1401 1241 1542 1216 1676 1100 
C 1760 1024 1900 883 1900 652 
C 1900 384 1747 38 1158 38 
C 601 38 403 460 288 1024 
C 268 1113 268 1120 217 1120 
C 166 1120 160 1113 160 985 
L 160 64 
C 160 -52 166 -58 204 -58 
C 236 -58 243 -52 275 0 
C 313 57 409 211 448 275 
C 576 102 800 -64 1158 -64 
C 1792 -64 2131 281 2131 780 
C 2131 1107 1958 1280 1875 1356 
C 1683 1555 1459 1600 1190 1651 
C 838 1728 390 1817 390 2208 
C 390 2374 480 2726 1126 2726 
C 1811 2726 1849 2086 1862 1881 
C 1868 1849 1900 1843 1920 1843 
C 1977 1843 1977 1862 1977 1971 
L 1977 2688 
z
" transform="scale(0.015625)"/>
       <path id="CMR17-76" d="M 966 2585 
L 1862 2585 
L 1862 2752 
L 966 2752 
L 966 3968 
L 851 3968 
C 838 3292 614 2700 70 2687 
L 70 2585 
L 627 2585 
L 627 778 
C 627 655 627 -64 1369 -64 
C 1747 -64 1964 308 1964 784 
L 1964 1151 
L 1849 1151 
L 1849 790 
C 1849 347 1676 51 1408 51 
C 1222 51 966 179 966 765 
L 966 2585 
z
" transform="scale(0.015625)"/>
      </defs>
      <use xlink:href="#CMR17-17" transform="translate(23.632311 25.189733) scale(0.996264)"/>
      <use xlink:href="#CMMI12-47" transform="scale(0.996264)"/>
      <use xlink:href="#CMMI12-6f" transform="translate(63.148204 -14.943915) scale(0.697382)"/>
      <use xlink:href="#SFRM1728-1a8" transform="translate(134.483145 0) scale(0.996264)"/>
      <use xlink:href="#CMR17-75" transform="translate(237.377732 0) scale(0.996264)"/>
      <use xlink:href="#CMR17-76" transform="translate(273.17907 0) scale(0.996264)"/>
      <use xlink:href="#CMR17-66" transform="translate(308.459837 0) scale(0.996264)"/>
     </g>
    </g>
   </g>
  </g>
 </g>
 <defs>
  <clipPath id="p92a14a21a6">
   <rect x="57.927667" y="7.2" width="228.632333" height="198.657032"/>
  </clipPath>
 </defs>
</svg>
