<?xml version="1.0" encoding="utf-8" standalone="no"?>
<!DOCTYPE svg PUBLIC "-//W3C//DTD SVG 1.1//EN"
  "http://www.w3.org/Graphics/SVG/1.1/DTD/svg11.dtd">
<svg xmlns:xlink="http://www.w3.org/1999/xlink" width="458.260517pt" height="233.560569pt" viewBox="0 0 458.260517 233.560569" xmlns="http://www.w3.org/2000/svg" version="1.1">
 <metadata>
  <rdf:RDF xmlns:dc="http://purl.org/dc/elements/1.1/" xmlns:cc="http://creativecommons.org/ns#" xmlns:rdf="http://www.w3.org/1999/02/22-rdf-syntax-ns#">
   <cc:Work>
    <dc:type rdf:resource="http://purl.org/dc/dcmitype/StillImage"/>
    <dc:date>2026-07-05T21:20:42.062777</dc:date>
    <dc:format>image/svg+xml</dc:format>
    <dc:creator>
     <cc:Agent>
      <dc:title>Matplotlib v3.11.0, https://matplotlib.org/</dc:title>
     </cc:Agent>
    </dc:creator>
   </cc:Work>
  </rdf:RDF>
 </metadata>
 <defs>
  <style type="text/css">*{stroke-linejoin: round; stroke-linecap: butt}</style>
 </defs>
 <g id="figure_1">
  <g id="patch_1">
   <path d="M 0 233.560569 
L 458.260517 233.560569 
L 458.260517 -0 
L 0 -0 
z
" style="fill: #ffffff"/>
  </g>
  <g id="axes_1">
   <g id="patch_2">
    <path d="M 247.028567 118.54035 
C 247.028567 106.987354 244.752879 95.546697 240.331739 84.873122 
C 235.910599 74.199546 229.429987 64.500625 221.260786 56.331424 
C 213.091585 48.162223 203.392664 41.681611 192.719088 37.260471 
C 182.045513 32.839332 170.604856 30.563643 159.051861 30.563643 
C 147.498865 30.563643 136.058208 32.839332 125.384633 37.260471 
C 114.711057 41.681611 105.012136 48.162223 96.842935 56.331424 
C 88.673734 64.500625 82.193122 74.199546 77.771982 84.873122 
C 73.350843 95.546697 71.075154 106.987354 71.075154 118.54035 
C 71.075154 130.093345 73.350843 141.534002 77.771982 152.207577 
C 82.193122 162.881153 88.673734 172.580074 96.842935 180.749275 
C 105.012136 188.918476 114.711057 195.399088 125.384633 199.820228 
C 136.058208 204.241368 147.498865 206.517056 159.051861 206.517056 
C 170.604856 206.517056 182.045513 204.241368 192.719088 199.820228 
C 203.392664 195.399088 213.091585 188.918476 221.260786 180.749275 
C 229.429987 172.580074 235.910599 162.881153 240.331739 152.207577 
C 244.752879 141.534002 247.028567 130.093345 247.028567 118.54035 
M 159.051861 118.54035 
C 159.051861 118.54035 159.051861 118.54035 159.051861 118.54035 
C 159.051861 118.54035 159.051861 118.54035 159.051861 118.54035 
C 159.051861 118.54035 159.051861 118.54035 159.051861 118.54035 
C 159.051861 118.54035 159.051861 118.54035 159.051861 118.54035 
C 159.051861 118.54035 159.051861 118.54035 159.051861 118.54035 
C 159.051861 118.54035 159.051861 118.54035 159.051861 118.54035 
C 159.051861 118.54035 159.051861 118.54035 159.051861 118.54035 
C 159.051861 118.54035 159.051861 118.54035 159.051861 118.54035 
C 159.051861 118.54035 159.051861 118.54035 159.051861 118.54035 
C 159.051861 118.54035 159.051861 118.54035 159.051861 118.54035 
C 159.051861 118.54035 159.051861 118.54035 159.051861 118.54035 
C 159.051861 118.54035 159.051861 118.54035 159.051861 118.54035 
C 159.051861 118.54035 159.051861 118.54035 159.051861 118.54035 
C 159.051861 118.54035 159.051861 118.54035 159.051861 118.54035 
C 159.051861 118.54035 159.051861 118.54035 159.051861 118.54035 
C 159.051861 118.54035 159.051861 118.54035 159.051861 118.54035 
z
" style="fill: #ffffff"/>
   </g>
   <g id="patch_3">
    <path d="M 159.051861 118.54035 
L 245.530596 134.706027 
L 245.817959 133.084938 
L 246.074936 131.458756 
L 246.301437 129.828049 
L 246.497384 128.19339 
L 246.662708 126.55535 
L 246.79735 124.914504 
L 246.901264 123.271425 
L 246.974414 121.626689 
L 247.016772 119.980873 
L 247.028326 118.334552 
L 247.00907 116.688303 
L 246.959012 115.042702 
L 246.878169 113.398327 
L 246.766569 111.755752 
L 246.624251 110.115553 
L 246.451266 108.478305 
L 246.247674 106.84458 
L 246.013545 105.214951 
L 245.748963 103.589989 
L 245.454019 101.970262 
L 245.128818 100.356339 
L 244.773472 98.748783 
L 244.388107 97.148158 
L 243.972857 95.555025 
L 243.527868 93.969941 
L 243.053295 92.393461 
L 242.549306 90.826139 
L 242.016075 89.268521 
L 241.453791 87.721155 
L 240.862649 86.184582 
L 240.242857 84.659339 
L 239.594633 83.145962 
L 238.918202 81.64498 
L 238.213802 80.156918 
L 237.48168 78.682298 
L 236.722092 77.221637 
L 235.935303 75.775445 
L 235.12159 74.34423 
L 234.281238 72.928492 
L 233.41454 71.528727 
L 232.521801 70.145426 
L 231.603332 68.779072 
L 230.659457 67.430145 
L 229.690504 66.099116 
L 228.696813 64.786453 
L 227.678733 63.492614 
L 226.63662 62.218053 
L 225.570839 60.963215 
L 224.481763 59.728542 
L 223.369773 58.514464 
L 222.235259 57.321407 
L 221.078619 56.149789 
L 219.900257 55.00002 
L 218.700585 53.872502 
L 217.480025 52.767632 
L 216.239003 51.685795 
L 214.977955 50.62737 
L 213.697321 49.592728 
L 212.39755 48.582232 
L 211.079098 47.596235 
L 209.742426 46.635083 
L 208.388002 45.699112 
L 207.016301 44.788649 
L 205.627802 43.904015 
L 204.222993 43.045518 
L 202.802365 42.213459 
L 201.366415 41.40813 
L 199.915647 40.629812 
L 198.450568 39.878779 
L 196.971692 39.155293 
L 195.479537 38.459608 
L 193.974625 37.791966 
L 192.457482 37.152603 
L 190.928641 36.541742 
L 189.388637 35.959596 
L 187.838009 35.40637 
L 186.2773 34.882258 
L 184.707057 34.387443 
L 183.127829 33.922098 
L 159.051861 118.54035 
z
" clip-path="url(#p57d0dd3d40)" style="fill: #edf3ff; opacity: 0.55"/>
   </g>
   <g id="patch_4">
    <path d="M 159.051861 118.54035 
L 183.127829 33.922098 
L 182.731683 33.810385 
L 182.335019 33.700528 
L 181.937845 33.592527 
L 181.54017 33.486386 
L 181.142003 33.382106 
L 180.743352 33.27969 
L 180.344227 33.179141 
L 179.944635 33.08046 
L 179.544587 32.983649 
L 179.144089 32.888711 
L 178.743152 32.795648 
L 178.341784 32.704462 
L 177.939994 32.615154 
L 177.53779 32.527727 
L 177.135182 32.442183 
L 176.732178 32.358523 
L 176.328787 32.27675 
L 175.925017 32.196865 
L 175.520879 32.118869 
L 175.11638 32.042765 
L 174.711529 31.968555 
L 174.306336 31.896239 
L 173.900808 31.82582 
L 173.494956 31.757299 
L 173.088787 31.690678 
L 172.682312 31.625957 
L 172.275538 31.563139 
L 171.868474 31.502224 
L 171.46113 31.443215 
L 171.053514 31.386112 
L 170.645636 31.330917 
L 170.237504 31.27763 
L 169.829127 31.226254 
L 169.420514 31.176788 
L 169.011674 31.129235 
L 168.602617 31.083595 
L 168.19335 31.03987 
L 167.783883 30.998059 
L 167.374225 30.958165 
L 166.964385 30.920188 
L 166.554371 30.884128 
L 166.144194 30.849987 
L 165.733861 30.817766 
L 165.323382 30.787464 
L 164.912765 30.759084 
L 164.50202 30.732624 
L 164.091157 30.708087 
L 163.680182 30.685472 
L 163.269107 30.66478 
L 162.857939 30.646012 
L 162.446688 30.629167 
L 162.035362 30.614247 
L 161.623971 30.601251 
L 161.212524 30.59018 
L 160.80103 30.581034 
L 160.389497 30.573813 
L 159.977935 30.568518 
L 159.566353 30.565148 
L 159.15476 30.563704 
L 158.743164 30.564185 
L 158.331575 30.566592 
L 157.920002 30.570925 
L 157.508453 30.577183 
L 157.096939 30.585366 
L 156.685467 30.595475 
L 156.274047 30.607508 
L 155.862687 30.621466 
L 155.451398 30.637349 
L 155.040187 30.655156 
L 154.629064 30.674886 
L 154.218038 30.696539 
L 153.807118 30.720116 
L 153.396313 30.745614 
L 152.985631 30.773034 
L 152.575082 30.802375 
L 152.164675 30.833637 
L 151.754419 30.866818 
L 151.344322 30.901918 
L 150.934394 30.938936 
L 159.051861 118.54035 
z
" clip-path="url(#p57d0dd3d40)" style="fill: #f1faed; opacity: 0.55"/>
   </g>
   <g id="patch_5">
    <path d="M 159.051861 118.54035 
L 150.934394 30.938936 
L 149.705712 31.061493 
L 148.478872 31.201282 
L 147.254113 31.358276 
L 146.03168 31.532443 
L 144.81181 31.723751 
L 143.594746 31.93216 
L 142.380727 32.157631 
L 141.169992 32.400117 
L 139.96278 32.659573 
L 138.759327 32.935946 
L 137.559873 33.229182 
L 136.364652 33.539224 
L 135.1739 33.86601 
L 133.987851 34.209476 
L 132.806741 34.569554 
L 131.6308 34.946174 
L 130.460261 35.33926 
L 129.295354 35.748737 
L 128.136308 36.174523 
L 126.983353 36.616533 
L 125.836715 37.074682 
L 124.69662 37.548879 
L 123.563293 38.03903 
L 122.436956 38.54504 
L 121.317833 39.066807 
L 120.206142 39.60423 
L 119.102104 40.157202 
L 118.005935 40.725616 
L 116.917852 41.309357 
L 115.838069 41.908313 
L 114.766798 42.522364 
L 113.704252 43.15139 
L 112.650638 43.795267 
L 111.606165 44.453868 
L 110.571038 45.127063 
L 109.545461 45.81472 
L 108.529637 46.516702 
L 107.523765 47.232873 
L 106.528043 47.963091 
L 105.542668 48.707211 
L 104.567834 49.465089 
L 103.603733 50.236573 
L 102.650554 51.021512 
L 101.708486 51.819752 
L 100.777714 52.631135 
L 99.858421 53.455501 
L 98.950788 54.292688 
L 98.054995 55.142532 
L 97.171218 56.004864 
L 96.299631 56.879515 
L 95.440405 57.766313 
L 94.59371 58.665082 
L 93.759712 59.575647 
L 92.938576 60.497827 
L 92.130464 61.43144 
L 91.335535 62.376303 
L 90.553945 63.33223 
L 89.785849 64.299033 
L 89.031397 65.27652 
L 88.290738 66.2645 
L 87.564019 67.262778 
L 86.851382 68.271157 
L 86.152968 69.289438 
L 85.468914 70.317421 
L 84.799355 71.354904 
L 84.144423 72.401682 
L 83.504247 73.457548 
L 82.878954 74.522295 
L 82.268665 75.595714 
L 81.673502 76.677592 
L 81.093582 77.767717 
L 80.529018 78.865873 
L 79.979923 79.971845 
L 79.446404 81.085414 
L 78.928567 82.206362 
L 78.426513 83.334467 
L 77.940341 84.469507 
L 77.470148 85.611259 
L 77.016025 86.759498 
L 159.051861 118.54035 
z
" clip-path="url(#p57d0dd3d40)" style="fill: #fff5ed; opacity: 0.55"/>
   </g>
   <g id="patch_6">
    <path d="M 159.051861 118.54035 
L 77.016025 86.759498 
L 76.578063 87.913997 
L 76.156347 89.074529 
L 75.75096 90.240865 
L 75.361983 91.412777 
L 74.989492 92.590032 
L 74.63356 93.772399 
L 74.294258 94.959645 
L 73.971652 96.151536 
L 73.665806 97.347838 
L 73.37678 98.548314 
L 73.104632 99.752729 
L 72.849414 100.960844 
L 72.611177 102.172423 
L 72.389968 103.387225 
L 72.18583 104.605013 
L 71.998804 105.825546 
L 71.828927 107.048584 
L 71.676232 108.273885 
L 71.540748 109.501209 
L 71.422504 110.730313 
L 71.321521 111.960956 
L 71.237821 113.192895 
L 71.171419 114.425887 
L 71.122328 115.65969 
L 71.090559 116.89406 
L 71.076117 118.128755 
L 71.079006 119.36353 
L 71.099224 120.598144 
L 71.136768 121.832352 
L 71.19163 123.065912 
L 71.2638 124.29858 
L 71.353263 125.530114 
L 71.460002 126.76027 
L 71.583995 127.988808 
L 71.725219 129.215485 
L 71.883645 130.440058 
L 72.059243 131.662288 
L 72.251977 132.881932 
L 72.461809 134.098752 
L 72.688699 135.312506 
L 72.932602 136.522957 
L 73.193469 137.729865 
L 73.47125 138.932993 
L 73.765889 140.132104 
L 74.077328 141.326962 
L 74.405507 142.517331 
L 74.75036 143.702976 
L 75.111819 144.883665 
L 75.489814 146.059165 
L 75.884269 147.229243 
L 76.295108 148.393671 
L 76.722249 149.552217 
L 77.165608 150.704654 
L 77.625098 151.850756 
L 78.100628 152.990295 
L 78.592104 154.123049 
L 79.099431 155.248793 
L 79.622507 156.367305 
L 80.16123 157.478367 
L 80.715493 158.581757 
L 81.285188 159.67726 
L 81.870202 160.76466 
L 82.47042 161.843742 
L 83.085724 162.914293 
L 83.715992 163.976104 
L 84.361101 165.028964 
L 85.020923 166.072666 
L 85.695328 167.107004 
L 86.384184 168.131776 
L 87.087354 169.146779 
L 87.804701 170.151813 
L 88.536083 171.146679 
L 89.281356 172.131183 
L 90.040372 173.10513 
L 90.812983 174.068329 
L 91.599037 175.020589 
L 92.398378 175.961723 
L 93.210849 176.891545 
L 94.03629 177.809873 
L 159.051861 118.54035 
z
" clip-path="url(#p57d0dd3d40)" style="fill: #fff0f5; opacity: 0.55"/>
   </g>
   <g id="patch_7">
    <path d="M 159.051861 118.54035 
L 94.03629 177.809873 
L 94.874539 178.716526 
L 95.725429 179.611324 
L 96.588795 180.494092 
L 97.464465 181.364656 
L 98.352267 182.222844 
L 99.252026 183.068488 
L 100.163565 183.90142 
L 101.086704 184.721476 
L 102.021262 185.528496 
L 102.967055 186.322319 
L 103.923895 187.10279 
L 104.891596 187.869756 
L 105.869965 188.623064 
L 106.85881 189.362566 
L 107.857937 190.088117 
L 108.867149 190.799574 
L 109.886246 191.496797 
L 110.915029 192.179648 
L 111.953294 192.847993 
L 113.000837 193.5017 
L 114.057452 194.140641 
L 115.12293 194.764689 
L 116.197061 195.373721 
L 117.279635 195.967618 
L 118.370437 196.546263 
L 119.469253 197.109542 
L 120.575866 197.657343 
L 121.690059 198.189559 
L 122.811611 198.706085 
L 123.940303 199.206819 
L 125.075911 199.691663 
L 126.218212 200.160521 
L 127.366981 200.6133 
L 128.521991 201.049912 
L 129.683016 201.470271 
L 130.849826 201.874293 
L 132.022191 202.261899 
L 133.199881 202.633013 
L 134.382664 202.987561 
L 135.570306 203.325475 
L 136.762574 203.646686 
L 137.959232 203.951133 
L 139.160046 204.238754 
L 140.364778 204.509494 
L 141.573191 204.763299 
L 142.785047 205.000118 
L 144.000108 205.219906 
L 145.218134 205.422619 
L 146.438884 205.608218 
L 147.66212 205.776664 
L 148.887599 205.927927 
L 150.11508 206.061974 
L 151.344322 206.178781 
L 152.575082 206.278324 
L 153.807118 206.360584 
L 155.040187 206.425543 
L 156.274047 206.473191 
L 157.508453 206.503516 
L 158.743164 206.516514 
L 159.977935 206.512181 
L 161.212524 206.490519 
L 162.446688 206.451532 
L 163.680182 206.395227 
L 164.912765 206.321615 
L 166.144194 206.230712 
L 167.374225 206.122534 
L 168.602617 205.997104 
L 169.829127 205.854445 
L 171.053514 205.694587 
L 172.275538 205.51756 
L 173.494956 205.3234 
L 174.711529 205.112144 
L 175.925017 204.883835 
L 177.135182 204.638516 
L 178.341784 204.376238 
L 179.544587 204.09705 
L 180.743352 203.801009 
L 181.937845 203.488172 
L 183.127829 203.158602 
L 159.051861 118.54035 
z
" clip-path="url(#p57d0dd3d40)" style="fill: #f4edff; opacity: 0.55"/>
   </g>
   <g id="patch_8">
    <path d="M 159.051861 118.54035 
L 183.127829 203.158602 
L 184.313071 202.812362 
L 185.493336 202.449522 
L 186.668392 202.070153 
L 187.838009 201.674329 
L 189.001955 201.262128 
L 190.160001 200.833633 
L 191.311919 200.388926 
L 192.457482 199.928096 
L 193.596465 199.451233 
L 194.728642 198.958432 
L 195.853792 198.44979 
L 196.971692 197.925406 
L 198.082123 197.385384 
L 199.184865 196.82983 
L 200.279701 196.258855 
L 201.366415 195.672569 
L 202.444794 195.071089 
L 203.514625 194.454534 
L 204.575698 193.823024 
L 205.627802 193.176684 
L 206.670732 192.515642 
L 207.704281 191.840027 
L 208.728247 191.149974 
L 209.742426 190.445616 
L 210.74662 189.727094 
L 211.740631 188.99455 
L 212.724262 188.248126 
L 213.697321 187.487971 
L 214.659615 186.714233 
L 215.610955 185.927067 
L 216.551153 185.126625 
L 217.480025 184.313067 
L 218.397387 183.486553 
L 219.303058 182.647244 
L 220.196861 181.795308 
L 221.078619 180.93091 
L 221.948158 180.054223 
L 222.805307 179.165418 
L 223.649897 178.26467 
L 224.481763 177.352157 
L 225.300739 176.428059 
L 226.106665 175.492558 
L 226.899382 174.545838 
L 227.678733 173.588085 
L 228.444566 172.619488 
L 229.196729 171.640239 
L 229.935074 170.650529 
L 230.659457 169.650554 
L 231.369733 168.640511 
L 232.065763 167.620599 
L 232.74741 166.591018 
L 233.41454 165.551972 
L 234.067022 164.503665 
L 234.704726 163.446304 
L 235.327527 162.380097 
L 235.935303 161.305254 
L 236.527934 160.221987 
L 237.105303 159.130508 
L 237.667296 158.031034 
L 238.213802 156.923781 
L 238.744715 155.808967 
L 239.259928 154.686811 
L 239.759342 153.557534 
L 240.242857 152.42136 
L 240.710379 151.278511 
L 241.161814 150.129214 
L 241.597075 148.973693 
L 242.016075 147.812178 
L 242.418732 146.644896 
L 242.804967 145.472078 
L 243.174703 144.293955 
L 243.527868 143.110758 
L 243.864392 141.922722 
L 244.184209 140.730079 
L 244.487255 139.533065 
L 244.773472 138.331916 
L 245.042803 137.126869 
L 245.295194 135.918159 
L 245.530596 134.706027 
L 159.051861 118.54035 
z
" clip-path="url(#p57d0dd3d40)" style="fill: #edfff4; opacity: 0.55"/>
   </g>
   <g id="patch_9">
    <path d="M 225.589464 118.54035 
L 200.069778 102.649924 
L 196.876402 84.058724 
L 181.865995 72.72339 
L 166.224806 41.131945 
L 143.644348 64.388561 
L 108.92953 52.167657 
L 88.337597 74.755931 
L 103.709448 108.19506 
L 77.296017 133.823165 
L 88.337597 162.324768 
L 125.122901 163.469553 
L 136.290761 198.537317 
L 166.726005 201.357557 
L 184.147396 168.938978 
L 220.516714 174.572967 
L 236.607445 148.585543 
z
" clip-path="url(#p57d0dd3d40)" style="fill: #2166ac; opacity: 0.12; stroke: #2166ac; stroke-linejoin: miter"/>
   </g>
   <g id="matplotlib.axis_1">
    <g id="xtick_1">
     <g id="line2d_1">
      <path d="M 159.051861 118.54035 
L 247.028567 118.54035 
" clip-path="url(#p57d0dd3d40)" style="fill: none; stroke-dasharray: 0.4,0.66; stroke-dashoffset: 0; stroke: #cccccc; stroke-opacity: 0.3; stroke-width: 0.4"/>
     </g>
    </g>
    <g id="xtick_2">
     <g id="line2d_2">
      <path d="M 159.051861 118.54035 
L 241.087696 86.759498 
" clip-path="url(#p57d0dd3d40)" style="fill: none; stroke-dasharray: 0.4,0.66; stroke-dashoffset: 0; stroke: #cccccc; stroke-opacity: 0.3; stroke-width: 0.4"/>
     </g>
    </g>
    <g id="xtick_3">
     <g id="line2d_3">
      <path d="M 159.051861 118.54035 
L 224.067431 59.270826 
" clip-path="url(#p57d0dd3d40)" style="fill: none; stroke-dasharray: 0.4,0.66; stroke-dashoffset: 0; stroke: #cccccc; stroke-opacity: 0.3; stroke-width: 0.4"/>
     </g>
    </g>
    <g id="xtick_4">
     <g id="line2d_4">
      <path d="M 159.051861 118.54035 
L 198.266453 39.786832 
" clip-path="url(#p57d0dd3d40)" style="fill: none; stroke-dasharray: 0.4,0.66; stroke-dashoffset: 0; stroke: #cccccc; stroke-opacity: 0.3; stroke-width: 0.4"/>
     </g>
    </g>
    <g id="xtick_5">
     <g id="line2d_5">
      <path d="M 159.051861 118.54035 
L 167.169327 30.938936 
" clip-path="url(#p57d0dd3d40)" style="fill: none; stroke-dasharray: 0.4,0.66; stroke-dashoffset: 0; stroke: #cccccc; stroke-opacity: 0.3; stroke-width: 0.4"/>
     </g>
    </g>
    <g id="xtick_6">
     <g id="line2d_6">
      <path d="M 159.051861 118.54035 
L 134.975892 33.922098 
" clip-path="url(#p57d0dd3d40)" style="fill: none; stroke-dasharray: 0.4,0.66; stroke-dashoffset: 0; stroke: #cccccc; stroke-opacity: 0.3; stroke-width: 0.4"/>
     </g>
    </g>
    <g id="xtick_7">
     <g id="line2d_7">
      <path d="M 159.051861 118.54035 
L 106.03405 48.333422 
" clip-path="url(#p57d0dd3d40)" style="fill: none; stroke-dasharray: 0.4,0.66; stroke-dashoffset: 0; stroke: #cccccc; stroke-opacity: 0.3; stroke-width: 0.4"/>
     </g>
    </g>
    <g id="xtick_8">
     <g id="line2d_8">
      <path d="M 159.051861 118.54035 
L 84.252557 72.226582 
" clip-path="url(#p57d0dd3d40)" style="fill: none; stroke-dasharray: 0.4,0.66; stroke-dashoffset: 0; stroke: #cccccc; stroke-opacity: 0.3; stroke-width: 0.4"/>
     </g>
    </g>
    <g id="xtick_9">
     <g id="line2d_9">
      <path d="M 159.051861 118.54035 
L 72.573125 102.374672 
" clip-path="url(#p57d0dd3d40)" style="fill: none; stroke-dasharray: 0.4,0.66; stroke-dashoffset: 0; stroke: #cccccc; stroke-opacity: 0.3; stroke-width: 0.4"/>
     </g>
    </g>
    <g id="xtick_10">
     <g id="line2d_10">
      <path d="M 159.051861 118.54035 
L 72.573125 134.706027 
" clip-path="url(#p57d0dd3d40)" style="fill: none; stroke-dasharray: 0.4,0.66; stroke-dashoffset: 0; stroke: #cccccc; stroke-opacity: 0.3; stroke-width: 0.4"/>
     </g>
    </g>
    <g id="xtick_11">
     <g id="line2d_11">
      <path d="M 159.051861 118.54035 
L 84.252557 164.854117 
" clip-path="url(#p57d0dd3d40)" style="fill: none; stroke-dasharray: 0.4,0.66; stroke-dashoffset: 0; stroke: #cccccc; stroke-opacity: 0.3; stroke-width: 0.4"/>
     </g>
    </g>
    <g id="xtick_12">
     <g id="line2d_12">
      <path d="M 159.051861 118.54035 
L 106.03405 188.747277 
" clip-path="url(#p57d0dd3d40)" style="fill: none; stroke-dasharray: 0.4,0.66; stroke-dashoffset: 0; stroke: #cccccc; stroke-opacity: 0.3; stroke-width: 0.4"/>
     </g>
    </g>
    <g id="xtick_13">
     <g id="line2d_13">
      <path d="M 159.051861 118.54035 
L 134.975892 203.158602 
" clip-path="url(#p57d0dd3d40)" style="fill: none; stroke-dasharray: 0.4,0.66; stroke-dashoffset: 0; stroke: #cccccc; stroke-opacity: 0.3; stroke-width: 0.4"/>
     </g>
    </g>
    <g id="xtick_14">
     <g id="line2d_14">
      <path d="M 159.051861 118.54035 
L 167.169327 206.141763 
" clip-path="url(#p57d0dd3d40)" style="fill: none; stroke-dasharray: 0.4,0.66; stroke-dashoffset: 0; stroke: #cccccc; stroke-opacity: 0.3; stroke-width: 0.4"/>
     </g>
    </g>
    <g id="xtick_15">
     <g id="line2d_15">
      <path d="M 159.051861 118.54035 
L 198.266453 197.293867 
" clip-path="url(#p57d0dd3d40)" style="fill: none; stroke-dasharray: 0.4,0.66; stroke-dashoffset: 0; stroke: #cccccc; stroke-opacity: 0.3; stroke-width: 0.4"/>
     </g>
    </g>
    <g id="xtick_16">
     <g id="line2d_16">
      <path d="M 159.051861 118.54035 
L 224.067431 177.809873 
" clip-path="url(#p57d0dd3d40)" style="fill: none; stroke-dasharray: 0.4,0.66; stroke-dashoffset: 0; stroke: #cccccc; stroke-opacity: 0.3; stroke-width: 0.4"/>
     </g>
    </g>
    <g id="xtick_17">
     <g id="line2d_17">
      <path d="M 159.051861 118.54035 
L 241.087696 150.321201 
" clip-path="url(#p57d0dd3d40)" style="fill: none; stroke-dasharray: 0.4,0.66; stroke-dashoffset: 0; stroke: #cccccc; stroke-opacity: 0.3; stroke-width: 0.4"/>
     </g>
    </g>
   </g>
   <g id="matplotlib.axis_2">
    <g id="ytick_1">
     <g id="line2d_18">
      <path d="M 181.046037 118.54035 
C 181.046037 115.652101 180.477115 112.791937 179.37183 110.123543 
C 178.266545 107.455149 176.646392 105.030418 174.604092 102.988118 
C 172.561792 100.945818 170.137061 99.325665 167.468667 98.22038 
C 164.800274 97.115095 161.940109 96.546173 159.051861 96.546173 
C 156.163612 96.546173 153.303447 97.115095 150.635054 98.22038 
C 147.96666 99.325665 145.541929 100.945818 143.499629 102.988118 
C 141.457329 105.030418 139.837176 107.455149 138.731891 110.123543 
C 137.626606 112.791937 137.057684 115.652101 137.057684 118.54035 
C 137.057684 121.428598 137.626606 124.288763 138.731891 126.957156 
C 139.837176 129.62555 141.457329 132.050281 143.499629 134.092581 
C 145.541929 136.134881 147.96666 137.755034 150.635054 138.860319 
C 153.303447 139.965604 156.163612 140.534526 159.051861 140.534526 
C 161.940109 140.534526 164.800274 139.965604 167.468667 138.860319 
C 170.137061 137.755034 172.561792 136.134881 174.604092 134.092581 
C 176.646392 132.050281 178.266545 129.62555 179.37183 126.957156 
C 180.477115 124.288763 181.046037 121.428598 181.046037 118.54035 
" clip-path="url(#p57d0dd3d40)" style="fill: none; stroke-dasharray: 0.4,0.66; stroke-dashoffset: 0; stroke: #cccccc; stroke-opacity: 0.3; stroke-width: 0.4"/>
     </g>
    </g>
    <g id="ytick_2">
     <g id="line2d_19">
      <path d="M 203.040214 118.54035 
C 203.040214 112.763852 201.90237 107.043523 199.6918 101.706736 
C 197.48123 96.369948 194.240924 91.520487 190.156323 87.435887 
C 186.071723 83.351286 181.222262 80.11098 175.885474 77.90041 
C 170.548687 75.689841 164.828358 74.551996 159.051861 74.551996 
C 153.275363 74.551996 147.555034 75.689841 142.218247 77.90041 
C 136.881459 80.11098 132.031998 83.351286 127.947398 87.435887 
C 123.862797 91.520487 120.622491 96.369948 118.411921 101.706736 
C 116.201352 107.043523 115.063507 112.763852 115.063507 118.54035 
C 115.063507 124.316847 116.201352 130.037176 118.411921 135.373963 
C 120.622491 140.710751 123.862797 145.560212 127.947398 149.644812 
C 132.031998 153.729413 136.881459 156.969719 142.218247 159.180289 
C 147.555034 161.390859 153.275363 162.528703 159.051861 162.528703 
C 164.828358 162.528703 170.548687 161.390859 175.885474 159.180289 
C 181.222262 156.969719 186.071723 153.729413 190.156323 149.644812 
C 194.240924 145.560212 197.48123 140.710751 199.6918 135.373963 
C 201.90237 130.037176 203.040214 124.316847 203.040214 118.54035 
" clip-path="url(#p57d0dd3d40)" style="fill: none; stroke-dasharray: 0.4,0.66; stroke-dashoffset: 0; stroke: #cccccc; stroke-opacity: 0.3; stroke-width: 0.4"/>
     </g>
    </g>
    <g id="ytick_3">
     <g id="line2d_20">
      <path d="M 225.03439 118.54035 
C 225.03439 109.875603 223.327624 101.29511 220.011769 93.289929 
C 216.695914 85.284747 211.835456 78.010556 205.708555 71.883655 
C 199.581654 65.756754 192.307463 60.896296 184.302281 57.580441 
C 176.2971 54.264586 167.716607 52.55782 159.051861 52.55782 
C 150.387114 52.55782 141.806621 54.264586 133.80144 57.580441 
C 125.796258 60.896296 118.522067 65.756754 112.395166 71.883655 
C 106.268265 78.010556 101.407807 85.284747 98.091952 93.289929 
C 94.776097 101.29511 93.069331 109.875603 93.069331 118.54035 
C 93.069331 127.205096 94.776097 135.785589 98.091952 143.79077 
C 101.407807 151.795952 106.268265 159.070143 112.395166 165.197044 
C 118.522067 171.323945 125.796258 176.184403 133.80144 179.500258 
C 141.806621 182.816113 150.387114 184.522879 159.051861 184.522879 
C 167.716607 184.522879 176.2971 182.816113 184.302281 179.500258 
C 192.307463 176.184403 199.581654 171.323945 205.708555 165.197044 
C 211.835456 159.070143 216.695914 151.795952 220.011769 143.79077 
C 223.327624 135.785589 225.03439 127.205096 225.03439 118.54035 
" clip-path="url(#p57d0dd3d40)" style="fill: none; stroke-dasharray: 0.4,0.66; stroke-dashoffset: 0; stroke: #cccccc; stroke-opacity: 0.3; stroke-width: 0.4"/>
     </g>
    </g>
    <g id="ytick_4">
     <g id="line2d_21">
      <path d="M 247.028567 118.54035 
C 247.028567 106.987354 244.752879 95.546697 240.331739 84.873122 
C 235.910599 74.199546 229.429987 64.500625 221.260786 56.331424 
C 213.091585 48.162223 203.392664 41.681611 192.719088 37.260471 
C 182.045513 32.839332 170.604856 30.563643 159.051861 30.563643 
C 147.498865 30.563643 136.058208 32.839332 125.384633 37.260471 
C 114.711057 41.681611 105.012136 48.162223 96.842935 56.331424 
C 88.673734 64.500625 82.193122 74.199546 77.771982 84.873122 
C 73.350843 95.546697 71.075154 106.987354 71.075154 118.54035 
C 71.075154 130.093345 73.350843 141.534002 77.771982 152.207577 
C 82.193122 162.881153 88.673734 172.580074 96.842935 180.749275 
C 105.012136 188.918476 114.711057 195.399088 125.384633 199.820228 
C 136.058208 204.241368 147.498865 206.517056 159.051861 206.517056 
C 170.604856 206.517056 182.045513 204.241368 192.719088 199.820228 
C 203.392664 195.399088 213.091585 188.918476 221.260786 180.749275 
C 229.429987 172.580074 235.910599 162.881153 240.331739 152.207577 
C 244.752879 141.534002 247.028567 130.093345 247.028567 118.54035 
" clip-path="url(#p57d0dd3d40)" style="fill: none; stroke-dasharray: 0.4,0.66; stroke-dashoffset: 0; stroke: #cccccc; stroke-opacity: 0.3; stroke-width: 0.4"/>
     </g>
    </g>
   </g>
   <g id="line2d_22">
    <path d="M 225.589464 118.54035 
L 200.069778 102.649924 
L 196.876402 84.058724 
L 181.865995 72.72339 
L 166.224806 41.131945 
L 143.644348 64.388561 
L 108.92953 52.167657 
L 88.337597 74.755931 
L 103.709448 108.19506 
L 77.296017 133.823165 
L 88.337597 162.324768 
L 125.122901 163.469553 
L 136.290761 198.537317 
L 166.726005 201.357557 
L 184.147396 168.938978 
L 220.516714 174.572967 
L 236.607445 148.585543 
L 225.589464 118.54035 
" clip-path="url(#p57d0dd3d40)" style="fill: none; stroke-dasharray: 9.25,4; stroke-dashoffset: 0; stroke: #2166ac; stroke-opacity: 0.9; stroke-width: 2.5"/>
   </g>
   <g id="patch_10">
    <path d="M 247.028567 118.54035 
C 247.028567 106.987354 244.752879 95.546697 240.331739 84.873122 
C 235.910599 74.199546 229.429987 64.500625 221.260786 56.331424 
C 213.091585 48.162223 203.392664 41.681611 192.719088 37.260471 
C 182.045513 32.839332 170.604856 30.563643 159.051861 30.563643 
C 147.498865 30.563643 136.058208 32.839332 125.384633 37.260471 
C 114.711057 41.681611 105.012136 48.162223 96.842935 56.331424 
C 88.673734 64.500625 82.193122 74.199546 77.771982 84.873122 
C 73.350843 95.546697 71.075154 106.987354 71.075154 118.54035 
C 71.075154 130.093345 73.350843 141.534002 77.771982 152.207577 
C 82.193122 162.881153 88.673734 172.580074 96.842935 180.749275 
C 105.012136 188.918476 114.711057 195.399088 125.384633 199.820228 
C 136.058208 204.241368 147.498865 206.517056 159.051861 206.517056 
C 170.604856 206.517056 182.045513 204.241368 192.719088 199.820228 
C 203.392664 195.399088 213.091585 188.918476 221.260786 180.749275 
C 229.429987 172.580074 235.910599 162.881153 240.331739 152.207577 
C 244.752879 141.534002 247.028567 130.093345 247.028567 118.54035 
" style="fill: none; stroke: #cccccc; stroke-width: 1.5; stroke-linejoin: miter; stroke-linecap: square"/>
   </g>
   <g id="patch_11">
    <path d="M 220.312798 118.54035 
L 195.936813 104.251043 
L 193.724751 86.931834 
L 178.729776 79.021769 
L 166.827582 34.626956 
L 144.845514 68.610222 
L 110.1181 53.741579 
L 90.014472 75.794209 
L 103.829884 108.217573 
L 79.451932 133.420155 
L 90.202343 161.170166 
L 126.84499 161.189139 
L 136.519904 197.731962 
L 166.648747 200.523811 
L 184.824266 170.298317 
L 221.148394 175.14882 
L 237.404492 148.894321 
z
" clip-path="url(#p57d0dd3d40)" style="fill: #d73027; opacity: 0.18; stroke: #d73027; stroke-linejoin: miter"/>
   </g>
   <g id="text_1">
    <!-- Thumb -->
    <g transform="translate(247.315038 68.372722) scale(0.18 -0.18)">
     <defs>
      <path id="CMR17-56" d="M 3981 4332 
L 288 4332 
L 179 2924 
L 294 2924 
C 377 3981 467 4166 1452 4166 
C 1568 4166 1753 4166 1804 4159 
C 1926 4140 1926 4064 1926 3917 
L 1926 465 
C 1926 236 1907 166 1376 166 
L 1196 166 
L 1196 0 
C 1504 6 1824 12 2137 12 
C 2451 12 2771 6 3078 0 
L 3078 166 
L 2899 166 
C 2368 166 2348 236 2348 465 
L 2348 3917 
C 2348 4057 2348 4134 2464 4159 
C 2515 4166 2700 4166 2816 4166 
C 3795 4166 3891 3981 3974 2924 
L 4089 2924 
L 3981 4332 
z
" transform="scale(0.015625)"/>
      <path id="CMR17-6a" d="M 2656 1954 
C 2656 2282 2592 2816 1836 2816 
C 1312 2816 1056 2392 979 2179 
L 972 2179 
L 972 4416 
L 211 4345 
L 211 4179 
C 588 4179 646 4141 646 3843 
L 646 443 
C 646 198 620 166 211 166 
L 211 0 
C 364 12 646 12 812 12 
C 979 12 1267 12 1420 0 
L 1420 166 
C 1011 166 985 192 985 443 
L 985 1678 
C 985 2269 1344 2713 1792 2713 
C 2265 2713 2316 2289 2316 1980 
L 2316 443 
C 2316 198 2291 166 1881 166 
L 1881 0 
C 2035 12 2316 12 2483 12 
C 2649 12 2937 12 3091 0 
L 3091 166 
C 2681 166 2656 192 2656 443 
L 2656 1954 
z
" transform="scale(0.015625)"/>
      <path id="CMR17-77" d="M 1881 2745 
L 1881 2579 
C 2259 2579 2316 2540 2316 2229 
L 2316 1053 
C 2316 510 2028 38 1555 38 
C 1030 38 985 355 985 691 
L 985 2816 
L 211 2745 
L 211 2579 
C 467 2579 640 2579 646 2320 
L 646 1079 
C 646 646 646 368 812 187 
C 896 103 1056 -64 1516 -64 
C 2060 -64 2272 400 2323 536 
L 2329 536 
L 2329 -64 
L 3091 -13 
L 3091 154 
C 2713 154 2656 193 2656 503 
L 2656 2816 
L 1881 2745 
z
" transform="scale(0.015625)"/>
      <path id="CMR17-6f" d="M 4326 1954 
C 4326 2276 4269 2816 3507 2816 
C 3072 2816 2771 2520 2656 2173 
L 2649 2173 
C 2572 2700 2195 2816 1836 2816 
C 1331 2816 1068 2424 972 2166 
L 966 2166 
L 966 2816 
L 211 2745 
L 211 2578 
C 588 2578 646 2540 646 2231 
L 646 443 
C 646 198 620 166 211 166 
L 211 0 
C 364 12 646 12 812 12 
C 979 12 1267 12 1420 0 
L 1420 166 
C 1011 166 985 192 985 443 
L 985 1678 
C 985 2269 1344 2713 1792 2713 
C 2265 2713 2316 2289 2316 1980 
L 2316 443 
C 2316 198 2291 166 1881 166 
L 1881 0 
C 2035 12 2316 12 2483 12 
C 2649 12 2937 12 3091 0 
L 3091 166 
C 2681 166 2656 192 2656 443 
L 2656 1678 
C 2656 2269 3014 2713 3462 2713 
C 3936 2713 3987 2289 3987 1980 
L 3987 443 
C 3987 198 3961 166 3552 166 
L 3552 0 
C 3705 12 3987 12 4153 12 
C 4320 12 4608 12 4761 0 
L 4761 166 
C 4352 166 4326 192 4326 443 
L 4326 1954 
z
" transform="scale(0.015625)"/>
      <path id="CMR17-64" d="M 960 4416 
L 198 4345 
L 198 4179 
C 576 4179 633 4141 633 3843 
L 633 -13 
L 748 -13 
L 934 445 
C 1120 141 1395 -64 1766 -64 
C 2406 -64 3052 503 3052 1382 
C 3052 2209 2476 2816 1830 2816 
C 1433 2816 1152 2603 960 2351 
L 960 4416 
z
M 972 2022 
C 972 2138 972 2157 1062 2293 
C 1312 2681 1670 2713 1792 2713 
C 1984 2713 2643 2610 2643 1388 
C 2643 109 1888 38 1734 38 
C 1536 38 1248 115 1043 490 
C 972 613 972 626 972 742 
L 972 2022 
z
" transform="scale(0.015625)"/>
     </defs>
     <use xlink:href="#CMR17-56" transform="scale(0.996264)"/>
     <use xlink:href="#CMR17-6a" transform="translate(66.509881 0) scale(0.996264)"/>
     <use xlink:href="#CMR17-77" transform="translate(114.802796 0) scale(0.996264)"/>
     <use xlink:href="#CMR17-6f" transform="translate(165.698166 0) scale(0.996264)"/>
     <use xlink:href="#CMR17-64" transform="translate(240.015302 0) scale(0.996264)"/>
    </g>
   </g>
   <g id="text_2">
    <!-- Spread -->
    <g transform="translate(143.957621 19.6533) scale(0.18 -0.18)">
     <defs>
      <path id="CMR17-55" d="M 2803 4351 
C 2803 4467 2796 4473 2758 4473 
C 2720 4473 2707 4447 2681 4390 
L 2489 3965 
C 2246 4320 1875 4480 1472 4480 
C 819 4480 294 3958 294 3301 
C 294 3101 339 2817 556 2546 
C 793 2250 1017 2198 1529 2063 
C 1721 2011 2041 1927 2105 1901 
C 2470 1747 2662 1360 2662 999 
C 2662 534 2336 38 1779 38 
C 1094 38 454 425 409 1328 
C 403 1431 396 1437 352 1437 
C 300 1437 294 1431 294 1302 
L 294 0 
C 294 -116 300 -122 339 -122 
C 384 -122 396 -90 486 109 
C 492 128 492 141 614 386 
C 934 -39 1472 -128 1779 -128 
C 2476 -128 2969 457 2969 1141 
C 2969 1476 2848 1734 2777 1850 
C 2508 2263 2220 2340 1913 2417 
C 1868 2437 1856 2437 1497 2527 
C 1152 2617 1004 2662 844 2836 
C 665 3036 601 3243 601 3449 
C 601 3868 934 4326 1478 4326 
C 2156 4326 2579 3842 2675 3036 
C 2694 2920 2700 2914 2745 2914 
C 2803 2914 2803 2933 2803 3043 
L 2803 4351 
z
" transform="scale(0.015625)"/>
      <path id="CMR17-72" d="M 1408 -1114 
C 998 -1114 972 -1088 972 -834 
L 972 380 
C 1158 109 1427 -64 1766 -64 
C 2406 -64 3052 503 3052 1382 
C 3052 2196 2496 2816 1836 2816 
C 1452 2816 1139 2603 960 2345 
L 960 2816 
L 198 2745 
L 198 2577 
C 576 2577 633 2539 633 2228 
L 633 -834 
C 633 -1081 608 -1114 198 -1114 
L 198 -1280 
C 352 -1268 633 -1268 800 -1268 
C 966 -1268 1254 -1268 1408 -1280 
L 1408 -1114 
z
M 972 2015 
C 972 2106 972 2241 1222 2481 
C 1254 2506 1472 2700 1792 2700 
C 2259 2700 2643 2112 2643 1376 
C 2643 639 2233 38 1728 38 
C 1497 38 1248 148 1056 451 
C 972 594 972 632 972 736 
L 972 2015 
z
" transform="scale(0.015625)"/>
      <path id="CMR17-74" d="M 960 1517 
C 960 2134 1222 2713 1702 2713 
C 1747 2713 1792 2707 1836 2687 
C 1836 2687 1696 2642 1696 2475 
C 1696 2321 1817 2257 1913 2257 
C 1990 2257 2131 2302 2131 2482 
C 2131 2687 1926 2816 1708 2816 
C 1222 2816 1011 2340 947 2115 
L 940 2115 
L 940 2816 
L 198 2745 
L 198 2578 
C 576 2578 633 2540 633 2231 
L 633 443 
C 633 198 608 166 198 166 
L 198 0 
C 352 12 646 12 812 12 
C 998 12 1324 12 1497 0 
L 1497 166 
C 1036 166 960 166 960 455 
L 960 1517 
z
" transform="scale(0.015625)"/>
      <path id="CMR17-67" d="M 2438 1503 
C 2464 1529 2464 1542 2464 1606 
C 2464 2251 2118 2816 1388 2816 
C 710 2816 172 2175 172 1394 
C 172 554 780 -64 1459 -64 
C 2176 -64 2457 619 2457 755 
C 2457 800 2419 800 2406 800 
C 2361 800 2355 787 2329 709 
C 2188 270 1836 51 1504 51 
C 1228 51 953 206 780 490 
C 582 819 582 1200 582 1503 
L 2438 1503 
z
M 588 1600 
C 633 2511 1126 2713 1382 2713 
C 1817 2713 2112 2308 2118 1600 
L 588 1600 
z
" transform="scale(0.015625)"/>
      <path id="CMR17-63" d="M 2304 1656 
C 2304 2048 2304 2275 2035 2534 
C 1798 2751 1523 2816 1305 2816 
C 800 2816 435 2408 435 1977 
C 435 1740 627 1728 665 1728 
C 748 1728 896 1779 896 1958 
C 896 2118 774 2188 665 2188 
C 640 2188 608 2182 588 2176 
C 723 2594 1068 2713 1292 2713 
C 1612 2713 1964 2421 1964 1875 
L 1964 1632 
C 1587 1619 1132 1568 774 1373 
C 371 1147 256 822 256 576 
C 256 77 832 -64 1171 -64 
C 1523 -64 1849 135 1990 505 
C 2003 219 2182 -39 2464 -39 
C 2598 -39 2937 51 2937 563 
L 2937 926 
L 2822 926 
L 2822 557 
C 2822 161 2649 109 2566 109 
C 2304 109 2304 446 2304 732 
L 2304 1656 
z
M 1964 887 
C 1964 323 1568 38 1216 38 
C 896 38 646 278 646 576 
C 646 771 729 1114 1100 1322 
C 1408 1497 1760 1523 1964 1536 
L 1964 887 
z
" transform="scale(0.015625)"/>
      <path id="CMR17-66" d="M 1868 4345 
L 1868 4179 
C 2246 4179 2304 4141 2304 3843 
L 2304 2371 
C 2278 2403 2016 2816 1497 2816 
C 844 2816 211 2228 211 1376 
C 211 529 806 -64 1433 -64 
C 1977 -64 2259 361 2291 406 
L 2291 -64 
L 3065 -13 
L 3065 154 
C 2688 154 2630 193 2630 503 
L 2630 4416 
L 1868 4345 
z
M 2291 762 
C 2291 568 2176 393 2028 264 
C 1811 70 1593 38 1472 38 
C 1286 38 620 135 620 1369 
C 620 2636 1363 2713 1529 2713 
C 1824 2713 2060 2545 2208 2313 
C 2291 2177 2291 2157 2291 2041 
L 2291 762 
z
" transform="scale(0.015625)"/>
     </defs>
     <use xlink:href="#CMR17-55" transform="scale(0.996264)"/>
     <use xlink:href="#CMR17-72" transform="translate(50.89537 0) scale(0.996264)"/>
     <use xlink:href="#CMR17-74" transform="translate(101.79074 0) scale(0.996264)"/>
     <use xlink:href="#CMR17-67" transform="translate(137.071507 0) scale(0.996264)"/>
     <use xlink:href="#CMR17-63" transform="translate(177.557168 0) scale(0.996264)"/>
     <use xlink:href="#CMR17-66" transform="translate(223.247645 0) scale(0.996264)"/>
    </g>
   </g>
   <g id="text_3">
    <!-- Index -->
    <g transform="translate(56.313491 40.178794) scale(0.18 -0.18)">
     <defs>
      <path id="CMR17-4b" d="M 1260 3898 
C 1260 4185 1337 4185 1798 4185 
L 1798 4352 
C 1593 4339 1267 4339 1049 4339 
C 832 4339 505 4339 300 4352 
L 300 4185 
C 761 4185 838 4185 838 3898 
L 838 453 
C 838 166 761 166 300 166 
L 300 0 
C 505 12 832 12 1049 12 
C 1267 12 1593 12 1798 0 
L 1798 166 
C 1337 166 1260 166 1260 453 
L 1260 3898 
z
" transform="scale(0.015625)"/>
      <path id="CMR17-70" d="M 2656 1954 
C 2656 2282 2592 2816 1836 2816 
C 1331 2816 1068 2424 972 2166 
L 966 2166 
L 966 2816 
L 211 2745 
L 211 2578 
C 588 2578 646 2540 646 2231 
L 646 443 
C 646 198 620 166 211 166 
L 211 0 
C 364 12 646 12 812 12 
C 979 12 1267 12 1420 0 
L 1420 166 
C 1011 166 985 192 985 443 
L 985 1678 
C 985 2269 1344 2713 1792 2713 
C 2265 2713 2316 2289 2316 1980 
L 2316 443 
C 2316 198 2291 166 1881 166 
L 1881 0 
C 2035 12 2316 12 2483 12 
C 2649 12 2937 12 3091 0 
L 3091 166 
C 2681 166 2656 192 2656 443 
L 2656 1954 
z
" transform="scale(0.015625)"/>
      <path id="CMR17-7a" d="M 1664 1491 
C 1856 1740 2073 2022 2252 2233 
C 2464 2476 2707 2579 2988 2585 
L 2988 2752 
C 2880 2745 2656 2739 2540 2739 
C 2368 2739 2169 2739 2022 2752 
L 2022 2585 
C 2112 2572 2163 2508 2163 2419 
C 2163 2304 2099 2233 2067 2188 
L 1593 1587 
L 1030 2323 
C 972 2393 972 2406 972 2438 
C 972 2515 1036 2579 1145 2585 
L 1145 2752 
C 992 2739 716 2739 556 2739 
C 384 2739 179 2739 38 2752 
L 38 2585 
C 384 2585 460 2560 614 2368 
L 1350 1414 
C 1363 1401 1395 1363 1395 1344 
C 1395 1318 838 633 768 544 
C 480 198 179 172 6 166 
L 6 0 
C 115 6 339 12 454 12 
C 582 12 864 12 979 0 
L 979 166 
C 940 172 838 185 838 332 
C 838 448 889 518 947 595 
L 1478 1248 
L 2035 524 
C 2086 454 2163 358 2163 313 
C 2163 224 2086 172 1984 166 
L 1984 0 
C 2137 12 2412 12 2572 12 
C 2745 12 2950 12 3091 0 
L 3091 166 
C 2771 166 2675 179 2521 377 
L 1664 1491 
z
" transform="scale(0.015625)"/>
     </defs>
     <use xlink:href="#CMR17-4b" transform="scale(0.996264)"/>
     <use xlink:href="#CMR17-70" transform="translate(32.638409 0) scale(0.996264)"/>
     <use xlink:href="#CMR17-66" transform="translate(83.533779 0) scale(0.996264)"/>
     <use xlink:href="#CMR17-67" transform="translate(134.429149 0) scale(0.996264)"/>
     <use xlink:href="#CMR17-7a" transform="translate(174.914809 0) scale(0.996264)"/>
    </g>
   </g>
   <g id="text_4">
    <!-- Middle -->
    <g transform="translate(7.2 142.098467) scale(0.18 -0.18)">
     <defs>
      <path id="CMR17-4f" d="M 1337 4249 
C 1299 4345 1292 4352 1158 4352 
L 339 4352 
L 339 4185 
C 780 4185 851 4185 851 3898 
L 851 624 
C 851 465 851 166 339 166 
L 339 0 
C 486 12 755 12 915 12 
C 1075 12 1344 12 1491 0 
L 1491 166 
C 979 166 979 465 979 624 
L 979 4159 
L 985 4159 
L 2489 102 
C 2515 38 2528 0 2579 0 
C 2630 0 2643 38 2668 102 
L 4185 4191 
L 4192 4191 
L 4192 453 
C 4192 166 4121 166 3680 166 
L 3680 0 
C 3853 12 4198 12 4384 12 
C 4569 12 4921 12 5094 0 
L 5094 166 
C 4653 166 4582 166 4582 453 
L 4582 3898 
C 4582 4185 4653 4185 5094 4185 
L 5094 4352 
L 4281 4352 
C 4147 4352 4141 4345 4102 4249 
L 2720 516 
L 1337 4249 
z
" transform="scale(0.015625)"/>
      <path id="CMR17-6b" d="M 992 3961 
C 992 4102 876 4224 729 4224 
C 588 4224 467 4108 467 3961 
C 467 3820 582 3699 729 3699 
C 870 3699 992 3814 992 3961 
z
M 243 2745 
L 243 2579 
C 601 2579 652 2540 652 2231 
L 652 443 
C 652 198 627 166 217 166 
L 217 0 
C 371 12 646 12 806 12 
C 960 12 1222 12 1369 0 
L 1369 166 
C 992 166 979 205 979 436 
L 979 2816 
L 243 2745 
z
" transform="scale(0.015625)"/>
      <path id="CMR17-6e" d="M 979 4416 
L 217 4345 
L 217 4179 
C 595 4179 652 4141 652 3835 
L 652 439 
C 652 198 627 166 217 166 
L 217 0 
C 371 12 652 12 812 12 
C 979 12 1260 12 1414 0 
L 1414 166 
C 1004 166 979 191 979 439 
L 979 4416 
z
" transform="scale(0.015625)"/>
     </defs>
     <use xlink:href="#CMR17-4f" transform="scale(0.996264)"/>
     <use xlink:href="#CMR17-6b" transform="translate(84.686941 0) scale(0.996264)"/>
     <use xlink:href="#CMR17-66" transform="translate(109.557999 0) scale(0.996264)"/>
     <use xlink:href="#CMR17-66" transform="translate(160.453369 0) scale(0.996264)"/>
     <use xlink:href="#CMR17-6e" transform="translate(211.348739 0) scale(0.996264)"/>
     <use xlink:href="#CMR17-67" transform="translate(236.219797 0) scale(0.996264)"/>
    </g>
   </g>
   <g id="text_5">
    <!-- Ring -->
    <g transform="translate(96.577593 222.872505) scale(0.18 -0.18)">
     <defs>
      <path id="CMR17-54" d="M 2508 2156 
C 3116 2278 3629 2689 3629 3203 
C 3629 3806 2950 4352 2054 4352 
L 332 4352 
L 332 4185 
C 774 4185 844 4185 844 3896 
L 844 428 
C 844 140 774 140 332 140 
L 332 -26 
C 518 -13 851 -13 1049 -13 
C 1248 -13 1580 -13 1766 -26 
L 1766 140 
C 1324 140 1254 140 1254 428 
L 1254 2112 
L 2003 2112 
C 2368 2112 2572 1964 2662 1881 
C 2918 1632 2918 1459 2918 1024 
C 2918 595 2918 377 3110 160 
C 3353 -103 3680 -128 3821 -128 
C 4294 -128 4365 403 4365 512 
C 4365 550 4365 595 4307 595 
C 4256 595 4249 556 4249 531 
C 4217 115 4032 -26 3833 -26 
C 3481 -26 3443 377 3405 768 
C 3385 902 3373 998 3360 1139 
C 3321 1459 3270 1926 2508 2156 
z
M 1984 2214 
L 1254 2214 
L 1254 3935 
C 1254 4153 1267 4185 1523 4185 
L 1990 4185 
C 2521 4185 3142 3999 3142 3203 
C 3142 2374 2464 2214 1984 2214 
z
" transform="scale(0.015625)"/>
      <path id="CMR17-69" d="M 710 1165 
C 832 1068 1043 960 1299 960 
C 1804 960 2240 1359 2240 1895 
C 2240 2063 2188 2321 1996 2521 
C 2176 2713 2438 2777 2585 2777 
C 2611 2777 2649 2777 2681 2758 
C 2656 2751 2598 2726 2598 2623 
C 2598 2540 2656 2483 2739 2483 
C 2835 2483 2886 2547 2886 2630 
C 2886 2751 2790 2880 2585 2880 
C 2329 2880 2105 2758 1926 2591 
C 1734 2764 1504 2828 1299 2828 
C 793 2828 358 2431 358 1895 
C 358 1527 569 1294 633 1230 
C 441 1004 441 742 441 710 
C 441 544 505 300 723 166 
C 390 82 128 -184 128 -517 
C 128 -996 736 -1344 1465 -1344 
C 2169 -1344 2803 -1009 2803 -510 
C 2803 384 1856 384 1363 384 
C 1216 384 953 384 921 390 
C 723 422 588 601 588 825 
C 588 883 588 1024 710 1165 
z
M 1299 1068 
C 736 1068 736 1766 736 1895 
C 736 2024 736 2719 1299 2719 
C 1862 2719 1862 2024 1862 1895 
C 1862 1766 1862 1068 1299 1068 
z
M 1465 -1236 
C 825 -1236 384 -883 384 -517 
C 384 -311 492 -118 633 -11 
C 793 102 857 102 1292 102 
C 1817 102 2547 102 2547 -517 
C 2547 -883 2105 -1236 1465 -1236 
z
" transform="scale(0.015625)"/>
     </defs>
     <use xlink:href="#CMR17-54" transform="scale(0.996264)"/>
     <use xlink:href="#CMR17-6b" transform="translate(67.791102 0) scale(0.996264)"/>
     <use xlink:href="#CMR17-70" transform="translate(92.66216 0) scale(0.996264)"/>
     <use xlink:href="#CMR17-69" transform="translate(143.55753 0) scale(0.996264)"/>
    </g>
   </g>
   <g id="text_6">
    <!-- Pinky -->
    <g transform="translate(235.770234 192.961005) scale(0.18 -0.18)">
     <defs>
      <path id="CMR17-52" d="M 1267 2048 
L 2291 2048 
C 3116 2048 3718 2583 3718 3187 
C 3718 3791 3129 4352 2291 4352 
L 332 4352 
L 332 4185 
C 774 4185 844 4185 844 3899 
L 844 453 
C 844 166 774 166 332 166 
L 332 0 
C 518 12 857 12 1056 12 
C 1254 12 1593 12 1779 0 
L 1779 166 
C 1337 166 1267 166 1267 453 
L 1267 2048 
z
M 1254 2182 
L 1254 3937 
C 1254 4153 1267 4185 1523 4185 
L 2169 4185 
C 2995 4185 3232 3715 3232 3187 
C 3232 2608 2950 2182 2169 2182 
L 1254 2182 
z
" transform="scale(0.015625)"/>
      <path id="CMR17-6d" d="M 1670 1679 
C 1664 1692 1632 1730 1632 1749 
C 1632 1762 2086 2175 2144 2226 
C 2508 2532 2739 2563 2905 2570 
L 2905 2735 
C 2867 2735 2854 2735 2848 2729 
L 2534 2722 
C 2355 2722 2080 2722 1907 2735 
L 1907 2570 
C 1996 2563 2060 2513 2060 2423 
C 2060 2296 1932 2175 1926 2175 
L 960 1298 
L 960 4416 
L 198 4345 
L 198 4179 
C 576 4179 633 4141 633 3835 
L 633 439 
C 633 198 608 166 198 166 
L 198 0 
C 352 12 633 12 793 12 
C 953 12 1235 12 1388 0 
L 1388 166 
C 979 166 953 191 953 439 
L 953 1139 
L 1395 1540 
L 2041 586 
C 2118 471 2182 382 2182 299 
C 2182 185 2067 166 1990 166 
L 1990 0 
C 2144 12 2419 12 2579 12 
C 2694 12 2931 6 3040 0 
L 3040 166 
C 2739 166 2668 223 2476 503 
L 1670 1679 
z
" transform="scale(0.015625)"/>
      <path id="CMR17-7b" d="M 2496 2183 
C 2656 2579 2944 2585 3033 2585 
L 3033 2752 
C 2912 2745 2752 2739 2630 2739 
C 2496 2739 2284 2739 2156 2752 
L 2156 2585 
C 2400 2566 2406 2384 2406 2332 
C 2406 2268 2393 2235 2361 2158 
L 1664 409 
L 902 2300 
C 870 2378 870 2423 870 2430 
C 870 2572 1017 2585 1171 2585 
L 1171 2752 
C 1017 2739 742 2739 582 2739 
C 409 2739 204 2739 64 2752 
L 64 2585 
C 409 2585 448 2553 531 2345 
L 1484 -31 
C 1196 -795 1030 -1242 627 -1242 
C 556 -1242 396 -1223 281 -1106 
C 428 -1093 492 -1002 492 -892 
C 492 -782 416 -685 288 -685 
C 147 -685 76 -782 76 -899 
C 76 -1158 339 -1344 627 -1344 
C 998 -1344 1228 -983 1356 -659 
L 2496 2183 
z
" transform="scale(0.015625)"/>
     </defs>
     <use xlink:href="#CMR17-52" transform="scale(0.996264)"/>
     <use xlink:href="#CMR17-6b" transform="translate(62.586301 0) scale(0.996264)"/>
     <use xlink:href="#CMR17-70" transform="translate(87.457359 0) scale(0.996264)"/>
     <use xlink:href="#CMR17-6d" transform="translate(138.352729 0) scale(0.996264)"/>
     <use xlink:href="#CMR17-7b" transform="translate(186.645645 0) scale(0.996264)"/>
    </g>
   </g>
   <g id="line2d_23">
    <path d="M 220.312798 118.54035 
L 195.936813 104.251043 
L 193.724751 86.931834 
L 178.729776 79.021769 
L 166.827582 34.626956 
L 144.845514 68.610222 
L 110.1181 53.741579 
L 90.014472 75.794209 
L 103.829884 108.217573 
L 79.451932 133.420155 
L 90.202343 161.170166 
L 126.84499 161.189139 
L 136.519904 197.731962 
L 166.648747 200.523811 
L 184.824266 170.298317 
L 221.148394 175.14882 
L 237.404492 148.894321 
L 220.312798 118.54035 
" clip-path="url(#p57d0dd3d40)" style="fill: none; stroke: #d73027; stroke-width: 3.2; stroke-linecap: square"/>
   </g>
  </g>
  <g id="legend_1">
   <g id="line2d_24">
    <path d="M 336.827432 101.628894 
L 354.827432 101.628894 
L 372.827432 101.628894 
" style="fill: none; stroke-dasharray: 9.25,4; stroke-dashoffset: 0; stroke: #2166ac; stroke-opacity: 0.9; stroke-width: 2.5"/>
   </g>
   <g id="text_7">
    <!-- Desired -->
    <g transform="translate(387.227432 107.928894) scale(0.18 -0.18)">
     <defs>
      <path id="CMR17-46" d="M 332 4352 
L 332 4185 
C 774 4185 844 4185 844 3898 
L 844 453 
C 844 166 774 166 332 166 
L 332 0 
L 2368 0 
C 3398 0 4224 943 4224 2140 
C 4224 3344 3411 4352 2368 4352 
L 332 4352 
z
M 1523 166 
C 1267 166 1254 198 1254 414 
L 1254 3936 
C 1254 4153 1267 4185 1523 4185 
L 2240 4185 
C 2771 4185 3750 3873 3750 2140 
C 3750 1242 3488 879 3366 707 
C 3212 510 2848 166 2240 166 
L 1523 166 
z
" transform="scale(0.015625)"/>
      <path id="CMR17-75" d="M 1977 2688 
C 1977 2803 1971 2809 1932 2809 
C 1907 2809 1900 2803 1824 2707 
C 1804 2681 1747 2617 1728 2592 
C 1523 2809 1235 2816 1126 2816 
C 416 2816 160 2444 160 2073 
C 160 1497 812 1363 998 1324 
C 1401 1241 1542 1216 1676 1100 
C 1760 1024 1900 883 1900 652 
C 1900 384 1747 38 1158 38 
C 601 38 403 460 288 1024 
C 268 1113 268 1120 217 1120 
C 166 1120 160 1113 160 985 
L 160 64 
C 160 -52 166 -58 204 -58 
C 236 -58 243 -52 275 0 
C 313 57 409 211 448 275 
C 576 102 800 -64 1158 -64 
C 1792 -64 2131 281 2131 780 
C 2131 1107 1958 1280 1875 1356 
C 1683 1555 1459 1600 1190 1651 
C 838 1728 390 1817 390 2208 
C 390 2374 480 2726 1126 2726 
C 1811 2726 1849 2086 1862 1881 
C 1868 1849 1900 1843 1920 1843 
C 1977 1843 1977 1862 1977 1971 
L 1977 2688 
z
" transform="scale(0.015625)"/>
     </defs>
     <use xlink:href="#CMR17-46" transform="scale(0.996264)"/>
     <use xlink:href="#CMR17-67" transform="translate(70.393556 0) scale(0.996264)"/>
     <use xlink:href="#CMR17-75" transform="translate(110.879216 0) scale(0.996264)"/>
     <use xlink:href="#CMR17-6b" transform="translate(146.680554 0) scale(0.996264)"/>
     <use xlink:href="#CMR17-74" transform="translate(171.551612 0) scale(0.996264)"/>
     <use xlink:href="#CMR17-67" transform="translate(206.83238 0) scale(0.996264)"/>
     <use xlink:href="#CMR17-66" transform="translate(247.318041 0) scale(0.996264)"/>
    </g>
   </g>
   <g id="line2d_25">
    <path d="M 336.827432 126.716958 
L 354.827432 126.716958 
L 372.827432 126.716958 
" style="fill: none; stroke: #d73027; stroke-width: 3.2; stroke-linecap: square"/>
   </g>
   <g id="text_8">
    <!-- Tracked -->
    <g transform="translate(387.227432 133.016958) scale(0.18 -0.18)">
     <defs>
      <path id="CMR17-65" d="M 2233 2240 
C 2112 2240 1932 2240 1932 2015 
C 1932 1836 2080 1785 2163 1785 
C 2208 1785 2393 1804 2393 2028 
C 2393 2476 1958 2816 1465 2816 
C 787 2816 211 2201 211 1379 
C 211 521 812 -64 1465 -64 
C 2259 -64 2457 676 2457 747 
C 2457 773 2451 792 2406 792 
C 2361 792 2355 786 2329 702 
C 2163 180 1798 51 1523 51 
C 1113 51 620 431 620 1385 
C 620 2358 1094 2700 1472 2700 
C 1721 2700 2092 2582 2233 2240 
z
" transform="scale(0.015625)"/>
     </defs>
     <use xlink:href="#CMR17-56" transform="scale(0.996264)"/>
     <use xlink:href="#CMR17-74" transform="translate(58.702625 0) scale(0.996264)"/>
     <use xlink:href="#CMR17-63" transform="translate(93.983393 0) scale(0.996264)"/>
     <use xlink:href="#CMR17-65" transform="translate(139.67387 0) scale(0.996264)"/>
     <use xlink:href="#CMR17-6d" transform="translate(177.557077 0) scale(0.996264)"/>
     <use xlink:href="#CMR17-67" transform="translate(223.247539 0) scale(0.996264)"/>
     <use xlink:href="#CMR17-66" transform="translate(263.733199 0) scale(0.996264)"/>
    </g>
   </g>
  </g>
 </g>
 <defs>
  <clipPath id="p57d0dd3d40">
   <path d="M 247.028567 118.54035 
C 247.028567 106.987354 244.752879 95.546697 240.331739 84.873122 
C 235.910599 74.199546 229.429987 64.500625 221.260786 56.331424 
C 213.091585 48.162223 203.392664 41.681611 192.719088 37.260471 
C 182.045513 32.839332 170.604856 30.563643 159.051861 30.563643 
C 147.498865 30.563643 136.058208 32.839332 125.384633 37.260471 
C 114.711057 41.681611 105.012136 48.162223 96.842935 56.331424 
C 88.673734 64.500625 82.193122 74.199546 77.771982 84.873122 
C 73.350843 95.546697 71.075154 106.987354 71.075154 118.54035 
C 71.075154 130.093345 73.350843 141.534002 77.771982 152.207577 
C 82.193122 162.881153 88.673734 172.580074 96.842935 180.749275 
C 105.012136 188.918476 114.711057 195.399088 125.384633 199.820228 
C 136.058208 204.241368 147.498865 206.517056 159.051861 206.517056 
C 170.604856 206.517056 182.045513 204.241368 192.719088 199.820228 
C 203.392664 195.399088 213.091585 188.918476 221.260786 180.749275 
C 229.429987 172.580074 235.910599 162.881153 240.331739 152.207577 
C 244.752879 141.534002 247.028567 130.093345 247.028567 118.54035 
M 159.051861 118.54035 
C 159.051861 118.54035 159.051861 118.54035 159.051861 118.54035 
C 159.051861 118.54035 159.051861 118.54035 159.051861 118.54035 
C 159.051861 118.54035 159.051861 118.54035 159.051861 118.54035 
C 159.051861 118.54035 159.051861 118.54035 159.051861 118.54035 
C 159.051861 118.54035 159.051861 118.54035 159.051861 118.54035 
C 159.051861 118.54035 159.051861 118.54035 159.051861 118.54035 
C 159.051861 118.54035 159.051861 118.54035 159.051861 118.54035 
C 159.051861 118.54035 159.051861 118.54035 159.051861 118.54035 
C 159.051861 118.54035 159.051861 118.54035 159.051861 118.54035 
C 159.051861 118.54035 159.051861 118.54035 159.051861 118.54035 
C 159.051861 118.54035 159.051861 118.54035 159.051861 118.54035 
C 159.051861 118.54035 159.051861 118.54035 159.051861 118.54035 
C 159.051861 118.54035 159.051861 118.54035 159.051861 118.54035 
C 159.051861 118.54035 159.051861 118.54035 159.051861 118.54035 
C 159.051861 118.54035 159.051861 118.54035 159.051861 118.54035 
C 159.051861 118.54035 159.051861 118.54035 159.051861 118.54035 
z
"/>
  </clipPath>
 </defs>
</svg>
