<?xml version="1.0" encoding="utf-8" standalone="no"?>
<!DOCTYPE svg PUBLIC "-//W3C//DTD SVG 1.1//EN"
  "http://www.w3.org/Graphics/SVG/1.1/DTD/svg11.dtd">
<svg xmlns:xlink="http://www.w3.org/1999/xlink" width="373.32pt" height="203.15pt" viewBox="0 0 373.32 203.15" xmlns="http://www.w3.org/2000/svg" version="1.1">
 <metadata>
  <rdf:RDF xmlns:dc="http://purl.org/dc/elements/1.1/" xmlns:cc="http://creativecommons.org/ns#" xmlns:rdf="http://www.w3.org/1999/02/22-rdf-syntax-ns#">
   <cc:Work>
    <dc:type rdf:resource="http://purl.org/dc/dcmitype/StillImage"/>
    <dc:date>2026-07-01T13:27:21.367099</dc:date>
    <dc:format>image/svg+xml</dc:format>
    <dc:creator>
     <cc:Agent>
      <dc:title>Matplotlib v3.11.0, https://matplotlib.org/</dc:title>
     </cc:Agent>
    </dc:creator>
   </cc:Work>
  </rdf:RDF>
 </metadata>
 <defs>
  <style type="text/css">*{stroke-linejoin: round; stroke-linecap: butt}</style>
 </defs>
 <g id="figure_1">
  <g id="patch_1">
   <path d="M 0 203.15 
L 373.32 203.15 
L 373.32 0 
L 0 0 
z
" style="fill: #ffffff"/>
  </g>
  <g id="axes_1">
   <g id="patch_2">
    <path d="M 53.050175 150.607032 
L 366.12 150.607032 
L 366.12 7.2 
L 53.050175 7.2 
z
" style="fill: #ffffff"/>
   </g>
   <g id="line2d_1">
    <path d="M 67.285367 135.345804 
L 114.841983 135.261459 
L 130.970993 126.989931 
L 136.831342 123.987153 
L 139.313094 122.714267 
L 153.695862 115.338504 
L 169.673025 107.14605 
L 174.788374 104.524855 
L 180.169456 101.765381 
L 200.464771 91.359265 
L 208.531648 87.222285 
L 217.229641 82.763738 
L 222.66292 79.975879 
L 227.987059 77.246818 
L 351.889553 13.718501 
L 351.889553 13.718501 
" clip-path="url(#p5703642d85)" style="fill: none; stroke-dasharray: 9.25,4; stroke-dashoffset: 0; stroke: #808080; stroke-width: 2.5"/>
   </g>
   <g id="matplotlib.axis_1">
    <g id="xtick_1">
     <g id="line2d_2">
      <defs>
       <path id="m059d0161ed" d="M 0 0 
L 0 6 
" style="stroke: #000000; stroke-width: 1.5"/>
      </defs>
      <g>
       <use xlink:href="#m059d0161ed" x="67.223679" y="150.607032" style="stroke: #000000; stroke-width: 1.5"/>
      </g>
     </g>
     <g id="text_1">
      <!-- $\mathdefault{0}$ -->
      <g transform="translate(63.111536 172.560332) scale(0.18 -0.18)">
       <defs>
        <path id="CMR17-32" d="M 2688 2038 
C 2688 2430 2681 3099 2412 3613 
C 2176 4063 1798 4224 1465 4224 
C 1158 4224 768 4082 524 3620 
C 268 3137 243 2539 243 2038 
C 243 1671 249 1112 448 623 
C 723 -39 1216 -128 1465 -128 
C 1760 -128 2208 -7 2470 604 
C 2662 1048 2688 1568 2688 2038 
z
M 1465 -26 
C 1056 -26 812 328 723 816 
C 652 1196 652 1749 652 2109 
C 652 2604 652 3015 736 3407 
C 857 3954 1216 4121 1465 4121 
C 1728 4121 2067 3947 2188 3420 
C 2272 3054 2278 2623 2278 2109 
C 2278 1691 2278 1176 2201 797 
C 2067 96 1689 -26 1465 -26 
z
" transform="scale(0.015625)"/>
       </defs>
       <use xlink:href="#CMR17-32" transform="scale(0.996264)"/>
      </g>
     </g>
    </g>
    <g id="xtick_2">
     <g id="line2d_3">
      <g>
       <use xlink:href="#m059d0161ed" x="162.128121" y="150.607032" style="stroke: #000000; stroke-width: 1.5"/>
      </g>
     </g>
     <g id="text_2">
      <!-- $\mathdefault{2}$ -->
      <g transform="translate(158.015979 172.560332) scale(0.18 -0.18)">
       <defs>
        <path id="CMR17-34" d="M 2668 990 
L 2553 990 
C 2489 537 2438 460 2412 422 
C 2380 371 1920 371 1830 371 
L 601 371 
C 832 620 1280 1073 1824 1596 
C 2214 1966 2668 2400 2668 3033 
C 2668 3788 2067 4224 1395 4224 
C 691 4224 262 3603 262 3027 
C 262 2777 448 2745 524 2745 
C 588 2745 780 2783 780 3007 
C 780 3206 614 3264 524 3264 
C 486 3264 448 3257 422 3244 
C 544 3788 915 4057 1305 4057 
C 1862 4057 2227 3616 2227 3033 
C 2227 2477 1900 1998 1536 1583 
L 262 147 
L 262 0 
L 2515 0 
L 2668 990 
z
" transform="scale(0.015625)"/>
       </defs>
       <use xlink:href="#CMR17-34" transform="scale(0.996264)"/>
      </g>
     </g>
    </g>
    <g id="xtick_3">
     <g id="line2d_4">
      <g>
       <use xlink:href="#m059d0161ed" x="257.032564" y="150.607032" style="stroke: #000000; stroke-width: 1.5"/>
      </g>
     </g>
     <g id="text_3">
      <!-- $\mathdefault{4}$ -->
      <g transform="translate(252.920421 172.560332) scale(0.18 -0.18)">
       <defs>
        <path id="CMR17-36" d="M 2150 4147 
C 2150 4281 2144 4288 2028 4288 
L 128 1254 
L 128 1088 
L 1779 1088 
L 1779 460 
C 1779 230 1766 166 1318 166 
L 1196 166 
L 1196 0 
C 1401 12 1747 12 1964 12 
C 2182 12 2528 12 2732 0 
L 2732 166 
L 2611 166 
C 2163 166 2150 230 2150 460 
L 2150 1088 
L 2803 1088 
L 2803 1254 
L 2150 1254 
L 2150 4147 
z
M 1798 3723 
L 1798 1254 
L 256 1254 
L 1798 3723 
z
" transform="scale(0.015625)"/>
       </defs>
       <use xlink:href="#CMR17-36" transform="scale(0.996264)"/>
      </g>
     </g>
    </g>
    <g id="xtick_4">
     <g id="line2d_5">
      <g>
       <use xlink:href="#m059d0161ed" x="351.937006" y="150.607032" style="stroke: #000000; stroke-width: 1.5"/>
      </g>
     </g>
     <g id="text_4">
      <!-- $\mathdefault{6}$ -->
      <g transform="translate(347.824863 172.560332) scale(0.18 -0.18)">
       <defs>
        <path id="CMR17-38" d="M 678 2198 
C 678 3712 1395 4076 1811 4076 
C 1945 4076 2272 4049 2400 3782 
C 2297 3782 2105 3782 2105 3558 
C 2105 3385 2246 3328 2336 3328 
C 2393 3328 2566 3353 2566 3571 
C 2566 3987 2246 4224 1804 4224 
C 1043 4224 243 3411 243 2011 
C 243 257 966 -128 1478 -128 
C 2099 -128 2688 431 2688 1295 
C 2688 2101 2169 2688 1516 2688 
C 1126 2688 838 2430 678 1979 
L 678 2198 
z
M 1478 25 
C 691 25 691 1212 691 1450 
C 691 1914 908 2585 1504 2585 
C 1612 2585 1926 2585 2137 2140 
C 2252 1889 2252 1624 2252 1302 
C 2252 954 2252 696 2118 438 
C 1977 173 1772 25 1478 25 
z
" transform="scale(0.015625)"/>
       </defs>
       <use xlink:href="#CMR17-38" transform="scale(0.996264)"/>
      </g>
     </g>
    </g>
    <g id="text_5">
     <!-- Time (s) -->
     <g transform="translate(178.514856 191.481816) scale(0.18 -0.18)">
      <defs>
       <path id="CMR17-56" d="M 3981 4332 
L 288 4332 
L 179 2924 
L 294 2924 
C 377 3981 467 4166 1452 4166 
C 1568 4166 1753 4166 1804 4159 
C 1926 4140 1926 4064 1926 3917 
L 1926 465 
C 1926 236 1907 166 1376 166 
L 1196 166 
L 1196 0 
C 1504 6 1824 12 2137 12 
C 2451 12 2771 6 3078 0 
L 3078 166 
L 2899 166 
C 2368 166 2348 236 2348 465 
L 2348 3917 
C 2348 4057 2348 4134 2464 4159 
C 2515 4166 2700 4166 2816 4166 
C 3795 4166 3891 3981 3974 2924 
L 4089 2924 
L 3981 4332 
z
" transform="scale(0.015625)"/>
       <path id="CMR17-6b" d="M 992 3961 
C 992 4102 876 4224 729 4224 
C 588 4224 467 4108 467 3961 
C 467 3820 582 3699 729 3699 
C 870 3699 992 3814 992 3961 
z
M 243 2745 
L 243 2579 
C 601 2579 652 2540 652 2231 
L 652 443 
C 652 198 627 166 217 166 
L 217 0 
C 371 12 646 12 806 12 
C 960 12 1222 12 1369 0 
L 1369 166 
C 992 166 979 205 979 436 
L 979 2816 
L 243 2745 
z
" transform="scale(0.015625)"/>
       <path id="CMR17-6f" d="M 4326 1954 
C 4326 2276 4269 2816 3507 2816 
C 3072 2816 2771 2520 2656 2173 
L 2649 2173 
C 2572 2700 2195 2816 1836 2816 
C 1331 2816 1068 2424 972 2166 
L 966 2166 
L 966 2816 
L 211 2745 
L 211 2578 
C 588 2578 646 2540 646 2231 
L 646 443 
C 646 198 620 166 211 166 
L 211 0 
C 364 12 646 12 812 12 
C 979 12 1267 12 1420 0 
L 1420 166 
C 1011 166 985 192 985 443 
L 985 1678 
C 985 2269 1344 2713 1792 2713 
C 2265 2713 2316 2289 2316 1980 
L 2316 443 
C 2316 198 2291 166 1881 166 
L 1881 0 
C 2035 12 2316 12 2483 12 
C 2649 12 2937 12 3091 0 
L 3091 166 
C 2681 166 2656 192 2656 443 
L 2656 1678 
C 2656 2269 3014 2713 3462 2713 
C 3936 2713 3987 2289 3987 1980 
L 3987 443 
C 3987 198 3961 166 3552 166 
L 3552 0 
C 3705 12 3987 12 4153 12 
C 4320 12 4608 12 4761 0 
L 4761 166 
C 4352 166 4326 192 4326 443 
L 4326 1954 
z
" transform="scale(0.015625)"/>
       <path id="CMR17-67" d="M 2438 1503 
C 2464 1529 2464 1542 2464 1606 
C 2464 2251 2118 2816 1388 2816 
C 710 2816 172 2175 172 1394 
C 172 554 780 -64 1459 -64 
C 2176 -64 2457 619 2457 755 
C 2457 800 2419 800 2406 800 
C 2361 800 2355 787 2329 709 
C 2188 270 1836 51 1504 51 
C 1228 51 953 206 780 490 
C 582 819 582 1200 582 1503 
L 2438 1503 
z
M 588 1600 
C 633 2511 1126 2713 1382 2713 
C 1817 2713 2112 2308 2118 1600 
L 588 1600 
z
" transform="scale(0.015625)"/>
       <path id="CMR17-29" d="M 1958 -1562 
C 1958 -1556 1958 -1543 1939 -1524 
C 1644 -1223 857 -403 857 1596 
C 857 3595 1632 4408 1945 4729 
C 1945 4735 1958 4748 1958 4767 
C 1958 4787 1939 4800 1913 4800 
C 1843 4800 1299 4325 985 3620 
C 665 2909 576 2218 576 1603 
C 576 1141 620 360 1004 -467 
C 1312 -1133 1836 -1600 1913 -1600 
C 1945 -1600 1958 -1588 1958 -1562 
z
" transform="scale(0.015625)"/>
       <path id="CMR17-75" d="M 1977 2688 
C 1977 2803 1971 2809 1932 2809 
C 1907 2809 1900 2803 1824 2707 
C 1804 2681 1747 2617 1728 2592 
C 1523 2809 1235 2816 1126 2816 
C 416 2816 160 2444 160 2073 
C 160 1497 812 1363 998 1324 
C 1401 1241 1542 1216 1676 1100 
C 1760 1024 1900 883 1900 652 
C 1900 384 1747 38 1158 38 
C 601 38 403 460 288 1024 
C 268 1113 268 1120 217 1120 
C 166 1120 160 1113 160 985 
L 160 64 
C 160 -52 166 -58 204 -58 
C 236 -58 243 -52 275 0 
C 313 57 409 211 448 275 
C 576 102 800 -64 1158 -64 
C 1792 -64 2131 281 2131 780 
C 2131 1107 1958 1280 1875 1356 
C 1683 1555 1459 1600 1190 1651 
C 838 1728 390 1817 390 2208 
C 390 2374 480 2726 1126 2726 
C 1811 2726 1849 2086 1862 1881 
C 1868 1849 1900 1843 1920 1843 
C 1977 1843 1977 1862 1977 1971 
L 1977 2688 
z
" transform="scale(0.015625)"/>
       <path id="CMR17-2a" d="M 1683 1596 
C 1683 2057 1638 2839 1254 3665 
C 947 4332 422 4800 345 4800 
C 326 4800 300 4793 300 4761 
C 300 4748 307 4742 313 4729 
C 620 4408 1401 3595 1401 1603 
C 1401 -396 627 -1210 313 -1530 
C 307 -1543 300 -1549 300 -1562 
C 300 -1594 326 -1600 345 -1600 
C 416 -1600 960 -1127 1273 -422 
C 1593 289 1683 981 1683 1596 
z
" transform="scale(0.015625)"/>
      </defs>
      <use xlink:href="#CMR17-56" transform="scale(0.996264)"/>
      <use xlink:href="#CMR17-6b" transform="translate(66.509881 0) scale(0.996264)"/>
      <use xlink:href="#CMR17-6f" transform="translate(91.380939 0) scale(0.996264)"/>
      <use xlink:href="#CMR17-67" transform="translate(168.300529 0) scale(0.996264)"/>
      <use xlink:href="#CMR17-29" transform="translate(238.862156 0) scale(0.996264)"/>
      <use xlink:href="#CMR17-75" transform="translate(274.142924 0) scale(0.996264)"/>
      <use xlink:href="#CMR17-2a" transform="translate(309.944261 0) scale(0.996264)"/>
     </g>
    </g>
   </g>
   <g id="matplotlib.axis_2">
    <g id="ytick_1">
     <g id="line2d_6">
      <defs>
       <path id="m4a6e19b1c2" d="M 0 0 
L -6 0 
" style="stroke: #000000; stroke-width: 1.5"/>
      </defs>
      <g>
       <use xlink:href="#m4a6e19b1c2" x="53.050175" y="135.345804" style="stroke: #000000; stroke-width: 1.5"/>
      </g>
     </g>
     <g id="text_6">
      <!-- $\mathdefault{0}$ -->
      <g transform="translate(35.32589 141.572454) scale(0.18 -0.18)">
       <use xlink:href="#CMR17-32" transform="scale(0.996264)"/>
      </g>
     </g>
    </g>
    <g id="ytick_2">
     <g id="line2d_7">
      <g>
       <use xlink:href="#m4a6e19b1c2" x="53.050175" y="54.244445" style="stroke: #000000; stroke-width: 1.5"/>
      </g>
     </g>
     <g id="text_7">
      <!-- $\mathdefault{20}$ -->
      <g transform="translate(27.101604 60.471095) scale(0.18 -0.18)">
       <use xlink:href="#CMR17-34" transform="scale(0.996264)"/>
       <use xlink:href="#CMR17-32" transform="translate(45.690477 0) scale(0.996264)"/>
      </g>
     </g>
    </g>
    <g id="text_8">
     <!-- MCP Angle ($^\circ$) -->
     <g transform="translate(20.63342 134.086822) rotate(-90) scale(0.18 -0.18)">
      <defs>
       <path id="CMR17-4f" d="M 1337 4249 
C 1299 4345 1292 4352 1158 4352 
L 339 4352 
L 339 4185 
C 780 4185 851 4185 851 3898 
L 851 624 
C 851 465 851 166 339 166 
L 339 0 
C 486 12 755 12 915 12 
C 1075 12 1344 12 1491 0 
L 1491 166 
C 979 166 979 465 979 624 
L 979 4159 
L 985 4159 
L 2489 102 
C 2515 38 2528 0 2579 0 
C 2630 0 2643 38 2668 102 
L 4185 4191 
L 4192 4191 
L 4192 453 
C 4192 166 4121 166 3680 166 
L 3680 0 
C 3853 12 4198 12 4384 12 
C 4569 12 4921 12 5094 0 
L 5094 166 
C 4653 166 4582 166 4582 453 
L 4582 3898 
C 4582 4185 4653 4185 5094 4185 
L 5094 4352 
L 4281 4352 
C 4147 4352 4141 4345 4102 4249 
L 2720 516 
L 1337 4249 
z
" transform="scale(0.015625)"/>
       <path id="CMR17-45" d="M 3974 4351 
C 3974 4467 3968 4473 3929 4473 
C 3904 4473 3897 4467 3853 4390 
L 3571 3849 
C 3257 4249 2873 4480 2380 4480 
C 1286 4480 294 3507 294 2179 
C 294 837 1286 -128 2387 -128 
C 3366 -128 3974 741 3974 1482 
C 3974 1547 3974 1573 3917 1573 
C 3865 1573 3865 1553 3859 1495 
C 3808 592 3168 38 2476 38 
C 1824 38 780 502 780 2179 
C 780 3862 1843 4313 2464 4313 
C 3187 4313 3712 3681 3833 2785 
C 3846 2707 3846 2695 3904 2695 
C 3974 2695 3974 2707 3974 2824 
L 3974 4351 
z
" transform="scale(0.015625)"/>
       <path id="CMR17-52" d="M 1267 2048 
L 2291 2048 
C 3116 2048 3718 2583 3718 3187 
C 3718 3791 3129 4352 2291 4352 
L 332 4352 
L 332 4185 
C 774 4185 844 4185 844 3899 
L 844 453 
C 844 166 774 166 332 166 
L 332 0 
C 518 12 857 12 1056 12 
C 1254 12 1593 12 1779 0 
L 1779 166 
C 1337 166 1267 166 1267 453 
L 1267 2048 
z
M 1254 2182 
L 1254 3937 
C 1254 4153 1267 4185 1523 4185 
L 2169 4185 
C 2995 4185 3232 3715 3232 3187 
C 3232 2608 2950 2182 2169 2182 
L 1254 2182 
z
" transform="scale(0.015625)"/>
       <path id="CMR17-43" d="M 2323 4441 
C 2291 4524 2278 4544 2214 4544 
C 2150 4544 2137 4524 2105 4441 
L 748 580 
C 627 236 371 166 147 166 
L 147 0 
C 262 12 518 12 640 12 
C 800 12 1056 12 1209 0 
L 1209 166 
C 908 179 864 382 864 459 
C 864 516 876 548 889 586 
L 1228 1536 
L 2905 1536 
L 3289 453 
C 3321 376 3321 363 3321 338 
C 3321 166 3046 166 2924 166 
L 2924 0 
C 3110 12 3443 12 3641 12 
C 3808 12 4128 12 4281 0 
L 4281 166 
C 3942 166 3827 166 3744 402 
L 2323 4441 
z
M 2067 3924 
L 2848 1702 
L 1286 1702 
L 2067 3924 
z
" transform="scale(0.015625)"/>
       <path id="CMR17-70" d="M 2656 1954 
C 2656 2282 2592 2816 1836 2816 
C 1331 2816 1068 2424 972 2166 
L 966 2166 
L 966 2816 
L 211 2745 
L 211 2578 
C 588 2578 646 2540 646 2231 
L 646 443 
C 646 198 620 166 211 166 
L 211 0 
C 364 12 646 12 812 12 
C 979 12 1267 12 1420 0 
L 1420 166 
C 1011 166 985 192 985 443 
L 985 1678 
C 985 2269 1344 2713 1792 2713 
C 2265 2713 2316 2289 2316 1980 
L 2316 443 
C 2316 198 2291 166 1881 166 
L 1881 0 
C 2035 12 2316 12 2483 12 
C 2649 12 2937 12 3091 0 
L 3091 166 
C 2681 166 2656 192 2656 443 
L 2656 1954 
z
" transform="scale(0.015625)"/>
       <path id="CMR17-69" d="M 710 1165 
C 832 1068 1043 960 1299 960 
C 1804 960 2240 1359 2240 1895 
C 2240 2063 2188 2321 1996 2521 
C 2176 2713 2438 2777 2585 2777 
C 2611 2777 2649 2777 2681 2758 
C 2656 2751 2598 2726 2598 2623 
C 2598 2540 2656 2483 2739 2483 
C 2835 2483 2886 2547 2886 2630 
C 2886 2751 2790 2880 2585 2880 
C 2329 2880 2105 2758 1926 2591 
C 1734 2764 1504 2828 1299 2828 
C 793 2828 358 2431 358 1895 
C 358 1527 569 1294 633 1230 
C 441 1004 441 742 441 710 
C 441 544 505 300 723 166 
C 390 82 128 -184 128 -517 
C 128 -996 736 -1344 1465 -1344 
C 2169 -1344 2803 -1009 2803 -510 
C 2803 384 1856 384 1363 384 
C 1216 384 953 384 921 390 
C 723 422 588 601 588 825 
C 588 883 588 1024 710 1165 
z
M 1299 1068 
C 736 1068 736 1766 736 1895 
C 736 2024 736 2719 1299 2719 
C 1862 2719 1862 2024 1862 1895 
C 1862 1766 1862 1068 1299 1068 
z
M 1465 -1236 
C 825 -1236 384 -883 384 -517 
C 384 -311 492 -118 633 -11 
C 793 102 857 102 1292 102 
C 1817 102 2547 102 2547 -517 
C 2547 -883 2105 -1236 1465 -1236 
z
" transform="scale(0.015625)"/>
       <path id="CMR17-6e" d="M 979 4416 
L 217 4345 
L 217 4179 
C 595 4179 652 4141 652 3835 
L 652 439 
C 652 198 627 166 217 166 
L 217 0 
C 371 12 652 12 812 12 
C 979 12 1260 12 1414 0 
L 1414 166 
C 1004 166 979 191 979 439 
L 979 4416 
z
" transform="scale(0.015625)"/>
       <path id="CMSY10-f" d="M 2841 1599 
C 2841 2266 2272 2816 1600 2816 
C 908 2816 352 2254 352 1599 
C 352 939 908 383 1600 383 
C 2272 383 2841 932 2841 1599 
z
M 1600 640 
C 1043 640 608 1076 608 1599 
C 608 2123 1049 2560 1600 2560 
C 2131 2560 2585 2136 2585 1599 
C 2585 1063 2131 640 1600 640 
z
" transform="scale(0.015625)"/>
      </defs>
      <use xlink:href="#CMR17-4f" transform="scale(0.996264)"/>
      <use xlink:href="#CMR17-45" transform="translate(84.686941 0) scale(0.996264)"/>
      <use xlink:href="#CMR17-52" transform="translate(151.196821 0) scale(0.996264)"/>
      <use xlink:href="#CMR17-43" transform="translate(243.859088 0) scale(0.996264)"/>
      <use xlink:href="#CMR17-70" transform="translate(312.931518 0) scale(0.996264)"/>
      <use xlink:href="#CMR17-69" transform="translate(363.826888 0) scale(0.996264)"/>
      <use xlink:href="#CMR17-6e" transform="translate(409.517365 0) scale(0.996264)"/>
      <use xlink:href="#CMR17-67" transform="translate(434.388423 0) scale(0.996264)"/>
      <use xlink:href="#CMR17-29" transform="translate(504.95005 0) scale(0.996264)"/>
      <use xlink:href="#CMSY10-f" transform="translate(540.230818 36.153639) scale(0.697382)"/>
      <use xlink:href="#CMR17-2a" transform="translate(575.59816 0) scale(0.996264)"/>
     </g>
    </g>
   </g>
   <g id="line2d_8">
    <path d="M 67.280622 135.186845 
L 67.33282 135.345804 
L 67.389762 135.186845 
L 67.546354 135.186845 
L 67.650749 135.345804 
L 67.702947 135.186845 
L 67.755144 135.345804 
L 67.859539 135.345804 
L 67.963934 135.186845 
L 68.073074 135.345804 
L 68.229666 135.186845 
L 68.438456 135.186845 
L 68.599794 135.345804 
L 68.651991 135.345804 
L 68.808584 135.186845 
L 68.969921 135.186845 
L 69.126513 135.345804 
L 69.283106 135.345804 
L 69.387501 135.186845 
L 69.444443 135.345804 
L 69.496641 135.186845 
L 69.548838 135.186845 
L 69.705431 135.345804 
L 69.862023 135.186845 
L 70.075558 135.186845 
L 70.127755 135.345804 
L 70.179953 135.186845 
L 70.23215 135.186845 
L 70.336545 135.345804 
L 70.393488 135.186845 
L 70.445685 135.345804 
L 70.497883 135.345804 
L 70.602278 135.186845 
L 70.706672 135.345804 
L 70.86801 135.186845 
L 70.920207 135.186845 
L 71.0768 135.345804 
L 71.128997 135.186845 
L 71.181195 135.345804 
L 71.233392 135.345804 
L 71.39473 135.186845 
L 71.446927 135.186845 
L 71.603519 135.345804 
L 71.707914 135.345804 
L 71.869252 135.186845 
L 72.025844 135.345804 
L 72.078042 135.186845 
L 72.130239 135.345804 
L 72.182436 135.345804 
L 72.234634 135.186845 
L 72.291577 135.345804 
L 72.552564 135.345804 
L 72.656959 135.186845 
L 72.766099 135.345804 
L 72.818296 135.186845 
L 72.870494 135.345804 
L 72.922691 135.345804 
L 73.079283 135.186845 
L 73.240621 135.345804 
L 73.345016 135.186845 
L 73.501608 135.345804 
L 73.553806 135.345804 
L 73.715143 135.186845 
L 73.767341 135.186845 
L 73.923933 135.345804 
L 74.132723 135.345804 
L 74.241863 135.186845 
L 74.398455 135.345804 
L 74.555048 135.186845 
L 74.664188 135.186845 
L 74.825525 135.345804 
L 75.02957 135.345804 
L 75.190907 135.186845 
L 75.243105 135.186845 
L 75.295302 135.345804 
L 75.3475 135.186845 
L 75.504092 135.186845 
L 75.66543 135.345804 
L 75.926417 135.345804 
L 76.087754 135.186845 
L 76.192149 135.186845 
L 76.348741 135.345804 
L 76.718869 135.345804 
L 76.771066 135.186845 
L 76.823264 135.345804 
L 77.036799 135.345804 
L 77.088996 135.186845 
L 77.141194 135.345804 
L 77.245588 135.345804 
L 77.402181 135.186845 
L 77.615716 135.186845 
L 77.772308 135.345804 
L 77.876703 135.345804 
L 77.9289 135.186845 
L 77.985843 135.345804 
L 78.142435 135.345804 
L 78.299028 135.186845 
L 78.351225 135.186845 
L 78.512563 135.345804 
L 78.669155 135.186845 
L 78.825747 135.345804 
L 78.934888 135.345804 
L 79.039282 135.186845 
L 79.143677 135.345804 
L 79.195875 135.186845 
L 79.248072 135.345804 
L 79.513805 135.345804 
L 79.670397 135.186845 
L 79.826989 135.186845 
L 79.988327 135.345804 
L 80.04527 135.345804 
L 80.197117 135.186845 
L 80.410652 135.186845 
L 80.567244 135.345804 
L 81.093964 135.345804 
L 81.250556 135.186845 
L 81.411893 135.186845 
L 81.568486 135.345804 
L 81.620683 135.345804 
L 81.672881 135.186845 
L 81.725078 135.345804 
L 81.782021 135.345804 
L 81.834218 135.186845 
L 81.886416 135.345804 
L 82.30874 135.345804 
L 82.360938 135.186845 
L 82.413135 135.345804 
L 82.783263 135.345804 
L 82.83546 135.186845 
L 82.887658 135.345804 
L 82.939855 135.345804 
L 83.04425 135.186845 
L 83.096447 135.345804 
L 83.148645 135.186845 
L 83.205587 135.186845 
L 83.309982 135.345804 
L 83.36218 135.186845 
L 83.419122 135.345804 
L 83.784505 135.345804 
L 83.888899 135.186845 
L 84.045492 135.345804 
L 84.097689 135.345804 
L 84.206829 135.186845 
L 84.311224 135.345804 
L 84.415619 135.186845 
L 84.572211 135.345804 
L 84.785746 135.345804 
L 84.942339 135.186845 
L 84.994536 135.186845 
L 85.155874 135.345804 
L 85.469058 135.345804 
L 85.630396 135.186845 
L 85.682593 135.186845 
L 85.839186 135.345804 
L 86.104918 135.345804 
L 86.26151 135.186845 
L 86.57944 135.186845 
L 86.736033 135.345804 
L 86.840428 135.345804 
L 86.892625 135.186845 
L 86.944822 135.345804 
L 87.001765 135.345804 
L 87.153612 135.186845 
L 87.31495 135.186845 
L 87.476287 135.345804 
L 87.737275 135.345804 
L 87.893867 135.186845 
L 88.055204 135.186845 
L 88.211797 135.345804 
L 88.368389 135.345804 
L 88.477529 135.186845 
L 88.634122 135.345804 
L 88.738516 135.345804 
L 88.842911 135.186845 
L 88.952051 135.345804 
L 89.004249 135.186845 
L 89.056446 135.345804 
L 89.317434 135.345804 
L 89.374376 135.186845 
L 89.426574 135.345804 
L 89.478771 135.345804 
L 89.635363 135.186845 
L 89.739758 135.186845 
L 89.848898 135.345804 
L 89.901096 135.186845 
L 89.953293 135.345804 
L 90.162083 135.345804 
L 90.323421 135.186845 
L 90.375618 135.186845 
L 90.53221 135.345804 
L 91.324662 135.345804 
L 91.424312 135.186845 
L 91.58565 135.345804 
L 91.799185 135.345804 
L 91.955777 135.186845 
L 92.164567 135.186845 
L 92.325904 135.345804 
L 92.378102 135.345804 
L 92.430299 135.186845 
L 92.482497 135.345804 
L 92.643834 135.345804 
L 92.800427 135.186845 
L 92.852624 135.186845 
L 92.957019 135.345804 
L 93.061414 135.186845 
L 93.170554 135.345804 
L 93.331891 135.186845 
L 93.483739 135.345804 
L 93.535936 135.345804 
L 93.645076 135.186845 
L 93.749471 135.345804 
L 93.806414 135.186845 
L 93.853866 135.345804 
L 94.010458 135.345804 
L 94.171796 135.186845 
L 94.276191 135.186845 
L 94.432783 135.345804 
L 94.48498 135.345804 
L 94.59412 135.186845 
L 94.750713 135.345804 
L 94.907305 135.186845 
L 95.016445 135.345804 
L 95.12084 135.186845 
L 95.173038 135.345804 
L 95.225235 135.186845 
L 95.32963 135.186845 
L 95.486222 135.345804 
L 95.64756 135.345804 
L 95.751955 135.186845 
L 95.804152 135.345804 
L 95.861095 135.186845 
L 95.908547 135.186845 
L 96.069885 135.345804 
L 96.330872 135.345804 
L 96.435267 135.186845 
L 96.596604 135.345804 
L 96.753197 135.345804 
L 96.909789 135.186845 
L 97.071126 135.186845 
L 97.128069 135.345804 
L 97.175521 135.186845 
L 97.227719 135.186845 
L 97.332114 135.345804 
L 97.493451 135.186845 
L 97.545649 135.345804 
L 97.597846 135.186845 
L 97.702241 135.186845 
L 97.858833 135.345804 
L 98.020171 135.345804 
L 98.077114 135.186845 
L 98.124566 135.345804 
L 98.176763 135.345804 
L 98.281158 135.186845 
L 98.442496 135.345804 
L 98.599088 135.345804 
L 98.703483 135.186845 
L 98.86482 135.345804 
L 98.917018 135.345804 
L 99.07361 135.186845 
L 99.178005 135.345804 
L 99.230202 135.186845 
L 99.2824 135.345804 
L 99.39154 135.345804 
L 99.443737 135.186845 
L 99.495935 135.345804 
L 99.652527 135.345804 
L 99.756922 135.186845 
L 99.91826 135.345804 
L 100.022655 135.186845 
L 100.179247 135.345804 
L 100.497177 135.345804 
L 100.653769 135.186845 
L 100.815107 135.345804 
L 100.867304 135.345804 
L 100.919502 135.186845 
L 100.971699 135.345804 
L 101.076094 135.345804 
L 101.128291 135.186845 
L 101.180489 135.345804 
L 101.341826 135.345804 
L 101.498419 135.186845 
L 101.602814 135.186845 
L 101.711954 135.345804 
L 101.816349 135.186845 
L 101.972941 135.345804 
L 102.025138 135.186845 
L 102.077336 135.345804 
L 102.395266 135.345804 
L 102.551858 135.186845 
L 102.713196 135.345804 
L 102.974183 135.345804 
L 103.078578 135.186845 
L 103.13552 135.345804 
L 103.187718 135.186845 
L 103.292113 135.186845 
L 103.448705 135.345804 
L 103.557845 135.345804 
L 103.610042 135.186845 
L 103.66224 135.345804 
L 104.136762 135.345804 
L 104.241157 135.186845 
L 104.397749 135.345804 
L 104.559087 135.345804 
L 104.663482 135.186845 
L 104.820074 135.345804 
L 105.138004 135.345804 
L 105.294596 135.186845 
L 105.346794 135.186845 
L 105.508131 135.345804 
L 105.821316 135.345804 
L 105.982654 135.186845 
L 106.034851 135.186845 
L 106.191443 135.345804 
L 106.243641 135.345804 
L 106.400233 135.186845 
L 106.509373 135.345804 
L 106.613768 135.186845 
L 106.77036 135.345804 
L 106.874755 135.345804 
L 107.036093 135.186845 
L 107.192685 135.345804 
L 107.244883 135.345804 
L 107.29708 135.186845 
L 107.349278 135.345804 
L 107.40622 135.345804 
L 107.510615 135.186845 
L 107.61501 135.345804 
L 107.719405 135.186845 
L 107.880742 135.345804 
L 108.037335 135.345804 
L 108.14173 135.186845 
L 108.298322 135.345804 
L 108.511857 135.345804 
L 108.564054 135.186845 
L 108.616252 135.345804 
L 108.668449 135.345804 
L 108.829787 135.186845 
L 108.934182 135.345804 
L 109.090774 135.186845 
L 109.142971 135.186845 
L 109.247366 135.345804 
L 109.408704 135.186845 
L 109.460901 135.186845 
L 109.617494 135.345804 
L 109.721889 135.186845 
L 109.883226 135.345804 
L 110.039818 135.186845 
L 110.092016 135.186845 
L 110.196411 135.345804 
L 110.305551 135.186845 
L 110.462143 135.345804 
L 110.514341 135.345804 
L 110.670933 135.186845 
L 110.936665 135.186845 
L 111.04106 135.345804 
L 111.202398 135.186845 
L 111.35899 135.345804 
L 111.411188 135.186845 
L 111.463385 135.345804 
L 111.619977 135.345804 
L 111.781315 135.186845 
L 111.88571 135.345804 
L 111.990105 135.186845 
L 112.151442 135.345804 
L 112.20364 135.345804 
L 112.255837 135.186845 
L 112.308035 135.345804 
L 112.569022 135.345804 
L 112.678162 135.186845 
L 112.834754 135.345804 
L 112.886952 135.345804 
L 112.991347 135.186845 
L 113.152684 135.345804 
L 113.204882 135.345804 
L 113.361474 135.186845 
L 113.465869 135.186845 
L 113.627206 135.345804 
L 113.679404 135.345804 
L 113.731601 135.186845 
L 113.783799 135.345804 
L 114.049531 135.345804 
L 114.153926 135.186845 
L 114.310518 135.345804 
L 114.362716 135.186845 
L 114.414913 135.345804 
L 114.524053 135.345804 
L 114.628448 135.186845 
L 114.6759 135.345804 
L 114.732843 135.186845 
L 114.785041 135.186845 
L 114.941633 135.345804 
L 114.998576 135.345804 
L 115.050773 135.186845 
L 115.10297 135.345804 
L 115.363958 135.345804 
L 115.473098 135.186845 
L 115.577493 135.345804 
L 115.734085 135.186845 
L 115.890677 135.345804 
L 115.999817 135.345804 
L 116.104212 135.186845 
L 116.260805 135.345804 
L 116.313002 135.345804 
L 116.47434 135.186845 
L 116.526537 135.186845 
L 116.683129 135.345804 
L 116.787524 135.345804 
L 116.896664 135.186845 
L 117.053257 135.345804 
L 117.105454 135.186845 
L 117.157652 135.345804 
L 117.209849 135.345804 
L 117.371187 135.186845 
L 117.475581 135.186845 
L 117.579976 135.345804 
L 117.736569 135.186845 
L 117.788766 135.186845 
L 117.950104 135.345804 
L 118.054499 135.345804 
L 118.211091 135.186845 
L 118.263288 135.345804 
L 118.320231 135.186845 
L 118.476823 135.186845 
L 118.633416 135.345804 
L 118.685613 135.186845 
L 118.737811 135.345804 
L 118.899148 135.345804 
L 119.060486 135.186845 
L 119.112683 135.186845 
L 119.269275 135.345804 
L 119.37367 135.186845 
L 119.535008 135.345804 
L 119.634658 135.345804 
L 119.686855 135.186845 
L 119.743798 135.345804 
L 120.004785 135.345804 
L 120.166122 135.186845 
L 120.21832 135.186845 
L 120.374912 135.345804 
L 120.479307 135.186845 
L 120.635899 135.345804 
L 120.797237 135.345804 
L 120.953829 135.186845 
L 121.110422 135.345804 
L 121.167364 135.186845 
L 121.219562 135.345804 
L 121.376154 135.345804 
L 121.532746 135.186845 
L 121.694084 135.345804 
L 121.850676 135.186845 
L 122.007269 135.345804 
L 122.116409 135.345804 
L 122.273001 135.186845 
L 122.325198 135.186845 
L 122.429593 135.345804 
L 122.590931 135.186845 
L 122.747523 135.186845 
L 122.904116 135.345804 
L 123.117651 135.345804 
L 123.274243 135.186845 
L 123.430835 135.345804 
L 123.592173 135.345804 
L 123.748765 135.186845 
L 123.905357 135.345804 
L 123.957555 135.345804 
L 124.066695 135.186845 
L 124.223287 135.345804 
L 124.645612 135.345804 
L 124.802204 135.186845 
L 125.224529 135.186845 
L 125.381122 135.345804 
L 125.912586 135.345804 
L 126.064433 135.186845 
L 126.225771 135.345804 
L 126.491503 135.345804 
L 126.610134 135.186845 
L 126.752491 135.345804 
L 126.913828 135.186845 
L 126.966026 135.186845 
L 127.070421 135.345804 
L 127.174815 135.186845 
L 127.336153 135.345804 
L 127.38835 135.186845 
L 127.440548 135.345804 
L 127.492745 135.345804 
L 127.544943 135.186845 
L 127.59714 135.345804 
L 127.649338 135.345804 
L 127.810675 135.186845 
L 127.967268 135.345804 
L 128.12386 135.186845 
L 128.44179 135.186845 
L 128.598382 135.345804 
L 128.916312 135.345804 
L 128.968509 135.186845 
L 129.020707 135.345804 
L 129.234242 135.345804 
L 129.286439 135.186845 
L 129.338637 135.345804 
L 129.547427 135.345804 
L 129.708764 135.186845 
L 129.760962 135.186845 
L 129.917554 135.345804 
L 130.021949 135.345804 
L 130.183286 135.186845 
L 130.287681 135.186845 
L 130.444273 135.345804 
L 130.548668 135.345804 
L 130.605611 135.186845 
L 130.657808 135.345804 
L 130.710006 135.345804 
L 130.866598 135.186845 
L 131.184528 135.186845 
L 131.34112 135.345804 
L 131.497713 135.345804 
L 131.554655 135.186845 
L 131.606853 135.345804 
L 131.65905 135.345804 
L 131.820388 135.186845 
L 131.882076 135.186845 
L 132.024432 135.345804 
L 132.081375 135.186845 
L 132.133573 135.345804 
L 132.18577 135.345804 
L 132.342362 135.186845 
L 132.39456 135.186845 
L 132.555897 135.345804 
L 132.660292 135.345804 
L 132.71249 135.186845 
L 132.764687 135.345804 
L 132.921279 135.345804 
L 133.03042 135.186845 
L 133.134814 135.345804 
L 133.291407 135.186845 
L 133.447999 135.345804 
L 133.504942 135.345804 
L 133.557139 135.186845 
L 133.609337 135.345804 
L 133.818126 135.345804 
L 133.979464 135.186845 
L 134.136056 135.186845 
L 134.292649 135.345804 
L 134.397044 135.186845 
L 134.558381 135.345804 
L 134.610578 135.345804 
L 134.767171 135.186845 
L 134.871566 135.186845 
L 135.032903 135.345804 
L 135.085101 135.186845 
L 135.142043 135.345804 
L 135.246438 135.345804 
L 135.29389 135.186845 
L 135.346088 135.345804 
L 135.403031 135.345804 
L 135.559623 135.186845 
L 135.716215 135.345804 
L 136.034145 135.345804 
L 136.091088 135.186845 
L 136.13854 135.345804 
L 136.878795 135.345804 
L 136.98319 135.186845 
L 137.139782 135.345804 
L 137.196725 135.345804 
L 137.301119 135.186845 
L 137.457712 135.345804 
L 137.514654 135.345804 
L 137.671247 135.186845 
L 137.880037 135.186845 
L 138.041374 135.345804 
L 138.197966 135.345804 
L 138.250164 135.186845 
L 138.302361 135.345804 
L 138.406756 135.345804 
L 138.515896 135.186845 
L 138.615546 135.345804 
L 138.667743 135.186845 
L 138.724686 135.345804 
L 138.829081 135.345804 
L 138.881278 135.186845 
L 138.933476 135.345804 
L 139.037871 135.345804 
L 139.142266 135.186845 
L 139.303603 135.345804 
L 139.355801 135.186845 
L 139.412743 135.345804 
L 139.460195 135.345804 
L 139.512393 135.186845 
L 139.56459 135.345804 
L 139.67373 135.345804 
L 139.778125 135.186845 
L 139.934718 135.345804 
L 139.986915 135.345804 
L 140.039113 135.186845 
L 140.09131 135.345804 
L 140.20045 135.345804 
L 140.361788 135.186845 
L 140.513635 135.345804 
L 140.565832 135.345804 
L 140.622775 135.186845 
L 140.674972 135.345804 
L 140.779367 135.345804 
L 140.83631 135.186845 
L 140.883762 135.345804 
L 140.93596 135.345804 
L 140.988157 135.186845 
L 141.0451 135.345804 
L 141.097297 135.345804 
L 141.201692 135.186845 
L 141.310832 135.345804 
L 141.410482 135.186845 
L 141.571819 135.345804 
L 141.728412 135.186845 
L 141.785354 135.186845 
L 141.937201 135.345804 
L 142.307329 135.345804 
L 142.416469 135.186845 
L 142.573061 135.345804 
L 142.625259 135.345804 
L 142.781851 135.186845 
L 142.938443 135.345804 
L 142.995386 135.345804 
L 143.047583 135.186845 
L 143.099781 135.345804 
L 143.6265 135.345804 
L 143.730895 135.186845 
L 143.840035 135.345804 
L 143.996628 135.186845 
L 144.101023 135.186845 
L 144.26236 135.345804 
L 144.418953 135.345804 
L 144.47115 135.186845 
L 144.523347 135.345804 
L 144.575545 135.345804 
L 144.632488 135.186845 
L 144.67994 135.345804 
L 144.841277 135.345804 
L 144.893475 135.186845 
L 144.945672 135.345804 
L 145.054812 135.345804 
L 145.10701 135.186845 
L 145.154462 135.345804 
L 145.211405 135.345804 
L 145.367997 135.186845 
L 145.472392 135.345804 
L 145.628984 135.186845 
L 145.685927 135.186845 
L 145.790322 135.345804 
L 145.946914 135.186845 
L 146.003857 135.186845 
L 146.056054 135.345804 
L 146.103506 135.186845 
L 146.155704 135.186845 
L 146.212647 135.345804 
L 146.264844 135.186845 
L 146.317041 135.186845 
L 146.473634 135.345804 
L 147.052551 135.345804 
L 147.104748 135.186845 
L 147.156946 135.345804 
L 147.213888 135.345804 
L 147.370481 135.186845 
L 147.527073 135.345804 
L 147.845003 135.345804 
L 147.8972 135.186845 
L 147.949398 135.345804 
L 148.001595 135.345804 
L 148.158188 135.186845 
L 148.371723 135.186845 
L 148.528315 135.345804 
L 148.580512 135.186845 
L 148.637455 135.345804 
L 149.002837 135.345804 
L 149.164175 135.186845 
L 149.26857 135.186845 
L 149.320767 135.345804 
L 149.37771 135.186845 
L 149.477359 135.186845 
L 149.638697 135.345804 
L 149.690894 135.186845 
L 149.743092 135.345804 
L 149.951882 135.345804 
L 150.113219 135.186845 
L 150.165417 135.186845 
L 150.269811 135.345804 
L 150.374206 135.186845 
L 150.535544 135.345804 
L 150.744334 135.345804 
L 150.796531 135.186845 
L 150.848729 135.345804 
L 151.062264 135.345804 
L 151.223601 135.186845 
L 151.427646 135.186845 
L 151.588983 135.345804 
L 151.797773 135.345804 
L 151.902168 135.186845 
L 152.063505 135.345804 
L 152.224843 135.345804 
L 152.324493 135.186845 
L 152.37669 135.345804 
L 152.433633 135.186845 
L 152.48583 135.186845 
L 152.642422 135.345804 
L 152.69462 135.186845 
L 152.746817 135.345804 
L 152.799015 135.345804 
L 152.960352 135.186845 
L 153.064747 135.186845 
L 153.22134 135.345804 
L 153.325734 135.345804 
L 153.487072 135.186845 
L 153.64841 135.345804 
L 153.695862 135.345804 
L 153.800257 135.186845 
L 153.961594 135.345804 
L 154.065989 135.345804 
L 154.222581 135.186845 
L 154.383919 135.186845 
L 154.436116 135.345804 
L 154.488314 135.186845 
L 154.697104 135.186845 
L 154.858441 135.345804 
L 154.910639 135.186845 
L 154.962836 135.345804 
L 155.015034 135.345804 
L 155.171626 135.186845 
L 155.280766 135.345804 
L 155.385161 135.186845 
L 155.551244 135.345804 
L 155.650893 135.345804 
L 155.807486 135.186845 
L 155.859683 135.186845 
L 155.968823 135.345804 
L 156.025766 135.186845 
L 156.073218 135.345804 
L 156.282008 135.345804 
L 156.4386 135.186845 
L 156.54774 135.345804 
L 156.64739 135.186845 
L 156.808728 135.345804 
L 157.017517 135.345804 
L 157.069715 135.186845 
L 157.121912 135.345804 
L 157.178855 135.345804 
L 157.231052 135.186845 
L 157.28325 135.345804 
L 157.653377 135.345804 
L 157.809969 135.186845 
L 158.018759 135.186845 
L 158.127899 135.345804 
L 158.284492 135.186845 
L 158.393632 135.186845 
L 158.550224 135.345804 
L 158.602421 135.345804 
L 158.654619 135.186845 
L 158.711562 135.345804 
L 158.759014 135.345804 
L 158.915606 135.186845 
L 159.020001 135.345804 
L 159.129141 135.186845 
L 159.285733 135.345804 
L 159.603663 135.345804 
L 159.708058 135.186845 
L 159.812453 135.345804 
L 159.864651 135.186845 
L 159.916848 135.345804 
L 160.657103 135.345804 
L 160.813695 135.186845 
L 160.975033 135.345804 
L 161.183822 135.345804 
L 161.288217 135.186845 
L 161.392612 135.345804 
L 161.501752 135.186845 
L 161.606147 135.345804 
L 161.715287 135.186845 
L 161.876625 135.345804 
L 162.028472 135.186845 
L 162.194555 135.186845 
L 162.303695 135.345804 
L 162.450797 135.186845 
L 170.256687 135.186845 
L 170.304139 135.027887 
L 170.356337 135.186845 
L 170.830859 135.186845 
L 170.939999 135.027887 
L 171.096591 135.186845 
L 171.148789 135.186845 
L 171.310126 135.027887 
L 171.518916 135.027887 
L 171.571113 135.186845 
L 171.623311 135.027887 
L 178.584552 135.027887 
L 178.741144 134.868928 
L 181.958405 134.868928 
L 182.0628 134.709969 
L 182.224137 134.868928 
L 182.271589 134.868928 
L 182.380729 134.709969 
L 182.537322 134.868928 
L 182.589519 134.868928 
L 182.750857 134.709969 
L 185.593245 134.709969 
L 185.754582 134.551011 
L 188.022799 134.551011 
L 188.179391 134.392052 
L 189.180633 134.392052 
L 189.337225 134.233093 
L 190.025282 134.233093 
L 190.181875 134.074135 
L 191.140409 134.074135 
L 191.287511 133.915176 
L 192.189104 133.915176 
L 192.241301 133.756217 
L 192.293498 133.915176 
L 192.397893 133.915176 
L 192.554486 133.756217 
L 194.082447 133.756217 
L 194.243785 133.597259 
L 194.927097 133.597259 
L 195.088434 133.4383 
L 195.876141 133.4383 
L 196.037479 133.279341 
L 196.407606 133.279341 
L 196.564198 133.120383 
L 196.882128 133.120383 
L 197.038721 132.961424 
L 197.361396 132.961424 
L 197.513243 132.802465 
L 197.831173 132.802465 
L 197.987765 132.643507 
L 198.248752 132.643507 
L 198.405344 132.484548 
L 198.723274 132.484548 
L 198.879867 132.325589 
L 199.041204 132.325589 
L 199.197797 132.166631 
L 199.567924 132.166631 
L 199.729261 132.007672 
L 199.938051 132.007672 
L 200.094644 131.848713 
L 200.360376 131.848713 
L 200.516968 131.689755 
L 200.887096 131.689755 
L 201.043688 131.530796 
L 201.361618 131.530796 
L 201.51821 131.371837 
L 201.83614 131.371837 
L 201.992732 131.212879 
L 202.623847 131.212879 
L 202.785184 131.05392 
L 203.629834 131.05392 
L 203.786426 130.894961 
L 204.626331 130.894961 
L 204.792413 130.736003 
L 205.684515 130.736003 
L 205.841108 130.577044 
L 206.372572 130.577044 
L 206.524419 130.418085 
L 207.108082 130.418085 
L 207.269419 130.259127 
L 207.947986 130.259127 
L 208.114069 130.100168 
L 209.063113 130.100168 
L 209.219706 129.941209 
L 209.903018 129.941209 
L 210.05961 129.782251 
L 210.591075 129.782251 
L 210.747667 129.623292 
L 211.169992 129.623292 
L 211.326584 129.464333 
L 211.535374 129.464333 
L 211.696712 129.305375 
L 212.014641 129.305375 
L 212.171234 129.146416 
L 212.697953 129.146416 
L 212.854546 128.987457 
L 212.963686 128.987457 
L 213.120278 128.828499 
L 213.438208 128.828499 
L 213.5948 128.66954 
L 213.751393 128.66954 
L 213.91273 128.510581 
L 214.01238 128.510581 
L 214.178463 128.351623 
L 214.278112 128.351623 
L 214.43945 128.192664 
L 214.543845 128.192664 
L 214.700437 128.033706 
L 214.809577 128.033706 
L 214.961424 127.874747 
L 215.018367 127.874747 
L 215.174959 127.715788 
L 215.227157 127.715788 
L 215.435947 127.397871 
L 215.602029 127.397871 
L 215.758622 127.238912 
L 215.806074 127.238912 
L 216.019609 126.920995 
L 216.124004 126.920995 
L 216.280596 126.762036 
L 216.337539 126.762036 
L 216.494131 126.603078 
L 216.551074 126.603078 
L 216.707666 126.444119 
L 216.755118 126.444119 
L 216.968653 126.126202 
L 217.125246 126.126202 
L 217.334035 125.808284 
L 217.500118 125.808284 
L 217.651965 125.649326 
L 217.708908 125.649326 
L 217.8655 125.490367 
L 217.969895 125.490367 
L 218.131233 125.331408 
L 218.178685 125.331408 
L 218.340023 125.17245 
L 218.39222 125.17245 
L 218.548812 125.013896 
L 218.653207 125.013896 
L 218.866742 124.695979 
L 219.023335 124.695979 
L 219.232124 124.378062 
L 219.497857 124.378062 
L 219.659194 124.219103 
L 219.706646 124.219103 
L 219.872729 124.060144 
L 219.972379 124.060144 
L 220.181169 123.742227 
L 220.347251 123.742227 
L 220.503844 123.583268 
L 220.551296 123.583268 
L 220.712634 123.42431 
L 220.821774 123.42431 
L 220.978366 123.265351 
L 221.025818 123.265351 
L 221.187156 123.106392 
L 221.296296 123.106392 
L 221.452888 122.947434 
L 221.50034 122.947434 
L 221.656933 122.788475 
L 221.713875 122.788475 
L 221.870468 122.629516 
L 221.974863 122.629516 
L 222.188398 122.311599 
L 222.449385 122.311599 
L 222.610722 122.15264 
L 222.719863 122.15264 
L 222.876455 121.993682 
L 222.99034 121.993682 
L 223.137442 121.834723 
L 223.294034 121.834723 
L 223.464862 121.675764 
L 223.611964 121.675764 
L 223.768557 121.516806 
L 223.977346 121.516806 
L 224.143429 121.357847 
L 224.243079 121.357847 
L 224.413907 121.198888 
L 224.717601 121.198888 
L 224.888429 121.03993 
L 225.092474 121.03993 
L 225.249066 120.880971 
L 225.457856 120.880971 
L 225.614448 120.722012 
L 225.932378 120.722012 
L 226.08897 120.563054 
L 226.349957 120.563054 
L 226.51604 120.404095 
L 226.82448 120.404095 
L 226.985817 120.245136 
L 227.194607 120.245136 
L 227.355945 120.086178 
L 227.669129 120.086178 
L 227.830467 119.927219 
L 228.039257 119.927219 
L 228.200594 119.76826 
L 228.414129 119.76826 
L 228.565976 119.609302 
L 228.722568 119.609302 
L 228.888651 119.450343 
L 229.097441 119.450343 
L 229.254033 119.291385 
L 229.410626 119.291385 
L 229.567218 119.132426 
L 229.671613 119.132426 
L 229.837696 118.973467 
L 230.04174 118.973467 
L 230.203078 118.814509 
L 230.411868 118.814509 
L 230.573205 118.65555 
L 230.729797 118.65555 
L 230.88639 118.496591 
L 231.09518 118.496591 
L 231.261262 118.337633 
L 231.52225 118.337633 
L 231.678842 118.178674 
L 232.205562 118.178674 
L 232.362154 118.019715 
L 233.102408 118.019715 
L 233.259001 117.860757 
L 235.15709 117.860757 
L 235.313682 117.701798 
L 236.110879 117.701798 
L 236.262726 117.542839 
L 236.794191 117.542839 
L 236.955529 117.383881 
L 237.477503 117.383881 
L 237.638841 117.224922 
L 238.05642 117.224922 
L 238.213013 117.065963 
L 238.426548 117.065963 
L 238.58314 116.907005 
L 239.01021 116.907005 
L 239.166802 116.748046 
L 239.53693 116.748046 
L 239.693522 116.589087 
L 240.006707 116.589087 
L 240.168044 116.430129 
L 240.324637 116.430129 
L 240.481229 116.27117 
L 240.694764 116.27117 
L 240.851356 116.112211 
L 241.012694 116.112211 
L 241.169286 115.953253 
L 241.430273 115.953253 
L 241.591611 115.794294 
L 241.748203 115.794294 
L 241.904795 115.635335 
L 242.013936 115.635335 
L 242.175273 115.476377 
L 242.379318 115.476377 
L 242.540655 115.317418 
L 242.592853 115.317418 
L 242.749445 115.158459 
L 242.858585 115.158459 
L 243.015177 114.999501 
L 243.119572 114.999501 
L 243.276165 114.840542 
L 243.333107 114.840542 
L 243.4897 114.681583 
L 243.541897 114.681583 
L 243.698489 114.522625 
L 243.80763 114.522625 
L 243.964222 114.363666 
L 244.068617 114.363666 
L 244.225209 114.204707 
L 244.329604 114.204707 
L 244.543139 113.88679 
L 244.756674 113.88679 
L 244.965464 113.568873 
L 245.231196 113.568873 
L 245.387789 113.409914 
L 245.492183 113.409914 
L 245.648776 113.250955 
L 245.753171 113.250955 
L 245.914508 113.091997 
L 246.023648 113.091997 
L 246.180241 112.933038 
L 246.294126 112.933038 
L 246.441228 112.774079 
L 246.545623 112.774079 
L 246.702215 112.615121 
L 246.811355 112.615121 
L 246.972693 112.297203 
L 247.020145 112.297203 
L 247.176737 112.138245 
L 247.338075 112.138245 
L 247.494667 111.979286 
L 247.546865 111.979286 
L 247.717693 111.820327 
L 247.888521 111.820327 
L 248.026132 111.661369 
L 248.125782 111.661369 
L 248.287119 111.50241 
L 248.339317 111.50241 
L 248.495909 111.343451 
L 248.600304 111.343451 
L 248.761641 111.184493 
L 248.813839 111.184493 
L 249.027374 110.866575 
L 249.141259 110.866575 
L 249.288361 110.707617 
L 249.392756 110.707617 
L 249.549348 110.548658 
L 249.762883 110.230741 
L 249.919476 110.230741 
L 250.133011 109.912823 
L 250.237406 109.912823 
L 250.398743 109.753865 
L 250.498393 109.753865 
L 250.711928 109.435947 
L 250.816323 109.435947 
L 250.972915 109.276989 
L 251.18645 108.959071 
L 251.290845 108.959071 
L 251.447437 108.800113 
L 251.660972 108.482195 
L 251.874507 108.482195 
L 252.083297 108.164278 
L 252.192437 108.164278 
L 252.349029 108.005319 
L 252.396482 108.005319 
L 252.610017 107.687402 
L 252.766609 107.687402 
L 252.937437 107.528443 
L 252.980144 107.528443 
L 253.141481 107.369485 
L 253.241131 107.369485 
L 253.454666 107.051567 
L 253.616004 107.051567 
L 253.767851 106.892609 
L 253.820048 106.892609 
L 253.981386 106.73365 
L 254.033583 106.73365 
L 254.194921 106.574691 
L 254.29457 106.574691 
L 254.455908 106.415733 
L 254.508105 106.415733 
L 254.72164 106.097815 
L 254.982628 106.097815 
L 255.143965 105.938857 
L 255.196163 105.938857 
L 255.352755 105.779898 
L 255.404952 105.779898 
L 255.561545 105.620939 
L 255.618487 105.620939 
L 255.827277 105.303022 
L 256.036067 105.303022 
L 256.192659 105.144063 
L 256.259092 105.144063 
L 256.406194 104.985105 
L 256.463137 104.985105 
L 256.619729 104.826146 
L 256.733615 104.826146 
L 256.880716 104.667593 
L 256.937659 104.667593 
L 257.094251 104.508634 
L 257.141704 104.508634 
L 257.303041 104.349676 
L 257.459634 104.349676 
L 257.616226 104.190717 
L 257.777563 104.031758 
L 257.986353 104.031758 
L 258.157181 103.8728 
L 258.252086 103.8728 
L 258.361226 103.713841 
L 258.56527 103.713841 
L 258.778805 103.395924 
L 259.039793 103.395924 
L 259.20113 103.236965 
L 259.31027 103.236965 
L 259.466863 103.078006 
L 259.580748 103.078006 
L 259.72785 102.919048 
L 259.884442 102.919048 
L 260.05527 102.760089 
L 260.097977 102.760089 
L 260.259315 102.60113 
L 260.363709 102.60113 
L 260.520302 102.442172 
L 260.676894 102.283213 
L 260.833486 102.283213 
L 261.004314 102.124254 
L 261.047021 102.124254 
L 261.208359 101.965296 
L 261.364951 101.965296 
L 261.521544 101.806337 
L 261.573741 101.806337 
L 261.730333 101.647378 
L 261.787276 101.647378 
L 261.886926 101.48842 
L 261.996066 101.48842 
L 262.157403 101.329461 
L 262.204856 101.329461 
L 262.361448 101.170502 
L 262.418391 101.170502 
L 262.631926 100.852585 
L 262.907149 100.852585 
L 263.049505 100.693626 
L 263.106448 100.693626 
L 263.26304 100.534668 
L 263.310492 100.534668 
L 263.47183 100.375709 
L 263.524027 100.375709 
L 263.628422 100.21675 
L 263.78976 100.21675 
L 263.99855 99.898833 
L 264.32597 99.898833 
L 264.473072 99.580916 
L 264.686607 99.580916 
L 264.843199 99.421957 
L 265.051989 99.421957 
L 265.213326 99.262998 
L 265.265524 99.262998 
L 265.422116 99.10404 
L 265.583454 99.10404 
L 265.740046 98.945081 
L 265.896638 98.786122 
L 266.105428 98.786122 
L 266.271511 98.627164 
L 266.428103 98.627164 
L 266.57995 98.468205 
L 266.746033 98.468205 
L 266.902626 98.309246 
L 267.111415 98.309246 
L 267.268008 98.150288 
L 267.377148 98.150288 
L 267.528995 97.991329 
L 267.690332 97.991329 
L 267.85167 97.83237 
L 268.003517 97.83237 
L 268.1696 97.673412 
L 268.26925 97.673412 
L 268.430587 97.514453 
L 268.534982 97.514453 
L 268.691574 97.355494 
L 269.113899 97.355494 
L 269.275237 97.196536 
L 269.427084 97.196536 
L 269.597912 97.037577 
L 269.749759 97.037577 
L 269.901606 96.878618 
L 270.072434 96.878618 
L 270.224281 96.71966 
L 270.433071 96.71966 
L 270.589663 96.560701 
L 270.803198 96.560701 
L 270.902848 96.401742 
L 271.116383 96.401742 
L 271.27772 96.242784 
L 271.856637 96.242784 
L 272.01323 96.083825 
L 272.601637 96.083825 
L 272.753484 95.924866 
L 273.754726 95.924866 
L 273.911319 95.765908 
L 274.80342 95.765908 
L 274.969503 95.606949 
L 276.022942 95.606949 
L 276.179535 95.44799 
L 276.236477 95.44799 
L 276.336127 95.606949 
L 276.497465 95.44799 
L 277.660044 95.44799 
L 277.707496 95.606949 
L 277.759694 95.44799 
L 279.975712 95.44799 
L 280.02791 95.289032 
L 280.080107 95.44799 
L 280.184502 95.44799 
L 280.341095 95.289032 
L 281.029152 95.289032 
L 281.185744 95.130073 
L 281.873801 95.130073 
L 282.030394 94.971114 
L 282.348323 94.971114 
L 282.504916 94.812156 
L 282.765903 94.812156 
L 282.927241 94.653197 
L 283.13603 94.653197 
L 283.297368 94.494238 
L 283.401763 94.494238 
L 283.558355 94.33528 
L 283.714947 94.33528 
L 283.876285 94.176321 
L 284.08982 94.176321 
L 284.194215 94.017362 
L 284.355552 94.017362 
L 284.5074 93.858404 
L 284.61654 93.858404 
L 284.773132 93.699445 
L 284.877527 93.699445 
L 285.034119 93.540487 
L 285.086317 93.540487 
L 285.242909 93.381528 
L 285.299852 93.381528 
L 285.456444 93.222569 
L 285.560839 93.222569 
L 285.774374 92.904652 
L 285.930966 92.904652 
L 286.092304 92.745693 
L 286.191953 92.745693 
L 286.353291 92.586735 
L 286.410234 92.586735 
L 286.619023 92.268817 
L 286.827813 92.268817 
L 286.989151 91.9509 
L 287.155233 91.791941 
L 287.19794 91.791941 
L 287.359278 91.632983 
L 287.463673 91.632983 
L 287.672463 91.315065 
L 287.881252 91.315065 
L 288.104278 90.997148 
L 288.355775 90.997148 
L 288.5788 90.679231 
L 288.830297 90.679231 
L 288.991634 90.520272 
L 289.148227 90.520272 
L 289.304819 90.361313 
L 289.409214 90.361313 
L 289.570552 90.202355 
L 289.727144 90.202355 
L 289.883736 90.043396 
L 289.940679 90.043396 
L 290.102016 89.884437 
L 290.310806 89.884437 
L 290.467399 89.725479 
L 290.733131 89.725479 
L 290.889723 89.56652 
L 291.098513 89.56652 
L 291.255105 89.407561 
L 291.625233 89.407561 
L 291.781825 89.248603 
L 291.99536 89.248603 
L 292.151952 89.089644 
L 292.365487 89.089644 
L 292.52208 88.930685 
L 292.678672 88.930685 
L 292.835264 88.771727 
L 292.944404 88.771727 
L 293.100997 88.612768 
L 293.257589 88.612768 
L 293.418927 88.453809 
L 293.679914 88.453809 
L 293.841251 88.294851 
L 293.945646 88.294851 
L 294.102239 88.135892 
L 294.206634 88.135892 
L 294.367971 87.976933 
L 294.472366 87.976933 
L 294.628958 87.817975 
L 294.733353 87.817975 
L 294.894691 87.659016 
L 294.999086 87.659016 
L 295.155678 87.500057 
L 295.264818 87.500057 
L 295.42141 87.341099 
L 295.578003 87.341099 
L 295.73934 87.18214 
L 295.895933 87.18214 
L 296.05727 87.023181 
L 296.16641 87.023181 
L 296.318257 86.864223 
L 296.531792 86.864223 
L 296.688385 86.705264 
L 296.849722 86.705264 
L 297.006315 86.546305 
L 297.105964 86.546305 
L 297.267302 86.387347 
L 297.542525 86.387347 
L 297.689627 86.228388 
L 297.741824 86.228388 
L 297.903162 86.069429 
L 298.055009 86.069429 
L 298.216346 85.910471 
L 298.529531 85.910471 
L 298.690868 85.751512 
L 298.966091 85.751512 
L 299.113193 85.592553 
L 299.326728 85.592553 
L 299.488066 85.433595 
L 299.744308 85.433595 
L 299.915136 85.274636 
L 300.062238 85.274636 
L 300.223575 85.115677 
L 300.484562 85.115677 
L 300.641155 84.956719 
L 300.85469 84.956719 
L 301.011282 84.79776 
L 301.329212 84.79776 
L 301.485804 84.638801 
L 301.808479 84.638801 
L 301.960326 84.480248 
L 302.116919 84.480248 
L 302.283002 84.32129 
L 302.487046 84.32129 
L 302.648384 84.162331 
L 302.857173 84.162331 
L 303.018511 84.003372 
L 303.175103 84.003372 
L 303.331696 83.844414 
L 303.493033 83.844414 
L 303.649626 83.685455 
L 303.910613 83.685455 
L 304.07195 83.526496 
L 304.18109 83.526496 
L 304.332938 83.367538 
L 304.59867 83.367538 
L 304.764753 83.208579 
L 304.9166 83.208579 
L 305.073192 83.04962 
L 305.281982 83.04962 
L 305.438574 82.890662 
L 305.756504 82.890662 
L 305.913096 82.731703 
L 306.231026 82.731703 
L 306.392364 82.572744 
L 307.023478 82.572744 
L 307.180071 82.413786 
L 309.500484 82.413786 
L 309.657077 82.254827 
L 309.709274 82.254827 
L 309.761472 82.413786 
L 309.813669 82.254827 
L 311.028446 82.254827 
L 311.185038 82.095868 
L 312.18628 82.095868 
L 312.347618 81.93691 
L 313.187522 81.93691 
L 313.348859 81.777951 
L 314.084369 81.777951 
L 314.240961 81.618992 
L 315.199496 81.618992 
L 315.351343 81.460034 
L 316.35733 81.460034 
L 316.509177 81.301075 
L 317.306375 81.301075 
L 317.462967 81.142116 
L 318.041884 81.142116 
L 318.198476 80.983158 
L 318.511661 80.983158 
L 318.672999 80.824199 
L 318.952967 80.824199 
L 319.095323 80.66524 
L 319.361056 80.66524 
L 319.517648 80.506282 
L 319.835578 80.506282 
L 319.99217 80.347323 
L 320.096565 80.347323 
L 320.257903 80.188364 
L 320.471438 80.188364 
L 320.62803 80.029406 
L 320.732425 80.029406 
L 320.898508 79.870447 
L 320.941215 79.870447 
L 321.102552 79.711488 
L 321.206947 79.711488 
L 321.37303 79.55253 
L 321.415737 79.55253 
L 321.577075 79.393571 
L 321.629272 79.393571 
L 321.795355 79.234612 
L 321.890259 79.234612 
L 322.051597 79.075654 
L 322.155992 79.075654 
L 322.364781 78.757736 
L 322.526119 78.757736 
L 322.730164 78.439819 
L 322.891501 78.439819 
L 323.048093 78.28086 
L 323.100291 78.28086 
L 323.261628 78.121902 
L 323.418221 78.121902 
L 323.636501 77.803984 
L 323.840546 77.803984 
L 324.001883 77.645026 
L 324.054081 77.645026 
L 324.210673 77.486067 
L 324.315068 77.486067 
L 324.528603 77.16815 
L 324.737393 77.16815 
L 324.89873 77.009191 
L 325.055322 77.009191 
L 325.264112 76.691274 
L 325.477647 76.691274 
L 325.686437 76.373356 
L 325.847775 76.373356 
L 326.066055 76.055439 
L 326.213157 76.055439 
L 326.374494 75.89648 
L 326.426692 75.89648 
L 326.635481 75.578563 
L 326.796819 75.578563 
L 327.005609 75.260646 
L 327.062551 75.260646 
L 327.271341 74.942728 
L 327.375736 74.942728 
L 327.532328 74.78377 
L 327.584526 74.78377 
L 327.798061 74.465852 
L 327.907201 74.465852 
L 328.111245 74.147935 
L 328.220386 74.147935 
L 328.438666 73.830018 
L 328.585768 73.830018 
L 328.799303 73.5121 
L 328.913188 73.5121 
L 329.06029 73.353142 
L 329.112487 73.353142 
L 329.330768 73.035224 
L 329.534812 73.035224 
L 329.69615 72.876266 
L 329.748347 72.876266 
L 329.904939 72.717307 
L 329.957137 72.717307 
L 330.118474 72.558348 
L 330.279812 72.558348 
L 330.431659 72.39939 
L 330.588251 72.39939 
L 330.744844 72.240431 
L 330.801786 72.240431 
L 330.958379 72.081472 
L 331.167169 72.081472 
L 331.328506 71.922514 
L 331.693888 71.922514 
L 331.855226 71.763555 
L 332.016563 71.763555 
L 332.173156 71.604596 
L 332.491085 71.604596 
L 332.642933 71.445638 
L 332.80427 71.445638 
L 332.960862 71.286679 
L 333.117455 71.286679 
L 333.278792 71.12772 
L 333.487582 71.12772 
L 333.644174 70.968762 
L 333.857709 70.968762 
L 334.014302 70.809803 
L 334.118697 70.809803 
L 334.280034 70.650844 
L 334.593219 70.650844 
L 334.754556 70.491886 
L 335.124684 70.491886 
L 335.281276 70.332927 
L 336.23032 70.332927 
L 336.386913 70.173968 
L 337.388155 70.173968 
L 337.544747 70.01501 
L 338.446339 70.01501 
L 338.602932 69.856051 
L 339.400129 69.856051 
L 339.551976 69.697092 
L 340.18309 69.697092 
L 340.339683 69.538134 
L 344.245001 69.538134 
L 344.349396 69.379175 
L 344.406338 69.538134 
L 344.458536 69.379175 
L 345.194045 69.379175 
L 345.355383 69.220216 
L 345.61637 69.220216 
L 345.772962 69.061258 
L 346.04344 69.061258 
L 346.195287 68.902299 
L 346.461019 68.902299 
L 346.617612 68.74334 
L 346.883344 68.74334 
L 347.039936 68.584382 
L 347.357866 68.584382 
L 347.514459 68.425423 
L 347.832389 68.425423 
L 347.993726 68.266464 
L 348.306911 68.266464 
L 348.463503 68.107506 
L 348.567898 68.107506 
L 348.729236 67.948547 
L 348.990223 67.948547 
L 349.15156 67.789589 
L 349.308153 67.789589 
L 349.464745 67.63063 
L 349.730477 67.63063 
L 349.88707 67.471671 
L 350.100605 67.471671 
L 350.257197 67.312713 
L 350.31414 67.312713 
L 350.465987 67.153754 
L 350.679522 67.153754 
L 350.836114 66.994795 
L 350.940509 66.994795 
L 351.101847 66.835837 
L 351.263184 66.835837 
L 351.415031 66.676878 
L 351.467229 66.676878 
L 351.628566 66.517919 
L 351.737706 66.517919 
L 351.889553 66.358961 
L 351.889553 66.358961 
" clip-path="url(#p5703642d85)" style="fill: none; stroke: #00a087; stroke-width: 2.5; stroke-linecap: square"/>
   </g>
   <g id="patch_3">
    <path d="M 53.050175 150.607032 
L 53.050175 7.2 
" style="fill: none; stroke: #000000; stroke-width: 1.5; stroke-linejoin: miter; stroke-linecap: square"/>
   </g>
   <g id="patch_4">
    <path d="M 366.12 150.607032 
L 366.12 7.2 
" style="fill: none; stroke: #000000; stroke-width: 1.5; stroke-linejoin: miter; stroke-linecap: square"/>
   </g>
   <g id="patch_5">
    <path d="M 53.050175 150.607032 
L 366.12 150.607032 
" style="fill: none; stroke: #000000; stroke-width: 1.5; stroke-linejoin: miter; stroke-linecap: square"/>
   </g>
   <g id="patch_6">
    <path d="M 53.050175 7.2 
L 366.12 7.2 
" style="fill: none; stroke: #000000; stroke-width: 1.5; stroke-linejoin: miter; stroke-linecap: square"/>
   </g>
   <g id="line2d_9">
    <path d="M 67.285367 135.345804 
L 67.968679 135.345804 
L 68.229666 135.82268 
L 68.281864 135.82268 
L 69.923711 140.59144 
L 69.975908 140.59144 
L 70.184698 140.909357 
L 70.393488 140.909357 
L 70.559571 141.068316 
L 71.034093 141.068316 
L 71.18594 140.909357 
L 71.446927 140.909357 
L 71.608265 140.750399 
L 71.817054 140.750399 
L 71.983137 140.59144 
L 72.134984 140.59144 
L 72.291577 140.432481 
L 72.343774 140.432481 
L 72.500366 140.273523 
L 72.557309 140.273523 
L 72.818296 139.637688 
L 72.884729 139.637688 
L 73.031831 139.478729 
L 73.084029 139.478729 
L 73.288073 139.160812 
L 73.359252 139.160812 
L 73.506353 139.001853 
L 73.558551 139.001853 
L 73.715143 138.842895 
L 73.819538 138.842895 
L 73.97613 138.683936 
L 74.085271 138.683936 
L 74.241863 138.524977 
L 74.298806 138.524977 
L 74.455398 138.366019 
L 74.507595 138.366019 
L 74.659442 138.20706 
L 74.716385 138.20706 
L 74.872977 138.048101 
L 75.034315 138.048101 
L 75.195653 137.889143 
L 75.295302 137.889143 
L 75.45664 137.730184 
L 75.769824 137.730184 
L 75.931162 137.571225 
L 78.199378 137.571225 
L 78.35597 137.412267 
L 78.460365 137.412267 
L 78.939633 136.140597 
L 79.143677 135.345804 
L 79.357212 134.868928 
L 79.670397 133.597259 
L 79.722594 133.597259 
L 80.515047 131.530796 
L 80.567244 131.530796 
L 80.937371 130.736003 
L 80.989569 130.736003 
L 81.198358 130.418085 
L 81.255301 130.418085 
L 81.464091 130.100168 
L 81.568486 130.100168 
L 81.782021 129.782251 
L 81.938613 129.782251 
L 82.095205 129.623292 
L 83.784505 129.623292 
L 83.941097 129.782251 
L 84.576957 129.782251 
L 85.630396 133.120383 
L 85.896128 134.233093 
L 86.845173 136.776432 
L 86.902115 136.776432 
L 87.158357 137.253308 
L 87.42409 137.253308 
L 87.580682 137.412267 
L 87.898612 137.412267 
L 88.055204 137.253308 
L 88.543962 137.253308 
L 88.691064 137.094349 
L 88.800204 137.094349 
L 88.961542 136.935391 
L 89.004249 136.935391 
L 89.165586 136.776432 
L 89.269981 136.776432 
L 89.426574 136.617473 
L 89.493007 136.617473 
L 89.640109 136.299556 
L 89.749249 136.299556 
L 90.005491 135.82268 
L 90.109886 135.82268 
L 90.271223 135.663721 
L 90.323421 135.663721 
L 90.53221 135.345804 
L 90.64135 135.345804 
L 90.797943 135.186845 
L 90.85014 135.186845 
L 91.006733 135.027887 
L 91.063675 135.027887 
L 91.220268 134.868928 
L 91.272465 134.868928 
L 91.433803 134.709969 
L 91.481255 134.709969 
L 91.642592 134.551011 
L 91.69479 134.551011 
L 91.908325 134.233093 
L 92.169312 134.233093 
L 92.325904 134.074135 
L 92.487242 134.074135 
L 92.643834 133.915176 
L 93.013962 133.915176 
L 93.170554 133.756217 
L 95.64756 133.756217 
L 96.122082 134.868928 
L 96.330872 135.663721 
L 96.862337 138.366019 
L 97.227719 139.796647 
L 97.441254 140.59144 
L 97.488706 140.59144 
L 97.702241 141.227275 
L 97.963228 141.704151 
L 98.129311 141.704151 
L 98.285903 141.863109 
L 98.656031 141.863109 
L 98.812623 141.704151 
L 99.021413 141.704151 
L 99.18275 141.545192 
L 99.230202 141.545192 
L 99.443737 141.227275 
L 99.495935 141.227275 
L 99.704725 140.909357 
L 99.766413 140.909357 
L 100.022655 140.432481 
L 100.079597 140.432481 
L 100.601572 139.160812 
L 100.720202 139.160812 
L 101.128291 138.048101 
L 101.185234 138.048101 
L 101.602814 137.094349 
L 101.659756 137.094349 
L 101.972941 136.458515 
L 102.077336 136.458515 
L 102.395266 135.82268 
L 102.447463 135.82268 
L 102.765393 135.186845 
L 102.81759 135.186845 
L 103.02638 134.868928 
L 103.083323 134.868928 
L 103.292113 134.551011 
L 103.396507 134.551011 
L 103.557845 134.392052 
L 103.610042 134.392052 
L 103.818832 134.074135 
L 103.975425 134.074135 
L 104.136762 133.915176 
L 104.18896 133.915176 
L 104.345552 133.756217 
L 104.559087 133.756217 
L 104.715679 133.597259 
L 107.244883 133.597259 
L 107.562813 134.233093 
L 107.61501 134.233093 
L 107.928195 135.345804 
L 108.198672 136.776432 
L 108.620997 138.683936 
L 108.881984 139.637688 
L 109.095519 140.59144 
L 109.147717 140.59144 
L 109.570041 141.545192 
L 109.669691 141.545192 
L 109.831029 141.704151 
L 110.618736 141.704151 
L 110.780073 141.545192 
L 110.889213 141.545192 
L 111.098003 141.227275 
L 111.154946 141.227275 
L 111.35899 140.909357 
L 111.415933 140.909357 
L 111.624723 140.59144 
L 111.681665 140.59144 
L 111.88571 140.273523 
L 112.260582 139.478729 
L 112.31278 139.478729 
L 112.52157 139.001853 
L 112.63071 139.001853 
L 112.834754 138.524977 
L 112.891697 138.524977 
L 113.105232 138.20706 
L 113.152684 138.20706 
L 113.418417 137.730184 
L 113.470614 137.730184 
L 113.731601 137.253308 
L 113.783799 137.253308 
L 113.997334 136.935391 
L 114.101729 136.935391 
L 114.315264 136.617473 
L 114.367461 136.617473 
L 114.576251 136.299556 
L 114.633193 136.299556 
L 114.841983 135.981639 
L 114.946378 135.981639 
L 115.159913 135.663721 
L 115.269053 135.663721 
L 115.4209 135.504763 
L 115.525295 135.504763 
L 115.73883 135.186845 
L 115.999817 135.186845 
L 116.1659 135.027887 
L 116.313002 135.027887 
L 116.47434 134.868928 
L 117.214594 134.868928 
L 117.371187 134.709969 
L 117.423384 134.709969 
L 117.584722 134.868928 
L 118.059244 134.868928 
L 118.111441 134.709969 
L 118.163639 134.868928 
L 119.217078 134.868928 
L 119.748543 136.776432 
L 120.488798 141.068316 
L 121.376154 143.770613 
L 121.428351 143.770613 
L 121.646632 144.088531 
L 122.007269 144.088531 
L 122.220804 143.770613 
L 122.325198 143.770613 
L 122.538733 143.452696 
L 122.590931 143.452696 
L 122.956313 142.657903 
L 123.013256 142.657903 
L 124.645612 137.889143 
L 124.69781 137.889143 
L 125.646854 135.345804 
L 125.699051 135.345804 
L 126.121376 134.392052 
L 126.178319 134.392052 
L 126.439306 133.915176 
L 126.752491 133.4383 
L 126.809433 133.4383 
L 127.075166 132.961424 
L 127.122618 132.961424 
L 127.336153 132.643507 
L 127.445293 132.643507 
L 127.59714 132.484548 
L 127.649338 132.484548 
L 127.810675 132.325589 
L 127.862873 132.325589 
L 128.019465 132.166631 
L 128.598382 132.166631 
L 128.707522 132.007672 
L 128.86886 132.166631 
L 130.131089 132.166631 
L 130.287681 132.325589 
L 130.392076 132.325589 
L 130.548668 132.166631 
L 130.605611 132.166631 
L 131.184528 130.259127 
L 131.554655 128.351623 
L 132.081375 125.808284 
L 132.39456 124.53702 
L 132.71249 123.265351 
L 133.770674 120.245136 
L 133.822872 120.245136 
L 134.192999 119.450343 
L 134.297394 119.450343 
L 134.506184 119.132426 
L 134.615324 119.132426 
L 134.771916 118.973467 
L 134.876311 118.973467 
L 135.042394 118.814509 
L 136.13854 118.814509 
L 136.299878 118.973467 
L 136.7744 118.973467 
L 136.940483 119.132426 
L 137.144527 119.132426 
L 137.301119 119.291385 
L 137.353317 119.291385 
L 137.562107 119.927219 
L 138.036629 121.03993 
L 138.088826 121.03993 
L 138.563349 122.15264 
L 138.615546 122.15264 
L 138.933476 122.788475 
L 138.985673 122.788475 
L 139.251406 123.265351 
L 139.464941 123.583268 
L 139.56459 123.583268 
L 139.725928 123.742227 
L 139.830323 123.742227 
L 139.99166 123.901186 
L 140.357042 123.901186 
L 140.413985 124.060144 
L 140.466183 123.901186 
L 141.467424 123.901186 
L 141.628762 123.742227 
L 142.255131 123.742227 
L 142.468666 124.060144 
L 142.573061 124.060144 
L 142.886246 124.695979 
L 143.047583 124.695979 
L 143.208921 124.854938 
L 143.522106 124.854938 
L 143.678698 124.695979 
L 144.101023 124.695979 
L 144.257615 124.53702 
L 144.627742 124.53702 
L 144.784335 124.378062 
L 145.064303 124.378062 
L 145.211405 124.219103 
L 145.3158 124.219103 
L 145.420194 124.060144 
L 145.491373 124.060144 
L 145.681182 123.742227 
L 145.842519 123.742227 
L 146.051309 123.42431 
L 146.207901 123.42431 
L 146.421436 123.106392 
L 146.578029 123.106392 
L 146.739366 122.947434 
L 146.791564 122.947434 
L 146.895959 122.788475 
L 147.266086 122.788475 
L 147.422678 122.629516 
L 147.949398 122.629516 
L 148.10599 122.470558 
L 148.162933 122.470558 
L 148.329016 122.629516 
L 149.752582 122.629516 
L 149.956627 122.311599 
L 150.008824 122.311599 
L 150.378952 120.880971 
L 150.957869 118.019715 
L 151.166658 117.224922 
L 151.380193 116.112211 
L 152.908155 111.661369 
L 152.960352 111.661369 
L 153.273537 111.025534 
L 153.434875 111.025534 
L 153.695862 110.548658 
L 153.800257 110.548658 
L 153.961594 110.389699 
L 155.541753 110.389699 
L 155.698346 110.548658 
L 156.068473 110.548658 
L 156.22981 110.707617 
L 156.386403 110.707617 
L 156.75653 111.50241 
L 156.808728 111.50241 
L 157.544237 113.409914 
L 157.596434 113.409914 
L 157.757772 113.88679 
L 157.809969 113.88679 
L 158.018759 114.522625 
L 158.080447 114.522625 
L 158.284492 114.840542 
L 158.602421 115.476377 
L 158.706816 115.476377 
L 158.915606 115.794294 
L 158.972549 115.794294 
L 159.129141 115.953253 
L 159.243026 115.953253 
L 159.390128 116.112211 
L 159.660606 116.112211 
L 159.812453 116.27117 
L 160.025988 116.27117 
L 160.187326 116.112211 
L 160.870638 116.112211 
L 161.02723 115.953253 
L 161.449555 115.953253 
L 161.606147 115.794294 
L 161.762739 115.794294 
L 161.976274 115.476377 
L 162.033217 115.476377 
L 162.242007 115.158459 
L 162.450797 114.840542 
L 162.555191 114.840542 
L 162.773472 114.522625 
L 162.873121 114.522625 
L 163.086656 114.204707 
L 163.243249 114.204707 
L 163.399841 114.045749 
L 163.504236 114.045749 
L 163.660828 113.88679 
L 163.926561 113.88679 
L 164.083153 113.727831 
L 165.350127 113.727831 
L 165.402325 113.88679 
L 165.459267 113.727831 
L 165.558917 113.727831 
L 165.720255 113.88679 
L 166.246974 113.88679 
L 167.252961 110.548658 
L 167.670541 108.482195 
L 167.779681 108.005319 
L 168.097611 106.73365 
L 168.145063 106.73365 
L 168.249458 106.256774 
L 168.51519 105.461981 
L 169.407292 103.078006 
L 169.45949 103.078006 
L 169.77742 102.442172 
L 169.834362 102.442172 
L 170.043152 102.124254 
L 170.147547 102.124254 
L 170.361082 101.806337 
L 170.569872 101.806337 
L 170.731209 101.647378 
L 171.889043 101.647378 
L 172.045636 101.806337 
L 172.520158 101.806337 
L 172.681495 101.965296 
L 172.838088 101.965296 
L 173.260413 102.919048 
L 173.682737 104.190717 
L 174.631782 106.73365 
L 174.683979 106.73365 
L 174.897514 107.051567 
L 175.262896 107.687402 
L 175.319839 107.687402 
L 175.523883 108.005319 
L 175.580826 108.005319 
L 175.737418 108.164278 
L 175.789616 108.164278 
L 175.946208 108.323237 
L 176.264138 108.323237 
L 176.373278 108.482195 
L 176.525125 108.323237 
L 177.213183 108.323237 
L 177.369775 108.164278 
L 177.635507 108.164278 
L 177.796845 108.005319 
L 177.953437 108.005319 
L 178.166972 107.687402 
L 178.21917 107.687402 
L 178.532354 107.051567 
L 178.589297 107.051567 
L 178.897736 106.256774 
L 178.949934 106.256774 
L 179.320061 105.461981 
L 179.481399 105.461981 
L 179.637991 104.985105 
L 179.955921 104.508634 
L 180.008118 104.508634 
L 180.273851 104.031758 
L 180.326048 104.031758 
L 180.539583 103.713841 
L 180.648723 103.713841 
L 180.80057 103.554882 
L 180.852768 103.554882 
L 181.014105 103.395924 
L 181.165953 103.395924 
L 181.379488 103.078006 
L 182.485124 103.078006 
L 182.651207 103.236965 
L 182.959647 103.236965 
L 183.120984 103.395924 
L 183.647704 103.395924 
L 183.861239 103.078006 
L 183.913436 103.078006 
L 184.122226 102.760089 
L 184.278818 102.760089 
L 184.497098 102.442172 
L 184.596748 102.442172 
L 184.805538 102.124254 
L 185.014328 101.806337 
L 185.07127 101.806337 
L 185.284805 101.48842 
L 185.436652 101.48842 
L 185.59799 101.329461 
L 185.811525 101.329461 
L 185.963372 101.170502 
L 186.390442 101.170502 
L 186.547034 101.329461 
L 186.599232 101.329461 
L 186.651429 101.170502 
L 186.703627 101.329461 
L 187.443881 101.329461 
L 187.600474 101.48842 
L 188.022799 101.48842 
L 188.288531 101.011544 
L 188.392926 101.011544 
L 188.763053 100.21675 
L 188.810505 100.21675 
L 189.607703 98.309246 
L 189.873435 97.83237 
L 189.973085 97.83237 
L 190.291015 97.196536 
L 190.338467 97.196536 
L 190.499804 97.037577 
L 190.552002 97.037577 
L 190.708594 96.878618 
L 192.516524 96.878618 
L 192.663626 97.037577 
L 193.033753 97.037577 
L 193.242543 97.355494 
L 193.29474 97.355494 
L 194.984039 102.283213 
L 195.036237 102.283213 
L 195.510759 103.395924 
L 195.562956 103.395924 
L 195.776491 103.713841 
L 196.037479 104.190717 
L 196.141874 104.190717 
L 196.251014 104.349676 
L 196.312702 104.349676 
L 196.459803 104.508634 
L 197.56544 104.508634 
L 197.67458 104.349676 
L 197.987765 104.349676 
L 198.149102 104.190717 
L 198.357892 104.190717 
L 198.566682 103.8728 
L 198.623625 103.8728 
L 199.207287 102.60113 
L 199.249994 102.60113 
L 199.515726 102.124254 
L 199.572669 102.124254 
L 199.938051 101.329461 
L 199.990249 101.329461 
L 200.255981 100.852585 
L 200.308179 100.852585 
L 200.578656 100.375709 
L 200.630854 100.375709 
L 200.782701 100.057792 
L 200.939293 100.057792 
L 201.152828 99.739874 
L 201.205026 99.739874 
L 201.413815 99.421957 
L 201.470758 99.421957 
L 201.62735 99.262998 
L 201.727 99.262998 
L 201.888337 99.10404 
L 201.997478 99.10404 
L 202.15407 98.945081 
L 203.838624 98.945081 
L 203.999961 99.10404 
L 204.521936 99.10404 
L 204.787668 98.627164 
L 205.105598 97.514453 
L 205.26219 96.878618 
L 205.523178 95.44799 
L 205.736713 94.812156 
L 205.954993 93.381528 
L 207.748687 87.659016 
L 207.796139 87.659016 
L 208.004929 87.341099 
L 208.057126 87.341099 
L 208.322859 86.864223 
L 208.479451 86.864223 
L 208.588591 86.705264 
L 209.585088 86.705264 
L 209.746425 86.864223 
L 210.012158 86.864223 
L 210.173495 87.023181 
L 210.429737 87.023181 
L 210.591075 87.18214 
L 210.643272 87.18214 
L 210.856807 87.500057 
L 210.904259 87.500057 
L 211.274387 88.294851 
L 211.326584 88.294851 
L 211.853304 89.56652 
L 211.957699 89.56652 
L 212.223431 90.043396 
L 212.275629 90.043396 
L 212.536616 90.520272 
L 212.593559 90.520272 
L 212.859291 90.997148 
L 212.906743 90.997148 
L 213.068081 91.156107 
L 213.120278 91.156107 
L 213.333813 91.474024 
L 213.381265 91.474024 
L 213.5948 91.791941 
L 213.808335 91.791941 
L 213.964928 91.9509 
L 214.069323 91.9509 
L 214.225915 92.109859 
L 216.546329 92.109859 
L 217.020851 90.361313 
L 217.599768 86.387347 
L 217.808558 85.115677 
L 218.91894 78.916695 
L 219.550054 76.691274 
L 219.815787 75.89648 
L 220.181169 75.101687 
L 220.238111 75.101687 
L 220.446901 74.78377 
L 220.503844 74.78377 
L 220.712634 74.465852 
L 220.869226 74.465852 
L 220.973621 74.306894 
L 221.552538 74.306894 
L 221.713875 74.465852 
L 222.031805 74.465852 
L 222.188398 74.624811 
L 222.501582 74.624811 
L 222.66292 74.78377 
L 222.819512 74.78377 
L 222.98085 74.942728 
L 223.137442 74.942728 
L 223.294034 75.101687 
L 223.412665 75.101687 
L 223.559767 75.260646 
L 223.611964 75.260646 
L 223.768557 75.419604 
L 223.820754 75.419604 
L 224.034289 75.737522 
L 224.243079 75.737522 
L 224.404416 75.89648 
L 224.456614 75.89648 
L 224.613206 76.055439 
L 224.717601 76.055439 
L 224.878939 76.214398 
L 225.301263 76.214398 
L 225.457856 76.373356 
L 225.562251 76.373356 
L 225.718843 76.532315 
L 226.036773 76.532315 
L 226.193365 76.691274 
L 226.672633 76.691274 
L 226.829225 76.850232 
L 228.779511 76.850232 
L 228.988301 77.16815 
L 229.040498 77.16815 
L 229.306231 77.962943 
L 230.307473 83.526496 
L 230.46881 84.32129 
L 231.152122 87.341099 
L 232.101167 89.884437 
L 232.153364 89.884437 
L 232.362154 90.202355 
L 233.102408 90.202355 
L 233.259001 90.043396 
L 233.311198 90.043396 
L 233.472536 89.884437 
L 233.529478 89.884437 
L 233.681326 89.725479 
L 233.78572 89.725479 
L 233.947058 89.56652 
L 233.999255 89.56652 
L 234.208045 89.248603 
L 234.264988 89.248603 
L 234.42158 88.930685 
L 234.682567 88.453809 
L 234.73951 88.453809 
L 235.000497 87.976933 
L 235.052695 87.976933 
L 235.323172 87.500057 
L 235.370625 87.500057 
L 235.631612 87.023181 
L 235.683809 87.023181 
L 236.053937 86.387347 
L 236.106134 86.387347 
L 236.371867 85.910471 
L 236.528459 85.910471 
L 236.794191 85.433595 
L 236.898586 85.433595 
L 237.107376 85.115677 
L 237.320911 84.79776 
L 237.425306 84.79776 
L 237.643586 84.480248 
L 237.695783 84.480248 
L 237.847631 84.32129 
L 237.952025 84.32129 
L 238.16556 84.003372 
L 238.217758 84.003372 
L 238.37435 83.844414 
L 238.426548 83.844414 
L 238.535688 83.685455 
L 238.69228 83.685455 
L 238.848872 83.526496 
L 238.953267 83.526496 
L 239.114605 83.367538 
L 239.271197 83.367538 
L 239.42779 83.208579 
L 239.693522 83.208579 
L 239.850114 83.04962 
L 240.495465 83.04962 
L 240.647312 82.890662 
L 240.799159 82.890662 
L 240.908299 83.04962 
L 241.064891 83.04962 
L 241.121834 82.890662 
L 241.169286 83.04962 
L 242.070878 83.04962 
L 242.222725 82.890662 
L 242.32712 82.890662 
L 242.540655 82.572744 
L 242.592853 82.572744 
L 242.96298 81.142116 
L 243.342598 79.55253 
L 244.595336 75.737522 
L 245.122056 74.465852 
L 245.174254 74.465852 
L 245.439986 73.988976 
L 245.544381 73.988976 
L 245.762661 73.671059 
L 245.810113 73.671059 
L 245.971451 73.5121 
L 246.123298 73.5121 
L 246.284635 73.353142 
L 247.143521 73.353142 
L 247.285877 73.5121 
L 247.55161 73.5121 
L 247.708202 73.671059 
L 247.86954 73.671059 
L 248.021387 73.830018 
L 248.130527 73.830018 
L 248.287119 73.988976 
L 248.344062 73.988976 
L 248.495909 73.830018 
L 248.709444 73.5121 
L 248.918234 73.5121 
L 249.084317 73.353142 
L 249.236164 73.353142 
L 249.392756 73.194183 
L 249.606291 73.194183 
L 249.767629 73.035224 
L 249.815081 73.035224 
L 249.924221 72.876266 
L 250.137756 72.876266 
L 250.289603 72.717307 
L 251.029858 72.717307 
L 251.18645 72.876266 
L 251.561322 72.876266 
L 251.71317 73.035224 
L 251.883998 73.035224 
L 252.035845 73.194183 
L 252.405972 73.194183 
L 252.557819 73.035224 
L 252.614762 73.035224 
L 252.766609 72.876266 
L 252.984889 72.876266 
L 253.136736 72.717307 
L 253.563806 72.717307 
L 253.829539 72.081472 
L 253.876991 72.081472 
L 254.137978 71.604596 
L 254.190176 71.604596 
L 254.455908 71.12772 
L 254.6125 71.12772 
L 254.778583 70.968762 
L 254.882978 70.968762 
L 255.034825 70.809803 
L 255.461895 70.809803 
L 255.613742 70.968762 
L 256.036067 70.968762 
L 256.20215 71.12772 
L 256.410939 71.12772 
L 256.562787 71.286679 
L 256.781067 71.286679 
L 256.932914 71.445638 
L 257.141704 71.445638 
L 257.303041 71.286679 
L 257.407436 71.286679 
L 257.511831 71.12772 
L 258.460875 71.12772 
L 258.8832 70.332927 
L 258.935398 70.332927 
L 259.357722 69.538134 
L 259.51906 69.538134 
L 259.680398 69.379175 
L 259.72785 69.379175 
L 259.884442 69.220216 
L 260.681639 69.220216 
L 260.833486 69.379175 
L 261.156162 69.379175 
L 261.308009 69.538134 
L 261.625939 69.538134 
L 261.782531 69.697092 
L 262.105206 69.697092 
L 262.257053 69.538134 
L 262.370938 69.538134 
L 262.522786 69.379175 
L 263.05425 69.379175 
L 263.206098 69.220216 
L 263.277276 69.220216 
L 263.419633 68.902299 
L 263.524027 68.902299 
L 263.894155 68.107506 
L 263.946352 68.107506 
L 264.221575 67.63063 
L 264.269027 67.63063 
L 264.420874 67.471671 
L 264.525269 67.471671 
L 264.629664 67.312713 
L 265.426861 67.312713 
L 265.578709 67.471671 
L 266.053231 67.471671 
L 266.214568 67.63063 
L 266.318963 67.63063 
L 266.475556 67.789589 
L 266.89788 67.789589 
L 267.116161 67.471671 
L 267.268008 67.471671 
L 267.4246 67.312713 
L 267.74253 67.312713 
L 267.899122 67.153754 
L 267.95132 67.153754 
L 268.26925 66.517919 
L 268.321447 66.517919 
L 268.534982 66.200002 
L 268.582434 66.200002 
L 268.743772 66.041043 
L 268.795969 66.041043 
L 268.957307 65.882085 
L 269.113899 65.882085 
L 269.270491 65.723126 
L 269.488772 65.723126 
L 269.640619 65.882085 
L 270.015491 65.882085 
L 270.167338 66.041043 
L 270.437816 66.041043 
L 270.589663 66.200002 
L 270.798453 66.200002 
L 270.95979 66.358961 
L 271.121128 66.358961 
L 271.272975 66.200002 
L 271.434313 66.041043 
L 271.538708 66.041043 
L 271.6953 65.882085 
L 271.747497 65.882085 
L 271.908835 65.723126 
L 272.335905 65.723126 
L 272.487752 65.564167 
L 273.436796 65.564167 
L 273.593389 65.723126 
L 274.015713 65.723126 
L 274.181796 65.882085 
L 274.542433 65.882085 
L 274.860363 65.24625 
L 274.964758 65.24625 
L 275.282688 64.610415 
L 275.334885 64.610415 
L 275.752465 63.657069 
L 275.809407 63.657069 
L 276.122592 63.021234 
L 276.28393 63.021234 
L 276.440522 62.862275 
L 276.492719 62.862275 
L 276.654057 62.703317 
L 277.441764 62.703317 
L 277.603101 62.862275 
L 277.916286 62.862275 
L 278.077624 63.021234 
L 278.338611 63.021234 
L 278.447751 63.180193 
L 278.813133 63.180193 
L 279.026668 62.862275 
L 279.135808 62.862275 
L 279.339853 62.544358 
L 279.662528 62.544358 
L 279.871318 62.226441 
L 279.975712 62.226441 
L 280.13705 62.067482 
L 280.184502 62.067482 
L 280.34584 61.908523 
L 280.502432 61.908523 
L 280.66377 61.749565 
L 281.133547 61.749565 
L 281.294884 61.908523 
L 281.712464 61.908523 
L 281.873801 62.067482 
L 282.186986 62.067482 
L 282.348323 62.226441 
L 282.718451 62.226441 
L 282.931986 61.908523 
L 283.192973 61.908523 
L 283.349565 61.749565 
L 283.610553 61.749565 
L 283.819342 61.431647 
L 283.928482 61.431647 
L 284.142017 61.11373 
L 284.19896 61.11373 
L 284.350807 60.954771 
L 284.40775 60.954771 
L 284.559597 60.795813 
L 285.242909 60.795813 
L 285.404247 60.954771 
L 285.617782 60.954771 
L 285.774374 61.11373 
L 285.983164 61.11373 
L 286.139756 61.272689 
L 286.301094 61.272689 
L 286.457686 61.431647 
L 288.355775 61.431647 
L 288.412717 61.590606 
L 288.46966 61.431647 
L 288.673705 61.431647 
L 289.148227 59.683102 
L 289.988131 55.073301 
L 290.149469 54.596425 
L 290.415201 53.165797 
L 291.316793 50.4635 
L 291.364245 50.4635 
L 291.573035 50.145582 
L 291.838768 49.668706 
L 291.943163 49.668706 
L 292.099755 49.509748 
L 292.151952 49.509748 
L 292.308545 49.350789 
L 292.783067 49.350789 
L 292.944404 49.509748 
L 293.257589 49.509748 
L 293.418927 49.668706 
L 293.679914 49.668706 
L 293.841251 49.827665 
L 293.997844 49.827665 
L 294.159181 49.986624 
L 295.473608 49.986624 
L 295.6302 50.145582 
L 296.15692 50.145582 
L 296.318257 50.304541 
L 297.001569 50.304541 
L 297.162907 50.4635 
L 297.846219 50.4635 
L 298.002811 50.622458 
L 298.899658 50.622458 
L 299.060996 50.781417 
L 299.9009 50.781417 
L 300.062238 50.940376 
L 302.116919 50.940376 
L 302.643638 49.350789 
L 302.961568 47.602244 
L 303.488288 45.058905 
L 304.015008 43.151807 
L 304.223797 42.515972 
L 304.593925 41.721179 
L 304.646122 41.721179 
L 304.911855 41.244303 
L 305.016249 41.244303 
L 305.172842 41.085344 
L 305.281982 41.085344 
L 305.438574 40.926385 
L 306.069689 40.926385 
L 306.231026 41.085344 
L 306.439816 41.085344 
L 306.601154 41.244303 
L 306.862141 41.244303 
L 307.023478 41.403261 
L 307.127873 41.403261 
L 307.284466 41.56222 
L 307.602396 41.56222 
L 307.758988 41.721179 
L 307.811185 41.721179 
L 307.91558 41.56222 
L 308.076918 41.721179 
L 309.604879 41.721179 
L 309.657077 41.880137 
L 309.709274 41.721179 
L 310.079401 41.721179 
L 310.658319 39.654716 
L 311.351121 35.998667 
L 312.556407 32.342618 
L 312.608605 32.342618 
L 312.82214 32.0247 
L 312.874337 32.0247 
L 313.03093 31.865742 
L 313.083127 31.865742 
L 313.239719 31.706783 
L 313.714242 31.706783 
L 313.875579 31.865742 
L 314.032171 31.865742 
L 314.188764 32.0247 
L 314.350101 32.0247 
L 314.563636 32.342618 
L 314.772426 32.342618 
L 314.929018 32.501576 
L 314.981216 32.501576 
L 315.194751 32.819494 
L 315.246948 32.819494 
L 315.455738 33.137411 
L 315.507936 33.137411 
L 315.773668 33.614287 
L 315.825865 33.614287 
L 316.0394 33.932204 
L 316.086853 33.932204 
L 316.300388 34.250121 
L 316.404783 34.250121 
L 316.561375 34.40908 
L 316.613572 34.40908 
L 316.827107 34.726997 
L 316.879305 34.726997 
L 317.09284 35.044915 
L 317.30163 35.044915 
L 317.515165 35.362832 
L 317.671757 35.362832 
L 317.885292 35.680749 
L 318.094082 35.680749 
L 318.250674 35.839708 
L 318.302871 35.839708 
L 318.464209 35.998667 
L 318.672999 35.998667 
L 318.834336 36.157625 
L 319.199718 36.157625 
L 319.356311 36.316584 
L 321.524877 36.316584 
L 322.099049 34.091163 
L 322.312584 32.342618 
L 323.892743 23.282379 
L 324.78959 20.897999 
L 324.841787 20.897999 
L 325.050577 20.580082 
L 325.10752 20.580082 
L 325.264112 20.421123 
L 325.895227 20.421123 
L 326.056564 20.580082 
L 326.160959 20.580082 
L 326.317552 20.739041 
L 326.369749 20.739041 
L 326.531087 20.897999 
L 326.583284 20.897999 
L 326.739876 21.056958 
L 326.792074 21.056958 
L 326.953411 21.215917 
L 327.000863 21.215917 
L 327.214398 21.533834 
L 327.318793 21.533834 
L 327.584526 22.01071 
L 327.688921 22.01071 
L 327.949908 22.487586 
L 328.006851 22.487586 
L 328.21564 22.805503 
L 328.32478 22.805503 
L 328.481373 22.964462 
L 328.585768 22.964462 
L 328.799303 23.282379 
L 328.8515 23.282379 
L 329.06029 23.599891 
L 329.216882 23.599891 
L 329.373475 23.75885 
L 329.482615 23.75885 
L 329.639207 23.917808 
L 329.691404 23.917808 
L 329.847997 24.076767 
L 329.957137 24.076767 
L 330.113729 24.235726 
L 330.165927 24.235726 
L 330.322519 24.394684 
L 330.483857 24.394684 
L 330.640449 24.553643 
L 330.853984 24.553643 
L 331.010576 24.712602 
L 333.169652 24.712602 
L 333.701117 26.461147 
L 334.541021 30.91199 
L 334.911149 32.342618 
L 335.176881 33.29637 
L 335.807996 34.885956 
L 335.860193 34.885956 
L 336.125926 35.362832 
L 336.23032 35.362832 
L 336.391658 35.521791 
L 337.127167 35.521791 
L 337.340702 35.203873 
L 337.549492 35.203873 
L 337.706085 35.044915 
L 337.758282 35.044915 
L 337.91962 34.885956 
L 337.971817 34.885956 
L 338.180607 34.568039 
L 338.237549 34.568039 
L 338.446339 34.250121 
L 338.602932 34.250121 
L 338.811721 33.932204 
L 338.868664 33.932204 
L 339.077454 33.614287 
L 339.186594 33.614287 
L 339.447581 33.137411 
L 339.551976 33.137411 
L 339.760766 32.819494 
L 339.869906 32.819494 
L 340.078696 32.501576 
L 340.135638 32.501576 
L 340.344428 32.183659 
L 340.448823 32.183659 
L 340.662358 31.865742 
L 340.70981 31.865742 
L 340.923345 31.547824 
L 341.02774 31.547824 
L 341.184332 31.388866 
L 341.241275 31.388866 
L 341.397867 31.229907 
L 341.450065 31.229907 
L 341.658855 30.91199 
L 341.820192 30.91199 
L 341.976784 30.753031 
L 342.190319 30.753031 
L 342.346912 30.594072 
L 342.399109 30.594072 
L 342.560447 30.435114 
L 342.607899 30.435114 
L 342.764491 30.276155 
L 342.925829 30.276155 
L 343.082421 30.117196 
L 343.243759 30.117196 
L 343.400351 29.958238 
L 343.556943 29.958238 
L 343.718281 29.799279 
L 344.192803 29.799279 
L 344.349396 29.64032 
L 346.513217 29.64032 
L 346.669809 29.481362 
L 346.722007 29.481362 
L 348.885828 23.75885 
L 348.938025 23.75885 
L 349.25121 23.123421 
L 349.36035 23.123421 
L 349.516942 22.964462 
L 349.56914 22.964462 
L 349.725732 22.805503 
L 349.939267 22.805503 
L 350.043662 22.646545 
L 350.200254 22.805503 
L 350.674777 22.805503 
L 350.836114 22.964462 
L 351.097101 22.964462 
L 351.258439 23.123421 
L 351.362834 23.123421 
L 351.519426 23.282379 
L 351.676018 23.282379 
L 351.732961 23.440932 
L 351.785159 23.282379 
L 351.889553 23.282379 
L 351.889553 23.282379 
" clip-path="url(#p5703642d85)" style="fill: none; stroke: #3c5488; stroke-width: 2.5; stroke-linecap: square"/>
   </g>
   <g id="legend_1">
    <g id="line2d_10">
     <path d="M 61.150175 20.025 
L 74.650175 20.025 
L 88.150175 20.025 
" style="fill: none; stroke-dasharray: 9.25,4; stroke-dashoffset: 0; stroke: #808080; stroke-width: 2.5"/>
    </g>
    <g id="text_9">
     <!-- Ref. -->
     <g transform="translate(98.950175 24.75) scale(0.135 -0.135)">
      <defs>
       <path id="CMR17-54" d="M 2508 2156 
C 3116 2278 3629 2689 3629 3203 
C 3629 3806 2950 4352 2054 4352 
L 332 4352 
L 332 4185 
C 774 4185 844 4185 844 3896 
L 844 428 
C 844 140 774 140 332 140 
L 332 -26 
C 518 -13 851 -13 1049 -13 
C 1248 -13 1580 -13 1766 -26 
L 1766 140 
C 1324 140 1254 140 1254 428 
L 1254 2112 
L 2003 2112 
C 2368 2112 2572 1964 2662 1881 
C 2918 1632 2918 1459 2918 1024 
C 2918 595 2918 377 3110 160 
C 3353 -103 3680 -128 3821 -128 
C 4294 -128 4365 403 4365 512 
C 4365 550 4365 595 4307 595 
C 4256 595 4249 556 4249 531 
C 4217 115 4032 -26 3833 -26 
C 3481 -26 3443 377 3405 768 
C 3385 902 3373 998 3360 1139 
C 3321 1459 3270 1926 2508 2156 
z
M 1984 2214 
L 1254 2214 
L 1254 3935 
C 1254 4153 1267 4185 1523 4185 
L 1990 4185 
C 2521 4185 3142 3999 3142 3203 
C 3142 2374 2464 2214 1984 2214 
z
" transform="scale(0.015625)"/>
       <path id="CMR17-68" d="M 979 2585 
L 1708 2585 
L 1708 2752 
L 966 2752 
L 966 3539 
C 966 4076 1235 4377 1510 4377 
C 1593 4377 1689 4363 1753 4339 
C 1702 4326 1568 4281 1568 4121 
C 1568 3955 1696 3904 1785 3904 
C 1875 3904 2003 3955 2003 4121 
C 2003 4353 1772 4480 1516 4480 
C 1152 4480 652 4211 652 3526 
L 652 2752 
L 140 2752 
L 140 2585 
L 652 2585 
L 652 441 
C 652 198 627 166 217 166 
L 217 0 
C 371 12 665 12 832 12 
C 1017 12 1344 12 1516 0 
L 1516 166 
C 1056 166 979 166 979 454 
L 979 2585 
z
" transform="scale(0.015625)"/>
       <path id="CMR17-30" d="M 1062 262 
C 1062 422 934 524 800 524 
C 672 524 537 422 537 262 
C 537 102 665 0 800 0 
C 928 0 1062 102 1062 262 
z
" transform="scale(0.015625)"/>
      </defs>
      <use xlink:href="#CMR17-54" transform="scale(0.996264)"/>
      <use xlink:href="#CMR17-67" transform="translate(67.791102 0) scale(0.996264)"/>
      <use xlink:href="#CMR17-68" transform="translate(108.276762 0) scale(0.996264)"/>
      <use xlink:href="#CMR17-30" transform="translate(135.750275 0) scale(0.996264)"/>
     </g>
    </g>
    <g id="line2d_11">
     <path d="M 61.150175 39.477351 
L 74.650175 39.477351 
L 88.150175 39.477351 
" style="fill: none; stroke: #3c5488; stroke-width: 2.5; stroke-linecap: square"/>
    </g>
    <g id="text_10">
     <!-- w/ Fric. Comp. -->
     <g transform="translate(98.950175 44.202351) scale(0.135 -0.135)">
      <defs>
       <path id="CMR17-79" d="M 3725 2186 
C 3853 2566 4109 2579 4205 2585 
L 4205 2752 
C 4077 2745 3949 2739 3821 2739 
C 3699 2739 3424 2739 3315 2752 
L 3315 2585 
C 3513 2572 3622 2456 3622 2296 
C 3622 2251 3609 2193 3597 2148 
L 2995 398 
L 2342 2296 
C 2329 2341 2310 2392 2310 2418 
C 2310 2585 2528 2585 2630 2585 
L 2630 2752 
C 2483 2739 2214 2739 2060 2739 
C 1900 2739 1734 2739 1587 2752 
L 1587 2585 
C 1939 2585 1939 2572 2073 2167 
L 1484 443 
L 851 2302 
C 819 2386 819 2399 819 2418 
C 819 2585 1036 2585 1139 2585 
L 1139 2752 
C 985 2739 716 2739 556 2739 
C 416 2739 198 2739 64 2752 
L 64 2585 
C 345 2585 416 2566 486 2353 
L 1273 38 
C 1299 -45 1318 -64 1369 -64 
C 1414 -64 1440 -52 1472 44 
L 2131 1987 
L 2796 44 
C 2828 -52 2854 -64 2899 -64 
C 2950 -64 2969 -45 2995 38 
L 3725 2186 
z
" transform="scale(0.015625)"/>
       <path id="CMR17-31" d="M 2604 4575 
C 2636 4658 2636 4671 2636 4684 
C 2636 4761 2579 4800 2528 4800 
C 2451 4800 2425 4748 2400 4671 
L 326 -1376 
C 294 -1460 294 -1472 294 -1485 
C 294 -1562 352 -1600 403 -1600 
C 480 -1600 505 -1549 531 -1472 
L 2604 4575 
z
" transform="scale(0.015625)"/>
       <path id="CMR17-48" d="M 3481 4339 
L 326 4339 
L 326 4172 
C 768 4172 838 4172 838 3883 
L 838 450 
C 838 166 768 166 326 166 
L 326 0 
C 512 12 870 12 1068 12 
C 1331 12 1638 12 1900 0 
L 1900 166 
L 1760 166 
C 1273 166 1260 229 1260 456 
L 1260 2073 
L 1836 2073 
C 2432 2073 2489 1865 2489 1334 
L 2604 1334 
L 2604 2991 
L 2489 2991 
C 2489 2451 2432 2240 1836 2240 
L 1260 2240 
L 1260 3922 
C 1260 4140 1273 4172 1529 4172 
L 2355 4172 
C 3321 4172 3430 3774 3520 2920 
L 3635 2920 
L 3481 4339 
z
" transform="scale(0.015625)"/>
       <path id="CMR17-74" d="M 960 1517 
C 960 2134 1222 2713 1702 2713 
C 1747 2713 1792 2707 1836 2687 
C 1836 2687 1696 2642 1696 2475 
C 1696 2321 1817 2257 1913 2257 
C 1990 2257 2131 2302 2131 2482 
C 2131 2687 1926 2816 1708 2816 
C 1222 2816 1011 2340 947 2115 
L 940 2115 
L 940 2816 
L 198 2745 
L 198 2578 
C 576 2578 633 2540 633 2231 
L 633 443 
C 633 198 608 166 198 166 
L 198 0 
C 352 12 646 12 812 12 
C 998 12 1324 12 1497 0 
L 1497 166 
C 1036 166 960 166 960 455 
L 960 1517 
z
" transform="scale(0.015625)"/>
       <path id="CMR17-65" d="M 2233 2240 
C 2112 2240 1932 2240 1932 2015 
C 1932 1836 2080 1785 2163 1785 
C 2208 1785 2393 1804 2393 2028 
C 2393 2476 1958 2816 1465 2816 
C 787 2816 211 2201 211 1379 
C 211 521 812 -64 1465 -64 
C 2259 -64 2457 676 2457 747 
C 2457 773 2451 792 2406 792 
C 2361 792 2355 786 2329 702 
C 2163 180 1798 51 1523 51 
C 1113 51 620 431 620 1385 
C 620 2358 1094 2700 1472 2700 
C 1721 2700 2092 2582 2233 2240 
z
" transform="scale(0.015625)"/>
       <path id="CMR17-71" d="M 2758 1356 
C 2758 2176 2163 2816 1465 2816 
C 768 2816 172 2176 172 1356 
C 172 550 768 -64 1465 -64 
C 2163 -64 2758 550 2758 1356 
z
M 1465 51 
C 1164 51 908 230 761 480 
C 601 768 582 1126 582 1408 
C 582 1676 595 2009 761 2297 
C 889 2508 1139 2713 1465 2713 
C 1753 2713 1996 2553 2150 2329 
C 2348 2028 2348 1606 2348 1408 
C 2348 1158 2336 774 2163 467 
C 1984 172 1708 51 1465 51 
z
" transform="scale(0.015625)"/>
       <path id="CMR17-72" d="M 1408 -1114 
C 998 -1114 972 -1088 972 -834 
L 972 380 
C 1158 109 1427 -64 1766 -64 
C 2406 -64 3052 503 3052 1382 
C 3052 2196 2496 2816 1836 2816 
C 1452 2816 1139 2603 960 2345 
L 960 2816 
L 198 2745 
L 198 2577 
C 576 2577 633 2539 633 2228 
L 633 -834 
C 633 -1081 608 -1114 198 -1114 
L 198 -1280 
C 352 -1268 633 -1268 800 -1268 
C 966 -1268 1254 -1268 1408 -1280 
L 1408 -1114 
z
M 972 2015 
C 972 2106 972 2241 1222 2481 
C 1254 2506 1472 2700 1792 2700 
C 2259 2700 2643 2112 2643 1376 
C 2643 639 2233 38 1728 38 
C 1497 38 1248 148 1056 451 
C 972 594 972 632 972 736 
L 972 2015 
z
" transform="scale(0.015625)"/>
      </defs>
      <use xlink:href="#CMR17-79" transform="scale(0.996264)"/>
      <use xlink:href="#CMR17-31" transform="translate(66.509881 0) scale(0.996264)"/>
      <use xlink:href="#CMR17-48" transform="translate(142.276324 0) scale(0.996264)"/>
      <use xlink:href="#CMR17-74" transform="translate(194.452915 0) scale(0.996264)"/>
      <use xlink:href="#CMR17-6b" transform="translate(229.733683 0) scale(0.996264)"/>
      <use xlink:href="#CMR17-65" transform="translate(254.604741 0) scale(0.996264)"/>
      <use xlink:href="#CMR17-30" transform="translate(295.090402 0) scale(0.996264)"/>
      <use xlink:href="#CMR17-45" transform="translate(360.447121 0) scale(0.996264)"/>
      <use xlink:href="#CMR17-71" transform="translate(426.957001 0) scale(0.996264)"/>
      <use xlink:href="#CMR17-6f" transform="translate(472.647479 0) scale(0.996264)"/>
      <use xlink:href="#CMR17-72" transform="translate(549.567068 0) scale(0.996264)"/>
      <use xlink:href="#CMR17-30" transform="translate(600.462438 0) scale(0.996264)"/>
     </g>
    </g>
    <g id="line2d_12">
     <path d="M 61.150175 59.676915 
L 74.650175 59.676915 
L 88.150175 59.676915 
" style="fill: none; stroke: #00a087; stroke-width: 2.5; stroke-linecap: square"/>
    </g>
    <g id="text_11">
     <!-- w/o Fric. Comp. -->
     <g transform="translate(98.950175 64.401915) scale(0.135 -0.135)">
      <use xlink:href="#CMR17-79" transform="scale(0.996264)"/>
      <use xlink:href="#CMR17-31" transform="translate(66.509881 0) scale(0.996264)"/>
      <use xlink:href="#CMR17-71" transform="translate(112.200358 0) scale(0.996264)"/>
      <use xlink:href="#CMR17-48" transform="translate(187.966801 0) scale(0.996264)"/>
      <use xlink:href="#CMR17-74" transform="translate(240.143392 0) scale(0.996264)"/>
      <use xlink:href="#CMR17-6b" transform="translate(275.42416 0) scale(0.996264)"/>
      <use xlink:href="#CMR17-65" transform="translate(300.295219 0) scale(0.996264)"/>
      <use xlink:href="#CMR17-30" transform="translate(340.780879 0) scale(0.996264)"/>
      <use xlink:href="#CMR17-45" transform="translate(406.137598 0) scale(0.996264)"/>
      <use xlink:href="#CMR17-71" transform="translate(472.647479 0) scale(0.996264)"/>
      <use xlink:href="#CMR17-6f" transform="translate(518.337956 0) scale(0.996264)"/>
      <use xlink:href="#CMR17-72" transform="translate(595.257546 0) scale(0.996264)"/>
      <use xlink:href="#CMR17-30" transform="translate(646.152915 0) scale(0.996264)"/>
     </g>
    </g>
   </g>
  </g>
 </g>
 <defs>
  <clipPath id="p5703642d85">
   <rect x="53.050175" y="7.2" width="313.069825" height="143.407032"/>
  </clipPath>
 </defs>
</svg>
