<?xml version="1.0" encoding="utf-8" standalone="no"?>
<!DOCTYPE svg PUBLIC "-//W3C//DTD SVG 1.1//EN"
  "http://www.w3.org/Graphics/SVG/1.1/DTD/svg11.dtd">
<svg xmlns:xlink="http://www.w3.org/1999/xlink" width="451.261953pt" height="315.036003pt" viewBox="0 0 451.261953 315.036003" xmlns="http://www.w3.org/2000/svg" version="1.1">
 <metadata>
  <rdf:RDF xmlns:dc="http://purl.org/dc/elements/1.1/" xmlns:cc="http://creativecommons.org/ns#" xmlns:rdf="http://www.w3.org/1999/02/22-rdf-syntax-ns#">
   <cc:Work>
    <dc:type rdf:resource="http://purl.org/dc/dcmitype/StillImage"/>
    <dc:date>2026-07-11T18:02:49.481817</dc:date>
    <dc:format>image/svg+xml</dc:format>
    <dc:creator>
     <cc:Agent>
      <dc:title>Matplotlib v3.11.0, https://matplotlib.org/</dc:title>
     </cc:Agent>
    </dc:creator>
   </cc:Work>
  </rdf:RDF>
 </metadata>
 <defs>
  <style type="text/css">*{stroke-linejoin: round; stroke-linecap: butt}</style>
 </defs>
 <g id="figure_1">
  <g id="patch_1">
   <path d="M 0 315.036003 
L 451.261953 315.036003 
L 451.261953 0 
L 0 0 
z
" style="fill: #ffffff"/>
  </g>
  <g id="axes_1">
   <g id="patch_2">
    <path d="M 57.927667 262.493035 
L 435.837667 262.493035 
L 435.837667 8.229117 
L 57.927667 8.229117 
z
" style="fill: #ffffff"/>
   </g>
   <g id="FillBetweenPolyCollection_1">
    <defs>
     <path id="mc58939440e" d="M 57.927667 -79.614132 
L 57.927667 -73.508407 
L 59.823484 -73.587566 
L 61.719301 -73.7398 
L 63.615118 -73.760406 
L 65.510935 -74.0774 
L 67.406752 -74.912592 
L 69.302568 -76.315213 
L 71.198385 -77.316807 
L 73.094202 -79.868045 
L 74.990019 -81.236122 
L 76.885836 -82.194006 
L 78.781653 -84.226173 
L 80.67747 -86.326744 
L 82.573286 -86.480177 
L 84.469103 -89.805686 
L 86.36492 -89.309563 
L 88.260737 -92.142734 
L 90.156554 -93.045135 
L 92.052371 -94.317934 
L 93.948188 -96.292126 
L 95.844004 -96.591625 
L 97.739821 -98.454633 
L 99.635638 -98.733605 
L 101.531455 -100.778862 
L 103.427272 -102.099483 
L 105.323089 -102.800172 
L 107.218905 -103.85503 
L 109.114722 -104.6704 
L 111.010539 -106.077189 
L 112.906356 -106.541071 
L 114.802173 -108.308842 
L 116.69799 -108.514905 
L 118.593807 -110.431881 
L 120.489623 -110.925399 
L 122.38544 -112.151597 
L 124.281257 -112.686058 
L 126.177074 -113.866348 
L 128.072891 -115.214654 
L 129.968708 -115.514873 
L 131.864524 -117.64941 
L 133.760341 -117.548615 
L 135.656158 -119.216255 
L 137.551975 -119.953753 
L 139.447792 -120.658657 
L 141.343609 -121.996588 
L 143.239426 -122.191311 
L 145.135242 -123.94142 
L 147.031059 -123.743384 
L 148.926876 -125.162055 
L 150.822693 -125.833773 
L 152.71851 -126.685428 
L 154.614327 -127.801946 
L 156.510144 -128.248477 
L 158.40596 -129.820727 
L 160.301777 -129.934983 
L 162.197594 -131.412037 
L 164.093411 -131.851035 
L 165.989228 -132.665453 
L 167.885045 -133.69021 
L 169.780861 -134.164391 
L 171.676678 -135.374019 
L 173.572495 -135.431618 
L 175.468312 -136.669978 
L 177.364129 -136.715078 
L 179.259946 -138.179102 
L 181.155763 -138.548775 
L 183.051579 -139.348064 
L 184.947396 -140.158953 
L 186.843213 -140.509601 
L 188.73903 -141.869353 
L 190.634847 -141.69724 
L 192.530664 -142.809284 
L 194.426481 -143.015888 
L 196.322297 -143.628112 
L 198.218114 -144.2766 
L 200.113931 -144.631214 
L 202.009748 -145.420884 
L 203.905565 -145.4471 
L 205.801382 -146.196581 
L 207.697198 -146.225173 
L 209.593015 -146.862786 
L 211.488832 -147.017377 
L 213.384649 -147.289634 
L 215.280466 -147.726258 
L 217.176283 -147.873983 
L 219.0721 -148.375481 
L 220.967916 -148.414155 
L 222.863733 -148.874318 
L 224.75955 -148.911119 
L 226.655367 -149.261218 
L 228.551184 -149.587048 
L 230.447001 -149.73048 
L 232.342817 -150.007374 
L 234.238634 -150.064435 
L 236.134451 -150.447899 
L 238.030268 -150.47598 
L 239.926085 -150.777422 
L 241.821902 -150.952765 
L 243.717719 -151.036398 
L 245.613535 -151.298079 
L 247.509352 -151.399122 
L 249.405169 -151.800164 
L 251.300986 -151.773202 
L 253.196803 -152.226866 
L 255.09262 -152.277596 
L 256.988437 -152.492252 
L 258.884253 -152.800253 
L 260.78007 -152.914428 
L 262.675887 -153.250979 
L 264.571704 -153.298024 
L 266.467521 -153.566529 
L 268.363338 -153.538597 
L 270.259154 -153.932198 
L 272.154971 -154.072784 
L 274.050788 -154.220926 
L 275.946605 -154.456203 
L 277.842422 -154.548406 
L 279.738239 -154.948554 
L 281.634056 -154.9388 
L 283.529872 -155.272301 
L 285.425689 -155.307653 
L 287.321506 -155.520508 
L 289.217323 -155.803655 
L 291.11314 -155.8032 
L 293.008957 -156.148361 
L 294.904774 -156.143668 
L 296.80059 -156.366313 
L 298.696407 -156.429334 
L 300.592224 -156.705274 
L 302.488041 -156.846904 
L 304.383858 -156.93662 
L 306.279675 -157.177088 
L 308.175491 -157.216627 
L 310.071308 -157.498789 
L 311.967125 -157.492781 
L 313.862942 -157.794302 
L 315.758759 -157.783867 
L 317.654576 -158.122305 
L 319.550393 -158.293026 
L 321.446209 -158.364839 
L 323.342026 -158.593049 
L 325.237843 -158.657139 
L 327.13366 -159.034944 
L 329.029477 -159.017935 
L 330.925294 -159.339085 
L 332.821111 -159.362088 
L 334.716927 -159.524976 
L 336.612744 -159.795926 
L 338.508561 -159.796472 
L 340.404378 -160.110345 
L 342.300195 -160.129429 
L 344.196012 -160.44718 
L 346.091828 -160.496166 
L 347.987645 -160.6713 
L 349.883462 -160.947653 
L 351.779279 -160.9558 
L 353.675096 -161.160816 
L 355.570913 -161.183866 
L 357.46673 -161.390788 
L 359.362546 -161.462858 
L 361.258363 -161.646257 
L 363.15418 -161.729664 
L 365.049997 -161.853708 
L 366.945814 -161.999526 
L 368.841631 -162.083657 
L 370.737447 -162.414588 
L 372.633264 -162.394832 
L 374.529081 -162.685452 
L 376.424898 -162.716625 
L 378.320715 -162.81103 
L 380.216532 -162.972719 
L 382.112349 -163.042425 
L 384.008165 -163.364396 
L 385.903982 -163.345332 
L 387.799799 -163.569616 
L 389.695616 -163.55589 
L 391.591433 -163.70497 
L 393.48725 -163.885581 
L 395.383067 -163.994332 
L 397.278883 -164.320059 
L 399.1747 -164.325185 
L 401.070517 -164.504594 
L 402.966334 -164.485071 
L 404.862151 -164.670345 
L 406.757968 -164.814955 
L 408.653784 -164.884167 
L 410.549601 -165.142999 
L 412.445418 -165.19075 
L 414.341235 -165.274604 
L 416.237052 -165.284471 
L 418.132869 -165.504798 
L 420.028686 -165.543369 
L 421.924502 -165.814981 
L 423.820319 -165.821299 
L 425.716136 -165.92792 
L 427.611953 -166.113415 
L 429.50777 -166.134921 
L 431.403587 -166.305387 
L 433.299404 -166.290568 
L 435.19522 -166.473584 
L 435.19522 -169.397264 
L 435.19522 -169.397264 
L 433.299404 -169.231587 
L 431.403587 -169.176918 
L 429.50777 -169.111601 
L 427.611953 -168.998592 
L 425.716136 -168.956625 
L 423.820319 -168.809053 
L 421.924502 -168.651133 
L 420.028686 -168.520166 
L 418.132869 -168.45322 
L 416.237052 -168.358327 
L 414.341235 -168.320789 
L 412.445418 -168.292382 
L 410.549601 -168.094395 
L 408.653784 -168.064302 
L 406.757968 -167.864522 
L 404.862151 -167.750104 
L 402.966334 -167.666386 
L 401.070517 -167.59705 
L 399.1747 -167.540676 
L 397.278883 -167.414771 
L 395.383067 -167.340186 
L 393.48725 -167.105199 
L 391.591433 -167.094886 
L 389.695616 -166.880966 
L 387.799799 -166.788563 
L 385.903982 -166.717288 
L 384.008165 -166.549986 
L 382.112349 -166.462286 
L 380.216532 -166.286247 
L 378.320715 -166.27525 
L 376.424898 -166.10559 
L 374.529081 -166.008895 
L 372.633264 -165.828017 
L 370.737447 -165.724321 
L 368.841631 -165.601209 
L 366.945814 -165.472804 
L 365.049997 -165.46254 
L 363.15418 -165.267779 
L 361.258363 -165.268163 
L 359.362546 -165.007208 
L 357.46673 -164.988834 
L 355.570913 -164.867125 
L 353.675096 -164.682545 
L 351.779279 -164.650192 
L 349.883462 -164.455765 
L 347.987645 -164.403351 
L 346.091828 -164.196208 
L 344.196012 -164.111152 
L 342.300195 -163.942314 
L 340.404378 -163.789039 
L 338.508561 -163.724005 
L 336.612744 -163.505371 
L 334.716927 -163.454196 
L 332.821111 -163.270666 
L 330.925294 -163.268148 
L 329.029477 -163.021427 
L 327.13366 -162.962126 
L 325.237843 -162.737971 
L 323.342026 -162.5117 
L 321.446209 -162.488967 
L 319.550393 -162.315034 
L 317.654576 -162.303106 
L 315.758759 -162.003934 
L 313.862942 -161.967608 
L 311.967125 -161.753716 
L 310.071308 -161.579411 
L 308.175491 -161.511812 
L 306.279675 -161.286528 
L 304.383858 -161.247193 
L 302.488041 -161.081093 
L 300.592224 -161.00012 
L 298.696407 -160.718882 
L 296.80059 -160.615341 
L 294.904774 -160.542426 
L 293.008957 -160.359156 
L 291.11314 -160.285135 
L 289.217323 -160.079369 
L 287.321506 -160.006598 
L 285.425689 -159.748029 
L 283.529872 -159.72887 
L 281.634056 -159.518981 
L 279.738239 -159.341148 
L 277.842422 -159.218631 
L 275.946605 -158.965785 
L 274.050788 -158.941709 
L 272.154971 -158.67474 
L 270.259154 -158.646974 
L 268.363338 -158.328893 
L 266.467521 -158.232274 
L 264.571704 -158.141072 
L 262.675887 -157.864933 
L 260.78007 -157.817319 
L 258.884253 -157.400153 
L 256.988437 -157.376065 
L 255.09262 -157.155686 
L 253.196803 -157.012135 
L 251.300986 -156.829858 
L 249.405169 -156.579089 
L 247.509352 -156.470023 
L 245.613535 -156.089537 
L 243.717719 -156.068943 
L 241.821902 -155.837092 
L 239.926085 -155.819823 
L 238.030268 -155.543185 
L 236.134451 -155.33573 
L 234.238634 -155.187852 
L 232.342817 -154.88045 
L 230.447001 -154.847668 
L 228.551184 -154.503603 
L 226.655367 -154.470104 
L 224.75955 -153.990872 
L 222.863733 -153.793309 
L 220.967916 -153.540494 
L 219.0721 -153.228863 
L 217.176283 -153.134213 
L 215.280466 -152.609566 
L 213.384649 -152.533006 
L 211.488832 -152.091272 
L 209.593015 -151.969195 
L 207.697198 -151.571523 
L 205.801382 -151.299267 
L 203.905565 -150.845439 
L 202.009748 -150.194194 
L 200.113931 -150.014167 
L 198.218114 -149.164339 
L 196.322297 -149.084513 
L 194.426481 -148.255047 
L 192.530664 -147.957786 
L 190.634847 -147.199688 
L 188.73903 -146.622427 
L 186.843213 -146.142408 
L 184.947396 -145.121531 
L 183.051579 -144.999251 
L 181.155763 -143.782991 
L 179.259946 -143.750609 
L 177.364129 -142.567887 
L 175.468312 -142.18861 
L 173.572495 -141.31087 
L 171.676678 -140.22782 
L 169.780861 -139.944635 
L 167.885045 -138.717287 
L 165.989228 -138.551083 
L 164.093411 -137.376401 
L 162.197594 -136.856343 
L 160.301777 -135.762723 
L 158.40596 -135.083193 
L 156.510144 -134.214205 
L 154.614327 -132.905891 
L 152.71851 -132.698794 
L 150.822693 -131.264565 
L 148.926876 -131.176915 
L 147.031059 -129.779476 
L 145.135242 -128.848526 
L 143.239426 -128.276334 
L 141.343609 -127.029439 
L 139.447792 -126.743811 
L 137.551975 -125.345764 
L 135.656158 -124.798373 
L 133.760341 -123.580251 
L 131.864524 -122.658532 
L 129.968708 -121.861843 
L 128.072891 -120.499728 
L 126.177074 -120.172878 
L 124.281257 -118.652791 
L 122.38544 -118.467118 
L 120.489623 -116.790862 
L 118.593807 -116.134193 
L 116.69799 -114.934019 
L 114.802173 -113.390324 
L 112.906356 -112.969283 
L 111.010539 -111.397997 
L 109.114722 -111.107279 
L 107.218905 -109.446061 
L 105.323089 -109.261437 
L 103.427272 -107.53429 
L 101.531455 -107.251193 
L 99.635638 -105.235007 
L 97.739821 -103.548991 
L 95.844004 -103.093045 
L 93.948188 -101.282193 
L 92.052371 -100.780593 
L 90.156554 -98.603591 
L 88.260737 -97.675146 
L 86.36492 -95.806384 
L 84.469103 -94.154593 
L 82.573286 -92.927169 
L 80.67747 -91.244151 
L 78.781653 -90.641523 
L 76.885836 -87.997883 
L 74.990019 -87.723719 
L 73.094202 -84.316839 
L 71.198385 -83.639701 
L 69.302568 -81.234506 
L 67.406752 -80.262254 
L 65.510935 -79.862077 
L 63.615118 -79.813774 
L 61.719301 -79.714828 
L 59.823484 -79.677771 
L 57.927667 -79.614132 
z
" style="stroke: #7b52ab; stroke-opacity: 0.12"/>
    </defs>
    <g clip-path="url(#p00b074b038)">
     <use xlink:href="#mc58939440e" x="0" y="315.036003" style="fill: #7b52ab; fill-opacity: 0.12; stroke: #7b52ab; stroke-opacity: 0.12"/>
    </g>
   </g>
   <g id="FillBetweenPolyCollection_2">
    <defs>
     <path id="m4cb0540e8e" d="M 57.927667 -81.845506 
L 57.927667 -75.45356 
L 59.824434 -79.627925 
L 61.7212 -75.46231 
L 63.617966 -67.426019 
L 65.514733 -78.295338 
L 67.411499 -74.090247 
L 69.308266 -68.978205 
L 71.205032 -80.993194 
L 73.101798 -74.96126 
L 74.998565 -72.301203 
L 76.895331 -83.893932 
L 78.792097 -78.587566 
L 80.688864 -75.46325 
L 82.58563 -77.503481 
L 84.482397 -86.703985 
L 86.379163 -90.246615 
L 88.275929 -95.522763 
L 90.172696 -92.510549 
L 92.069462 -87.801542 
L 93.966228 -84.824304 
L 95.862995 -85.081594 
L 97.759761 -92.836416 
L 99.656528 -99.906868 
L 101.553294 -104.558333 
L 103.45006 -93.794594 
L 105.346827 -91.260564 
L 107.243593 -91.41175 
L 109.140359 -97.486898 
L 111.037126 -103.836097 
L 112.933892 -97.143501 
L 114.830659 -105.064598 
L 116.727425 -111.204951 
L 118.624191 -111.41973 
L 120.520958 -110.425459 
L 122.417724 -109.977322 
L 124.31449 -105.33381 
L 126.211257 -111.409813 
L 128.108023 -117.805538 
L 130.004789 -117.293348 
L 131.901556 -118.56002 
L 133.798322 -115.757055 
L 135.695089 -108.496302 
L 137.591855 -111.41922 
L 139.488621 -115.026607 
L 141.385388 -121.830289 
L 143.282154 -119.861384 
L 145.17892 -119.368012 
L 147.075687 -123.632742 
L 148.972453 -121.441535 
L 150.86922 -117.235506 
L 152.765986 -120.250048 
L 154.662752 -124.356787 
L 156.559519 -127.569145 
L 158.456285 -126.319932 
L 160.353051 -134.471891 
L 162.249818 -132.541988 
L 164.146584 -126.03118 
L 166.043351 -122.379861 
L 167.940117 -127.245857 
L 169.836883 -139.311204 
L 171.73365 -123.95854 
L 173.630416 -126.740083 
L 175.527182 -134.942354 
L 177.423949 -133.670104 
L 179.320715 -140.129328 
L 181.217482 -143.051319 
L 183.114248 -137.733939 
L 185.011014 -135.279307 
L 186.907781 -133.149504 
L 188.804547 -136.315145 
L 190.701313 -138.066544 
L 192.59808 -137.237363 
L 194.494846 -144.404501 
L 196.391613 -140.22562 
L 198.288379 -139.655888 
L 200.185145 -142.625035 
L 202.081912 -138.376703 
L 203.978678 -143.206957 
L 205.875444 -140.048767 
L 207.772211 -144.117931 
L 209.668977 -147.043345 
L 211.565743 -146.156173 
L 213.46251 -146.094721 
L 215.359276 -135.903598 
L 217.256043 -139.636624 
L 219.152809 -140.032482 
L 221.049575 -135.442944 
L 222.946342 -142.890281 
L 224.843108 -144.34956 
L 226.739874 -143.61953 
L 228.636641 -145.7148 
L 230.533407 -136.773812 
L 232.430174 -121.012212 
L 234.32694 -143.061947 
L 236.223706 -146.237362 
L 238.120473 -156.33742 
L 240.017239 -159.369558 
L 241.914005 -136.644297 
L 243.810772 -143.171941 
L 245.707538 -138.395058 
L 247.604305 -139.550613 
L 249.501071 -152.123704 
L 251.397837 -152.625687 
L 253.294604 -141.801786 
L 255.19137 -137.983307 
L 257.088136 -153.556253 
L 258.984903 -156.519213 
L 260.881669 -137.88085 
L 262.778436 -144.161398 
L 264.675202 -145.359278 
L 266.571968 -152.69779 
L 268.468735 -143.479116 
L 270.365501 -141.628824 
L 272.262267 -155.280719 
L 274.159034 -145.994582 
L 276.0558 -155.007806 
L 277.952567 -152.525461 
L 279.849333 -152.120381 
L 281.746099 -151.271039 
L 283.642866 -157.267785 
L 285.539632 -146.661222 
L 287.436398 -153.833072 
L 289.333165 -155.60449 
L 291.229931 -157.469678 
L 293.126697 -152.634308 
L 295.023464 -159.40599 
L 296.92023 -153.307786 
L 298.816997 -155.427648 
L 300.713763 -142.23234 
L 302.610529 -143.645773 
L 304.507296 -150.508705 
L 306.404062 -157.890176 
L 308.300828 -155.466147 
L 310.197595 -151.665608 
L 312.094361 -158.924191 
L 313.991128 -149.205474 
L 315.887894 -148.907042 
L 317.78466 -149.546562 
L 319.681427 -153.988173 
L 321.578193 -148.784631 
L 323.474959 -148.865132 
L 325.371726 -159.124726 
L 327.268492 -151.698038 
L 329.165259 -159.221962 
L 331.062025 -159.271835 
L 332.958791 -156.4959 
L 334.855558 -158.896863 
L 336.752324 -157.667712 
L 338.64909 -159.368543 
L 340.545857 -161.789677 
L 342.442623 -159.806677 
L 344.33939 -156.878171 
L 346.236156 -157.329807 
L 348.132922 -146.254912 
L 350.029689 -156.720045 
L 351.926455 -146.795679 
L 353.823221 -150.910661 
L 355.719988 -152.872213 
L 357.616754 -156.087767 
L 359.51352 -157.682852 
L 361.410287 -161.786323 
L 363.307053 -157.132104 
L 365.20382 -158.012718 
L 367.100586 -161.788628 
L 368.997352 -160.696776 
L 370.894119 -163.315374 
L 372.790885 -148.744043 
L 374.687651 -155.597533 
L 376.584418 -160.447388 
L 378.481184 -163.336508 
L 380.377951 -160.745817 
L 382.274717 -163.022264 
L 384.171483 -161.846996 
L 386.06825 -156.086092 
L 387.965016 -162.973058 
L 389.861782 -157.076462 
L 391.758549 -156.398328 
L 393.655315 -152.134963 
L 395.552082 -153.312613 
L 397.448848 -160.845905 
L 399.345614 -161.01858 
L 401.242381 -159.918473 
L 403.139147 -156.840737 
L 405.035913 -156.026398 
L 406.93268 -156.083424 
L 408.829446 -158.827509 
L 410.726213 -156.754616 
L 412.622979 -154.596147 
L 414.519745 -156.76181 
L 416.416512 -164.949557 
L 418.313278 -168.764566 
L 420.210044 -156.553657 
L 422.106811 -153.781341 
L 424.003577 -158.73194 
L 425.900344 -155.650807 
L 427.79711 -145.657719 
L 429.693876 -142.151703 
L 431.590643 -148.658598 
L 433.487409 -164.337458 
L 435.384175 -171.215135 
L 435.384175 -187.616312 
L 435.384175 -187.616312 
L 433.487409 -187.78415 
L 431.590643 -188.225712 
L 429.693876 -181.936409 
L 427.79711 -168.80723 
L 425.900344 -170.563822 
L 424.003577 -177.999017 
L 422.106811 -181.449068 
L 420.210044 -184.285757 
L 418.313278 -179.184341 
L 416.416512 -175.022585 
L 414.519745 -172.072583 
L 412.622979 -177.926384 
L 410.726213 -176.533938 
L 408.829446 -173.500989 
L 406.93268 -179.570315 
L 405.035913 -177.191062 
L 403.139147 -177.87708 
L 401.242381 -173.521036 
L 399.345614 -178.389517 
L 397.448848 -176.052048 
L 395.552082 -175.673263 
L 393.655315 -171.967068 
L 391.758549 -171.131206 
L 389.861782 -174.38368 
L 387.965016 -167.881493 
L 386.06825 -172.399108 
L 384.171483 -169.327076 
L 382.274717 -167.475392 
L 380.377951 -174.335172 
L 378.481184 -169.703368 
L 376.584418 -168.057967 
L 374.687651 -172.892539 
L 372.790885 -174.846101 
L 370.894119 -169.347499 
L 368.997352 -169.853872 
L 367.100586 -168.362605 
L 365.20382 -164.986269 
L 363.307053 -176.460049 
L 361.410287 -176.523632 
L 359.51352 -165.146163 
L 357.616754 -168.838996 
L 355.719988 -165.042609 
L 353.823221 -168.718222 
L 351.926455 -166.290032 
L 350.029689 -166.7834 
L 348.132922 -172.277177 
L 346.236156 -171.682219 
L 344.33939 -167.777931 
L 342.442623 -171.216179 
L 340.545857 -169.641148 
L 338.64909 -163.890201 
L 336.752324 -168.372824 
L 334.855558 -166.572312 
L 332.958791 -167.287694 
L 331.062025 -164.947976 
L 329.165259 -165.377935 
L 327.268492 -163.428592 
L 325.371726 -166.318538 
L 323.474959 -168.62465 
L 321.578193 -169.607757 
L 319.681427 -162.339257 
L 317.78466 -165.350204 
L 315.887894 -163.184121 
L 313.991128 -170.163445 
L 312.094361 -166.021425 
L 310.197595 -168.426623 
L 308.300828 -168.345532 
L 306.404062 -162.128485 
L 304.507296 -166.215431 
L 302.610529 -159.916183 
L 300.713763 -170.32178 
L 298.816997 -168.817198 
L 296.92023 -165.82704 
L 295.023464 -163.038992 
L 293.126697 -159.845427 
L 291.229931 -166.185751 
L 289.333165 -167.139656 
L 287.436398 -166.232954 
L 285.539632 -163.013431 
L 283.642866 -163.455787 
L 281.746099 -160.704906 
L 279.849333 -165.477855 
L 277.952567 -167.015218 
L 276.0558 -164.579958 
L 274.159034 -160.597466 
L 272.262267 -173.880351 
L 270.365501 -165.615933 
L 268.468735 -164.330587 
L 266.571968 -161.593345 
L 264.675202 -163.419016 
L 262.778436 -170.207273 
L 260.881669 -161.461742 
L 258.984903 -165.134314 
L 257.088136 -166.444348 
L 255.19137 -169.291152 
L 253.294604 -169.648964 
L 251.397837 -165.850148 
L 249.501071 -163.447369 
L 247.604305 -159.936434 
L 245.707538 -152.004815 
L 243.810772 -158.804022 
L 241.914005 -164.296914 
L 240.017239 -177.322586 
L 238.120473 -169.469676 
L 236.223706 -160.452407 
L 234.32694 -157.789319 
L 232.430174 -152.178953 
L 230.533407 -151.085648 
L 228.636641 -169.761066 
L 226.739874 -166.267016 
L 224.843108 -162.896676 
L 222.946342 -168.099945 
L 221.049575 -157.206584 
L 219.152809 -159.475838 
L 217.256043 -146.800396 
L 215.359276 -144.804523 
L 213.46251 -156.672659 
L 211.565743 -151.265467 
L 209.668977 -157.059916 
L 207.772211 -150.08383 
L 205.875444 -151.928123 
L 203.978678 -147.698414 
L 202.081912 -150.523079 
L 200.185145 -153.449292 
L 198.288379 -150.151827 
L 196.391613 -151.079963 
L 194.494846 -151.165877 
L 192.59808 -146.796438 
L 190.701313 -146.303354 
L 188.804547 -147.52218 
L 186.907781 -150.287996 
L 185.011014 -140.50787 
L 183.114248 -148.192331 
L 181.217482 -149.161288 
L 179.320715 -146.680024 
L 177.423949 -145.045708 
L 175.527182 -144.385895 
L 173.630416 -140.965659 
L 171.73365 -142.399449 
L 169.836883 -146.222906 
L 167.940117 -137.089875 
L 166.043351 -142.635249 
L 164.146584 -142.703571 
L 162.249818 -141.063115 
L 160.353051 -139.787209 
L 158.456285 -140.581939 
L 156.559519 -137.314679 
L 154.662752 -138.662557 
L 152.765986 -136.408061 
L 150.86922 -130.484955 
L 148.972453 -134.491675 
L 147.075687 -140.85694 
L 145.17892 -138.479132 
L 143.282154 -134.94517 
L 141.385388 -126.216041 
L 139.488621 -121.385884 
L 137.591855 -125.702753 
L 135.695089 -128.993409 
L 133.798322 -129.781974 
L 131.901556 -133.169811 
L 130.004789 -131.131953 
L 128.108023 -127.337983 
L 126.211257 -122.059911 
L 124.31449 -117.368649 
L 122.417724 -118.884227 
L 120.520958 -123.600384 
L 118.624191 -121.885126 
L 116.727425 -126.729684 
L 114.830659 -121.987486 
L 112.933892 -116.859758 
L 111.037126 -109.116577 
L 109.140359 -106.507292 
L 107.243593 -111.35096 
L 105.346827 -116.228186 
L 103.45006 -115.457969 
L 101.553294 -112.2649 
L 99.656528 -111.790461 
L 97.759761 -108.583776 
L 95.862995 -98.852065 
L 93.966228 -95.347869 
L 92.069462 -105.114583 
L 90.172696 -103.925778 
L 88.275929 -105.494781 
L 86.379163 -100.563056 
L 84.482397 -94.707222 
L 82.58563 -85.317762 
L 80.688864 -95.924141 
L 78.792097 -95.189555 
L 76.895331 -90.657778 
L 74.998565 -88.010363 
L 73.101798 -80.397787 
L 71.205032 -87.216502 
L 69.308266 -75.753404 
L 67.411499 -78.119055 
L 65.514733 -87.050556 
L 63.617966 -72.534339 
L 61.7212 -80.027511 
L 59.824434 -82.527421 
L 57.927667 -81.845506 
z
" style="stroke: #7b52ab; stroke-opacity: 0.06"/>
    </defs>
    <g clip-path="url(#p00b074b038)">
     <use xlink:href="#m4cb0540e8e" x="0" y="315.036003" style="fill: #7b52ab; fill-opacity: 0.06; stroke: #7b52ab; stroke-opacity: 0.06"/>
    </g>
   </g>
   <g id="FillBetweenPolyCollection_3">
    <defs>
     <path id="mbab63ae6eb" d="M 57.927667 -121.437511 
L 57.927667 -112.95336 
L 59.823389 -113.062141 
L 61.719111 -113.169951 
L 63.614833 -113.178395 
L 65.510555 -113.606367 
L 67.406277 -113.694468 
L 69.301999 -115.874853 
L 71.197721 -115.984416 
L 73.093443 -120.750334 
L 74.989164 -120.61118 
L 76.884886 -124.516955 
L 78.780608 -125.240033 
L 80.67633 -128.222252 
L 82.572052 -129.642245 
L 84.467774 -131.513395 
L 86.363496 -133.097285 
L 88.259218 -134.885041 
L 90.15494 -136.809086 
L 92.050662 -137.901804 
L 93.946383 -140.730174 
L 95.842105 -140.853381 
L 97.737827 -143.867451 
L 99.633549 -144.474705 
L 101.529271 -146.480263 
L 103.424993 -148.055028 
L 105.320715 -149.168627 
L 107.216437 -151.384992 
L 109.112159 -151.788245 
L 111.00788 -154.449933 
L 112.903602 -154.773893 
L 114.799324 -156.846615 
L 116.695046 -158.199069 
L 118.590768 -159.328632 
L 120.48649 -161.378481 
L 122.382212 -161.737783 
L 124.277934 -163.841905 
L 126.173656 -164.113689 
L 128.069378 -166.243896 
L 129.965099 -166.704945 
L 131.860821 -168.720974 
L 133.756543 -169.797026 
L 135.652265 -171.043481 
L 137.547987 -172.816776 
L 139.443709 -173.108173 
L 141.339431 -175.021431 
L 143.235153 -175.952066 
L 145.130875 -177.073636 
L 147.026597 -177.934199 
L 148.922318 -178.887683 
L 150.81804 -180.603633 
L 152.713762 -180.728436 
L 154.609484 -182.292981 
L 156.505206 -182.83903 
L 158.400928 -184.249103 
L 160.29665 -185.129844 
L 162.192372 -186.216444 
L 164.088094 -187.694824 
L 165.983815 -187.929497 
L 167.879537 -189.41772 
L 169.775259 -189.950219 
L 171.670981 -191.142621 
L 173.566703 -191.657518 
L 175.462425 -192.810558 
L 177.358147 -193.611327 
L 179.253869 -194.492447 
L 181.149591 -195.545262 
L 183.045313 -195.991004 
L 184.941034 -197.298059 
L 186.836756 -197.503442 
L 188.732478 -199.023986 
L 190.6282 -199.716143 
L 192.523922 -200.595447 
L 194.419644 -201.848066 
L 196.315366 -202.052571 
L 198.211088 -203.765286 
L 200.10681 -203.621114 
L 202.002532 -205.078406 
L 203.898253 -205.814404 
L 205.793975 -206.383778 
L 207.689697 -207.191695 
L 209.585419 -207.945129 
L 211.481141 -209.056521 
L 213.376863 -209.229044 
L 215.272585 -210.369274 
L 217.168307 -210.507348 
L 219.064029 -212.109675 
L 220.959751 -212.12013 
L 222.855472 -213.288502 
L 224.751194 -213.954365 
L 226.646916 -214.427615 
L 228.542638 -215.535117 
L 230.43836 -215.703576 
L 232.334082 -216.836652 
L 234.229804 -217.052773 
L 236.125526 -217.970674 
L 238.021248 -219.012577 
L 239.916969 -219.202057 
L 241.812691 -220.13752 
L 243.708413 -220.27438 
L 245.604135 -221.120284 
L 247.499857 -221.584685 
L 249.395579 -222.37064 
L 251.291301 -222.937626 
L 253.187023 -223.566973 
L 255.082745 -224.06445 
L 256.978467 -224.582149 
L 258.874188 -225.503097 
L 260.76991 -225.529908 
L 262.665632 -226.673987 
L 264.561354 -227.071288 
L 266.457076 -227.52642 
L 268.352798 -227.885942 
L 270.24852 -228.541907 
L 272.144242 -229.446554 
L 274.039964 -229.580604 
L 275.935686 -230.333188 
L 277.831407 -230.446737 
L 279.727129 -231.432436 
L 281.622851 -232.012529 
L 283.518573 -232.366903 
L 285.414295 -233.149694 
L 287.310017 -233.262017 
L 289.205739 -233.97262 
L 291.101461 -234.092071 
L 292.997183 -234.974334 
L 294.892904 -235.411796 
L 296.788626 -235.899206 
L 298.684348 -236.32454 
L 300.58007 -236.749877 
L 302.475792 -237.384803 
L 304.371514 -237.475085 
L 306.267236 -238.353865 
L 308.162958 -238.269191 
L 310.05868 -239.095685 
L 311.954402 -239.320854 
L 313.850123 -239.673172 
L 315.745845 -240.244662 
L 317.641567 -240.502195 
L 319.537289 -241.234133 
L 321.433011 -241.199892 
L 323.328733 -241.822663 
L 325.224455 -242.02867 
L 327.120177 -242.349338 
L 329.015899 -242.596316 
L 330.911621 -242.877562 
L 332.807342 -243.153325 
L 334.703064 -243.20063 
L 336.598786 -243.58048 
L 338.494508 -243.82841 
L 340.39023 -244.076169 
L 342.285952 -244.26061 
L 344.181674 -244.432493 
L 346.077396 -244.738099 
L 347.973118 -244.779391 
L 349.86884 -245.014008 
L 351.764561 -245.042723 
L 353.660283 -245.474259 
L 355.556005 -245.562961 
L 357.451727 -245.713957 
L 359.347449 -245.853654 
L 361.243171 -245.950627 
L 363.138893 -246.216672 
L 365.034615 -246.275847 
L 366.930337 -246.501012 
L 368.826058 -246.543107 
L 370.72178 -246.794777 
L 372.617502 -246.934075 
L 374.513224 -247.048219 
L 376.408946 -247.178384 
L 378.304668 -247.279942 
L 380.20039 -247.462462 
L 382.096112 -247.451 
L 383.991834 -247.716134 
L 385.887556 -247.756297 
L 387.783277 -247.860179 
L 389.678999 -248.023417 
L 391.574721 -248.062482 
L 393.470443 -248.309976 
L 395.366165 -248.374564 
L 397.261887 -248.60423 
L 399.157609 -248.658229 
L 401.053331 -248.699456 
L 402.949053 -248.766787 
L 404.844775 -248.849585 
L 406.740496 -248.971091 
L 408.636218 -248.987594 
L 410.53194 -249.306452 
L 412.427662 -249.307499 
L 414.323384 -249.467692 
L 416.219106 -249.498088 
L 418.114828 -249.621506 
L 420.01055 -249.806796 
L 421.906272 -249.890565 
L 423.801993 -250.007769 
L 425.697715 -250.049322 
L 427.593437 -250.107926 
L 429.489159 -250.099463 
L 431.384881 -250.292554 
L 433.280603 -250.358311 
L 435.176325 -250.399942 
L 435.176325 -254.859294 
L 435.176325 -254.859294 
L 433.280603 -254.847791 
L 431.384881 -254.829029 
L 429.489159 -254.774574 
L 427.593437 -254.713197 
L 425.697715 -254.705139 
L 423.801993 -254.615253 
L 421.906272 -254.611509 
L 420.01055 -254.415084 
L 418.114828 -254.39904 
L 416.219106 -254.368237 
L 414.323384 -254.376847 
L 412.427662 -254.347749 
L 410.53194 -254.208013 
L 408.636218 -254.12635 
L 406.740496 -254.002745 
L 404.844775 -253.973594 
L 402.949053 -253.900005 
L 401.053331 -253.913538 
L 399.157609 -253.893547 
L 397.261887 -253.858821 
L 395.366165 -253.776323 
L 393.470443 -253.526632 
L 391.574721 -253.490646 
L 389.678999 -253.403414 
L 387.783277 -253.387427 
L 385.887556 -253.362025 
L 383.991834 -253.255839 
L 382.096112 -253.171796 
L 380.20039 -253.065213 
L 378.304668 -252.991324 
L 376.408946 -252.87478 
L 374.513224 -252.864392 
L 372.617502 -252.707957 
L 370.72178 -252.675457 
L 368.826058 -252.469754 
L 366.930337 -252.30849 
L 365.034615 -252.268559 
L 363.138893 -252.057995 
L 361.243171 -252.025908 
L 359.347449 -251.831799 
L 357.451727 -251.825419 
L 355.556005 -251.636487 
L 353.660283 -251.439593 
L 351.764561 -251.291148 
L 349.86884 -251.130837 
L 347.973118 -251.091703 
L 346.077396 -250.897212 
L 344.181674 -250.847483 
L 342.285952 -250.438211 
L 340.39023 -250.433362 
L 338.494508 -250.041203 
L 336.598786 -249.704539 
L 334.703064 -249.638495 
L 332.807342 -249.274011 
L 330.911621 -249.237611 
L 329.015899 -248.6611 
L 327.120177 -248.650017 
L 325.224455 -248.051851 
L 323.328733 -247.702219 
L 321.433011 -247.451597 
L 319.537289 -247.029868 
L 317.641567 -246.787731 
L 315.745845 -246.071811 
L 313.850123 -245.999483 
L 311.954402 -245.362679 
L 310.05868 -245.003519 
L 308.162958 -244.593996 
L 306.267236 -244.097532 
L 304.371514 -243.76751 
L 302.475792 -243.200256 
L 300.58007 -243.096916 
L 298.684348 -242.304518 
L 296.788626 -241.994191 
L 294.892904 -241.449385 
L 292.997183 -241.391407 
L 291.101461 -240.535321 
L 289.205739 -239.831192 
L 287.310017 -239.714894 
L 285.414295 -239.029163 
L 283.518573 -238.909716 
L 281.622851 -238.038471 
L 279.727129 -237.853551 
L 277.831407 -237.014185 
L 275.935686 -236.38399 
L 274.039964 -236.146815 
L 272.144242 -235.289314 
L 270.24852 -235.163093 
L 268.352798 -234.207806 
L 266.457076 -234.185198 
L 264.561354 -233.425078 
L 262.665632 -232.643059 
L 260.76991 -232.333655 
L 258.874188 -231.613284 
L 256.978467 -231.375226 
L 255.082745 -230.445019 
L 253.187023 -230.417322 
L 251.291301 -229.353492 
L 249.395579 -229.312716 
L 247.499857 -228.227771 
L 245.604135 -227.370656 
L 243.708413 -227.22138 
L 241.812691 -226.3819 
L 239.916969 -226.238075 
L 238.021248 -225.241999 
L 236.125526 -225.068458 
L 234.229804 -223.971253 
L 232.334082 -223.08326 
L 230.43836 -222.819152 
L 228.542638 -221.78213 
L 226.646916 -221.60445 
L 224.751194 -220.548907 
L 222.855472 -220.492003 
L 220.959751 -219.24273 
L 219.064029 -218.460852 
L 217.168307 -217.833547 
L 215.272585 -216.765706 
L 213.376863 -216.534843 
L 211.481141 -215.485281 
L 209.585419 -215.318132 
L 207.689697 -213.897129 
L 205.793975 -213.824269 
L 203.898253 -212.647649 
L 202.002532 -211.538646 
L 200.10681 -211.155287 
L 198.211088 -210.260153 
L 196.315366 -209.650688 
L 194.419644 -208.454296 
L 192.523922 -207.702045 
L 190.6282 -206.722298 
L 188.732478 -206.48141 
L 186.836756 -205.14208 
L 184.941034 -203.908435 
L 183.045313 -203.677368 
L 181.149591 -202.36073 
L 179.253869 -202.246905 
L 177.358147 -200.564301 
L 175.462425 -200.263663 
L 173.566703 -199.053306 
L 171.670981 -197.820497 
L 169.775259 -197.500703 
L 167.879537 -196.055749 
L 165.983815 -195.732209 
L 164.088094 -194.380467 
L 162.192372 -193.901654 
L 160.29665 -192.308524 
L 158.400928 -192.175677 
L 156.505206 -190.573897 
L 154.609484 -189.064846 
L 152.713762 -188.819508 
L 150.81804 -187.393265 
L 148.922318 -187.007287 
L 147.026597 -185.262754 
L 145.130875 -184.399555 
L 143.235153 -183.306738 
L 141.339431 -182.857131 
L 139.443709 -181.416087 
L 137.547987 -179.691706 
L 135.652265 -179.409373 
L 133.756543 -177.260462 
L 131.860821 -177.043334 
L 129.965099 -174.843169 
L 128.069378 -173.184882 
L 126.173656 -172.667082 
L 124.277934 -170.816082 
L 122.382212 -170.360539 
L 120.48649 -168.391901 
L 118.590768 -168.020825 
L 116.695046 -165.716736 
L 114.799324 -165.548335 
L 112.903602 -162.950422 
L 111.00788 -161.568664 
L 109.112159 -160.574057 
L 107.216437 -158.473363 
L 105.320715 -158.089475 
L 103.424993 -155.594623 
L 101.529271 -155.441176 
L 99.633549 -152.760377 
L 97.737827 -150.911495 
L 95.842105 -149.899922 
L 93.946383 -147.707394 
L 92.050662 -146.993457 
L 90.15494 -144.302214 
L 88.259218 -143.638081 
L 86.363496 -140.872264 
L 84.467774 -140.739257 
L 82.572052 -137.399938 
L 80.67633 -136.421677 
L 78.780608 -134.533573 
L 76.884886 -131.139062 
L 74.989164 -130.397769 
L 73.093443 -127.168233 
L 71.197721 -125.612202 
L 69.301999 -123.320604 
L 67.406277 -122.732475 
L 65.510555 -121.876754 
L 63.614833 -121.813926 
L 61.719111 -121.678379 
L 59.823389 -121.653123 
L 57.927667 -121.437511 
z
" style="stroke: #e64b35; stroke-opacity: 0.12"/>
    </defs>
    <g clip-path="url(#p00b074b038)">
     <use xlink:href="#mbab63ae6eb" x="0" y="315.036003" style="fill: #e64b35; fill-opacity: 0.12; stroke: #e64b35; stroke-opacity: 0.12"/>
    </g>
   </g>
   <g id="FillBetweenPolyCollection_4">
    <defs>
     <path id="m263d1eba38" d="M 57.927667 -140.568324 
L 57.927667 -123.049953 
L 59.824908 -122.158404 
L 61.72215 -116.76838 
L 63.619391 -105.538774 
L 65.516632 -104.963077 
L 67.413873 -87.183616 
L 69.311114 -103.49841 
L 71.208355 -109.872579 
L 73.105596 -116.001566 
L 75.002838 -122.856672 
L 76.900079 -129.862183 
L 78.79732 -135.499226 
L 80.694561 -133.735068 
L 82.591802 -129.307179 
L 84.489043 -127.361506 
L 86.386284 -130.120378 
L 88.283525 -124.199658 
L 90.180767 -127.256741 
L 92.078008 -132.836854 
L 93.975249 -137.343623 
L 95.87249 -144.515966 
L 97.769731 -145.287308 
L 99.666972 -141.08195 
L 101.564213 -136.274322 
L 103.461455 -142.65293 
L 105.358696 -144.351137 
L 107.255937 -147.195891 
L 109.153178 -149.694151 
L 111.050419 -154.198694 
L 112.94766 -157.573482 
L 114.844901 -158.451348 
L 116.742142 -158.260691 
L 118.639384 -148.136908 
L 120.536625 -154.043136 
L 122.433866 -160.774541 
L 124.331107 -158.402769 
L 126.228348 -166.346249 
L 128.125589 -155.900656 
L 130.02283 -157.510476 
L 131.920072 -160.474079 
L 133.817313 -162.815225 
L 135.714554 -166.660849 
L 137.611795 -167.629872 
L 139.509036 -176.166236 
L 141.406277 -174.994131 
L 143.303518 -174.796145 
L 145.200759 -180.422208 
L 147.098001 -176.905796 
L 148.995242 -179.88301 
L 150.892483 -175.53685 
L 152.789724 -178.528634 
L 154.686965 -182.940329 
L 156.584206 -184.377622 
L 158.481447 -184.142374 
L 160.378689 -186.475799 
L 162.27593 -189.827914 
L 164.173171 -186.251976 
L 166.070412 -187.235131 
L 167.967653 -192.647862 
L 169.864894 -190.750072 
L 171.762135 -192.678443 
L 173.659376 -194.791918 
L 175.556618 -197.950809 
L 177.453859 -192.90392 
L 179.3511 -195.222812 
L 181.248341 -197.467296 
L 183.145582 -196.359291 
L 185.042823 -191.955259 
L 186.940064 -198.743414 
L 188.837306 -205.825214 
L 190.734547 -199.385129 
L 192.631788 -196.028631 
L 194.529029 -197.365473 
L 196.42627 -201.800833 
L 198.323511 -205.356243 
L 200.220752 -200.639215 
L 202.117993 -206.600416 
L 204.015235 -207.59747 
L 205.912476 -206.368727 
L 207.809717 -210.326006 
L 209.706958 -204.691286 
L 211.604199 -200.727464 
L 213.50144 -204.111369 
L 215.398681 -204.510364 
L 217.295923 -209.277508 
L 219.193164 -208.907276 
L 221.090405 -213.206525 
L 222.987646 -217.675715 
L 224.884887 -219.195201 
L 226.782128 -219.042478 
L 228.679369 -214.553938 
L 230.57661 -212.114772 
L 232.473852 -215.435152 
L 234.371093 -215.152707 
L 236.268334 -216.750476 
L 238.165575 -215.553769 
L 240.062816 -214.053793 
L 241.960057 -222.93591 
L 243.857298 -223.806083 
L 245.75454 -225.514491 
L 247.651781 -225.337467 
L 249.549022 -224.655967 
L 251.446263 -214.791017 
L 253.343504 -201.117354 
L 255.240745 -210.239943 
L 257.137986 -213.289285 
L 259.035227 -222.025151 
L 260.932469 -223.149302 
L 262.82971 -225.880669 
L 264.726951 -223.506784 
L 266.624192 -218.952801 
L 268.521433 -228.048339 
L 270.418674 -232.08702 
L 272.315915 -217.88744 
L 274.213157 -220.543146 
L 276.110398 -217.435001 
L 278.007639 -218.788656 
L 279.90488 -215.732388 
L 281.802121 -220.975077 
L 283.699362 -224.650603 
L 285.596603 -232.700942 
L 287.493844 -228.533182 
L 289.391086 -212.940064 
L 291.288327 -204.37838 
L 293.185568 -214.58601 
L 295.082809 -212.352617 
L 296.98005 -210.606416 
L 298.877291 -214.410203 
L 300.774532 -220.37387 
L 302.671774 -223.842576 
L 304.569015 -211.733318 
L 306.466256 -214.397833 
L 308.363497 -219.365344 
L 310.260738 -217.531606 
L 312.157979 -217.213496 
L 314.05522 -208.198354 
L 315.952461 -212.359599 
L 317.849703 -228.17571 
L 319.746944 -240.458304 
L 321.644185 -229.645235 
L 323.541426 -229.259997 
L 325.438667 -226.568966 
L 327.335908 -225.711899 
L 329.233149 -206.549006 
L 331.130391 -203.965248 
L 333.027632 -213.621361 
L 334.924873 -234.12409 
L 336.822114 -255.03252 
L 338.719355 -262.534519 
L 340.616596 -264.162281 
L 342.513837 -236.576428 
L 344.411078 -213.798513 
L 346.30832 -211.033642 
L 348.205561 -206.946811 
L 350.102802 -201.559043 
L 352.000043 -207.578719 
L 353.897284 -224.095714 
L 355.794525 -244.06796 
L 357.691766 -249.379451 
L 359.589008 -234.212803 
L 361.486249 -227.905667 
L 363.38349 -226.256761 
L 365.280731 -229.049388 
L 367.177972 -236.34354 
L 369.075213 -219.914733 
L 370.972454 -213.914682 
L 372.869695 -216.91839 
L 374.766937 -234.889307 
L 376.664178 -232.506666 
L 378.561419 -212.234606 
L 380.45866 -210.660861 
L 382.355901 -214.217051 
L 384.253142 -222.732682 
L 386.150383 -234.466364 
L 388.047625 -226.139829 
L 389.944866 -228.84084 
L 391.842107 -229.649823 
L 393.739348 -218.576201 
L 395.636589 -221.999017 
L 397.53383 -231.79702 
L 399.431071 -226.690566 
L 401.328312 -219.787725 
L 403.225554 -220.319195 
L 405.122795 -221.58558 
L 407.020036 -223.780298 
L 408.917277 -223.487978 
L 410.814518 -223.660956 
L 412.711759 -227.463152 
L 414.609 -229.132772 
L 416.506242 -230.858455 
L 418.403483 -232.945024 
L 420.300724 -236.979342 
L 422.197965 -241.050801 
L 424.095206 -248.994812 
L 425.992447 -235.935425 
L 427.889688 -225.696167 
L 429.786929 -215.364696 
L 431.684171 -216.068576 
L 433.581412 -222.046162 
L 435.478653 -226.330122 
L 435.478653 -256.184371 
L 435.478653 -256.184371 
L 433.581412 -256.198251 
L 431.684171 -262.468515 
L 429.786929 -271.859102 
L 427.889688 -262.433899 
L 425.992447 -264.916646 
L 424.095206 -278.702116 
L 422.197965 -283.599667 
L 420.300724 -280.666228 
L 418.403483 -277.938715 
L 416.506242 -271.900215 
L 414.609 -266.350763 
L 412.711759 -273.294782 
L 410.814518 -272.323048 
L 408.917277 -265.832678 
L 407.020036 -284.181762 
L 405.122795 -281.050857 
L 403.225554 -269.615082 
L 401.328312 -264.421325 
L 399.431071 -273.089712 
L 397.53383 -295.407797 
L 395.636589 -289.652012 
L 393.739348 -290.174287 
L 391.842107 -281.881599 
L 389.944866 -281.015377 
L 388.047625 -275.207404 
L 386.150383 -267.786126 
L 384.253142 -269.302789 
L 382.355901 -276.23463 
L 380.45866 -274.786295 
L 378.561419 -266.716578 
L 376.664178 -260.44755 
L 374.766937 -280.891222 
L 372.869695 -284.038456 
L 370.972454 -281.590177 
L 369.075213 -270.772909 
L 367.177972 -265.150905 
L 365.280731 -282.86158 
L 363.38349 -282.815809 
L 361.486249 -279.906292 
L 359.589008 -273.585863 
L 357.691766 -276.409663 
L 355.794525 -282.779803 
L 353.897284 -277.319237 
L 352.000043 -269.950579 
L 350.102802 -248.372649 
L 348.205561 -233.31987 
L 346.30832 -232.266588 
L 344.411078 -283.14393 
L 342.513837 -294.574231 
L 340.616596 -287.615913 
L 338.719355 -281.615684 
L 336.822114 -269.162315 
L 334.924873 -259.322157 
L 333.027632 -249.165783 
L 331.130391 -240.344306 
L 329.233149 -253.126642 
L 327.335908 -275.406752 
L 325.438667 -271.983133 
L 323.541426 -283.556027 
L 321.644185 -278.100349 
L 319.746944 -262.977079 
L 317.849703 -270.182301 
L 315.952461 -263.531542 
L 314.05522 -257.452162 
L 312.157979 -247.256468 
L 310.260738 -249.816973 
L 308.363497 -268.569285 
L 306.466256 -270.655709 
L 304.569015 -263.878805 
L 302.671774 -247.40744 
L 300.774532 -266.524192 
L 298.877291 -266.112527 
L 296.98005 -262.351435 
L 295.082809 -248.053475 
L 293.185568 -255.417767 
L 291.288327 -259.385641 
L 289.391086 -258.9421 
L 287.493844 -255.517946 
L 285.596603 -251.027544 
L 283.699362 -256.565591 
L 281.802121 -248.549955 
L 279.90488 -238.35421 
L 278.007639 -236.936257 
L 276.110398 -248.331568 
L 274.213157 -246.390589 
L 272.315915 -242.473963 
L 270.418674 -236.169245 
L 268.521433 -244.832267 
L 266.624192 -250.706022 
L 264.726951 -247.406412 
L 262.82971 -241.357453 
L 260.932469 -242.942547 
L 259.035227 -238.366457 
L 257.137986 -230.289683 
L 255.240745 -229.074007 
L 253.343504 -237.192471 
L 251.446263 -240.279802 
L 249.549022 -229.577558 
L 247.651781 -233.329383 
L 245.75454 -235.161862 
L 243.857298 -232.973715 
L 241.960057 -234.856705 
L 240.062816 -229.366023 
L 238.165575 -226.783869 
L 236.268334 -225.251723 
L 234.371093 -224.75908 
L 232.473852 -224.823056 
L 230.57661 -223.138469 
L 228.679369 -224.106795 
L 226.782128 -226.474275 
L 224.884887 -225.973645 
L 222.987646 -224.172693 
L 221.090405 -218.848537 
L 219.193164 -221.578911 
L 217.295923 -219.852806 
L 215.398681 -218.165918 
L 213.50144 -217.12475 
L 211.604199 -218.819384 
L 209.706958 -218.664219 
L 207.809717 -220.735811 
L 205.912476 -219.2565 
L 204.015235 -213.184358 
L 202.117993 -218.834854 
L 200.220752 -215.750164 
L 198.323511 -213.978762 
L 196.42627 -213.126858 
L 194.529029 -209.997391 
L 192.631788 -210.716632 
L 190.734547 -207.525373 
L 188.837306 -211.066261 
L 186.940064 -211.14242 
L 185.042823 -210.65654 
L 183.145582 -210.701058 
L 181.248341 -208.324588 
L 179.3511 -208.733491 
L 177.453859 -203.546164 
L 175.556618 -205.128502 
L 173.659376 -205.772827 
L 171.762135 -204.882135 
L 169.864894 -202.664171 
L 167.967653 -201.633306 
L 166.070412 -192.543083 
L 164.173171 -195.994899 
L 162.27593 -199.103338 
L 160.378689 -197.94555 
L 158.481447 -196.639958 
L 156.584206 -188.569574 
L 154.686965 -191.780701 
L 152.789724 -194.493504 
L 150.892483 -190.560631 
L 148.995242 -189.261868 
L 147.098001 -191.300375 
L 145.200759 -189.074688 
L 143.303518 -182.55524 
L 141.406277 -183.486391 
L 139.509036 -186.512649 
L 137.611795 -180.891819 
L 135.714554 -180.56787 
L 133.817313 -176.978681 
L 131.920072 -178.793859 
L 130.02283 -176.755664 
L 128.125589 -183.649316 
L 126.228348 -181.46941 
L 124.331107 -175.539602 
L 122.433866 -177.388636 
L 120.536625 -173.01452 
L 118.639384 -170.275981 
L 116.742142 -170.288081 
L 114.844901 -163.612728 
L 112.94766 -172.519026 
L 111.050419 -168.313427 
L 109.153178 -166.043574 
L 107.255937 -161.832154 
L 105.358696 -161.26111 
L 103.461455 -158.679326 
L 101.564213 -160.407783 
L 99.666972 -154.891762 
L 97.769731 -154.935832 
L 95.87249 -155.300733 
L 93.975249 -157.241702 
L 92.078008 -156.630444 
L 90.180767 -152.354692 
L 88.283525 -152.4532 
L 86.386284 -144.164482 
L 84.489043 -147.814891 
L 82.591802 -148.413359 
L 80.694561 -146.042114 
L 78.79732 -141.372777 
L 76.900079 -139.478839 
L 75.002838 -134.534489 
L 73.105596 -130.96576 
L 71.208355 -124.7727 
L 69.311114 -123.29841 
L 67.413873 -118.664617 
L 65.516632 -119.107011 
L 63.619391 -125.340163 
L 61.72215 -131.391391 
L 59.824908 -139.965531 
L 57.927667 -140.568324 
z
" style="stroke: #e64b35; stroke-opacity: 0.06"/>
    </defs>
    <g clip-path="url(#p00b074b038)">
     <use xlink:href="#m263d1eba38" x="0" y="315.036003" style="fill: #e64b35; fill-opacity: 0.06; stroke: #e64b35; stroke-opacity: 0.06"/>
    </g>
   </g>
   <g id="matplotlib.axis_1">
    <g id="xtick_1">
     <g id="line2d_1">
      <defs>
       <path id="m90ba568f18" d="M 0 0 
L 0 6 
" style="stroke: #000000; stroke-width: 1.5"/>
      </defs>
      <g>
       <use xlink:href="#m90ba568f18" x="57.927667" y="262.493035" style="stroke: #000000; stroke-width: 1.5"/>
      </g>
     </g>
     <g id="text_1">
      <!-- $\mathdefault{0}$ -->
      <g transform="translate(53.815524 284.446335) scale(0.18 -0.18)">
       <defs>
        <path id="CMR17-32" d="M 2688 2038 
C 2688 2430 2681 3099 2412 3613 
C 2176 4063 1798 4224 1465 4224 
C 1158 4224 768 4082 524 3620 
C 268 3137 243 2539 243 2038 
C 243 1671 249 1112 448 623 
C 723 -39 1216 -128 1465 -128 
C 1760 -128 2208 -7 2470 604 
C 2662 1048 2688 1568 2688 2038 
z
M 1465 -26 
C 1056 -26 812 328 723 816 
C 652 1196 652 1749 652 2109 
C 652 2604 652 3015 736 3407 
C 857 3954 1216 4121 1465 4121 
C 1728 4121 2067 3947 2188 3420 
C 2272 3054 2278 2623 2278 2109 
C 2278 1691 2278 1176 2201 797 
C 2067 96 1689 -26 1465 -26 
z
" transform="scale(0.015625)"/>
       </defs>
       <use xlink:href="#CMR17-32" transform="scale(0.996264)"/>
      </g>
     </g>
    </g>
    <g id="xtick_2">
     <g id="line2d_2">
      <g>
       <use xlink:href="#m90ba568f18" x="152.405167" y="262.493035" style="stroke: #000000; stroke-width: 1.5"/>
      </g>
     </g>
     <g id="text_2">
      <!-- $\mathdefault{5}$ -->
      <g transform="translate(148.293024 284.446335) scale(0.18 -0.18)">
       <defs>
        <path id="CMR17-37" d="M 729 3750 
C 793 3724 1056 3641 1324 3641 
C 1920 3641 2246 3961 2432 4140 
C 2432 4191 2432 4224 2393 4224 
C 2387 4224 2374 4224 2323 4198 
C 2099 4102 1836 4032 1516 4032 
C 1324 4032 1036 4055 723 4191 
C 652 4224 640 4224 633 4224 
C 601 4224 595 4217 595 4090 
L 595 2231 
C 595 2113 595 2080 659 2080 
C 691 2080 704 2093 736 2139 
C 940 2435 1222 2560 1542 2560 
C 1766 2560 2246 2415 2246 1293 
C 2246 1087 2246 716 2054 422 
C 1894 159 1644 25 1369 25 
C 947 25 518 319 403 812 
C 428 806 480 793 505 793 
C 588 793 748 838 748 1036 
C 748 1209 627 1280 505 1280 
C 358 1280 262 1190 262 1011 
C 262 454 704 -128 1382 -128 
C 2041 -128 2668 441 2668 1267 
C 2668 2054 2169 2662 1548 2662 
C 1222 2662 947 2540 729 2304 
L 729 3750 
z
" transform="scale(0.015625)"/>
       </defs>
       <use xlink:href="#CMR17-37" transform="scale(0.996264)"/>
      </g>
     </g>
    </g>
    <g id="xtick_3">
     <g id="line2d_3">
      <g>
       <use xlink:href="#m90ba568f18" x="246.882667" y="262.493035" style="stroke: #000000; stroke-width: 1.5"/>
      </g>
     </g>
     <g id="text_3">
      <!-- $\mathdefault{10}$ -->
      <g transform="translate(238.658381 284.446335) scale(0.18 -0.18)">
       <defs>
        <path id="CMR17-33" d="M 1702 4083 
C 1702 4217 1696 4224 1606 4224 
C 1356 3927 979 3833 620 3820 
C 601 3820 569 3820 563 3808 
C 556 3795 556 3782 556 3648 
C 755 3648 1088 3686 1344 3839 
L 1344 467 
C 1344 243 1331 166 780 166 
L 588 166 
L 588 0 
C 896 6 1216 12 1523 12 
C 1830 12 2150 6 2457 0 
L 2457 166 
L 2265 166 
C 1715 166 1702 236 1702 467 
L 1702 4083 
z
" transform="scale(0.015625)"/>
       </defs>
       <use xlink:href="#CMR17-33" transform="scale(0.996264)"/>
       <use xlink:href="#CMR17-32" transform="translate(45.690477 0) scale(0.996264)"/>
      </g>
     </g>
    </g>
    <g id="xtick_4">
     <g id="line2d_4">
      <g>
       <use xlink:href="#m90ba568f18" x="341.360167" y="262.493035" style="stroke: #000000; stroke-width: 1.5"/>
      </g>
     </g>
     <g id="text_4">
      <!-- $\mathdefault{15}$ -->
      <g transform="translate(333.135881 284.446335) scale(0.18 -0.18)">
       <use xlink:href="#CMR17-33" transform="scale(0.996264)"/>
       <use xlink:href="#CMR17-37" transform="translate(45.690477 0) scale(0.996264)"/>
      </g>
     </g>
    </g>
    <g id="xtick_5">
     <g id="line2d_5">
      <g>
       <use xlink:href="#m90ba568f18" x="435.837667" y="262.493035" style="stroke: #000000; stroke-width: 1.5"/>
      </g>
     </g>
     <g id="text_5">
      <!-- $\mathdefault{20}$ -->
      <g transform="translate(427.613381 284.446335) scale(0.18 -0.18)">
       <defs>
        <path id="CMR17-34" d="M 2668 990 
L 2553 990 
C 2489 537 2438 460 2412 422 
C 2380 371 1920 371 1830 371 
L 601 371 
C 832 620 1280 1073 1824 1596 
C 2214 1966 2668 2400 2668 3033 
C 2668 3788 2067 4224 1395 4224 
C 691 4224 262 3603 262 3027 
C 262 2777 448 2745 524 2745 
C 588 2745 780 2783 780 3007 
C 780 3206 614 3264 524 3264 
C 486 3264 448 3257 422 3244 
C 544 3788 915 4057 1305 4057 
C 1862 4057 2227 3616 2227 3033 
C 2227 2477 1900 1998 1536 1583 
L 262 147 
L 262 0 
L 2515 0 
L 2668 990 
z
" transform="scale(0.015625)"/>
       </defs>
       <use xlink:href="#CMR17-34" transform="scale(0.996264)"/>
       <use xlink:href="#CMR17-32" transform="translate(45.690477 0) scale(0.996264)"/>
      </g>
     </g>
    </g>
    <g id="text_6">
     <!-- Distance (mm) -->
     <g transform="translate(193.028445 303.367819) scale(0.18 -0.18)">
      <defs>
       <path id="CMR17-46" d="M 332 4352 
L 332 4185 
C 774 4185 844 4185 844 3898 
L 844 453 
C 844 166 774 166 332 166 
L 332 0 
L 2368 0 
C 3398 0 4224 943 4224 2140 
C 4224 3344 3411 4352 2368 4352 
L 332 4352 
z
M 1523 166 
C 1267 166 1254 198 1254 414 
L 1254 3936 
C 1254 4153 1267 4185 1523 4185 
L 2240 4185 
C 2771 4185 3750 3873 3750 2140 
C 3750 1242 3488 879 3366 707 
C 3212 510 2848 166 2240 166 
L 1523 166 
z
" transform="scale(0.015625)"/>
       <path id="CMR17-6b" d="M 992 3961 
C 992 4102 876 4224 729 4224 
C 588 4224 467 4108 467 3961 
C 467 3820 582 3699 729 3699 
C 870 3699 992 3814 992 3961 
z
M 243 2745 
L 243 2579 
C 601 2579 652 2540 652 2231 
L 652 443 
C 652 198 627 166 217 166 
L 217 0 
C 371 12 646 12 806 12 
C 960 12 1222 12 1369 0 
L 1369 166 
C 992 166 979 205 979 436 
L 979 2816 
L 243 2745 
z
" transform="scale(0.015625)"/>
       <path id="CMR17-75" d="M 1977 2688 
C 1977 2803 1971 2809 1932 2809 
C 1907 2809 1900 2803 1824 2707 
C 1804 2681 1747 2617 1728 2592 
C 1523 2809 1235 2816 1126 2816 
C 416 2816 160 2444 160 2073 
C 160 1497 812 1363 998 1324 
C 1401 1241 1542 1216 1676 1100 
C 1760 1024 1900 883 1900 652 
C 1900 384 1747 38 1158 38 
C 601 38 403 460 288 1024 
C 268 1113 268 1120 217 1120 
C 166 1120 160 1113 160 985 
L 160 64 
C 160 -52 166 -58 204 -58 
C 236 -58 243 -52 275 0 
C 313 57 409 211 448 275 
C 576 102 800 -64 1158 -64 
C 1792 -64 2131 281 2131 780 
C 2131 1107 1958 1280 1875 1356 
C 1683 1555 1459 1600 1190 1651 
C 838 1728 390 1817 390 2208 
C 390 2374 480 2726 1126 2726 
C 1811 2726 1849 2086 1862 1881 
C 1868 1849 1900 1843 1920 1843 
C 1977 1843 1977 1862 1977 1971 
L 1977 2688 
z
" transform="scale(0.015625)"/>
       <path id="CMR17-76" d="M 966 2585 
L 1862 2585 
L 1862 2752 
L 966 2752 
L 966 3968 
L 851 3968 
C 838 3292 614 2700 70 2687 
L 70 2585 
L 627 2585 
L 627 778 
C 627 655 627 -64 1369 -64 
C 1747 -64 1964 308 1964 784 
L 1964 1151 
L 1849 1151 
L 1849 790 
C 1849 347 1676 51 1408 51 
C 1222 51 966 179 966 765 
L 966 2585 
z
" transform="scale(0.015625)"/>
       <path id="CMR17-63" d="M 2304 1656 
C 2304 2048 2304 2275 2035 2534 
C 1798 2751 1523 2816 1305 2816 
C 800 2816 435 2408 435 1977 
C 435 1740 627 1728 665 1728 
C 748 1728 896 1779 896 1958 
C 896 2118 774 2188 665 2188 
C 640 2188 608 2182 588 2176 
C 723 2594 1068 2713 1292 2713 
C 1612 2713 1964 2421 1964 1875 
L 1964 1632 
C 1587 1619 1132 1568 774 1373 
C 371 1147 256 822 256 576 
C 256 77 832 -64 1171 -64 
C 1523 -64 1849 135 1990 505 
C 2003 219 2182 -39 2464 -39 
C 2598 -39 2937 51 2937 563 
L 2937 926 
L 2822 926 
L 2822 557 
C 2822 161 2649 109 2566 109 
C 2304 109 2304 446 2304 732 
L 2304 1656 
z
M 1964 887 
C 1964 323 1568 38 1216 38 
C 896 38 646 278 646 576 
C 646 771 729 1114 1100 1322 
C 1408 1497 1760 1523 1964 1536 
L 1964 887 
z
" transform="scale(0.015625)"/>
       <path id="CMR17-70" d="M 2656 1954 
C 2656 2282 2592 2816 1836 2816 
C 1331 2816 1068 2424 972 2166 
L 966 2166 
L 966 2816 
L 211 2745 
L 211 2578 
C 588 2578 646 2540 646 2231 
L 646 443 
C 646 198 620 166 211 166 
L 211 0 
C 364 12 646 12 812 12 
C 979 12 1267 12 1420 0 
L 1420 166 
C 1011 166 985 192 985 443 
L 985 1678 
C 985 2269 1344 2713 1792 2713 
C 2265 2713 2316 2289 2316 1980 
L 2316 443 
C 2316 198 2291 166 1881 166 
L 1881 0 
C 2035 12 2316 12 2483 12 
C 2649 12 2937 12 3091 0 
L 3091 166 
C 2681 166 2656 192 2656 443 
L 2656 1954 
z
" transform="scale(0.015625)"/>
       <path id="CMR17-65" d="M 2233 2240 
C 2112 2240 1932 2240 1932 2015 
C 1932 1836 2080 1785 2163 1785 
C 2208 1785 2393 1804 2393 2028 
C 2393 2476 1958 2816 1465 2816 
C 787 2816 211 2201 211 1379 
C 211 521 812 -64 1465 -64 
C 2259 -64 2457 676 2457 747 
C 2457 773 2451 792 2406 792 
C 2361 792 2355 786 2329 702 
C 2163 180 1798 51 1523 51 
C 1113 51 620 431 620 1385 
C 620 2358 1094 2700 1472 2700 
C 1721 2700 2092 2582 2233 2240 
z
" transform="scale(0.015625)"/>
       <path id="CMR17-67" d="M 2438 1503 
C 2464 1529 2464 1542 2464 1606 
C 2464 2251 2118 2816 1388 2816 
C 710 2816 172 2175 172 1394 
C 172 554 780 -64 1459 -64 
C 2176 -64 2457 619 2457 755 
C 2457 800 2419 800 2406 800 
C 2361 800 2355 787 2329 709 
C 2188 270 1836 51 1504 51 
C 1228 51 953 206 780 490 
C 582 819 582 1200 582 1503 
L 2438 1503 
z
M 588 1600 
C 633 2511 1126 2713 1382 2713 
C 1817 2713 2112 2308 2118 1600 
L 588 1600 
z
" transform="scale(0.015625)"/>
       <path id="CMR17-29" d="M 1958 -1562 
C 1958 -1556 1958 -1543 1939 -1524 
C 1644 -1223 857 -403 857 1596 
C 857 3595 1632 4408 1945 4729 
C 1945 4735 1958 4748 1958 4767 
C 1958 4787 1939 4800 1913 4800 
C 1843 4800 1299 4325 985 3620 
C 665 2909 576 2218 576 1603 
C 576 1141 620 360 1004 -467 
C 1312 -1133 1836 -1600 1913 -1600 
C 1945 -1600 1958 -1588 1958 -1562 
z
" transform="scale(0.015625)"/>
       <path id="CMR17-6f" d="M 4326 1954 
C 4326 2276 4269 2816 3507 2816 
C 3072 2816 2771 2520 2656 2173 
L 2649 2173 
C 2572 2700 2195 2816 1836 2816 
C 1331 2816 1068 2424 972 2166 
L 966 2166 
L 966 2816 
L 211 2745 
L 211 2578 
C 588 2578 646 2540 646 2231 
L 646 443 
C 646 198 620 166 211 166 
L 211 0 
C 364 12 646 12 812 12 
C 979 12 1267 12 1420 0 
L 1420 166 
C 1011 166 985 192 985 443 
L 985 1678 
C 985 2269 1344 2713 1792 2713 
C 2265 2713 2316 2289 2316 1980 
L 2316 443 
C 2316 198 2291 166 1881 166 
L 1881 0 
C 2035 12 2316 12 2483 12 
C 2649 12 2937 12 3091 0 
L 3091 166 
C 2681 166 2656 192 2656 443 
L 2656 1678 
C 2656 2269 3014 2713 3462 2713 
C 3936 2713 3987 2289 3987 1980 
L 3987 443 
C 3987 198 3961 166 3552 166 
L 3552 0 
C 3705 12 3987 12 4153 12 
C 4320 12 4608 12 4761 0 
L 4761 166 
C 4352 166 4326 192 4326 443 
L 4326 1954 
z
" transform="scale(0.015625)"/>
       <path id="CMR17-2a" d="M 1683 1596 
C 1683 2057 1638 2839 1254 3665 
C 947 4332 422 4800 345 4800 
C 326 4800 300 4793 300 4761 
C 300 4748 307 4742 313 4729 
C 620 4408 1401 3595 1401 1603 
C 1401 -396 627 -1210 313 -1530 
C 307 -1543 300 -1549 300 -1562 
C 300 -1594 326 -1600 345 -1600 
C 416 -1600 960 -1127 1273 -422 
C 1593 289 1683 981 1683 1596 
z
" transform="scale(0.015625)"/>
      </defs>
      <use xlink:href="#CMR17-46" transform="scale(0.996264)"/>
      <use xlink:href="#CMR17-6b" transform="translate(70.393556 0) scale(0.996264)"/>
      <use xlink:href="#CMR17-75" transform="translate(95.264614 0) scale(0.996264)"/>
      <use xlink:href="#CMR17-76" transform="translate(131.065952 0) scale(0.996264)"/>
      <use xlink:href="#CMR17-63" transform="translate(166.34672 0) scale(0.996264)"/>
      <use xlink:href="#CMR17-70" transform="translate(212.037197 0) scale(0.996264)"/>
      <use xlink:href="#CMR17-65" transform="translate(262.932567 0) scale(0.996264)"/>
      <use xlink:href="#CMR17-67" transform="translate(303.418227 0) scale(0.996264)"/>
      <use xlink:href="#CMR17-29" transform="translate(373.979854 0) scale(0.996264)"/>
      <use xlink:href="#CMR17-6f" transform="translate(409.260622 0) scale(0.996264)"/>
      <use xlink:href="#CMR17-6f" transform="translate(486.180212 0) scale(0.996264)"/>
      <use xlink:href="#CMR17-2a" transform="translate(563.099802 0) scale(0.996264)"/>
     </g>
    </g>
   </g>
   <g id="matplotlib.axis_2">
    <g id="ytick_1">
     <g id="line2d_6">
      <defs>
       <path id="mede5ea3930" d="M 0 0 
L -6 0 
" style="stroke: #000000; stroke-width: 1.5"/>
      </defs>
      <g>
       <use xlink:href="#mede5ea3930" x="57.927667" y="262.493035" style="stroke: #000000; stroke-width: 1.5"/>
      </g>
     </g>
     <g id="text_7">
      <!-- $\mathdefault{0.0}$ -->
      <g transform="translate(27.101604 268.719685) scale(0.18 -0.18)">
       <defs>
        <path id="CMMI12-3b" d="M 1177 307 
C 1177 492 1024 620 870 620 
C 684 620 556 467 556 313 
C 556 128 710 0 864 0 
C 1049 0 1177 153 1177 307 
z
" transform="scale(0.015625)"/>
       </defs>
       <use xlink:href="#CMR17-32" transform="scale(0.996264)"/>
       <use xlink:href="#CMMI12-3b" transform="translate(45.690477 0) scale(0.996264)"/>
       <use xlink:href="#CMR17-32" transform="translate(72.787654 0) scale(0.996264)"/>
      </g>
     </g>
    </g>
    <g id="ytick_2">
     <g id="line2d_7">
      <g>
       <use xlink:href="#mede5ea3930" x="57.927667" y="220.981971" style="stroke: #000000; stroke-width: 1.5"/>
      </g>
     </g>
     <g id="text_8">
      <!-- $\mathdefault{0.5}$ -->
      <g transform="translate(27.101604 227.208621) scale(0.18 -0.18)">
       <use xlink:href="#CMR17-32" transform="scale(0.996264)"/>
       <use xlink:href="#CMMI12-3b" transform="translate(45.690477 0) scale(0.996264)"/>
       <use xlink:href="#CMR17-37" transform="translate(72.787654 0) scale(0.996264)"/>
      </g>
     </g>
    </g>
    <g id="ytick_3">
     <g id="line2d_8">
      <g>
       <use xlink:href="#mede5ea3930" x="57.927667" y="179.470906" style="stroke: #000000; stroke-width: 1.5"/>
      </g>
     </g>
     <g id="text_9">
      <!-- $\mathdefault{1.0}$ -->
      <g transform="translate(27.101604 185.697557) scale(0.18 -0.18)">
       <use xlink:href="#CMR17-33" transform="scale(0.996264)"/>
       <use xlink:href="#CMMI12-3b" transform="translate(45.690477 0) scale(0.996264)"/>
       <use xlink:href="#CMR17-32" transform="translate(72.787654 0) scale(0.996264)"/>
      </g>
     </g>
    </g>
    <g id="ytick_4">
     <g id="line2d_9">
      <g>
       <use xlink:href="#mede5ea3930" x="57.927667" y="137.959842" style="stroke: #000000; stroke-width: 1.5"/>
      </g>
     </g>
     <g id="text_10">
      <!-- $\mathdefault{1.5}$ -->
      <g transform="translate(27.101604 144.186492) scale(0.18 -0.18)">
       <use xlink:href="#CMR17-33" transform="scale(0.996264)"/>
       <use xlink:href="#CMMI12-3b" transform="translate(45.690477 0) scale(0.996264)"/>
       <use xlink:href="#CMR17-37" transform="translate(72.787654 0) scale(0.996264)"/>
      </g>
     </g>
    </g>
    <g id="ytick_5">
     <g id="line2d_10">
      <g>
       <use xlink:href="#mede5ea3930" x="57.927667" y="96.448778" style="stroke: #000000; stroke-width: 1.5"/>
      </g>
     </g>
     <g id="text_11">
      <!-- $\mathdefault{2.0}$ -->
      <g transform="translate(27.101604 102.675428) scale(0.18 -0.18)">
       <use xlink:href="#CMR17-34" transform="scale(0.996264)"/>
       <use xlink:href="#CMMI12-3b" transform="translate(45.690477 0) scale(0.996264)"/>
       <use xlink:href="#CMR17-32" transform="translate(72.787654 0) scale(0.996264)"/>
      </g>
     </g>
    </g>
    <g id="ytick_6">
     <g id="line2d_11">
      <g>
       <use xlink:href="#mede5ea3930" x="57.927667" y="54.937714" style="stroke: #000000; stroke-width: 1.5"/>
      </g>
     </g>
     <g id="text_12">
      <!-- $\mathdefault{2.5}$ -->
      <g transform="translate(27.101604 61.164364) scale(0.18 -0.18)">
       <use xlink:href="#CMR17-34" transform="scale(0.996264)"/>
       <use xlink:href="#CMMI12-3b" transform="translate(45.690477 0) scale(0.996264)"/>
       <use xlink:href="#CMR17-37" transform="translate(72.787654 0) scale(0.996264)"/>
      </g>
     </g>
    </g>
    <g id="ytick_7">
     <g id="line2d_12">
      <g>
       <use xlink:href="#mede5ea3930" x="57.927667" y="13.42665" style="stroke: #000000; stroke-width: 1.5"/>
      </g>
     </g>
     <g id="text_13">
      <!-- $\mathdefault{3.0}$ -->
      <g transform="translate(27.101604 19.6533) scale(0.18 -0.18)">
       <defs>
        <path id="CMR17-35" d="M 1414 2176 
C 1984 2176 2233 1673 2233 1094 
C 2233 322 1824 25 1452 25 
C 1113 25 563 193 390 691 
C 422 678 454 678 486 678 
C 640 678 755 780 755 947 
C 755 1132 614 1216 486 1216 
C 377 1216 211 1164 211 927 
C 211 335 787 -128 1465 -128 
C 2176 -128 2720 432 2720 1087 
C 2720 1718 2208 2176 1600 2246 
C 2086 2347 2553 2776 2553 3353 
C 2553 3856 2048 4224 1472 4224 
C 889 4224 377 3862 377 3347 
C 377 3123 544 3084 627 3084 
C 761 3084 876 3167 876 3334 
C 876 3500 761 3584 627 3584 
C 601 3584 569 3584 544 3571 
C 729 3999 1235 4076 1459 4076 
C 1683 4076 2105 3966 2105 3347 
C 2105 3167 2080 2851 1862 2574 
C 1670 2329 1452 2316 1241 2297 
C 1209 2297 1062 2284 1036 2284 
C 992 2278 966 2272 966 2227 
C 966 2182 972 2176 1100 2176 
L 1414 2176 
z
" transform="scale(0.015625)"/>
       </defs>
       <use xlink:href="#CMR17-35" transform="scale(0.996264)"/>
       <use xlink:href="#CMMI12-3b" transform="translate(45.690477 0) scale(0.996264)"/>
       <use xlink:href="#CMR17-32" transform="translate(72.787654 0) scale(0.996264)"/>
      </g>
     </g>
    </g>
    <g id="text_14">
     <!-- Normal force (N) -->
     <g transform="translate(20.63342 197.166461) rotate(-90) scale(0.18 -0.18)">
      <defs>
       <path id="CMR17-50" d="M 1312 4275 
C 1267 4345 1260 4352 1139 4352 
L 326 4352 
L 326 4185 
L 448 4185 
C 704 4185 819 4153 838 4147 
L 838 624 
C 838 465 838 166 326 166 
L 326 0 
C 473 12 742 12 902 12 
C 1062 12 1331 12 1478 0 
L 1478 166 
C 966 166 966 465 966 624 
L 966 4057 
C 1011 4019 1011 4007 1056 3943 
L 3430 76 
C 3475 0 3494 0 3526 0 
C 3590 0 3590 19 3590 140 
L 3590 3726 
C 3590 3885 3590 4185 4102 4185 
L 4102 4352 
C 3955 4339 3686 4339 3526 4339 
C 3366 4339 3097 4339 2950 4352 
L 2950 4185 
C 3462 4185 3462 3885 3462 3726 
L 3462 777 
L 1312 4275 
z
" transform="scale(0.015625)"/>
       <path id="CMR17-71" d="M 2758 1356 
C 2758 2176 2163 2816 1465 2816 
C 768 2816 172 2176 172 1356 
C 172 550 768 -64 1465 -64 
C 2163 -64 2758 550 2758 1356 
z
M 1465 51 
C 1164 51 908 230 761 480 
C 601 768 582 1126 582 1408 
C 582 1676 595 2009 761 2297 
C 889 2508 1139 2713 1465 2713 
C 1753 2713 1996 2553 2150 2329 
C 2348 2028 2348 1606 2348 1408 
C 2348 1158 2336 774 2163 467 
C 1984 172 1708 51 1465 51 
z
" transform="scale(0.015625)"/>
       <path id="CMR17-74" d="M 960 1517 
C 960 2134 1222 2713 1702 2713 
C 1747 2713 1792 2707 1836 2687 
C 1836 2687 1696 2642 1696 2475 
C 1696 2321 1817 2257 1913 2257 
C 1990 2257 2131 2302 2131 2482 
C 2131 2687 1926 2816 1708 2816 
C 1222 2816 1011 2340 947 2115 
L 940 2115 
L 940 2816 
L 198 2745 
L 198 2578 
C 576 2578 633 2540 633 2231 
L 633 443 
C 633 198 608 166 198 166 
L 198 0 
C 352 12 646 12 812 12 
C 998 12 1324 12 1497 0 
L 1497 166 
C 1036 166 960 166 960 455 
L 960 1517 
z
" transform="scale(0.015625)"/>
       <path id="CMR17-6e" d="M 979 4416 
L 217 4345 
L 217 4179 
C 595 4179 652 4141 652 3835 
L 652 439 
C 652 198 627 166 217 166 
L 217 0 
C 371 12 652 12 812 12 
C 979 12 1260 12 1414 0 
L 1414 166 
C 1004 166 979 191 979 439 
L 979 4416 
z
" transform="scale(0.015625)"/>
       <path id="CMR17-68" d="M 979 2585 
L 1708 2585 
L 1708 2752 
L 966 2752 
L 966 3539 
C 966 4076 1235 4377 1510 4377 
C 1593 4377 1689 4363 1753 4339 
C 1702 4326 1568 4281 1568 4121 
C 1568 3955 1696 3904 1785 3904 
C 1875 3904 2003 3955 2003 4121 
C 2003 4353 1772 4480 1516 4480 
C 1152 4480 652 4211 652 3526 
L 652 2752 
L 140 2752 
L 140 2585 
L 652 2585 
L 652 441 
C 652 198 627 166 217 166 
L 217 0 
C 371 12 665 12 832 12 
C 1017 12 1344 12 1516 0 
L 1516 166 
C 1056 166 979 166 979 454 
L 979 2585 
z
" transform="scale(0.015625)"/>
      </defs>
      <use xlink:href="#CMR17-50" transform="scale(0.996264)"/>
      <use xlink:href="#CMR17-71" transform="translate(69.07243 0) scale(0.996264)"/>
      <use xlink:href="#CMR17-74" transform="translate(114.762907 0) scale(0.996264)"/>
      <use xlink:href="#CMR17-6f" transform="translate(150.043675 0) scale(0.996264)"/>
      <use xlink:href="#CMR17-63" transform="translate(226.963265 0) scale(0.996264)"/>
      <use xlink:href="#CMR17-6e" transform="translate(272.653742 0) scale(0.996264)"/>
      <use xlink:href="#CMR17-68" transform="translate(327.600767 0) scale(0.996264)"/>
      <use xlink:href="#CMR17-71" transform="translate(355.074279 0) scale(0.996264)"/>
      <use xlink:href="#CMR17-74" transform="translate(400.764756 0) scale(0.996264)"/>
      <use xlink:href="#CMR17-65" transform="translate(436.045524 0) scale(0.996264)"/>
      <use xlink:href="#CMR17-67" transform="translate(476.531184 0) scale(0.996264)"/>
      <use xlink:href="#CMR17-29" transform="translate(547.092811 0) scale(0.996264)"/>
      <use xlink:href="#CMR17-50" transform="translate(582.373579 0) scale(0.996264)"/>
      <use xlink:href="#CMR17-2a" transform="translate(651.446009 0) scale(0.996264)"/>
     </g>
    </g>
   </g>
   <g id="line2d_13">
    <path d="M 57.927667 238.474733 
L 63.615118 238.248913 
L 65.510935 238.066264 
L 67.406752 237.448579 
L 69.302568 236.261143 
L 73.094202 232.943561 
L 74.990019 230.556082 
L 76.885836 229.940058 
L 78.781653 227.602155 
L 80.67747 226.250555 
L 82.573286 225.33233 
L 84.469103 223.055863 
L 86.36492 222.478029 
L 88.260737 220.127062 
L 90.156554 219.21164 
L 92.052371 217.486739 
L 93.948188 216.248843 
L 99.635638 213.051697 
L 101.531455 211.020976 
L 103.427272 210.219116 
L 105.323089 209.005198 
L 107.218905 208.385457 
L 109.114722 207.147163 
L 111.010539 206.29841 
L 116.69799 203.311541 
L 118.593807 201.752966 
L 120.489623 201.177872 
L 122.38544 199.726645 
L 124.281257 199.366579 
L 126.177074 198.016389 
L 129.968708 196.347645 
L 131.864524 194.882032 
L 133.760341 194.47157 
L 135.656158 193.028689 
L 137.551975 192.386244 
L 139.447792 191.334769 
L 143.239426 189.80218 
L 145.135242 188.64103 
L 147.031059 188.274573 
L 148.926876 186.866518 
L 150.822693 186.486834 
L 152.71851 185.343892 
L 154.614327 184.682084 
L 156.510144 183.804662 
L 158.40596 182.584043 
L 160.301777 182.18715 
L 162.197594 180.901813 
L 164.093411 180.422285 
L 165.989228 179.427735 
L 167.885045 178.832254 
L 171.676678 177.235083 
L 173.572495 176.664759 
L 175.468312 175.606709 
L 177.364129 175.39452 
L 179.259946 174.071147 
L 181.155763 173.87012 
L 183.051579 172.862345 
L 184.947396 172.395761 
L 186.843213 171.709998 
L 188.73903 170.790113 
L 190.634847 170.587539 
L 192.530664 169.652468 
L 194.426481 169.400535 
L 196.322297 168.67969 
L 198.218114 168.315533 
L 200.113931 167.713313 
L 202.009748 167.228463 
L 203.905565 166.889733 
L 205.801382 166.288078 
L 207.697198 166.137655 
L 209.593015 165.620012 
L 211.488832 165.481678 
L 215.280466 164.868091 
L 219.0721 164.233831 
L 220.967916 164.058679 
L 222.863733 163.702189 
L 224.75955 163.585007 
L 226.655367 163.170342 
L 234.238634 162.409859 
L 236.134451 162.144188 
L 238.030268 162.02642 
L 239.926085 161.73738 
L 245.613535 161.342195 
L 249.405169 160.846376 
L 251.300986 160.734473 
L 253.196803 160.416502 
L 255.09262 160.319362 
L 264.571704 159.316455 
L 266.467521 159.136601 
L 268.363338 159.102258 
L 270.259154 158.746417 
L 272.154971 158.66224 
L 275.946605 158.325009 
L 294.904774 156.692955 
L 325.237843 154.338448 
L 327.13366 154.037468 
L 329.029477 154.016322 
L 330.925294 153.732386 
L 332.821111 153.719625 
L 340.404378 153.086311 
L 342.300195 153.000131 
L 344.196012 152.756837 
L 346.091828 152.689816 
L 349.883462 152.334294 
L 359.362546 151.80097 
L 361.258363 151.578792 
L 363.15418 151.537281 
L 366.945814 151.299838 
L 368.841631 151.19357 
L 370.737447 150.966548 
L 372.633264 150.924578 
L 374.529081 150.688829 
L 380.216532 150.40652 
L 395.383067 149.368743 
L 397.278883 149.168588 
L 404.862151 148.825779 
L 414.341235 148.238306 
L 416.237052 148.214604 
L 421.924502 147.802946 
L 433.299404 147.274925 
L 435.19522 147.100579 
L 435.19522 147.100579 
" clip-path="url(#p00b074b038)" style="fill: none; stroke: #7b52ab; stroke-opacity: 0.45; stroke-linecap: square"/>
   </g>
   <g id="line2d_14">
    <path d="M 57.927667 244.006259 
L 65.510935 237.592364 
L 73.094202 231.503342 
L 80.67747 225.730221 
L 88.260737 220.264031 
L 95.844004 215.0958 
L 103.427272 210.216558 
L 111.010539 205.617333 
L 118.593807 201.289154 
L 126.177074 197.223051 
L 133.760341 193.410051 
L 141.343609 189.841185 
L 148.926876 186.50748 
L 156.510144 183.399966 
L 164.093411 180.509672 
L 171.676678 177.827627 
L 179.259946 175.344859 
L 188.73903 172.507966 
L 198.218114 169.950906 
L 207.697198 167.656156 
L 217.176283 165.606195 
L 226.655367 163.783501 
L 236.134451 162.170553 
L 247.509352 160.487209 
L 258.884253 159.05039 
L 270.259154 157.829818 
L 283.529872 156.638738 
L 298.696407 155.525778 
L 315.758759 154.504461 
L 344.196012 153.076108 
L 372.633264 151.580048 
L 389.695616 150.453111 
L 402.966334 149.376593 
L 416.237052 148.072407 
L 427.611953 146.736884 
L 435.19522 145.719033 
L 435.19522 145.719033 
" clip-path="url(#p00b074b038)" style="fill: none; stroke: #7b52ab; stroke-width: 2.7; stroke-linecap: square"/>
   </g>
   <g id="line2d_15">
    <path d="M 57.927667 236.38647 
L 59.824434 233.958329 
L 61.7212 237.291092 
L 63.617966 245.055823 
L 65.514733 232.363056 
L 67.411499 238.931352 
L 69.308266 242.670198 
L 71.205032 230.931155 
L 73.101798 237.356479 
L 74.998565 234.88022 
L 76.895331 227.760147 
L 78.792097 228.147442 
L 80.688864 229.342307 
L 82.58563 233.625381 
L 84.482397 224.330399 
L 86.379163 219.631167 
L 88.275929 214.527231 
L 90.172696 216.817839 
L 92.069462 218.57794 
L 93.966228 224.949916 
L 95.862995 223.069173 
L 97.759761 214.325907 
L 99.656528 209.187338 
L 101.553294 206.624387 
L 103.45006 210.409721 
L 105.346827 211.291628 
L 107.243593 213.654648 
L 109.140359 213.038908 
L 111.037126 208.559666 
L 112.933892 208.034373 
L 114.830659 201.509961 
L 116.727425 196.068685 
L 118.624191 198.383575 
L 120.520958 198.023081 
L 122.417724 200.605228 
L 124.31449 203.684773 
L 126.211257 198.301141 
L 128.108023 192.464242 
L 131.901556 189.171087 
L 133.798322 192.266488 
L 135.695089 196.291148 
L 137.591855 196.475016 
L 139.488621 196.829757 
L 141.385388 191.012838 
L 143.282154 187.632726 
L 145.17892 186.112431 
L 147.075687 182.791162 
L 150.86922 191.175772 
L 152.765986 186.706948 
L 154.662752 183.526331 
L 158.456285 181.585067 
L 160.353051 177.906453 
L 162.249818 178.233451 
L 164.146584 180.668627 
L 166.043351 182.528448 
L 167.940117 182.868137 
L 169.836883 172.268948 
L 171.73365 181.857008 
L 173.630416 181.183131 
L 175.527182 175.371878 
L 177.423949 175.678097 
L 179.320715 171.631327 
L 181.217482 168.9297 
L 183.114248 172.072868 
L 185.011014 177.142414 
L 186.907781 173.317253 
L 190.701313 172.851054 
L 192.59808 173.019103 
L 194.494846 167.250814 
L 196.391613 169.383211 
L 198.288379 170.132145 
L 200.185145 166.998839 
L 202.081912 170.586112 
L 203.978678 169.583317 
L 205.875444 169.047558 
L 207.772211 167.935122 
L 209.668977 162.984372 
L 211.565743 166.325183 
L 213.46251 163.652312 
L 215.359276 174.681942 
L 217.256043 171.817493 
L 219.152809 165.281843 
L 221.049575 168.711239 
L 222.946342 159.54089 
L 224.843108 161.412884 
L 226.739874 160.09273 
L 228.636641 157.29807 
L 230.533407 171.106273 
L 232.430174 178.44042 
L 234.32694 164.610369 
L 236.223706 161.691118 
L 238.120473 152.132455 
L 240.017239 146.689931 
L 241.914005 164.565397 
L 243.810772 164.048021 
L 245.707538 169.836067 
L 247.604305 165.292479 
L 249.501071 157.250466 
L 251.397837 155.798085 
L 253.294604 159.310628 
L 255.19137 161.398774 
L 257.088136 155.035702 
L 258.984903 154.209239 
L 260.881669 165.364707 
L 262.778436 157.851667 
L 264.675202 160.646856 
L 266.571968 157.890435 
L 268.468735 161.131151 
L 270.365501 161.413624 
L 272.262267 150.455468 
L 274.159034 161.739978 
L 276.0558 155.242121 
L 277.952567 155.265663 
L 279.849333 156.236885 
L 281.746099 159.04803 
L 283.642866 154.674217 
L 285.539632 160.198676 
L 287.436398 155.00299 
L 289.333165 153.66393 
L 291.229931 153.208289 
L 293.126697 158.796135 
L 295.023464 153.813512 
L 296.92023 155.46859 
L 298.816997 152.91358 
L 300.713763 158.758942 
L 302.610529 163.255024 
L 304.507296 156.673935 
L 306.404062 155.026672 
L 308.300828 153.130163 
L 310.197595 154.989887 
L 312.094361 152.563195 
L 313.991128 155.351543 
L 315.887894 158.990421 
L 317.78466 157.58762 
L 319.681427 156.872287 
L 321.578193 155.839809 
L 323.474959 156.291112 
L 325.371726 152.314371 
L 327.268492 157.472688 
L 329.165259 152.736054 
L 332.958791 153.144206 
L 334.855558 152.301415 
L 336.752324 152.015735 
L 338.64909 153.406631 
L 340.545857 149.32059 
L 342.442623 149.524575 
L 344.33939 152.707952 
L 346.236156 150.52999 
L 348.132922 155.769958 
L 350.029689 153.28428 
L 351.926455 158.493147 
L 353.823221 155.221561 
L 355.719988 156.078592 
L 357.616754 152.572621 
L 359.51352 153.621495 
L 361.410287 145.881025 
L 363.307053 148.239926 
L 365.20382 153.536509 
L 367.100586 149.960386 
L 368.997352 149.760679 
L 370.894119 148.704566 
L 372.790885 153.240931 
L 374.687651 150.790967 
L 376.584418 150.783325 
L 378.481184 148.516064 
L 380.377951 147.495508 
L 382.274717 149.787175 
L 384.171483 149.448967 
L 386.06825 150.793403 
L 387.965016 149.608727 
L 389.861782 149.305931 
L 391.758549 151.271236 
L 393.655315 152.984987 
L 395.552082 150.543065 
L 397.448848 146.587026 
L 399.345614 145.331954 
L 401.242381 148.316248 
L 403.139147 147.677094 
L 405.035913 148.427272 
L 406.93268 147.209133 
L 408.829446 148.871754 
L 410.726213 148.391726 
L 412.622979 148.774737 
L 414.519745 150.618806 
L 416.416512 145.049932 
L 418.313278 141.061549 
L 420.210044 144.616296 
L 422.106811 147.420798 
L 424.003577 146.670524 
L 425.900344 151.928688 
L 427.79711 157.803529 
L 429.693876 152.991947 
L 431.590643 146.593848 
L 433.487409 138.975199 
L 435.384175 135.620279 
L 435.384175 135.620279 
" clip-path="url(#p00b074b038)" style="fill: none; stroke: #7b52ab; stroke-opacity: 0.225; stroke-linecap: square"/>
   </g>
   <g id="line2d_16">
    <path d="M 57.927667 244.949967 
L 65.514733 238.430205 
L 73.101798 232.245465 
L 80.688864 226.386286 
L 88.275929 220.843206 
L 95.862995 215.606765 
L 103.45006 210.667502 
L 111.037126 206.015954 
L 118.624191 201.642661 
L 126.211257 197.538161 
L 133.798322 193.692994 
L 141.385388 190.097698 
L 148.972453 186.742812 
L 156.559519 183.618875 
L 164.146584 180.716426 
L 171.73365 178.026003 
L 179.320715 175.538145 
L 186.907781 173.243391 
L 196.391613 170.632087 
L 205.875444 168.289247 
L 215.359276 166.19639 
L 224.843108 164.335039 
L 234.32694 162.686714 
L 245.707538 160.9639 
L 257.088136 159.489302 
L 268.468735 158.23099 
L 281.746099 156.993719 
L 296.92023 155.821905 
L 315.887894 154.60958 
L 376.584418 150.959325 
L 391.758549 149.707112 
L 405.035913 148.378388 
L 416.416512 147.02601 
L 427.79711 145.442875 
L 435.384175 144.243484 
L 435.384175 144.243484 
" clip-path="url(#p00b074b038)" style="fill: none; stroke: #7b52ab; stroke-opacity: 0.5; stroke-width: 2.2; stroke-linecap: square"/>
   </g>
   <g id="line2d_17">
    <path d="M 57.927667 197.840567 
L 61.719111 197.611838 
L 63.614833 197.539842 
L 65.510555 197.294442 
L 67.406277 196.822531 
L 69.301999 195.438274 
L 71.197721 194.237694 
L 73.093443 191.076719 
L 74.989164 189.531528 
L 76.884886 187.207994 
L 78.780608 185.1492 
L 80.67633 182.714038 
L 82.572052 181.514911 
L 84.467774 178.909677 
L 86.363496 178.051228 
L 88.259218 175.774442 
L 90.15494 174.480353 
L 93.946383 170.817219 
L 95.842105 169.659351 
L 97.737827 167.64653 
L 99.633549 166.418462 
L 101.529271 164.075283 
L 103.424993 163.211177 
L 105.320715 161.406952 
L 109.112159 158.854852 
L 111.00788 157.026704 
L 112.903602 156.173845 
L 114.799324 153.838527 
L 116.695046 153.0781 
L 118.590768 151.361274 
L 128.069378 145.321614 
L 129.965099 144.261945 
L 131.860821 142.153849 
L 133.756543 141.507259 
L 135.652265 139.809575 
L 139.443709 137.773873 
L 141.339431 136.096722 
L 143.235153 135.406601 
L 145.130875 134.299408 
L 147.026597 133.437526 
L 148.922318 132.088517 
L 150.81804 131.037554 
L 152.713762 130.262031 
L 156.505206 128.329539 
L 158.400928 126.823613 
L 160.29665 126.316819 
L 162.192372 124.976954 
L 164.088094 123.998357 
L 167.879537 122.299268 
L 169.775259 121.310542 
L 173.566703 119.680591 
L 175.462425 118.498893 
L 177.358147 117.948189 
L 179.253869 116.666327 
L 181.149591 116.083006 
L 184.941034 114.432756 
L 186.836756 113.713241 
L 188.732478 112.283305 
L 190.6282 111.816782 
L 194.419644 109.884822 
L 196.315366 109.184373 
L 198.211088 108.023283 
L 200.10681 107.647803 
L 205.793975 104.931979 
L 207.689697 104.491591 
L 209.585419 103.404372 
L 217.168307 100.865555 
L 219.064029 99.750739 
L 220.959751 99.354573 
L 222.855472 98.145751 
L 224.751194 97.784367 
L 226.646916 97.019971 
L 234.229804 94.52399 
L 236.125526 93.516437 
L 241.812691 91.776293 
L 245.604135 90.790532 
L 247.499857 90.129775 
L 249.395579 89.194325 
L 251.291301 88.890444 
L 253.187023 88.043855 
L 255.082745 87.781268 
L 256.978467 87.057315 
L 258.874188 86.477813 
L 260.76991 86.104221 
L 262.665632 85.37748 
L 266.457076 84.180194 
L 268.352798 83.989129 
L 270.24852 83.183503 
L 275.935686 81.677414 
L 277.831407 81.305542 
L 279.727129 80.393009 
L 281.622851 80.010503 
L 283.518573 79.397694 
L 289.205739 78.134097 
L 291.101461 77.722307 
L 292.997183 76.853132 
L 294.892904 76.605412 
L 296.788626 76.089304 
L 298.684348 75.721474 
L 300.58007 75.112606 
L 304.371514 74.414705 
L 306.267236 73.810304 
L 308.162958 73.604409 
L 310.05868 72.986401 
L 311.954402 72.694236 
L 313.850123 72.199675 
L 315.745845 71.877766 
L 319.537289 70.904002 
L 321.433011 70.710258 
L 323.328733 70.273562 
L 325.224455 69.995742 
L 327.120177 69.536325 
L 329.015899 69.407295 
L 330.911621 68.978416 
L 334.703064 68.61644 
L 338.494508 68.101196 
L 340.39023 67.781237 
L 342.285952 67.686592 
L 344.181674 67.396015 
L 349.86884 66.96358 
L 351.764561 66.869067 
L 353.660283 66.579077 
L 374.513224 65.079697 
L 382.096112 64.724605 
L 385.887556 64.476841 
L 393.470443 64.117699 
L 397.261887 63.804477 
L 408.636218 63.479031 
L 410.53194 63.27877 
L 435.176325 62.406385 
L 435.176325 62.406385 
" clip-path="url(#p00b074b038)" style="fill: none; stroke: #e64b35; stroke-opacity: 0.45; stroke-linecap: square"/>
   </g>
   <g id="line2d_18">
    <path d="M 57.927667 202.133329 
L 67.406277 193.490742 
L 76.884886 185.208789 
L 86.363496 177.279813 
L 95.842105 169.696154 
L 105.320715 162.450152 
L 114.799324 155.534149 
L 124.277934 148.940486 
L 133.756543 142.661502 
L 143.235153 136.68954 
L 152.713762 131.01694 
L 162.192372 125.636042 
L 171.670981 120.539189 
L 181.149591 115.718719 
L 190.6282 111.166975 
L 200.10681 106.876297 
L 209.585419 102.839025 
L 219.064029 99.047502 
L 228.542638 95.494067 
L 238.021248 92.171061 
L 247.499857 89.070825 
L 256.978467 86.185701 
L 266.457076 83.508028 
L 275.935686 81.030148 
L 287.310017 78.309635 
L 298.684348 75.852558 
L 310.05868 73.645684 
L 321.433011 71.675777 
L 332.807342 69.929602 
L 344.181674 68.393924 
L 357.451727 66.850687 
L 370.72178 65.554929 
L 383.991834 64.485633 
L 397.261887 63.621783 
L 412.427662 62.85913 
L 429.489159 62.250018 
L 435.176325 62.098186 
L 435.176325 62.098186 
" clip-path="url(#p00b074b038)" style="fill: none; stroke: #e64b35; stroke-width: 2.7; stroke-linecap: square"/>
   </g>
   <g id="line2d_19">
    <path d="M 57.927667 183.226864 
L 59.824908 183.974035 
L 61.72215 190.956117 
L 63.619391 199.596534 
L 65.516632 203.000959 
L 67.413873 212.111886 
L 69.311114 201.637593 
L 71.208355 197.713363 
L 73.105596 191.552339 
L 75.002838 186.340422 
L 76.900079 180.365491 
L 78.79732 176.600001 
L 80.694561 175.147412 
L 82.591802 176.175734 
L 84.489043 177.447804 
L 86.386284 177.893573 
L 88.283525 176.709574 
L 90.180767 175.230286 
L 92.078008 170.302354 
L 95.87249 165.127653 
L 97.769731 164.924433 
L 99.666972 167.049147 
L 101.564213 166.69495 
L 103.461455 164.369875 
L 105.358696 162.229879 
L 107.255937 160.52198 
L 111.050419 153.779943 
L 112.94766 149.989749 
L 114.844901 154.003965 
L 116.742142 150.761617 
L 118.639384 155.829559 
L 120.536625 151.507175 
L 122.433866 145.954414 
L 124.331107 148.064817 
L 126.228348 141.128173 
L 128.125589 145.261017 
L 130.02283 147.902933 
L 131.920072 145.402034 
L 133.817313 145.139049 
L 135.714554 141.421643 
L 137.611795 140.775157 
L 139.509036 133.69656 
L 141.406277 135.795742 
L 143.303518 136.360311 
L 145.200759 130.287555 
L 147.098001 130.932917 
L 148.995242 130.463563 
L 150.892483 131.987262 
L 152.789724 128.524933 
L 154.686965 127.675487 
L 156.584206 128.562405 
L 158.481447 124.644837 
L 160.378689 122.825328 
L 162.27593 120.570377 
L 164.173171 123.912565 
L 166.070412 125.146895 
L 167.967653 117.895419 
L 169.864894 118.328881 
L 171.762135 116.255714 
L 173.659376 114.75363 
L 175.556618 113.496347 
L 177.453859 116.810961 
L 179.3511 113.057851 
L 181.248341 112.140061 
L 183.145582 111.505828 
L 185.042823 113.730103 
L 188.837306 106.590265 
L 190.734547 111.580752 
L 192.631788 111.663371 
L 194.529029 111.354571 
L 196.42627 107.572157 
L 198.323511 105.368501 
L 200.220752 106.841313 
L 202.117993 102.318368 
L 204.015235 104.645089 
L 205.912476 102.223389 
L 207.809717 99.505094 
L 209.706958 103.35825 
L 211.604199 105.262578 
L 213.50144 104.417943 
L 215.398681 103.697862 
L 217.295923 100.470846 
L 221.090405 99.008471 
L 222.987646 94.111799 
L 224.884887 92.45158 
L 226.782128 92.277626 
L 228.679369 95.705636 
L 230.57661 97.409382 
L 232.473852 94.906899 
L 234.371093 95.080109 
L 236.268334 94.034903 
L 238.165575 93.867184 
L 240.062816 93.326095 
L 241.960057 86.139695 
L 243.857298 86.646104 
L 245.75454 84.697826 
L 247.651781 85.702578 
L 249.549022 87.91924 
L 251.446263 87.500593 
L 253.343504 95.88109 
L 255.240745 95.379028 
L 257.137986 93.246519 
L 259.035227 84.840199 
L 260.932469 81.990078 
L 262.82971 81.416942 
L 264.726951 79.579405 
L 266.624192 80.206591 
L 268.521433 78.5957 
L 270.418674 80.90787 
L 272.315915 84.855301 
L 274.213157 81.569135 
L 276.110398 82.152718 
L 278.007639 87.173546 
L 279.90488 87.992703 
L 281.802121 80.273487 
L 283.699362 74.427906 
L 285.596603 73.17176 
L 287.493844 73.010438 
L 289.391086 79.094921 
L 291.288327 83.153992 
L 293.185568 80.034115 
L 295.082809 84.832956 
L 296.98005 78.557077 
L 298.877291 74.774638 
L 300.774532 71.586972 
L 302.671774 79.410995 
L 304.569015 77.229941 
L 306.466256 72.509232 
L 308.363497 71.068688 
L 310.260738 81.361713 
L 312.157979 82.801021 
L 314.05522 82.210745 
L 315.952461 77.090432 
L 317.849703 65.856997 
L 319.746944 63.318311 
L 321.644185 61.163211 
L 323.541426 58.62799 
L 325.438667 65.759953 
L 327.335908 64.476677 
L 329.233149 85.198179 
L 331.130391 92.881226 
L 333.027632 83.642431 
L 336.822114 52.938585 
L 338.719355 42.960901 
L 340.616596 39.146905 
L 342.513837 49.460673 
L 344.411078 66.564781 
L 346.30832 93.385888 
L 348.205561 94.902662 
L 350.102802 90.070157 
L 352.000043 76.271353 
L 353.897284 64.328527 
L 355.794525 51.612121 
L 357.691766 52.141445 
L 359.589008 61.13667 
L 361.486249 61.130023 
L 363.38349 60.499718 
L 365.280731 59.080518 
L 369.075213 69.692182 
L 370.972454 67.283573 
L 372.869695 64.55758 
L 374.766937 57.145738 
L 376.664178 68.558895 
L 378.561419 75.560411 
L 380.45866 72.312425 
L 382.355901 69.810162 
L 384.253142 69.018267 
L 386.150383 63.909758 
L 388.047625 64.362386 
L 389.944866 60.107894 
L 391.842107 59.270292 
L 393.739348 60.660759 
L 395.636589 59.210488 
L 397.53383 51.433594 
L 399.431071 65.145864 
L 401.328312 72.931478 
L 403.225554 70.068864 
L 405.122795 63.717784 
L 407.020036 61.054972 
L 408.917277 70.375675 
L 410.814518 67.044001 
L 412.711759 64.657035 
L 414.609 67.294235 
L 416.506242 63.656667 
L 418.403483 59.594133 
L 422.197965 52.710769 
L 424.095206 51.187539 
L 425.992447 64.609967 
L 427.889688 70.97097 
L 429.786929 71.424104 
L 431.684171 75.767457 
L 433.581412 75.913797 
L 435.478653 73.778756 
L 435.478653 73.778756 
" clip-path="url(#p00b074b038)" style="fill: none; stroke: #e64b35; stroke-opacity: 0.225; stroke-linecap: square"/>
   </g>
   <g id="line2d_20">
    <path d="M 57.927667 200.831508 
L 65.516632 193.831627 
L 73.105596 187.07416 
L 80.694561 180.554759 
L 90.180767 172.733667 
L 99.666972 165.269273 
L 109.153178 158.153085 
L 118.639384 151.376614 
L 128.125589 144.93137 
L 137.611795 138.808862 
L 147.098001 133.000601 
L 156.584206 127.498096 
L 166.070412 122.292857 
L 175.556618 117.376394 
L 185.042823 112.740217 
L 194.529029 108.375835 
L 204.015235 104.274759 
L 213.50144 100.428499 
L 222.987646 96.828563 
L 232.473852 93.466462 
L 241.960057 90.333707 
L 251.446263 87.421806 
L 260.932469 84.72227 
L 270.418674 82.226608 
L 279.90488 79.92633 
L 291.288327 77.41195 
L 302.671774 75.152027 
L 314.05522 73.131889 
L 325.438667 71.336866 
L 336.822114 69.752286 
L 350.102802 68.150015 
L 363.38349 66.790915 
L 376.664178 65.65169 
L 391.842107 64.589067 
L 407.020036 63.748422 
L 424.095206 63.024731 
L 435.478653 62.649445 
L 435.478653 62.649445 
" clip-path="url(#p00b074b038)" style="fill: none; stroke: #e64b35; stroke-opacity: 0.5; stroke-width: 2.2; stroke-linecap: square"/>
   </g>
   <g id="patch_3">
    <path d="M 57.927667 262.493035 
L 57.927667 8.229117 
" style="fill: none; stroke: #000000; stroke-width: 1.5; stroke-linejoin: miter; stroke-linecap: square"/>
   </g>
   <g id="patch_4">
    <path d="M 435.837667 262.493035 
L 435.837667 8.229117 
" style="fill: none; stroke: #000000; stroke-width: 1.5; stroke-linejoin: miter; stroke-linecap: square"/>
   </g>
   <g id="patch_5">
    <path d="M 57.927667 262.493035 
L 435.837667 262.493035 
" style="fill: none; stroke: #000000; stroke-width: 1.5; stroke-linejoin: miter; stroke-linecap: square"/>
   </g>
   <g id="patch_6">
    <path d="M 57.927667 8.229117 
L 435.837667 8.229117 
" style="fill: none; stroke: #000000; stroke-width: 1.5; stroke-linejoin: miter; stroke-linecap: square"/>
   </g>
   <g id="legend_1">
    <g id="line2d_21">
     <path d="M 66.027667 21.054117 
L 79.527667 21.054117 
L 93.027667 21.054117 
" style="fill: none; stroke: #595959; stroke-width: 2.7; stroke-linecap: square"/>
    </g>
    <g id="text_15">
     <!-- TPU -->
     <g transform="translate(103.827667 25.779117) scale(0.135 -0.135)">
      <defs>
       <path id="CMR17-56" d="M 3981 4332 
L 288 4332 
L 179 2924 
L 294 2924 
C 377 3981 467 4166 1452 4166 
C 1568 4166 1753 4166 1804 4159 
C 1926 4140 1926 4064 1926 3917 
L 1926 465 
C 1926 236 1907 166 1376 166 
L 1196 166 
L 1196 0 
C 1504 6 1824 12 2137 12 
C 2451 12 2771 6 3078 0 
L 3078 166 
L 2899 166 
C 2368 166 2348 236 2348 465 
L 2348 3917 
C 2348 4057 2348 4134 2464 4159 
C 2515 4166 2700 4166 2816 4166 
C 3795 4166 3891 3981 3974 2924 
L 4089 2924 
L 3981 4332 
z
" transform="scale(0.015625)"/>
       <path id="CMR17-52" d="M 1267 2048 
L 2291 2048 
C 3116 2048 3718 2583 3718 3187 
C 3718 3791 3129 4352 2291 4352 
L 332 4352 
L 332 4185 
C 774 4185 844 4185 844 3899 
L 844 453 
C 844 166 774 166 332 166 
L 332 0 
C 518 12 857 12 1056 12 
C 1254 12 1593 12 1779 0 
L 1779 166 
C 1337 166 1267 166 1267 453 
L 1267 2048 
z
M 1254 2182 
L 1254 3937 
C 1254 4153 1267 4185 1523 4185 
L 2169 4185 
C 2995 4185 3232 3715 3232 3187 
C 3232 2608 2950 2182 2169 2182 
L 1254 2182 
z
" transform="scale(0.015625)"/>
       <path id="CMR17-57" d="M 3456 1442 
C 3456 583 2899 38 2291 38 
C 1964 38 1670 211 1491 480 
C 1286 788 1260 1185 1260 1410 
L 1260 3897 
C 1260 4185 1331 4185 1772 4185 
L 1772 4352 
C 1587 4339 1248 4339 1049 4339 
C 851 4339 512 4339 326 4352 
L 326 4185 
C 768 4185 838 4185 838 3897 
L 838 1442 
C 838 519 1536 -128 2278 -128 
C 3110 -128 3590 724 3590 1352 
L 3590 3788 
C 3590 4147 3917 4185 4102 4185 
L 4102 4352 
C 3955 4339 3686 4339 3526 4339 
C 3366 4339 3091 4339 2944 4352 
L 2944 4185 
C 3456 4185 3456 3884 3456 3724 
L 3456 1442 
z
" transform="scale(0.015625)"/>
      </defs>
      <use xlink:href="#CMR17-56" transform="scale(0.996264)"/>
      <use xlink:href="#CMR17-52" transform="translate(66.509881 0) scale(0.996264)"/>
      <use xlink:href="#CMR17-57" transform="translate(129.096181 0) scale(0.996264)"/>
     </g>
    </g>
    <g id="line2d_22">
     <path d="M 66.027667 39.869295 
L 79.527667 39.869295 
L 93.027667 39.869295 
" style="fill: none; stroke: #595959; stroke-opacity: 0.5; stroke-width: 2.2; stroke-linecap: square"/>
    </g>
    <g id="text_16">
     <!-- VMC -->
     <g transform="translate(103.827667 44.594295) scale(0.135 -0.135)">
      <defs>
       <path id="CMR17-58" d="M 3776 3762 
C 3833 3903 3936 4179 4365 4185 
L 4365 4352 
C 4217 4339 4051 4339 3891 4339 
C 3737 4339 3475 4339 3328 4352 
L 3328 4185 
C 3648 4166 3661 3942 3661 3903 
C 3661 3833 3641 3788 3622 3737 
L 2361 448 
L 1043 3903 
C 1024 3948 1011 3980 1011 4012 
C 1011 4185 1267 4185 1401 4185 
L 1401 4352 
C 1196 4339 896 4339 684 4339 
C 518 4339 217 4339 64 4352 
L 64 4185 
C 435 4185 505 4160 582 3955 
L 2105 -26 
C 2137 -116 2144 -128 2214 -128 
C 2284 -128 2291 -116 2323 -26 
L 3776 3762 
z
" transform="scale(0.015625)"/>
       <path id="CMR17-4f" d="M 1337 4249 
C 1299 4345 1292 4352 1158 4352 
L 339 4352 
L 339 4185 
C 780 4185 851 4185 851 3898 
L 851 624 
C 851 465 851 166 339 166 
L 339 0 
C 486 12 755 12 915 12 
C 1075 12 1344 12 1491 0 
L 1491 166 
C 979 166 979 465 979 624 
L 979 4159 
L 985 4159 
L 2489 102 
C 2515 38 2528 0 2579 0 
C 2630 0 2643 38 2668 102 
L 4185 4191 
L 4192 4191 
L 4192 453 
C 4192 166 4121 166 3680 166 
L 3680 0 
C 3853 12 4198 12 4384 12 
C 4569 12 4921 12 5094 0 
L 5094 166 
C 4653 166 4582 166 4582 453 
L 4582 3898 
C 4582 4185 4653 4185 5094 4185 
L 5094 4352 
L 4281 4352 
C 4147 4352 4141 4345 4102 4249 
L 2720 516 
L 1337 4249 
z
" transform="scale(0.015625)"/>
       <path id="CMR17-45" d="M 3974 4351 
C 3974 4467 3968 4473 3929 4473 
C 3904 4473 3897 4467 3853 4390 
L 3571 3849 
C 3257 4249 2873 4480 2380 4480 
C 1286 4480 294 3507 294 2179 
C 294 837 1286 -128 2387 -128 
C 3366 -128 3974 741 3974 1482 
C 3974 1547 3974 1573 3917 1573 
C 3865 1573 3865 1553 3859 1495 
C 3808 592 3168 38 2476 38 
C 1824 38 780 502 780 2179 
C 780 3862 1843 4313 2464 4313 
C 3187 4313 3712 3681 3833 2785 
C 3846 2707 3846 2695 3904 2695 
C 3974 2695 3974 2707 3974 2824 
L 3974 4351 
z
" transform="scale(0.015625)"/>
      </defs>
      <use xlink:href="#CMR17-58" transform="scale(0.996264)"/>
      <use xlink:href="#CMR17-4f" transform="translate(69.07243 0) scale(0.996264)"/>
      <use xlink:href="#CMR17-45" transform="translate(153.75937 0) scale(0.996264)"/>
     </g>
    </g>
   </g>
  </g>
 </g>
 <defs>
  <clipPath id="p00b074b038">
   <rect x="57.927667" y="8.229117" width="377.91" height="254.263918"/>
  </clipPath>
 </defs>
</svg>
