<?xml version="1.0" encoding="utf-8" standalone="no"?>
<!DOCTYPE svg PUBLIC "-//W3C//DTD SVG 1.1//EN"
  "http://www.w3.org/Graphics/SVG/1.1/DTD/svg11.dtd">
<svg xmlns:xlink="http://www.w3.org/1999/xlink" width="453.150942pt" height="314.006886pt" viewBox="0 0 453.150942 314.006886" xmlns="http://www.w3.org/2000/svg" version="1.1">
 <metadata>
  <rdf:RDF xmlns:dc="http://purl.org/dc/elements/1.1/" xmlns:cc="http://creativecommons.org/ns#" xmlns:rdf="http://www.w3.org/1999/02/22-rdf-syntax-ns#">
   <cc:Work>
    <dc:type rdf:resource="http://purl.org/dc/dcmitype/StillImage"/>
    <dc:date>2026-07-11T18:03:00.227174</dc:date>
    <dc:format>image/svg+xml</dc:format>
    <dc:creator>
     <cc:Agent>
      <dc:title>Matplotlib v3.11.0, https://matplotlib.org/</dc:title>
     </cc:Agent>
    </dc:creator>
   </cc:Work>
  </rdf:RDF>
 </metadata>
 <defs>
  <style type="text/css">*{stroke-linejoin: round; stroke-linecap: butt}</style>
 </defs>
 <g id="figure_1">
  <g id="patch_1">
   <path d="M -0 314.006886 
L 453.150942 314.006886 
L 453.150942 0 
L -0 0 
z
" style="fill: #ffffff"/>
  </g>
  <g id="axes_1">
   <g id="patch_2">
    <path d="M 59.816656 261.463918 
L 437.726656 261.463918 
L 437.726656 7.2 
L 59.816656 7.2 
z
" style="fill: #ffffff"/>
   </g>
   <g id="FillBetweenPolyCollection_1">
    <defs>
     <path id="m3e667d38ea" d="M 59.816656 -213.471326 
L 59.816656 -191.410048 
L 61.714942 -216.1881 
L 63.613227 -216.72235 
L 65.511513 -177.850536 
L 67.409798 -215.618253 
L 69.308084 -187.730588 
L 71.20637 -195.811167 
L 73.104655 -197.892896 
L 75.002941 -185.256491 
L 76.901227 -186.141741 
L 78.799512 -172.858835 
L 80.697798 -169.723946 
L 82.596083 -183.65022 
L 84.494369 -165.841817 
L 86.392655 -170.729815 
L 88.29094 -161.230165 
L 90.189226 -170.955344 
L 92.087511 -171.184396 
L 93.985797 -171.123936 
L 95.884083 -171.261216 
L 97.782368 -160.327849 
L 99.680654 -164.106047 
L 101.578939 -159.53932 
L 103.477225 -161.648199 
L 105.375511 -156.613698 
L 107.273796 -158.359644 
L 109.172082 -151.478221 
L 111.070367 -152.020198 
L 112.968653 -148.796485 
L 114.866939 -146.349432 
L 116.765224 -145.226684 
L 118.66351 -146.558787 
L 120.561796 -143.36164 
L 122.460081 -147.622685 
L 124.358367 -152.046539 
L 126.256652 -141.809524 
L 128.154938 -147.09715 
L 130.053224 -143.416221 
L 131.951509 -147.127324 
L 133.849795 -143.089863 
L 135.74808 -142.475279 
L 137.646366 -143.458879 
L 139.544652 -144.427909 
L 141.442937 -140.166132 
L 143.341223 -136.455682 
L 145.239508 -134.899326 
L 147.137794 -133.086954 
L 149.03608 -137.278769 
L 150.934365 -135.914421 
L 152.832651 -138.821719 
L 154.730936 -135.148612 
L 156.629222 -136.012477 
L 158.527508 -135.64703 
L 160.425793 -129.446261 
L 162.324079 -128.940195 
L 164.222364 -129.307968 
L 166.12065 -127.630215 
L 168.018936 -131.918393 
L 169.917221 -127.033427 
L 171.815507 -128.861212 
L 173.713793 -127.606603 
L 175.612078 -125.803192 
L 177.510364 -124.629908 
L 179.408649 -125.797277 
L 181.306935 -122.694874 
L 183.205221 -128.460259 
L 185.103506 -126.483164 
L 187.001792 -121.170435 
L 188.900077 -123.886058 
L 190.798363 -122.702997 
L 192.696649 -124.238259 
L 194.594934 -118.389357 
L 196.49322 -120.360933 
L 198.391505 -124.630931 
L 200.289791 -117.35451 
L 202.188077 -120.711842 
L 204.086362 -115.711363 
L 205.984648 -117.451707 
L 207.882933 -119.598085 
L 209.781219 -114.991834 
L 211.679505 -117.299883 
L 213.57779 -112.13288 
L 215.476076 -114.394858 
L 217.374362 -117.336449 
L 219.272647 -109.394797 
L 221.170933 -111.038565 
L 223.069218 -111.655921 
L 224.967504 -106.021548 
L 226.86579 -107.781728 
L 228.764075 -105.348605 
L 230.662361 -108.765279 
L 232.560646 -106.67429 
L 234.458932 -105.435274 
L 236.357218 -105.401477 
L 238.255503 -99.928739 
L 240.153789 -99.248001 
L 242.052074 -104.555399 
L 243.95036 -104.091722 
L 245.848646 -103.51133 
L 247.746931 -98.93308 
L 249.645217 -99.203948 
L 251.543502 -99.447308 
L 253.441788 -98.289757 
L 255.340074 -99.198547 
L 257.238359 -96.186003 
L 259.136645 -99.702027 
L 261.03493 -98.900104 
L 262.933216 -95.246942 
L 264.831502 -97.561226 
L 266.729787 -95.748245 
L 268.628073 -95.438015 
L 270.526359 -96.287444 
L 272.424644 -93.968647 
L 274.32293 -95.565206 
L 276.221215 -92.555858 
L 278.119501 -92.655589 
L 280.017787 -93.132965 
L 281.916072 -92.696315 
L 283.814358 -92.436516 
L 285.712643 -91.836477 
L 287.610929 -92.103866 
L 289.509215 -92.204196 
L 291.4075 -90.202773 
L 293.305786 -91.949466 
L 295.204071 -91.717698 
L 297.102357 -89.441945 
L 299.000643 -91.637035 
L 300.898928 -88.555554 
L 302.797214 -90.11986 
L 304.695499 -89.254719 
L 306.593785 -88.847374 
L 308.492071 -87.894049 
L 310.390356 -88.761243 
L 312.288642 -88.437959 
L 314.186928 -87.768667 
L 316.085213 -87.361791 
L 317.983499 -87.672243 
L 319.881784 -87.367751 
L 321.78007 -87.555376 
L 323.678356 -87.53973 
L 325.576641 -86.609732 
L 327.474927 -86.752404 
L 329.373212 -86.932607 
L 331.271498 -85.986363 
L 333.169784 -87.273813 
L 335.068069 -87.047702 
L 336.966355 -86.091154 
L 338.86464 -86.531055 
L 340.762926 -86.086413 
L 342.661212 -86.111596 
L 344.559497 -87.176455 
L 346.457783 -86.473153 
L 348.356068 -86.820369 
L 350.254354 -86.993513 
L 352.15264 -87.912248 
L 354.050925 -87.116149 
L 355.949211 -86.818703 
L 357.847497 -87.031106 
L 359.745782 -87.886518 
L 361.644068 -87.607778 
L 363.542353 -86.531871 
L 365.440639 -88.92513 
L 367.338925 -88.081842 
L 369.23721 -88.360012 
L 371.135496 -89.845599 
L 373.033781 -88.760116 
L 374.932067 -89.916897 
L 376.830353 -89.715927 
L 378.728638 -89.219466 
L 380.626924 -89.767501 
L 382.525209 -91.796117 
L 384.423495 -90.314456 
L 386.321781 -92.254798 
L 388.220066 -92.927099 
L 390.118352 -92.23846 
L 392.016637 -92.188099 
L 393.914923 -94.480809 
L 395.813209 -94.416191 
L 397.711494 -94.359865 
L 399.60978 -92.955637 
L 401.508065 -96.057574 
L 403.406351 -95.967963 
L 405.304637 -96.357847 
L 407.202922 -95.662928 
L 409.101208 -97.819108 
L 410.999494 -96.424995 
L 412.897779 -98.38497 
L 414.796065 -100.200676 
L 416.69435 -99.681202 
L 418.592636 -100.271237 
L 420.490922 -101.854235 
L 422.389207 -100.86635 
L 424.287493 -104.647268 
L 426.185778 -104.618035 
L 428.084064 -103.458159 
L 429.98235 -103.13546 
L 431.880635 -103.510997 
L 433.778921 -103.315965 
L 435.677206 -104.354865 
L 437.575492 -101.633703 
L 437.575492 -119.874749 
L 437.575492 -119.874749 
L 435.677206 -110.943485 
L 433.778921 -108.897367 
L 431.880635 -110.039858 
L 429.98235 -112.675144 
L 428.084064 -109.845213 
L 426.185778 -109.662634 
L 424.287493 -107.998813 
L 422.389207 -105.7027 
L 420.490922 -106.105662 
L 418.592636 -104.371675 
L 416.69435 -103.28698 
L 414.796065 -103.41404 
L 412.897779 -103.089588 
L 410.999494 -101.793712 
L 409.101208 -101.752046 
L 407.202922 -100.165113 
L 405.304637 -100.236212 
L 403.406351 -97.867252 
L 401.508065 -99.653992 
L 399.60978 -97.053665 
L 397.711494 -96.193232 
L 395.813209 -96.397319 
L 393.914923 -95.74832 
L 392.016637 -95.539363 
L 390.118352 -94.435716 
L 388.220066 -94.433144 
L 386.321781 -94.596105 
L 384.423495 -92.543967 
L 382.525209 -93.29613 
L 380.626924 -93.499509 
L 378.728638 -92.081486 
L 376.830353 -92.185097 
L 374.932067 -91.782397 
L 373.033781 -91.811042 
L 371.135496 -90.319275 
L 369.23721 -89.858781 
L 367.338925 -89.803964 
L 365.440639 -90.316092 
L 363.542353 -89.178658 
L 361.644068 -89.371375 
L 359.745782 -89.630556 
L 357.847497 -89.142059 
L 355.949211 -89.38779 
L 354.050925 -88.820893 
L 352.15264 -88.942622 
L 350.254354 -88.854129 
L 348.356068 -89.011323 
L 346.457783 -88.785505 
L 344.559497 -88.821131 
L 342.661212 -88.003153 
L 340.762926 -88.993457 
L 338.86464 -87.90638 
L 336.966355 -88.058334 
L 335.068069 -87.913831 
L 333.169784 -88.69446 
L 331.271498 -87.935529 
L 329.373212 -88.344741 
L 327.474927 -89.25942 
L 325.576641 -87.687143 
L 323.678356 -89.677802 
L 321.78007 -88.678897 
L 319.881784 -89.019677 
L 317.983499 -89.273025 
L 316.085213 -90.108582 
L 314.186928 -89.822925 
L 312.288642 -89.571945 
L 310.390356 -91.0103 
L 308.492071 -91.077546 
L 306.593785 -89.859132 
L 304.695499 -91.316164 
L 302.797214 -91.807131 
L 300.898928 -92.061022 
L 299.000643 -92.854678 
L 297.102357 -91.289528 
L 295.204071 -93.257352 
L 293.305786 -93.577411 
L 291.4075 -92.056607 
L 289.509215 -94.28898 
L 287.610929 -94.103589 
L 285.712643 -95.049069 
L 283.814358 -95.686034 
L 281.916072 -95.152398 
L 280.017787 -97.667668 
L 278.119501 -97.029968 
L 276.221215 -96.974449 
L 274.32293 -98.380067 
L 272.424644 -96.964156 
L 270.526359 -98.709681 
L 268.628073 -99.727111 
L 266.729787 -100.311504 
L 264.831502 -101.417824 
L 262.933216 -100.553976 
L 261.03493 -104.309731 
L 259.136645 -101.563229 
L 257.238359 -100.822705 
L 255.340074 -105.058675 
L 253.441788 -103.545682 
L 251.543502 -103.1941 
L 249.645217 -105.934214 
L 247.746931 -107.760841 
L 245.848646 -108.359006 
L 243.95036 -108.883435 
L 242.052074 -111.391645 
L 240.153789 -107.01947 
L 238.255503 -106.310685 
L 236.357218 -109.593527 
L 234.458932 -110.399568 
L 232.560646 -114.184628 
L 230.662361 -115.504203 
L 228.764075 -113.148764 
L 226.86579 -116.496509 
L 224.967504 -113.008991 
L 223.069218 -114.049742 
L 221.170933 -119.716257 
L 219.272647 -116.541248 
L 217.374362 -120.313547 
L 215.476076 -121.146677 
L 213.57779 -116.726753 
L 211.679505 -123.795583 
L 209.781219 -119.243733 
L 207.882933 -122.776132 
L 205.984648 -125.114725 
L 204.086362 -123.758022 
L 202.188077 -128.302463 
L 200.289791 -125.608061 
L 198.391505 -129.850055 
L 196.49322 -126.351474 
L 194.594934 -127.050904 
L 192.696649 -132.31686 
L 190.798363 -129.044797 
L 188.900077 -130.187104 
L 187.001792 -134.141518 
L 185.103506 -130.632313 
L 183.205221 -134.14047 
L 181.306935 -130.258593 
L 179.408649 -133.867488 
L 177.510364 -134.914674 
L 175.612078 -133.261571 
L 173.713793 -139.336349 
L 171.815507 -139.621311 
L 169.917221 -132.42084 
L 168.018936 -141.921437 
L 166.12065 -139.762494 
L 164.222364 -141.187349 
L 162.324079 -144.627044 
L 160.425793 -135.696109 
L 158.527508 -148.174916 
L 156.629222 -141.396167 
L 154.730936 -143.008876 
L 152.832651 -144.661235 
L 150.934365 -147.107596 
L 149.03608 -148.097314 
L 147.137794 -145.282127 
L 145.239508 -148.945432 
L 143.341223 -151.454292 
L 141.442937 -147.390403 
L 139.544652 -154.204164 
L 137.646366 -156.310028 
L 135.74808 -158.756882 
L 133.849795 -152.171533 
L 131.951509 -152.158707 
L 130.053224 -154.360244 
L 128.154938 -154.684322 
L 126.256652 -156.592923 
L 124.358367 -165.310683 
L 122.460081 -160.993353 
L 120.561796 -161.079798 
L 118.66351 -160.438073 
L 116.765224 -149.370807 
L 114.866939 -158.165972 
L 112.968653 -167.37398 
L 111.070367 -167.387446 
L 109.172082 -172.098532 
L 107.273796 -172.753483 
L 105.375511 -173.753094 
L 103.477225 -179.65763 
L 101.578939 -169.817501 
L 99.680654 -171.410647 
L 97.782368 -173.973441 
L 95.884083 -186.397433 
L 93.985797 -184.417967 
L 92.087511 -190.879352 
L 90.189226 -186.321033 
L 88.29094 -182.412878 
L 86.392655 -190.57173 
L 84.494369 -183.892546 
L 82.596083 -199.320016 
L 80.697798 -202.712272 
L 78.799512 -208.988383 
L 76.901227 -197.606883 
L 75.002941 -212.740783 
L 73.104655 -218.180658 
L 71.20637 -209.963217 
L 69.308084 -225.703909 
L 67.409798 -228.055045 
L 65.511513 -202.640358 
L 63.613227 -226.661693 
L 61.714942 -221.021814 
L 59.816656 -213.471326 
z
" style="stroke: #7b52ab; stroke-opacity: 0.18"/>
    </defs>
    <g clip-path="url(#pb497772470)">
     <use xlink:href="#m3e667d38ea" x="0" y="314.006886" style="fill: #7b52ab; fill-opacity: 0.18; stroke: #7b52ab; stroke-opacity: 0.18"/>
    </g>
   </g>
   <g id="FillBetweenPolyCollection_2">
    <defs>
     <path id="mfc3de7dc50" d="M 59.816656 -92.38939 
L 59.816656 -90.45159 
L 61.715132 -90.517255 
L 63.613607 -90.891734 
L 65.512083 -88.585099 
L 67.410558 -89.438928 
L 69.309034 -90.700341 
L 71.207509 -89.303838 
L 73.105985 -89.925727 
L 75.00446 -90.135728 
L 76.902936 -88.31957 
L 78.801411 -90.40086 
L 80.699887 -89.337481 
L 82.598362 -88.236962 
L 84.496838 -89.391493 
L 86.395313 -88.820327 
L 88.293789 -89.706907 
L 90.192264 -89.716467 
L 92.09074 -88.783114 
L 93.989215 -89.135849 
L 95.887691 -88.724997 
L 97.786166 -88.305681 
L 99.684642 -90.761268 
L 101.583117 -88.951991 
L 103.481593 -88.738829 
L 105.380068 -89.310272 
L 107.278544 -89.332755 
L 109.177019 -90.843426 
L 111.075495 -88.152327 
L 112.97397 -88.629217 
L 114.872446 -90.489915 
L 116.770921 -89.057741 
L 118.669397 -90.730301 
L 120.567872 -90.318681 
L 122.466348 -88.420353 
L 124.364823 -91.195828 
L 126.263299 -89.574388 
L 128.161774 -90.382973 
L 130.06025 -90.752818 
L 131.958726 -87.998183 
L 133.857201 -90.071351 
L 135.755677 -90.474369 
L 137.654152 -90.076829 
L 139.552628 -90.931181 
L 141.451103 -91.285413 
L 143.349579 -91.552861 
L 145.248054 -91.713159 
L 147.14653 -91.630228 
L 149.045005 -92.11543 
L 150.943481 -93.083156 
L 152.841956 -91.530324 
L 154.740432 -93.160098 
L 156.638907 -92.652845 
L 158.537383 -92.903517 
L 160.435858 -93.745512 
L 162.334334 -92.409697 
L 164.232809 -94.711535 
L 166.131285 -93.278014 
L 168.02976 -94.815305 
L 169.928236 -94.16104 
L 171.826711 -95.02222 
L 173.725187 -95.598253 
L 175.623662 -95.256989 
L 177.522138 -95.739407 
L 179.420613 -96.606479 
L 181.319089 -96.99744 
L 183.217564 -97.467786 
L 185.11604 -96.93249 
L 187.014515 -97.545365 
L 188.912991 -98.662219 
L 190.811466 -98.464881 
L 192.709942 -99.373025 
L 194.608417 -99.792683 
L 196.506893 -99.658534 
L 198.405368 -99.465151 
L 200.303844 -100.995867 
L 202.202319 -100.410254 
L 204.100795 -102.622015 
L 205.999271 -102.766573 
L 207.897746 -102.643537 
L 209.796222 -103.900526 
L 211.694697 -101.79061 
L 213.593173 -104.791856 
L 215.491648 -105.489155 
L 217.390124 -105.170436 
L 219.288599 -105.862443 
L 221.187075 -107.895374 
L 223.08555 -105.342965 
L 224.984026 -108.28376 
L 226.882501 -107.755262 
L 228.780977 -107.684671 
L 230.679452 -109.493501 
L 232.577928 -110.3191 
L 234.476403 -110.255947 
L 236.374879 -112.421236 
L 238.273354 -111.118923 
L 240.17183 -112.488666 
L 242.070305 -111.274811 
L 243.968781 -117.094067 
L 245.867256 -112.448141 
L 247.765732 -115.545475 
L 249.664207 -117.699658 
L 251.562683 -116.458905 
L 253.461158 -120.883074 
L 255.359634 -118.268346 
L 257.258109 -118.584351 
L 259.156585 -119.565047 
L 261.05506 -121.248698 
L 262.953536 -119.602297 
L 264.852011 -121.123682 
L 266.750487 -124.288833 
L 268.648962 -125.777339 
L 270.547438 -119.367365 
L 272.445913 -125.902606 
L 274.344389 -126.816385 
L 276.242864 -123.447106 
L 278.14134 -127.756366 
L 280.039816 -126.268139 
L 281.938291 -128.58898 
L 283.836767 -129.007798 
L 285.735242 -125.827302 
L 287.633718 -131.614275 
L 289.532193 -127.409516 
L 291.430669 -130.728387 
L 293.329144 -131.056248 
L 295.22762 -129.162225 
L 297.126095 -127.763273 
L 299.024571 -134.408274 
L 300.923046 -130.884622 
L 302.821522 -126.988067 
L 304.719997 -131.999552 
L 306.618473 -133.589974 
L 308.516948 -130.93378 
L 310.415424 -132.912446 
L 312.313899 -134.016468 
L 314.212375 -133.405987 
L 316.11085 -132.991456 
L 318.009326 -135.171682 
L 319.907801 -132.628934 
L 321.806277 -133.650858 
L 323.704752 -134.086667 
L 325.603228 -136.272353 
L 327.501703 -132.68923 
L 329.400179 -133.981335 
L 331.298654 -135.99084 
L 333.19713 -133.509775 
L 335.095605 -134.177085 
L 336.994081 -137.523126 
L 338.892556 -134.06326 
L 340.791032 -136.071547 
L 342.689507 -136.006508 
L 344.587983 -137.260318 
L 346.486458 -134.223987 
L 348.384934 -134.923103 
L 350.283409 -137.077448 
L 352.181885 -134.844938 
L 354.08036 -135.763223 
L 355.978836 -141.01565 
L 357.877312 -136.392296 
L 359.775787 -139.900074 
L 361.674263 -139.173358 
L 363.572738 -144.00682 
L 365.471214 -139.121592 
L 367.369689 -139.042847 
L 369.268165 -146.044943 
L 371.16664 -139.496492 
L 373.065116 -141.043236 
L 374.963591 -145.223828 
L 376.862067 -142.031011 
L 378.760542 -144.90103 
L 380.659018 -143.50734 
L 382.557493 -147.561648 
L 384.455969 -144.044477 
L 386.354444 -147.682127 
L 388.25292 -147.235312 
L 390.151395 -147.293227 
L 392.049871 -151.009667 
L 393.948346 -148.18863 
L 395.846822 -151.797518 
L 397.745297 -153.317235 
L 399.643773 -151.582526 
L 401.542248 -158.195893 
L 403.440724 -155.159898 
L 405.339199 -153.55318 
L 407.237675 -158.008711 
L 409.13615 -163.269441 
L 411.034626 -162.352848 
L 412.933101 -164.964517 
L 414.831577 -164.542286 
L 416.730052 -159.830236 
L 418.628528 -169.777475 
L 420.527003 -158.352896 
L 422.425479 -157.602435 
L 424.323954 -160.496162 
L 426.22243 -149.765726 
L 428.120905 -151.992946 
L 430.019381 -145.720535 
L 431.917857 -137.977085 
L 433.816332 -137.592269 
L 435.714808 -137.791318 
L 437.613283 -145.232849 
L 437.613283 -214.167025 
L 437.613283 -214.167025 
L 435.714808 -192.164192 
L 433.816332 -194.035478 
L 431.917857 -188.769285 
L 430.019381 -179.176034 
L 428.120905 -182.625918 
L 426.22243 -172.36699 
L 424.323954 -188.543522 
L 422.425479 -190.451083 
L 420.527003 -180.678338 
L 418.628528 -193.054 
L 416.730052 -183.176532 
L 414.831577 -184.388546 
L 412.933101 -187.979236 
L 411.034626 -179.159049 
L 409.13615 -186.146503 
L 407.237675 -173.293979 
L 405.339199 -176.719387 
L 403.440724 -179.413721 
L 401.542248 -170.173651 
L 399.643773 -179.157506 
L 397.745297 -174.377197 
L 395.846822 -170.56138 
L 393.948346 -176.051746 
L 392.049871 -173.353564 
L 390.151395 -170.033688 
L 388.25292 -168.04297 
L 386.354444 -162.99486 
L 384.455969 -167.845704 
L 382.557493 -168.416588 
L 380.659018 -169.054673 
L 378.760542 -165.824217 
L 376.862067 -163.66398 
L 374.963591 -164.505948 
L 373.065116 -165.708785 
L 371.16664 -160.919495 
L 369.268165 -168.563125 
L 367.369689 -161.884468 
L 365.471214 -157.188584 
L 363.572738 -158.647447 
L 361.674263 -157.720601 
L 359.775787 -160.101605 
L 357.877312 -161.721822 
L 355.978836 -160.348399 
L 354.08036 -162.868515 
L 352.181885 -159.458925 
L 350.283409 -153.67001 
L 348.384934 -158.001936 
L 346.486458 -151.996089 
L 344.587983 -157.63689 
L 342.689507 -157.170339 
L 340.791032 -157.716932 
L 338.892556 -155.746815 
L 336.994081 -152.640767 
L 335.095605 -157.949734 
L 333.19713 -159.117157 
L 331.298654 -152.122335 
L 329.400179 -154.041413 
L 327.501703 -151.834781 
L 325.603228 -151.444901 
L 323.704752 -149.963577 
L 321.806277 -153.196798 
L 319.907801 -157.343247 
L 318.009326 -147.956875 
L 316.11085 -148.31237 
L 314.212375 -156.135492 
L 312.313899 -147.325748 
L 310.415424 -154.167198 
L 308.516948 -151.887052 
L 306.618473 -150.079779 
L 304.719997 -148.423801 
L 302.821522 -147.56962 
L 300.923046 -150.284513 
L 299.024571 -149.650124 
L 297.126095 -145.106927 
L 295.22762 -144.543674 
L 293.329144 -149.447754 
L 291.430669 -147.094805 
L 289.532193 -143.140606 
L 287.633718 -149.973362 
L 285.735242 -145.581667 
L 283.836767 -147.635881 
L 281.938291 -136.964697 
L 280.039816 -135.965888 
L 278.14134 -142.944967 
L 276.242864 -129.463084 
L 274.344389 -143.937204 
L 272.445913 -144.689168 
L 270.547438 -132.99601 
L 268.648962 -142.79697 
L 266.750487 -135.562791 
L 264.852011 -135.275564 
L 262.953536 -132.052331 
L 261.05506 -129.813135 
L 259.156585 -136.694955 
L 257.258109 -133.117704 
L 255.359634 -129.580056 
L 253.461158 -133.038045 
L 251.562683 -128.724075 
L 249.664207 -126.962216 
L 247.765732 -126.356202 
L 245.867256 -122.776058 
L 243.968781 -126.857425 
L 242.070305 -126.568491 
L 240.17183 -121.282631 
L 238.273354 -124.170881 
L 236.374879 -121.192141 
L 234.476403 -119.505337 
L 232.577928 -119.096673 
L 230.679452 -119.721979 
L 228.780977 -118.485191 
L 226.882501 -117.746922 
L 224.984026 -117.33703 
L 223.08555 -116.686624 
L 221.187075 -114.155998 
L 219.288599 -117.075172 
L 217.390124 -114.068578 
L 215.491648 -111.772435 
L 213.593173 -111.449504 
L 211.694697 -109.835211 
L 209.796222 -111.079045 
L 207.897746 -109.741908 
L 205.999271 -107.822774 
L 204.100795 -108.161901 
L 202.202319 -108.553572 
L 200.303844 -106.581212 
L 198.405368 -105.255574 
L 196.506893 -105.042335 
L 194.608417 -106.276017 
L 192.709942 -102.531278 
L 190.811466 -105.023149 
L 188.912991 -106.6484 
L 187.014515 -101.334056 
L 185.11604 -103.176887 
L 183.217564 -101.70168 
L 181.319089 -99.484981 
L 179.420613 -101.254964 
L 177.522138 -98.189471 
L 175.623662 -100.69124 
L 173.725187 -99.168445 
L 171.826711 -98.791349 
L 169.928236 -99.688405 
L 168.02976 -98.526901 
L 166.131285 -97.7314 
L 164.232809 -97.159358 
L 162.334334 -96.511881 
L 160.435858 -97.843723 
L 158.537383 -96.907857 
L 156.638907 -95.466908 
L 154.740432 -97.008115 
L 152.841956 -94.269738 
L 150.943481 -95.097986 
L 149.045005 -95.659373 
L 147.14653 -93.728026 
L 145.248054 -95.356797 
L 143.349579 -92.316992 
L 141.451103 -93.660021 
L 139.552628 -93.926881 
L 137.654152 -91.945081 
L 135.755677 -93.322737 
L 133.857201 -93.578171 
L 131.958726 -92.769819 
L 130.06025 -93.662918 
L 128.161774 -92.231581 
L 126.263299 -92.144316 
L 124.364823 -93.386986 
L 122.466348 -91.377842 
L 120.567872 -92.073101 
L 118.669397 -93.224686 
L 116.770921 -90.765849 
L 114.872446 -92.101161 
L 112.97397 -92.019382 
L 111.075495 -90.741601 
L 109.177019 -92.028415 
L 107.278544 -90.73624 
L 105.380068 -90.902422 
L 103.481593 -90.494032 
L 101.583117 -90.539785 
L 99.684642 -91.64095 
L 97.786166 -90.20292 
L 95.887691 -90.580783 
L 93.989215 -91.438175 
L 92.09074 -90.590339 
L 90.192264 -91.746404 
L 88.293789 -91.039801 
L 86.395313 -90.5405 
L 84.496838 -91.774271 
L 82.598362 -91.3846 
L 80.699887 -91.536677 
L 78.801411 -92.950265 
L 76.902936 -91.229769 
L 75.00446 -91.729003 
L 73.105985 -92.354272 
L 71.207509 -92.455599 
L 69.309034 -92.720119 
L 67.410558 -95.401566 
L 65.512083 -91.719492 
L 63.613607 -95.466026 
L 61.715132 -93.929761 
L 59.816656 -92.38939 
z
" style="stroke: #7b52ab; stroke-opacity: 0.18"/>
    </defs>
    <g clip-path="url(#pb497772470)">
     <use xlink:href="#mfc3de7dc50" x="0" y="314.006886" style="fill: #7b52ab; fill-opacity: 0.18; stroke: #7b52ab; stroke-opacity: 0.18"/>
    </g>
   </g>
   <g id="FillBetweenPolyCollection_3">
    <defs>
     <path id="mf9b5dae391" d="M 59.816656 -243.917242 
L 59.816656 -224.379549 
L 61.714372 -250.85565 
L 63.612088 -227.859775 
L 65.509804 -264.441894 
L 67.40752 -245.548685 
L 69.305236 -228.976057 
L 71.202951 -234.781239 
L 73.100667 -215.302718 
L 74.998383 -203.518588 
L 76.896099 -192.186221 
L 78.793815 -187.822428 
L 80.691531 -184.306436 
L 82.589247 -189.990739 
L 84.486963 -193.062563 
L 86.384679 -196.669969 
L 88.282394 -197.294138 
L 90.18011 -196.452754 
L 92.077826 -207.703489 
L 93.975542 -189.907356 
L 95.873258 -201.621773 
L 97.770974 -192.713171 
L 99.66869 -196.595275 
L 101.566406 -199.571742 
L 103.464122 -190.87261 
L 105.361838 -199.505312 
L 107.259553 -195.081032 
L 109.157269 -196.628303 
L 111.054985 -190.9714 
L 112.952701 -188.44977 
L 114.850417 -200.751753 
L 116.748133 -198.239844 
L 118.645849 -209.640629 
L 120.543565 -207.286704 
L 122.441281 -208.540182 
L 124.338996 -200.529987 
L 126.236712 -193.546547 
L 128.134428 -196.226255 
L 130.032144 -193.771579 
L 131.92986 -192.965604 
L 133.827576 -182.327442 
L 135.725292 -186.358347 
L 137.623008 -199.514559 
L 139.520724 -184.237379 
L 141.41844 -198.171111 
L 143.316155 -185.03397 
L 145.213871 -204.460775 
L 147.111587 -193.708124 
L 149.009303 -191.791514 
L 150.907019 -201.316572 
L 152.804735 -195.364326 
L 154.702451 -201.105587 
L 156.600167 -193.173495 
L 158.497883 -200.94567 
L 160.395598 -208.961526 
L 162.293314 -185.538356 
L 164.19103 -206.898039 
L 166.088746 -198.012591 
L 167.986462 -195.468169 
L 169.884178 -205.467896 
L 171.781894 -192.509694 
L 173.67961 -204.849084 
L 175.577326 -202.795597 
L 177.475042 -204.845911 
L 179.372757 -203.433654 
L 181.270473 -197.612965 
L 183.168189 -204.796755 
L 185.065905 -210.359935 
L 186.963621 -196.677759 
L 188.861337 -197.989487 
L 190.759053 -199.778317 
L 192.656769 -198.434291 
L 194.554485 -195.210889 
L 196.4522 -196.599526 
L 198.349916 -192.611168 
L 200.247632 -189.971309 
L 202.145348 -187.32812 
L 204.043064 -197.914122 
L 205.94078 -190.294784 
L 207.838496 -193.129054 
L 209.736212 -188.937847 
L 211.633928 -196.124893 
L 213.531643 -196.319428 
L 215.429359 -186.931364 
L 217.327075 -184.849004 
L 219.224791 -181.448776 
L 221.122507 -179.405754 
L 223.020223 -183.471011 
L 224.917939 -175.104044 
L 226.815655 -176.130651 
L 228.713371 -185.388309 
L 230.611087 -178.134651 
L 232.508802 -177.753768 
L 234.406518 -180.908217 
L 236.304234 -171.645265 
L 238.20195 -174.690822 
L 240.099666 -168.734132 
L 241.997382 -170.677859 
L 243.895098 -173.782428 
L 245.792814 -163.594758 
L 247.69053 -171.57844 
L 249.588245 -175.562114 
L 251.485961 -162.545439 
L 253.383677 -167.097318 
L 255.281393 -162.22005 
L 257.179109 -158.983965 
L 259.076825 -156.887769 
L 260.974541 -146.565651 
L 262.872257 -152.950108 
L 264.769973 -148.619117 
L 266.667689 -151.449996 
L 268.565404 -155.205318 
L 270.46312 -152.85254 
L 272.360836 -152.271617 
L 274.258552 -154.362873 
L 276.156268 -152.077317 
L 278.053984 -147.978574 
L 279.9517 -150.916409 
L 281.849416 -147.680639 
L 283.747132 -141.954337 
L 285.644847 -141.979143 
L 287.542563 -141.402626 
L 289.440279 -143.8072 
L 291.337995 -142.535061 
L 293.235711 -137.006568 
L 295.133427 -131.353844 
L 297.031143 -126.043752 
L 298.928859 -129.014169 
L 300.826575 -135.803615 
L 302.724291 -130.186136 
L 304.622006 -126.624112 
L 306.519722 -126.984979 
L 308.417438 -127.889914 
L 310.315154 -128.646148 
L 312.21287 -122.829873 
L 314.110586 -116.921968 
L 316.008302 -117.047787 
L 317.906018 -118.427405 
L 319.803734 -118.689016 
L 321.701449 -112.149869 
L 323.599165 -116.480767 
L 325.496881 -120.820917 
L 327.394597 -116.192315 
L 329.292313 -122.361257 
L 331.190029 -117.135593 
L 333.087745 -116.621649 
L 334.985461 -112.695051 
L 336.883177 -109.233343 
L 338.780893 -108.521 
L 340.678608 -110.021573 
L 342.576324 -108.040847 
L 344.47404 -117.826996 
L 346.371756 -121.018897 
L 348.269472 -117.100498 
L 350.167188 -111.576196 
L 352.064904 -109.157173 
L 353.96262 -107.607334 
L 355.860336 -106.301924 
L 357.758051 -105.634676 
L 359.655767 -102.285769 
L 361.553483 -105.444643 
L 363.451199 -104.336816 
L 365.348915 -102.959602 
L 367.246631 -105.210499 
L 369.144347 -103.054264 
L 371.042063 -101.329574 
L 372.939779 -103.640049 
L 374.837495 -104.716076 
L 376.73521 -102.376128 
L 378.632926 -101.505428 
L 380.530642 -100.377628 
L 382.428358 -100.63019 
L 384.326074 -100.098976 
L 386.22379 -97.379765 
L 388.121506 -95.51923 
L 390.019222 -96.637269 
L 391.916938 -94.735578 
L 393.814653 -94.602911 
L 395.712369 -95.393438 
L 397.610085 -94.560107 
L 399.507801 -94.406226 
L 401.405517 -93.683926 
L 403.303233 -93.800636 
L 405.200949 -92.135164 
L 407.098665 -92.196383 
L 408.996381 -91.447715 
L 410.894097 -90.471025 
L 412.791812 -90.39115 
L 414.689528 -88.912922 
L 416.587244 -88.704889 
L 418.48496 -88.423644 
L 420.382676 -88.529542 
L 422.280392 -87.651177 
L 424.178108 -86.973766 
L 426.075824 -88.0663 
L 427.97354 -86.656541 
L 429.871255 -85.947716 
L 431.768971 -85.627133 
L 433.666687 -84.663292 
L 435.564403 -84.49204 
L 437.462119 -83.669749 
L 437.462119 -85.318113 
L 437.462119 -85.318113 
L 435.564403 -85.67096 
L 433.666687 -86.313875 
L 431.768971 -86.836621 
L 429.871255 -87.499682 
L 427.97354 -88.259312 
L 426.075824 -88.810433 
L 424.178108 -88.511189 
L 422.280392 -88.915868 
L 420.382676 -89.799647 
L 418.48496 -90.648343 
L 416.587244 -91.144795 
L 414.689528 -92.460206 
L 412.791812 -93.286926 
L 410.894097 -93.988191 
L 408.996381 -94.639304 
L 407.098665 -94.181718 
L 405.200949 -96.017274 
L 403.303233 -96.775934 
L 401.405517 -98.224679 
L 399.507801 -98.006456 
L 397.610085 -97.739113 
L 395.712369 -100.16515 
L 393.814653 -101.552138 
L 391.916938 -101.599116 
L 390.019222 -101.41748 
L 388.121506 -103.940017 
L 386.22379 -102.593659 
L 384.326074 -104.816067 
L 382.428358 -105.90504 
L 380.530642 -106.497474 
L 378.632926 -109.33708 
L 376.73521 -109.801157 
L 374.837495 -106.007385 
L 372.939779 -108.750873 
L 371.042063 -111.146828 
L 369.144347 -113.431991 
L 367.246631 -111.606225 
L 365.348915 -111.638627 
L 363.451199 -112.927978 
L 361.553483 -115.949309 
L 359.655767 -116.471118 
L 357.758051 -113.068178 
L 355.860336 -108.67481 
L 353.96262 -113.779043 
L 352.064904 -118.536268 
L 350.167188 -123.259411 
L 348.269472 -126.006868 
L 346.371756 -124.021142 
L 344.47404 -125.541882 
L 342.576324 -122.103836 
L 340.678608 -118.977882 
L 338.780893 -118.913299 
L 336.883177 -118.156233 
L 334.985461 -124.478673 
L 333.087745 -129.208696 
L 331.190029 -136.318539 
L 329.292313 -135.464441 
L 327.394597 -131.916408 
L 325.496881 -132.468342 
L 323.599165 -131.256368 
L 321.701449 -131.677028 
L 319.803734 -130.619609 
L 317.906018 -130.31691 
L 316.008302 -138.304095 
L 314.110586 -141.429564 
L 312.21287 -148.98667 
L 310.315154 -145.45067 
L 308.417438 -137.349187 
L 306.519722 -142.234772 
L 304.622006 -149.589626 
L 302.724291 -140.699827 
L 300.826575 -147.295717 
L 298.928859 -150.315165 
L 297.031143 -156.30013 
L 295.133427 -163.097315 
L 293.235711 -156.932836 
L 291.337995 -157.383341 
L 289.440279 -160.840448 
L 287.542563 -158.838584 
L 285.644847 -155.779982 
L 283.747132 -153.161785 
L 281.849416 -151.402558 
L 279.9517 -164.021847 
L 278.053984 -163.380357 
L 276.156268 -165.064948 
L 274.258552 -166.626717 
L 272.360836 -166.245534 
L 270.46312 -161.598462 
L 268.565404 -163.693355 
L 266.667689 -167.961846 
L 264.769973 -166.877205 
L 262.872257 -174.98088 
L 260.974541 -174.276777 
L 259.076825 -177.874991 
L 257.179109 -176.599249 
L 255.281393 -180.720335 
L 253.383677 -186.338752 
L 251.485961 -179.636729 
L 249.588245 -183.607979 
L 247.69053 -177.669267 
L 245.792814 -178.013996 
L 243.895098 -180.949413 
L 241.997382 -179.482266 
L 240.099666 -192.962722 
L 238.20195 -185.680028 
L 236.304234 -185.181747 
L 234.406518 -195.736182 
L 232.508802 -188.69272 
L 230.611087 -193.573658 
L 228.713371 -190.776362 
L 226.815655 -201.640331 
L 224.917939 -200.242321 
L 223.020223 -195.710162 
L 221.122507 -201.63295 
L 219.224791 -202.050686 
L 217.327075 -205.391261 
L 215.429359 -209.819288 
L 213.531643 -206.006851 
L 211.633928 -206.191079 
L 209.736212 -212.854443 
L 207.838496 -206.699419 
L 205.94078 -212.923376 
L 204.043064 -214.023611 
L 202.145348 -210.42213 
L 200.247632 -224.604686 
L 198.349916 -221.379845 
L 196.4522 -225.880657 
L 194.554485 -223.205261 
L 192.656769 -227.210836 
L 190.759053 -232.527255 
L 188.861337 -233.527377 
L 186.963621 -232.051198 
L 185.065905 -231.33293 
L 183.168189 -215.72334 
L 181.270473 -234.443641 
L 179.372757 -225.231257 
L 177.475042 -231.456631 
L 175.577326 -234.816186 
L 173.67961 -227.817278 
L 171.781894 -235.904378 
L 169.884178 -229.994059 
L 167.986462 -225.119755 
L 166.088746 -239.841492 
L 164.19103 -234.727022 
L 162.293314 -237.448508 
L 160.395598 -227.464635 
L 158.497883 -241.621433 
L 156.600167 -246.799105 
L 154.702451 -231.498601 
L 152.804735 -242.331093 
L 150.907019 -249.049817 
L 149.009303 -238.902434 
L 147.111587 -241.075482 
L 145.213871 -241.080714 
L 143.316155 -242.101319 
L 141.41844 -246.999428 
L 139.520724 -243.682209 
L 137.623008 -256.647864 
L 135.725292 -261.761691 
L 133.827576 -241.809809 
L 131.92986 -258.968492 
L 130.032144 -259.780982 
L 128.134428 -244.193534 
L 126.236712 -239.824778 
L 124.338996 -256.412119 
L 122.441281 -248.381038 
L 120.543565 -236.516929 
L 118.645849 -255.959247 
L 116.748133 -254.014232 
L 114.850417 -250.528119 
L 112.952701 -249.464096 
L 111.054985 -246.055863 
L 109.157269 -253.962247 
L 107.259553 -253.763622 
L 105.361838 -255.859505 
L 103.464122 -254.262591 
L 101.566406 -262.040585 
L 99.66869 -259.034707 
L 97.770974 -255.040013 
L 95.873258 -248.486435 
L 93.975542 -249.693572 
L 92.077826 -238.592552 
L 90.18011 -250.549281 
L 88.282394 -251.04094 
L 86.384679 -250.586385 
L 84.486963 -264.231168 
L 82.589247 -259.946504 
L 80.691531 -243.324117 
L 78.793815 -241.851556 
L 76.896099 -229.386706 
L 74.998383 -231.80856 
L 73.100667 -230.174143 
L 71.202951 -239.28085 
L 69.305236 -261.427392 
L 67.40752 -296.181308 
L 65.509804 -287.377636 
L 63.612088 -279.523894 
L 61.714372 -271.087305 
L 59.816656 -243.917242 
z
" style="stroke: #e64b35; stroke-opacity: 0.18"/>
    </defs>
    <g clip-path="url(#pb497772470)">
     <use xlink:href="#mf9b5dae391" x="0" y="314.006886" style="fill: #e64b35; fill-opacity: 0.18; stroke: #e64b35; stroke-opacity: 0.18"/>
    </g>
   </g>
   <g id="FillBetweenPolyCollection_4">
    <defs>
     <path id="m2127ca5e80" d="M 59.816656 -92.711007 
L 59.816656 -87.032795 
L 61.714087 -86.15519 
L 63.611518 -86.573002 
L 65.508949 -88.373702 
L 67.40638 -88.178714 
L 69.303811 -88.087157 
L 71.201242 -89.633542 
L 73.098673 -90.021945 
L 74.996104 -89.663625 
L 76.893535 -91.118283 
L 78.790966 -92.188671 
L 80.688397 -92.179325 
L 82.585828 -92.319134 
L 84.48326 -92.267801 
L 86.380691 -91.434119 
L 88.278122 -93.428408 
L 90.175553 -91.263565 
L 92.072984 -91.849394 
L 93.970415 -90.561137 
L 95.867846 -90.859335 
L 97.765277 -92.394652 
L 99.662708 -90.959497 
L 101.560139 -92.535904 
L 103.45757 -94.210708 
L 105.355001 -93.523773 
L 107.252432 -93.962805 
L 109.149863 -95.048127 
L 111.047294 -94.524162 
L 112.944725 -94.611351 
L 114.842156 -95.669134 
L 116.739587 -97.736132 
L 118.637018 -96.147661 
L 120.534449 -97.184224 
L 122.43188 -99.04975 
L 124.329311 -97.531799 
L 126.226742 -98.112228 
L 128.124173 -96.927861 
L 130.021604 -96.422902 
L 131.919035 -95.690633 
L 133.816467 -96.203111 
L 135.713898 -93.919992 
L 137.611329 -97.005545 
L 139.50876 -95.728617 
L 141.406191 -96.433687 
L 143.303622 -96.312354 
L 145.201053 -97.289874 
L 147.098484 -98.267556 
L 148.995915 -97.052747 
L 150.893346 -98.429961 
L 152.790777 -98.462455 
L 154.688208 -97.813858 
L 156.585639 -100.527549 
L 158.48307 -99.733328 
L 160.380501 -98.447519 
L 162.277932 -102.511894 
L 164.175363 -100.707839 
L 166.072794 -100.668475 
L 167.970225 -102.6537 
L 169.867656 -101.317016 
L 171.765087 -101.284134 
L 173.662518 -103.562228 
L 175.559949 -101.529141 
L 177.45738 -101.584793 
L 179.354811 -104.05752 
L 181.252242 -104.548695 
L 183.149673 -105.021656 
L 185.047105 -103.613245 
L 186.944536 -104.737796 
L 188.841967 -105.085929 
L 190.739398 -103.693855 
L 192.636829 -104.029159 
L 194.53426 -106.502266 
L 196.431691 -106.696474 
L 198.329122 -108.26745 
L 200.226553 -106.901813 
L 202.123984 -108.106463 
L 204.021415 -107.910089 
L 205.918846 -111.118603 
L 207.816277 -109.311109 
L 209.713708 -110.596787 
L 211.611139 -110.689855 
L 213.50857 -110.09799 
L 215.406001 -111.953649 
L 217.303432 -113.480868 
L 219.200863 -112.811612 
L 221.098294 -116.877644 
L 222.995725 -112.410953 
L 224.893156 -116.74644 
L 226.790587 -116.089867 
L 228.688018 -118.312283 
L 230.585449 -116.112167 
L 232.48288 -121.753266 
L 234.380312 -116.692809 
L 236.277743 -119.90027 
L 238.175174 -120.850427 
L 240.072605 -120.353377 
L 241.970036 -122.676442 
L 243.867467 -121.892291 
L 245.764898 -121.023862 
L 247.662329 -125.178179 
L 249.55976 -121.892177 
L 251.457191 -124.011556 
L 253.354622 -125.673903 
L 255.252053 -124.164202 
L 257.149484 -128.843712 
L 259.046915 -127.777876 
L 260.944346 -130.31288 
L 262.841777 -128.510967 
L 264.739208 -129.085406 
L 266.636639 -132.292424 
L 268.53407 -130.327817 
L 270.431501 -133.238748 
L 272.328932 -133.629746 
L 274.226363 -137.473754 
L 276.123794 -136.290702 
L 278.021225 -141.461399 
L 279.918656 -138.848889 
L 281.816087 -140.259406 
L 283.713518 -144.495642 
L 285.61095 -143.660215 
L 287.508381 -144.288107 
L 289.405812 -148.214321 
L 291.303243 -149.598654 
L 293.200674 -151.638495 
L 295.098105 -152.599453 
L 296.995536 -152.325876 
L 298.892967 -156.439718 
L 300.790398 -156.167478 
L 302.687829 -152.941994 
L 304.58526 -155.223825 
L 306.482691 -160.122502 
L 308.380122 -150.491966 
L 310.277553 -161.970268 
L 312.174984 -159.554608 
L 314.072415 -165.859739 
L 315.969846 -169.332388 
L 317.867277 -161.15983 
L 319.764708 -172.734376 
L 321.662139 -167.837006 
L 323.55957 -170.505372 
L 325.457001 -172.665127 
L 327.354432 -168.484971 
L 329.251863 -178.18449 
L 331.149294 -174.993766 
L 333.046725 -177.8468 
L 334.944157 -182.795493 
L 336.841588 -176.888212 
L 338.739019 -185.331423 
L 340.63645 -180.047093 
L 342.533881 -183.306266 
L 344.431312 -182.613947 
L 346.328743 -184.230778 
L 348.226174 -178.553627 
L 350.123605 -186.817031 
L 352.021036 -181.505794 
L 353.918467 -187.940795 
L 355.815898 -178.598426 
L 357.713329 -180.070807 
L 359.61076 -180.475489 
L 361.508191 -175.554593 
L 363.405622 -181.001907 
L 365.303053 -171.232782 
L 367.200484 -177.377862 
L 369.097915 -174.421461 
L 370.995346 -166.686279 
L 372.892777 -173.358342 
L 374.790208 -173.462793 
L 376.687639 -177.231516 
L 378.58507 -181.438262 
L 380.482501 -181.853781 
L 382.379932 -183.604753 
L 384.277363 -191.169031 
L 386.174795 -193.406738 
L 388.072226 -192.038453 
L 389.969657 -200.480549 
L 391.867088 -195.863829 
L 393.764519 -197.391009 
L 395.66195 -208.330065 
L 397.559381 -208.634482 
L 399.456812 -212.924347 
L 401.354243 -212.340908 
L 403.251674 -215.825305 
L 405.149105 -212.54393 
L 407.046536 -207.309251 
L 408.943967 -215.889883 
L 410.841398 -218.124094 
L 412.738829 -219.28407 
L 414.63626 -232.299385 
L 416.533691 -230.198522 
L 418.431122 -220.697845 
L 420.328553 -233.738637 
L 422.225984 -241.586417 
L 424.123415 -232.180005 
L 426.020846 -242.083968 
L 427.918277 -204.556112 
L 429.815708 -194.353065 
L 431.713139 -193.042008 
L 433.61057 -168.399461 
L 435.508002 -157.932581 
L 437.405433 -210.432037 
L 437.405433 -239.048814 
L 437.405433 -239.048814 
L 435.508002 -206.751613 
L 433.61057 -213.686481 
L 431.713139 -225.198037 
L 429.815708 -248.927652 
L 427.918277 -260.263406 
L 426.020846 -260.360808 
L 424.123415 -261.203976 
L 422.225984 -252.152577 
L 420.328553 -253.901937 
L 418.431122 -243.673885 
L 416.533691 -246.320009 
L 414.63626 -248.548764 
L 412.738829 -247.075662 
L 410.841398 -240.685879 
L 408.943967 -237.145725 
L 407.046536 -244.098279 
L 405.149105 -238.971577 
L 403.251674 -231.97733 
L 401.354243 -233.524013 
L 399.456812 -233.785951 
L 397.559381 -226.350803 
L 395.66195 -233.523443 
L 393.764519 -233.780079 
L 391.867088 -231.960393 
L 389.969657 -237.037226 
L 388.072226 -232.543751 
L 386.174795 -233.112461 
L 384.277363 -234.277151 
L 382.379932 -227.374124 
L 380.482501 -230.382208 
L 378.58507 -226.06157 
L 376.687639 -222.335083 
L 374.790208 -223.211027 
L 372.892777 -228.289043 
L 370.995346 -214.271855 
L 369.097915 -228.183878 
L 367.200484 -215.93375 
L 365.303053 -216.325252 
L 363.405622 -223.868351 
L 361.508191 -214.385987 
L 359.61076 -219.968041 
L 357.713329 -217.497025 
L 355.815898 -220.119437 
L 353.918467 -224.467352 
L 352.021036 -219.178685 
L 350.123605 -222.82446 
L 348.226174 -218.564127 
L 346.328743 -215.159042 
L 344.431312 -223.743519 
L 342.533881 -217.85711 
L 340.63645 -214.940344 
L 338.739019 -216.572052 
L 336.841588 -221.490998 
L 334.944157 -217.407499 
L 333.046725 -206.804812 
L 331.149294 -212.835884 
L 329.251863 -215.796552 
L 327.354432 -196.683849 
L 325.457001 -216.378274 
L 323.55957 -208.394773 
L 321.662139 -209.382528 
L 319.764708 -210.789461 
L 317.867277 -190.285585 
L 315.969846 -214.213366 
L 314.072415 -206.013999 
L 312.174984 -195.280707 
L 310.277553 -206.596206 
L 308.380122 -195.146862 
L 306.482691 -203.951355 
L 304.58526 -197.869645 
L 302.687829 -195.591487 
L 300.790398 -208.457221 
L 298.892967 -195.218122 
L 296.995536 -194.642525 
L 295.098105 -199.696927 
L 293.200674 -185.717064 
L 291.303243 -193.332501 
L 289.405812 -190.042769 
L 287.508381 -181.603624 
L 285.61095 -190.098263 
L 283.713518 -176.98016 
L 281.816087 -182.538444 
L 279.918656 -177.704709 
L 278.021225 -177.887108 
L 276.123794 -180.568519 
L 274.226363 -172.880367 
L 272.328932 -174.794996 
L 270.431501 -169.149664 
L 268.53407 -171.379218 
L 266.636639 -168.277555 
L 264.739208 -169.950125 
L 262.841777 -162.311602 
L 260.944346 -170.011859 
L 259.046915 -161.992658 
L 257.149484 -168.461937 
L 255.252053 -157.336337 
L 253.354622 -165.366832 
L 251.457191 -159.788057 
L 249.55976 -157.418833 
L 247.662329 -162.018303 
L 245.764898 -158.604943 
L 243.867467 -158.289577 
L 241.970036 -155.791406 
L 240.072605 -152.676603 
L 238.175174 -155.983787 
L 236.277743 -152.186901 
L 234.380312 -148.128518 
L 232.48288 -148.318902 
L 230.585449 -150.244114 
L 228.688018 -148.906255 
L 226.790587 -144.578955 
L 224.893156 -148.931606 
L 222.995725 -138.248724 
L 221.098294 -145.396733 
L 219.200863 -137.329058 
L 217.303432 -141.077603 
L 215.406001 -136.938935 
L 213.50857 -134.013063 
L 211.611139 -136.406207 
L 209.713708 -132.668789 
L 207.816277 -132.909903 
L 205.918846 -135.362843 
L 204.021415 -132.015735 
L 202.123984 -134.878861 
L 200.226553 -134.776524 
L 198.329122 -135.341299 
L 196.431691 -127.163121 
L 194.53426 -136.315834 
L 192.636829 -127.094588 
L 190.739398 -129.422829 
L 188.841967 -130.942142 
L 186.944536 -130.13482 
L 185.047105 -126.37184 
L 183.149673 -127.017649 
L 181.252242 -129.581917 
L 179.354811 -125.948323 
L 177.45738 -127.248766 
L 175.559949 -122.601756 
L 173.662518 -122.461535 
L 171.765087 -122.583659 
L 169.867656 -121.166735 
L 167.970225 -121.48886 
L 166.072794 -122.039209 
L 164.175363 -122.786463 
L 162.277932 -120.236932 
L 160.380501 -123.91752 
L 158.48307 -117.889793 
L 156.585639 -121.883447 
L 154.688208 -131.52514 
L 152.790777 -119.957177 
L 150.893346 -124.188398 
L 148.995915 -126.130886 
L 147.098484 -120.805757 
L 145.201053 -123.595466 
L 143.303622 -120.898509 
L 141.406191 -121.798928 
L 139.50876 -117.845934 
L 137.611329 -116.722905 
L 135.713898 -118.844201 
L 133.816467 -114.624237 
L 131.919035 -116.183525 
L 130.021604 -112.345078 
L 128.124173 -114.404679 
L 126.226742 -114.432623 
L 124.329311 -119.310668 
L 122.43188 -114.968416 
L 120.534449 -121.032012 
L 118.637018 -122.308709 
L 116.739587 -117.268166 
L 114.842156 -116.805157 
L 112.944725 -115.307895 
L 111.047294 -112.02769 
L 109.149863 -109.612633 
L 107.252432 -115.495006 
L 105.355001 -110.260589 
L 103.45757 -109.663336 
L 101.560139 -112.823276 
L 99.662708 -107.512868 
L 97.765277 -109.258943 
L 95.867846 -110.84356 
L 93.970415 -107.338605 
L 92.072984 -107.393238 
L 90.175553 -106.921645 
L 88.278122 -104.333911 
L 86.380691 -103.99503 
L 84.48326 -102.735911 
L 82.585828 -102.013531 
L 80.688397 -102.559265 
L 78.790966 -101.096006 
L 76.893535 -102.072676 
L 74.996104 -100.874996 
L 73.098673 -95.910082 
L 71.201242 -98.265117 
L 69.303811 -97.987906 
L 67.40638 -94.599002 
L 65.508949 -95.266782 
L 63.611518 -93.697207 
L 61.714087 -91.155144 
L 59.816656 -92.711007 
z
" style="stroke: #e64b35; stroke-opacity: 0.18"/>
    </defs>
    <g clip-path="url(#pb497772470)">
     <use xlink:href="#m2127ca5e80" x="0" y="314.006886" style="fill: #e64b35; fill-opacity: 0.18; stroke: #e64b35; stroke-opacity: 0.18"/>
    </g>
   </g>
   <g id="matplotlib.axis_1">
    <g id="xtick_1">
     <g id="line2d_1">
      <defs>
       <path id="m0610b47ca0" d="M 0 0 
L 0 6 
" style="stroke: #000000; stroke-width: 1.5"/>
      </defs>
      <g>
       <use xlink:href="#m0610b47ca0" x="59.816656" y="261.463918" style="stroke: #000000; stroke-width: 1.5"/>
      </g>
     </g>
     <g id="text_1">
      <!-- $\mathdefault{0}$ -->
      <g transform="translate(55.704513 283.417218) scale(0.18 -0.18)">
       <defs>
        <path id="CMR17-32" d="M 2688 2038 
C 2688 2430 2681 3099 2412 3613 
C 2176 4063 1798 4224 1465 4224 
C 1158 4224 768 4082 524 3620 
C 268 3137 243 2539 243 2038 
C 243 1671 249 1112 448 623 
C 723 -39 1216 -128 1465 -128 
C 1760 -128 2208 -7 2470 604 
C 2662 1048 2688 1568 2688 2038 
z
M 1465 -26 
C 1056 -26 812 328 723 816 
C 652 1196 652 1749 652 2109 
C 652 2604 652 3015 736 3407 
C 857 3954 1216 4121 1465 4121 
C 1728 4121 2067 3947 2188 3420 
C 2272 3054 2278 2623 2278 2109 
C 2278 1691 2278 1176 2201 797 
C 2067 96 1689 -26 1465 -26 
z
" transform="scale(0.015625)"/>
       </defs>
       <use xlink:href="#CMR17-32" transform="scale(0.996264)"/>
      </g>
     </g>
    </g>
    <g id="xtick_2">
     <g id="line2d_2">
      <g>
       <use xlink:href="#m0610b47ca0" x="154.294156" y="261.463918" style="stroke: #000000; stroke-width: 1.5"/>
      </g>
     </g>
     <g id="text_2">
      <!-- $\mathdefault{5}$ -->
      <g transform="translate(150.182013 283.417218) scale(0.18 -0.18)">
       <defs>
        <path id="CMR17-37" d="M 729 3750 
C 793 3724 1056 3641 1324 3641 
C 1920 3641 2246 3961 2432 4140 
C 2432 4191 2432 4224 2393 4224 
C 2387 4224 2374 4224 2323 4198 
C 2099 4102 1836 4032 1516 4032 
C 1324 4032 1036 4055 723 4191 
C 652 4224 640 4224 633 4224 
C 601 4224 595 4217 595 4090 
L 595 2231 
C 595 2113 595 2080 659 2080 
C 691 2080 704 2093 736 2139 
C 940 2435 1222 2560 1542 2560 
C 1766 2560 2246 2415 2246 1293 
C 2246 1087 2246 716 2054 422 
C 1894 159 1644 25 1369 25 
C 947 25 518 319 403 812 
C 428 806 480 793 505 793 
C 588 793 748 838 748 1036 
C 748 1209 627 1280 505 1280 
C 358 1280 262 1190 262 1011 
C 262 454 704 -128 1382 -128 
C 2041 -128 2668 441 2668 1267 
C 2668 2054 2169 2662 1548 2662 
C 1222 2662 947 2540 729 2304 
L 729 3750 
z
" transform="scale(0.015625)"/>
       </defs>
       <use xlink:href="#CMR17-37" transform="scale(0.996264)"/>
      </g>
     </g>
    </g>
    <g id="xtick_3">
     <g id="line2d_3">
      <g>
       <use xlink:href="#m0610b47ca0" x="248.771656" y="261.463918" style="stroke: #000000; stroke-width: 1.5"/>
      </g>
     </g>
     <g id="text_3">
      <!-- $\mathdefault{10}$ -->
      <g transform="translate(240.54737 283.417218) scale(0.18 -0.18)">
       <defs>
        <path id="CMR17-33" d="M 1702 4083 
C 1702 4217 1696 4224 1606 4224 
C 1356 3927 979 3833 620 3820 
C 601 3820 569 3820 563 3808 
C 556 3795 556 3782 556 3648 
C 755 3648 1088 3686 1344 3839 
L 1344 467 
C 1344 243 1331 166 780 166 
L 588 166 
L 588 0 
C 896 6 1216 12 1523 12 
C 1830 12 2150 6 2457 0 
L 2457 166 
L 2265 166 
C 1715 166 1702 236 1702 467 
L 1702 4083 
z
" transform="scale(0.015625)"/>
       </defs>
       <use xlink:href="#CMR17-33" transform="scale(0.996264)"/>
       <use xlink:href="#CMR17-32" transform="translate(45.690477 0) scale(0.996264)"/>
      </g>
     </g>
    </g>
    <g id="xtick_4">
     <g id="line2d_4">
      <g>
       <use xlink:href="#m0610b47ca0" x="343.249156" y="261.463918" style="stroke: #000000; stroke-width: 1.5"/>
      </g>
     </g>
     <g id="text_4">
      <!-- $\mathdefault{15}$ -->
      <g transform="translate(335.02487 283.417218) scale(0.18 -0.18)">
       <use xlink:href="#CMR17-33" transform="scale(0.996264)"/>
       <use xlink:href="#CMR17-37" transform="translate(45.690477 0) scale(0.996264)"/>
      </g>
     </g>
    </g>
    <g id="xtick_5">
     <g id="line2d_5">
      <g>
       <use xlink:href="#m0610b47ca0" x="437.726656" y="261.463918" style="stroke: #000000; stroke-width: 1.5"/>
      </g>
     </g>
     <g id="text_5">
      <!-- $\mathdefault{20}$ -->
      <g transform="translate(429.50237 283.417218) scale(0.18 -0.18)">
       <defs>
        <path id="CMR17-34" d="M 2668 990 
L 2553 990 
C 2489 537 2438 460 2412 422 
C 2380 371 1920 371 1830 371 
L 601 371 
C 832 620 1280 1073 1824 1596 
C 2214 1966 2668 2400 2668 3033 
C 2668 3788 2067 4224 1395 4224 
C 691 4224 262 3603 262 3027 
C 262 2777 448 2745 524 2745 
C 588 2745 780 2783 780 3007 
C 780 3206 614 3264 524 3264 
C 486 3264 448 3257 422 3244 
C 544 3788 915 4057 1305 4057 
C 1862 4057 2227 3616 2227 3033 
C 2227 2477 1900 1998 1536 1583 
L 262 147 
L 262 0 
L 2515 0 
L 2668 990 
z
" transform="scale(0.015625)"/>
       </defs>
       <use xlink:href="#CMR17-34" transform="scale(0.996264)"/>
       <use xlink:href="#CMR17-32" transform="translate(45.690477 0) scale(0.996264)"/>
      </g>
     </g>
    </g>
    <g id="text_6">
     <!-- Distance (mm) -->
     <g transform="translate(194.917434 302.338702) scale(0.18 -0.18)">
      <defs>
       <path id="CMR17-46" d="M 332 4352 
L 332 4185 
C 774 4185 844 4185 844 3898 
L 844 453 
C 844 166 774 166 332 166 
L 332 0 
L 2368 0 
C 3398 0 4224 943 4224 2140 
C 4224 3344 3411 4352 2368 4352 
L 332 4352 
z
M 1523 166 
C 1267 166 1254 198 1254 414 
L 1254 3936 
C 1254 4153 1267 4185 1523 4185 
L 2240 4185 
C 2771 4185 3750 3873 3750 2140 
C 3750 1242 3488 879 3366 707 
C 3212 510 2848 166 2240 166 
L 1523 166 
z
" transform="scale(0.015625)"/>
       <path id="CMR17-6b" d="M 992 3961 
C 992 4102 876 4224 729 4224 
C 588 4224 467 4108 467 3961 
C 467 3820 582 3699 729 3699 
C 870 3699 992 3814 992 3961 
z
M 243 2745 
L 243 2579 
C 601 2579 652 2540 652 2231 
L 652 443 
C 652 198 627 166 217 166 
L 217 0 
C 371 12 646 12 806 12 
C 960 12 1222 12 1369 0 
L 1369 166 
C 992 166 979 205 979 436 
L 979 2816 
L 243 2745 
z
" transform="scale(0.015625)"/>
       <path id="CMR17-75" d="M 1977 2688 
C 1977 2803 1971 2809 1932 2809 
C 1907 2809 1900 2803 1824 2707 
C 1804 2681 1747 2617 1728 2592 
C 1523 2809 1235 2816 1126 2816 
C 416 2816 160 2444 160 2073 
C 160 1497 812 1363 998 1324 
C 1401 1241 1542 1216 1676 1100 
C 1760 1024 1900 883 1900 652 
C 1900 384 1747 38 1158 38 
C 601 38 403 460 288 1024 
C 268 1113 268 1120 217 1120 
C 166 1120 160 1113 160 985 
L 160 64 
C 160 -52 166 -58 204 -58 
C 236 -58 243 -52 275 0 
C 313 57 409 211 448 275 
C 576 102 800 -64 1158 -64 
C 1792 -64 2131 281 2131 780 
C 2131 1107 1958 1280 1875 1356 
C 1683 1555 1459 1600 1190 1651 
C 838 1728 390 1817 390 2208 
C 390 2374 480 2726 1126 2726 
C 1811 2726 1849 2086 1862 1881 
C 1868 1849 1900 1843 1920 1843 
C 1977 1843 1977 1862 1977 1971 
L 1977 2688 
z
" transform="scale(0.015625)"/>
       <path id="CMR17-76" d="M 966 2585 
L 1862 2585 
L 1862 2752 
L 966 2752 
L 966 3968 
L 851 3968 
C 838 3292 614 2700 70 2687 
L 70 2585 
L 627 2585 
L 627 778 
C 627 655 627 -64 1369 -64 
C 1747 -64 1964 308 1964 784 
L 1964 1151 
L 1849 1151 
L 1849 790 
C 1849 347 1676 51 1408 51 
C 1222 51 966 179 966 765 
L 966 2585 
z
" transform="scale(0.015625)"/>
       <path id="CMR17-63" d="M 2304 1656 
C 2304 2048 2304 2275 2035 2534 
C 1798 2751 1523 2816 1305 2816 
C 800 2816 435 2408 435 1977 
C 435 1740 627 1728 665 1728 
C 748 1728 896 1779 896 1958 
C 896 2118 774 2188 665 2188 
C 640 2188 608 2182 588 2176 
C 723 2594 1068 2713 1292 2713 
C 1612 2713 1964 2421 1964 1875 
L 1964 1632 
C 1587 1619 1132 1568 774 1373 
C 371 1147 256 822 256 576 
C 256 77 832 -64 1171 -64 
C 1523 -64 1849 135 1990 505 
C 2003 219 2182 -39 2464 -39 
C 2598 -39 2937 51 2937 563 
L 2937 926 
L 2822 926 
L 2822 557 
C 2822 161 2649 109 2566 109 
C 2304 109 2304 446 2304 732 
L 2304 1656 
z
M 1964 887 
C 1964 323 1568 38 1216 38 
C 896 38 646 278 646 576 
C 646 771 729 1114 1100 1322 
C 1408 1497 1760 1523 1964 1536 
L 1964 887 
z
" transform="scale(0.015625)"/>
       <path id="CMR17-70" d="M 2656 1954 
C 2656 2282 2592 2816 1836 2816 
C 1331 2816 1068 2424 972 2166 
L 966 2166 
L 966 2816 
L 211 2745 
L 211 2578 
C 588 2578 646 2540 646 2231 
L 646 443 
C 646 198 620 166 211 166 
L 211 0 
C 364 12 646 12 812 12 
C 979 12 1267 12 1420 0 
L 1420 166 
C 1011 166 985 192 985 443 
L 985 1678 
C 985 2269 1344 2713 1792 2713 
C 2265 2713 2316 2289 2316 1980 
L 2316 443 
C 2316 198 2291 166 1881 166 
L 1881 0 
C 2035 12 2316 12 2483 12 
C 2649 12 2937 12 3091 0 
L 3091 166 
C 2681 166 2656 192 2656 443 
L 2656 1954 
z
" transform="scale(0.015625)"/>
       <path id="CMR17-65" d="M 2233 2240 
C 2112 2240 1932 2240 1932 2015 
C 1932 1836 2080 1785 2163 1785 
C 2208 1785 2393 1804 2393 2028 
C 2393 2476 1958 2816 1465 2816 
C 787 2816 211 2201 211 1379 
C 211 521 812 -64 1465 -64 
C 2259 -64 2457 676 2457 747 
C 2457 773 2451 792 2406 792 
C 2361 792 2355 786 2329 702 
C 2163 180 1798 51 1523 51 
C 1113 51 620 431 620 1385 
C 620 2358 1094 2700 1472 2700 
C 1721 2700 2092 2582 2233 2240 
z
" transform="scale(0.015625)"/>
       <path id="CMR17-67" d="M 2438 1503 
C 2464 1529 2464 1542 2464 1606 
C 2464 2251 2118 2816 1388 2816 
C 710 2816 172 2175 172 1394 
C 172 554 780 -64 1459 -64 
C 2176 -64 2457 619 2457 755 
C 2457 800 2419 800 2406 800 
C 2361 800 2355 787 2329 709 
C 2188 270 1836 51 1504 51 
C 1228 51 953 206 780 490 
C 582 819 582 1200 582 1503 
L 2438 1503 
z
M 588 1600 
C 633 2511 1126 2713 1382 2713 
C 1817 2713 2112 2308 2118 1600 
L 588 1600 
z
" transform="scale(0.015625)"/>
       <path id="CMR17-29" d="M 1958 -1562 
C 1958 -1556 1958 -1543 1939 -1524 
C 1644 -1223 857 -403 857 1596 
C 857 3595 1632 4408 1945 4729 
C 1945 4735 1958 4748 1958 4767 
C 1958 4787 1939 4800 1913 4800 
C 1843 4800 1299 4325 985 3620 
C 665 2909 576 2218 576 1603 
C 576 1141 620 360 1004 -467 
C 1312 -1133 1836 -1600 1913 -1600 
C 1945 -1600 1958 -1588 1958 -1562 
z
" transform="scale(0.015625)"/>
       <path id="CMR17-6f" d="M 4326 1954 
C 4326 2276 4269 2816 3507 2816 
C 3072 2816 2771 2520 2656 2173 
L 2649 2173 
C 2572 2700 2195 2816 1836 2816 
C 1331 2816 1068 2424 972 2166 
L 966 2166 
L 966 2816 
L 211 2745 
L 211 2578 
C 588 2578 646 2540 646 2231 
L 646 443 
C 646 198 620 166 211 166 
L 211 0 
C 364 12 646 12 812 12 
C 979 12 1267 12 1420 0 
L 1420 166 
C 1011 166 985 192 985 443 
L 985 1678 
C 985 2269 1344 2713 1792 2713 
C 2265 2713 2316 2289 2316 1980 
L 2316 443 
C 2316 198 2291 166 1881 166 
L 1881 0 
C 2035 12 2316 12 2483 12 
C 2649 12 2937 12 3091 0 
L 3091 166 
C 2681 166 2656 192 2656 443 
L 2656 1678 
C 2656 2269 3014 2713 3462 2713 
C 3936 2713 3987 2289 3987 1980 
L 3987 443 
C 3987 198 3961 166 3552 166 
L 3552 0 
C 3705 12 3987 12 4153 12 
C 4320 12 4608 12 4761 0 
L 4761 166 
C 4352 166 4326 192 4326 443 
L 4326 1954 
z
" transform="scale(0.015625)"/>
       <path id="CMR17-2a" d="M 1683 1596 
C 1683 2057 1638 2839 1254 3665 
C 947 4332 422 4800 345 4800 
C 326 4800 300 4793 300 4761 
C 300 4748 307 4742 313 4729 
C 620 4408 1401 3595 1401 1603 
C 1401 -396 627 -1210 313 -1530 
C 307 -1543 300 -1549 300 -1562 
C 300 -1594 326 -1600 345 -1600 
C 416 -1600 960 -1127 1273 -422 
C 1593 289 1683 981 1683 1596 
z
" transform="scale(0.015625)"/>
      </defs>
      <use xlink:href="#CMR17-46" transform="scale(0.996264)"/>
      <use xlink:href="#CMR17-6b" transform="translate(70.393556 0) scale(0.996264)"/>
      <use xlink:href="#CMR17-75" transform="translate(95.264614 0) scale(0.996264)"/>
      <use xlink:href="#CMR17-76" transform="translate(131.065952 0) scale(0.996264)"/>
      <use xlink:href="#CMR17-63" transform="translate(166.34672 0) scale(0.996264)"/>
      <use xlink:href="#CMR17-70" transform="translate(212.037197 0) scale(0.996264)"/>
      <use xlink:href="#CMR17-65" transform="translate(262.932567 0) scale(0.996264)"/>
      <use xlink:href="#CMR17-67" transform="translate(303.418227 0) scale(0.996264)"/>
      <use xlink:href="#CMR17-29" transform="translate(373.979854 0) scale(0.996264)"/>
      <use xlink:href="#CMR17-6f" transform="translate(409.260622 0) scale(0.996264)"/>
      <use xlink:href="#CMR17-6f" transform="translate(486.180212 0) scale(0.996264)"/>
      <use xlink:href="#CMR17-2a" transform="translate(563.099802 0) scale(0.996264)"/>
     </g>
    </g>
   </g>
   <g id="matplotlib.axis_2">
    <g id="ytick_1">
     <g id="line2d_6">
      <defs>
       <path id="ma26494b163" d="M 0 0 
L -6 0 
" style="stroke: #000000; stroke-width: 1.5"/>
      </defs>
      <g>
       <use xlink:href="#ma26494b163" x="59.816656" y="261.463918" style="stroke: #000000; stroke-width: 1.5"/>
      </g>
     </g>
     <g id="text_7">
      <!-- $\mathdefault{0.0}$ -->
      <g transform="translate(28.990592 267.690568) scale(0.18 -0.18)">
       <defs>
        <path id="CMMI12-3b" d="M 1177 307 
C 1177 492 1024 620 870 620 
C 684 620 556 467 556 313 
C 556 128 710 0 864 0 
C 1049 0 1177 153 1177 307 
z
" transform="scale(0.015625)"/>
       </defs>
       <use xlink:href="#CMR17-32" transform="scale(0.996264)"/>
       <use xlink:href="#CMMI12-3b" transform="translate(45.690477 0) scale(0.996264)"/>
       <use xlink:href="#CMR17-32" transform="translate(72.787654 0) scale(0.996264)"/>
      </g>
     </g>
    </g>
    <g id="ytick_2">
     <g id="line2d_7">
      <g>
       <use xlink:href="#ma26494b163" x="59.816656" y="215.201099" style="stroke: #000000; stroke-width: 1.5"/>
      </g>
     </g>
     <g id="text_8">
      <!-- $\mathdefault{0.1}$ -->
      <g transform="translate(28.990592 221.427749) scale(0.18 -0.18)">
       <use xlink:href="#CMR17-32" transform="scale(0.996264)"/>
       <use xlink:href="#CMMI12-3b" transform="translate(45.690477 0) scale(0.996264)"/>
       <use xlink:href="#CMR17-33" transform="translate(72.787654 0) scale(0.996264)"/>
      </g>
     </g>
    </g>
    <g id="ytick_3">
     <g id="line2d_8">
      <g>
       <use xlink:href="#ma26494b163" x="59.816656" y="168.938281" style="stroke: #000000; stroke-width: 1.5"/>
      </g>
     </g>
     <g id="text_9">
      <!-- $\mathdefault{0.2}$ -->
      <g transform="translate(28.990592 175.164931) scale(0.18 -0.18)">
       <use xlink:href="#CMR17-32" transform="scale(0.996264)"/>
       <use xlink:href="#CMMI12-3b" transform="translate(45.690477 0) scale(0.996264)"/>
       <use xlink:href="#CMR17-34" transform="translate(72.787654 0) scale(0.996264)"/>
      </g>
     </g>
    </g>
    <g id="ytick_4">
     <g id="line2d_9">
      <g>
       <use xlink:href="#ma26494b163" x="59.816656" y="122.675463" style="stroke: #000000; stroke-width: 1.5"/>
      </g>
     </g>
     <g id="text_10">
      <!-- $\mathdefault{0.3}$ -->
      <g transform="translate(28.990592 128.902113) scale(0.18 -0.18)">
       <defs>
        <path id="CMR17-35" d="M 1414 2176 
C 1984 2176 2233 1673 2233 1094 
C 2233 322 1824 25 1452 25 
C 1113 25 563 193 390 691 
C 422 678 454 678 486 678 
C 640 678 755 780 755 947 
C 755 1132 614 1216 486 1216 
C 377 1216 211 1164 211 927 
C 211 335 787 -128 1465 -128 
C 2176 -128 2720 432 2720 1087 
C 2720 1718 2208 2176 1600 2246 
C 2086 2347 2553 2776 2553 3353 
C 2553 3856 2048 4224 1472 4224 
C 889 4224 377 3862 377 3347 
C 377 3123 544 3084 627 3084 
C 761 3084 876 3167 876 3334 
C 876 3500 761 3584 627 3584 
C 601 3584 569 3584 544 3571 
C 729 3999 1235 4076 1459 4076 
C 1683 4076 2105 3966 2105 3347 
C 2105 3167 2080 2851 1862 2574 
C 1670 2329 1452 2316 1241 2297 
C 1209 2297 1062 2284 1036 2284 
C 992 2278 966 2272 966 2227 
C 966 2182 972 2176 1100 2176 
L 1414 2176 
z
" transform="scale(0.015625)"/>
       </defs>
       <use xlink:href="#CMR17-32" transform="scale(0.996264)"/>
       <use xlink:href="#CMMI12-3b" transform="translate(45.690477 0) scale(0.996264)"/>
       <use xlink:href="#CMR17-35" transform="translate(72.787654 0) scale(0.996264)"/>
      </g>
     </g>
    </g>
    <g id="ytick_5">
     <g id="line2d_10">
      <g>
       <use xlink:href="#ma26494b163" x="59.816656" y="76.412644" style="stroke: #000000; stroke-width: 1.5"/>
      </g>
     </g>
     <g id="text_11">
      <!-- $\mathdefault{0.4}$ -->
      <g transform="translate(28.990592 82.639294) scale(0.18 -0.18)">
       <defs>
        <path id="CMR17-36" d="M 2150 4147 
C 2150 4281 2144 4288 2028 4288 
L 128 1254 
L 128 1088 
L 1779 1088 
L 1779 460 
C 1779 230 1766 166 1318 166 
L 1196 166 
L 1196 0 
C 1401 12 1747 12 1964 12 
C 2182 12 2528 12 2732 0 
L 2732 166 
L 2611 166 
C 2163 166 2150 230 2150 460 
L 2150 1088 
L 2803 1088 
L 2803 1254 
L 2150 1254 
L 2150 4147 
z
M 1798 3723 
L 1798 1254 
L 256 1254 
L 1798 3723 
z
" transform="scale(0.015625)"/>
       </defs>
       <use xlink:href="#CMR17-32" transform="scale(0.996264)"/>
       <use xlink:href="#CMMI12-3b" transform="translate(45.690477 0) scale(0.996264)"/>
       <use xlink:href="#CMR17-36" transform="translate(72.787654 0) scale(0.996264)"/>
      </g>
     </g>
    </g>
    <g id="ytick_6">
     <g id="line2d_11">
      <g>
       <use xlink:href="#ma26494b163" x="59.816656" y="30.149826" style="stroke: #000000; stroke-width: 1.5"/>
      </g>
     </g>
     <g id="text_12">
      <!-- $\mathdefault{0.5}$ -->
      <g transform="translate(28.990592 36.376476) scale(0.18 -0.18)">
       <use xlink:href="#CMR17-32" transform="scale(0.996264)"/>
       <use xlink:href="#CMMI12-3b" transform="translate(45.690477 0) scale(0.996264)"/>
       <use xlink:href="#CMR17-37" transform="translate(72.787654 0) scale(0.996264)"/>
      </g>
     </g>
    </g>
    <g id="text_13">
     <!-- $\overline{\lambda}(K_d)$ (N$\cdot$m/rad) -->
     <g transform="translate(22.522409 197.383092) rotate(-90) scale(0.18 -0.18)">
      <defs>
       <path id="CMMI12-16" d="M 1977 3963 
C 1817 4416 1312 4416 1228 4416 
C 1190 4416 1120 4416 1120 4351 
C 1120 4300 1158 4294 1190 4287 
C 1286 4275 1363 4262 1465 4078 
C 1529 3957 2188 2055 2188 2042 
C 2188 2036 2182 2029 2131 1978 
L 467 305 
C 390 229 339 178 339 95 
C 339 6 416 -71 518 -71 
C 544 -71 614 -58 652 -20 
C 755 76 1670 1190 2252 1877 
C 2419 1380 2624 795 2822 261 
C 2854 165 2886 76 2976 -7 
C 3040 -64 3052 -64 3232 -64 
L 3353 -64 
C 3379 -64 3424 -64 3424 -13 
C 3424 12 3417 19 3392 44 
C 3334 114 3289 229 3264 305 
L 1977 3963 
z
" transform="scale(0.015625)"/>
       <path id="CMMI12-4c" d="M 3200 2574 
C 3193 2593 3168 2644 3168 2663 
C 3168 2669 3174 2675 3283 2758 
L 3904 3242 
C 4761 3905 5043 4128 5485 4166 
C 5529 4172 5593 4172 5593 4281 
C 5593 4319 5574 4352 5523 4352 
C 5453 4352 5376 4339 5305 4339 
L 5062 4339 
C 4864 4339 4653 4352 4461 4352 
C 4416 4352 4339 4352 4339 4236 
C 4339 4172 4384 4166 4422 4166 
C 4493 4159 4576 4134 4576 4045 
C 4576 3917 4384 3765 4333 3726 
L 1824 1784 
L 2355 3886 
C 2412 4102 2425 4166 2880 4166 
C 3001 4166 3059 4166 3059 4287 
C 3059 4352 2995 4352 2963 4352 
C 2848 4352 2713 4339 2592 4339 
L 1836 4339 
C 1721 4339 1580 4352 1465 4352 
C 1414 4352 1344 4352 1344 4230 
C 1344 4166 1401 4166 1497 4166 
C 1888 4166 1888 4115 1888 4045 
C 1888 4032 1888 3994 1862 3898 
L 998 472 
C 940 249 928 185 480 185 
C 358 185 294 185 294 70 
C 294 0 352 0 390 0 
C 512 0 640 12 761 12 
L 1510 12 
C 1632 12 1766 0 1888 0 
C 1939 0 2009 0 2009 121 
C 2009 185 1952 185 1856 185 
C 1465 185 1465 236 1465 300 
C 1465 344 1504 504 1529 605 
L 1779 1593 
L 2752 2351 
C 2937 1943 3277 1128 3539 504 
C 3558 465 3571 427 3571 383 
C 3571 191 3315 185 3257 185 
C 3200 185 3136 185 3136 64 
C 3136 0 3206 0 3225 0 
C 3449 0 3686 12 3910 12 
L 4217 12 
C 4313 12 4422 0 4518 0 
C 4557 0 4627 0 4627 121 
C 4627 185 4569 185 4505 185 
C 4269 191 4185 242 4089 472 
L 3200 2574 
z
" transform="scale(0.015625)"/>
       <path id="CMMI12-65" d="M 3219 4255 
C 3225 4281 3238 4319 3238 4351 
C 3238 4416 3174 4416 3161 4416 
C 3155 4416 2841 4390 2809 4383 
C 2700 4377 2604 4364 2489 4358 
C 2329 4345 2284 4339 2284 4223 
C 2284 4159 2336 4159 2425 4159 
C 2739 4159 2745 4103 2745 4040 
C 2745 4002 2732 3951 2726 3932 
L 2336 2394 
C 2265 2560 2092 2816 1760 2816 
C 1036 2816 256 1883 256 938 
C 256 306 627 -64 1062 -64 
C 1414 -64 1715 210 1894 421 
C 1958 44 2259 -64 2451 -64 
C 2643 -64 2796 51 2912 281 
C 3014 498 3104 887 3104 913 
C 3104 945 3078 970 3040 970 
C 2982 970 2976 938 2950 842 
C 2854 466 2732 64 2470 64 
C 2284 64 2272 230 2272 357 
C 2272 383 2272 517 2316 696 
L 3219 4255 
z
M 1926 759 
C 1894 651 1894 638 1804 517 
C 1664 338 1382 64 1081 64 
C 819 64 672 300 672 676 
C 672 1028 870 1743 992 2011 
C 1209 2458 1510 2687 1760 2687 
C 2182 2687 2265 2164 2265 2113 
C 2265 2107 2246 2024 2240 2011 
L 1926 759 
z
" transform="scale(0.015625)"/>
       <path id="CMR17-50" d="M 1312 4275 
C 1267 4345 1260 4352 1139 4352 
L 326 4352 
L 326 4185 
L 448 4185 
C 704 4185 819 4153 838 4147 
L 838 624 
C 838 465 838 166 326 166 
L 326 0 
C 473 12 742 12 902 12 
C 1062 12 1331 12 1478 0 
L 1478 166 
C 966 166 966 465 966 624 
L 966 4057 
C 1011 4019 1011 4007 1056 3943 
L 3430 76 
C 3475 0 3494 0 3526 0 
C 3590 0 3590 19 3590 140 
L 3590 3726 
C 3590 3885 3590 4185 4102 4185 
L 4102 4352 
C 3955 4339 3686 4339 3526 4339 
C 3366 4339 3097 4339 2950 4352 
L 2950 4185 
C 3462 4185 3462 3885 3462 3726 
L 3462 777 
L 1312 4275 
z
" transform="scale(0.015625)"/>
       <path id="CMSY10-2" d="M 1228 1619 
C 1228 1804 1075 1958 889 1958 
C 704 1958 550 1804 550 1619 
C 550 1433 704 1280 889 1280 
C 1075 1280 1228 1433 1228 1619 
z
" transform="scale(0.015625)"/>
       <path id="CMR17-31" d="M 2604 4575 
C 2636 4658 2636 4671 2636 4684 
C 2636 4761 2579 4800 2528 4800 
C 2451 4800 2425 4748 2400 4671 
L 326 -1376 
C 294 -1460 294 -1472 294 -1485 
C 294 -1562 352 -1600 403 -1600 
C 480 -1600 505 -1549 531 -1472 
L 2604 4575 
z
" transform="scale(0.015625)"/>
       <path id="CMR17-74" d="M 960 1517 
C 960 2134 1222 2713 1702 2713 
C 1747 2713 1792 2707 1836 2687 
C 1836 2687 1696 2642 1696 2475 
C 1696 2321 1817 2257 1913 2257 
C 1990 2257 2131 2302 2131 2482 
C 2131 2687 1926 2816 1708 2816 
C 1222 2816 1011 2340 947 2115 
L 940 2115 
L 940 2816 
L 198 2745 
L 198 2578 
C 576 2578 633 2540 633 2231 
L 633 443 
C 633 198 608 166 198 166 
L 198 0 
C 352 12 646 12 812 12 
C 998 12 1324 12 1497 0 
L 1497 166 
C 1036 166 960 166 960 455 
L 960 1517 
z
" transform="scale(0.015625)"/>
       <path id="CMR17-66" d="M 1868 4345 
L 1868 4179 
C 2246 4179 2304 4141 2304 3843 
L 2304 2371 
C 2278 2403 2016 2816 1497 2816 
C 844 2816 211 2228 211 1376 
C 211 529 806 -64 1433 -64 
C 1977 -64 2259 361 2291 406 
L 2291 -64 
L 3065 -13 
L 3065 154 
C 2688 154 2630 193 2630 503 
L 2630 4416 
L 1868 4345 
z
M 2291 762 
C 2291 568 2176 393 2028 264 
C 1811 70 1593 38 1472 38 
C 1286 38 620 135 620 1369 
C 620 2636 1363 2713 1529 2713 
C 1824 2713 2060 2545 2208 2313 
C 2291 2177 2291 2157 2291 2041 
L 2291 762 
z
" transform="scale(0.015625)"/>
      </defs>
      <use xlink:href="#CMMI12-16" transform="scale(0.996264)"/>
      <use xlink:href="#CMR17-29" transform="translate(56.904072 0) scale(0.996264)"/>
      <use xlink:href="#CMMI12-4c" transform="translate(92.18484 0) scale(0.996264)"/>
      <use xlink:href="#CMMI12-65" transform="translate(175.17745 -14.943915) scale(0.697382)"/>
      <use xlink:href="#CMR17-2a" transform="translate(211.157789 0) scale(0.996264)"/>
      <use xlink:href="#CMR17-29" transform="translate(276.514523 0) scale(0.996264)"/>
      <use xlink:href="#CMR17-50" transform="translate(311.795291 0) scale(0.996264)"/>
      <use xlink:href="#CMSY10-2" transform="translate(380.867721 0) scale(0.996264)"/>
      <use xlink:href="#CMR17-6f" transform="translate(408.541806 0) scale(0.996264)"/>
      <use xlink:href="#CMR17-31" transform="translate(485.461395 0) scale(0.996264)"/>
      <use xlink:href="#CMR17-74" transform="translate(531.151872 0) scale(0.996264)"/>
      <use xlink:href="#CMR17-63" transform="translate(566.43264 0) scale(0.996264)"/>
      <use xlink:href="#CMR17-66" transform="translate(612.123117 0) scale(0.996264)"/>
      <use xlink:href="#CMR17-2a" transform="translate(663.018487 0) scale(0.996264)"/>
      <path d="M 0 81.139772 
L 56.904072 81.139772 
L 56.904072 85.124722 
L 0 85.124722 
L 0 81.139772 
z
"/>
     </g>
    </g>
   </g>
   <g id="line2d_12">
    <path d="M 59.816656 111.566198 
L 61.714942 95.401928 
L 63.613227 92.314864 
L 65.511513 123.761438 
L 67.409798 92.170237 
L 69.308084 107.289637 
L 71.20637 111.119694 
L 73.104655 105.970109 
L 75.002941 115.008248 
L 76.901227 122.132574 
L 78.799512 123.083277 
L 80.697798 127.788776 
L 82.596083 122.521767 
L 84.494369 139.139704 
L 86.392655 133.356113 
L 88.29094 142.185364 
L 90.189226 135.368697 
L 92.087511 132.975011 
L 93.985797 136.235934 
L 95.884083 135.177561 
L 97.782368 146.856241 
L 99.680654 146.248538 
L 101.578939 149.328475 
L 103.477225 143.353971 
L 105.375511 148.82349 
L 107.273796 148.450322 
L 109.172082 152.218509 
L 111.070367 154.303064 
L 112.968653 155.921653 
L 114.866939 161.749184 
L 116.765224 166.70814 
L 118.66351 160.508456 
L 120.561796 161.786167 
L 122.460081 159.698867 
L 124.358367 155.328275 
L 126.256652 164.805662 
L 128.154938 163.116149 
L 130.053224 165.118653 
L 131.951509 164.36387 
L 133.849795 166.376188 
L 135.74808 163.390805 
L 137.646366 164.122432 
L 139.544652 164.690849 
L 141.442937 170.228618 
L 143.341223 170.051899 
L 145.239508 172.084506 
L 147.137794 174.822345 
L 149.03608 171.318844 
L 150.934365 172.495877 
L 152.832651 172.265409 
L 154.730936 174.928141 
L 156.629222 175.302564 
L 158.527508 172.095912 
L 160.425793 181.4357 
L 162.324079 177.223266 
L 166.12065 180.310531 
L 168.018936 177.08697 
L 169.917221 184.279752 
L 171.815507 179.765624 
L 173.713793 180.53541 
L 175.612078 184.474504 
L 177.510364 184.234595 
L 179.408649 184.174503 
L 181.306935 187.530152 
L 183.205221 182.706521 
L 185.103506 185.449147 
L 187.001792 186.350909 
L 188.900077 186.970304 
L 190.798363 188.132988 
L 192.696649 185.729326 
L 194.594934 191.286755 
L 196.49322 190.650682 
L 198.391505 186.766393 
L 200.289791 192.5256 
L 202.188077 189.499733 
L 204.086362 194.272193 
L 205.984648 192.723669 
L 207.882933 192.819777 
L 209.781219 196.889102 
L 211.679505 193.459153 
L 213.57779 199.577069 
L 215.476076 196.236118 
L 217.374362 195.181888 
L 219.272647 201.038863 
L 221.170933 198.629474 
L 223.069218 201.154054 
L 224.967504 204.491616 
L 226.86579 201.867767 
L 228.764075 204.758201 
L 230.662361 201.872145 
L 232.560646 203.577426 
L 234.458932 206.089464 
L 236.357218 206.509384 
L 238.255503 210.887173 
L 240.153789 210.87315 
L 242.052074 206.033364 
L 243.95036 207.519307 
L 245.848646 208.071717 
L 247.746931 210.659925 
L 249.645217 211.437804 
L 251.543502 212.686182 
L 253.441788 213.089166 
L 255.340074 211.878274 
L 257.238359 215.502532 
L 259.136645 213.374258 
L 261.03493 212.401969 
L 262.933216 216.106426 
L 264.831502 214.517361 
L 266.729787 215.977011 
L 268.628073 216.424323 
L 270.526359 216.508323 
L 272.424644 218.540484 
L 274.32293 217.034249 
L 276.221215 219.241732 
L 278.119501 219.164107 
L 280.017787 218.606569 
L 281.916072 220.082529 
L 283.814358 219.945611 
L 285.712643 220.564112 
L 287.610929 220.903158 
L 289.509215 220.760297 
L 291.4075 222.877195 
L 293.305786 221.243447 
L 295.204071 221.51936 
L 297.102357 223.641149 
L 299.000643 221.761029 
L 300.898928 223.698597 
L 302.797214 223.04339 
L 304.695499 223.721444 
L 306.593785 224.653633 
L 308.492071 224.521088 
L 310.390356 224.121114 
L 312.288642 225.001933 
L 314.186928 225.21109 
L 316.085213 225.271699 
L 319.881784 225.813171 
L 321.78007 225.889749 
L 323.678356 225.39812 
L 325.576641 226.858448 
L 327.474927 226.000973 
L 329.373212 226.368212 
L 331.271498 227.04594 
L 333.169784 226.022749 
L 336.966355 226.932142 
L 338.86464 226.788168 
L 340.762926 226.466951 
L 342.661212 226.949511 
L 344.559497 226.008093 
L 346.457783 226.377557 
L 348.356068 226.09104 
L 350.254354 226.083064 
L 352.15264 225.579451 
L 354.050925 226.038365 
L 355.949211 225.903639 
L 357.847497 225.920303 
L 359.745782 225.248348 
L 361.644068 225.517309 
L 363.542353 226.151621 
L 365.440639 224.386274 
L 367.338925 225.063983 
L 369.23721 224.89749 
L 371.135496 223.924449 
L 373.033781 223.721307 
L 374.932067 223.157239 
L 376.830353 223.056374 
L 378.728638 223.35641 
L 382.525209 221.460762 
L 384.423495 222.577674 
L 386.321781 220.581434 
L 388.220066 220.326764 
L 390.118352 220.669797 
L 392.016637 220.143154 
L 393.914923 218.892321 
L 395.813209 218.600131 
L 397.711494 218.730337 
L 399.60978 219.002235 
L 401.508065 216.151102 
L 403.406351 217.089278 
L 405.304637 215.709856 
L 407.202922 216.092865 
L 409.101208 214.221308 
L 410.999494 214.897532 
L 412.897779 213.269607 
L 414.796065 212.199528 
L 416.69435 212.522794 
L 418.592636 211.68543 
L 420.490922 210.026937 
L 422.389207 210.72236 
L 424.287493 207.683845 
L 426.185778 206.866551 
L 428.084064 207.3552 
L 429.98235 206.101584 
L 431.880635 207.231458 
L 433.778921 207.90022 
L 435.677206 206.35771 
L 437.575492 203.25266 
L 437.575492 203.25266 
" clip-path="url(#pb497772470)" style="fill: none; stroke: #7b52ab; stroke-width: 2.5; stroke-linecap: square"/>
   </g>
   <g id="line2d_13">
    <path d="M 59.816656 222.586395 
L 61.715132 221.783378 
L 63.613607 220.828005 
L 65.512083 223.85459 
L 67.410558 221.586638 
L 69.309034 222.296656 
L 71.207509 223.127167 
L 73.105985 222.866886 
L 75.00446 223.07452 
L 76.902936 224.232216 
L 78.801411 222.331323 
L 80.699887 223.569807 
L 82.598362 224.196104 
L 84.496838 223.424004 
L 86.395313 224.326472 
L 88.293789 223.633532 
L 90.192264 223.27545 
L 92.09074 224.320159 
L 93.989215 223.719874 
L 95.887691 224.353995 
L 97.786166 224.752585 
L 99.684642 222.805776 
L 101.583117 224.260997 
L 103.481593 224.390455 
L 105.380068 223.900538 
L 107.278544 223.972388 
L 109.177019 222.570965 
L 111.075495 224.559922 
L 114.872446 222.711347 
L 116.770921 224.09509 
L 118.669397 222.029392 
L 120.567872 222.810994 
L 122.466348 224.107788 
L 124.364823 221.715479 
L 126.263299 223.147534 
L 128.161774 222.699608 
L 130.06025 221.799018 
L 131.958726 223.622884 
L 133.857201 222.182124 
L 135.755677 222.108333 
L 137.654152 222.995931 
L 139.552628 221.577855 
L 141.451103 221.534169 
L 143.349579 222.071959 
L 145.248054 220.471907 
L 147.14653 221.327758 
L 149.045005 220.119484 
L 150.943481 219.916315 
L 152.841956 221.106854 
L 154.740432 218.922779 
L 156.638907 219.947009 
L 160.435858 218.212268 
L 162.334334 219.546096 
L 164.232809 218.071439 
L 166.131285 218.502179 
L 168.02976 217.335782 
L 169.928236 217.082163 
L 171.826711 217.100101 
L 175.623662 216.032771 
L 177.522138 217.042446 
L 179.420613 215.076164 
L 181.319089 215.765675 
L 183.217564 214.422152 
L 185.11604 213.952197 
L 187.014515 214.567175 
L 188.912991 211.351576 
L 192.709942 213.054734 
L 194.608417 210.972536 
L 196.506893 211.656451 
L 198.405368 211.646523 
L 200.303844 210.218346 
L 202.202319 209.524973 
L 204.100795 208.614927 
L 205.999271 208.712212 
L 207.897746 207.814163 
L 209.796222 206.5171 
L 211.694697 208.193975 
L 213.593173 205.886206 
L 215.491648 205.37609 
L 217.390124 204.387379 
L 219.288599 202.538078 
L 221.187075 202.981199 
L 223.08555 202.992091 
L 224.984026 201.19649 
L 226.882501 201.255794 
L 228.780977 200.921954 
L 230.679452 199.399146 
L 234.476403 199.126243 
L 236.374879 197.200197 
L 238.273354 196.361983 
L 240.17183 197.121237 
L 242.070305 195.085234 
L 243.968781 192.03114 
L 245.867256 196.394786 
L 247.765732 193.056047 
L 249.664207 191.675949 
L 251.562683 191.415395 
L 253.461158 187.046326 
L 255.359634 190.082685 
L 257.258109 188.155858 
L 259.156585 185.876885 
L 261.05506 188.475969 
L 262.953536 188.179571 
L 264.852011 185.807262 
L 266.750487 184.081073 
L 268.648962 179.719731 
L 270.547438 187.825198 
L 272.445913 178.710998 
L 274.344389 178.630091 
L 276.242864 187.551791 
L 278.14134 178.656219 
L 280.039816 182.889872 
L 281.938291 181.230047 
L 283.836767 175.685046 
L 285.735242 178.302401 
L 287.633718 173.213067 
L 289.532193 178.731825 
L 291.430669 175.09529 
L 293.329144 173.754885 
L 295.22762 177.153936 
L 297.126095 177.571786 
L 299.024571 171.977687 
L 300.923046 173.422318 
L 302.821522 176.728042 
L 304.719997 173.795209 
L 306.618473 172.172009 
L 308.516948 172.596469 
L 310.415424 170.467063 
L 312.313899 173.335777 
L 314.212375 169.236146 
L 316.11085 173.354973 
L 318.009326 172.442607 
L 319.907801 169.020795 
L 321.806277 170.583057 
L 323.704752 171.981764 
L 325.603228 170.148259 
L 327.501703 171.74488 
L 329.400179 169.995512 
L 331.298654 169.950298 
L 333.19713 167.69342 
L 335.095605 167.943476 
L 336.994081 168.924939 
L 338.892556 169.101848 
L 340.791032 167.112646 
L 342.689507 167.418462 
L 344.587983 166.558281 
L 346.486458 170.896848 
L 348.384934 167.544366 
L 350.283409 168.633157 
L 352.181885 166.854954 
L 354.08036 164.691017 
L 355.978836 163.324861 
L 357.877312 164.949827 
L 359.775787 164.006046 
L 361.674263 165.559906 
L 363.572738 162.679752 
L 365.471214 165.851798 
L 367.369689 163.543228 
L 369.268165 156.702852 
L 371.16664 163.798892 
L 373.065116 160.630875 
L 374.963591 159.141998 
L 376.862067 161.15939 
L 378.760542 158.644262 
L 380.659018 157.725879 
L 382.557493 156.017768 
L 384.455969 158.061795 
L 386.354444 158.668392 
L 388.25292 156.367745 
L 390.151395 155.343428 
L 392.049871 151.82527 
L 393.948346 151.886698 
L 395.846822 152.827436 
L 397.745297 150.15967 
L 399.643773 148.63687 
L 401.542248 149.822113 
L 403.440724 146.720076 
L 405.339199 148.870602 
L 407.237675 148.35554 
L 409.13615 139.298914 
L 411.034626 143.250937 
L 412.933101 137.535009 
L 414.831577 139.541469 
L 416.730052 142.503502 
L 418.628528 132.591148 
L 420.527003 144.491269 
L 422.425479 139.980126 
L 424.323954 139.487043 
L 426.22243 152.940527 
L 428.120905 146.697453 
L 430.019381 151.558601 
L 431.917857 150.6337 
L 433.816332 148.193012 
L 435.714808 149.02913 
L 437.613283 134.306949 
L 437.613283 134.306949 
" clip-path="url(#pb497772470)" style="fill: none; stroke-dasharray: 9.25,4; stroke-dashoffset: 0; stroke: #7b52ab; stroke-width: 2.5"/>
   </g>
   <g id="line2d_14">
    <path d="M 59.816656 79.85849 
L 61.714372 53.035408 
L 63.612088 60.315051 
L 65.509804 38.09712 
L 67.40752 43.141889 
L 69.305236 68.805161 
L 71.202951 76.975841 
L 73.100667 91.268455 
L 74.998383 96.343311 
L 76.896099 103.220422 
L 78.793815 99.169894 
L 80.691531 100.191609 
L 82.589247 89.038264 
L 84.486963 85.36002 
L 86.384679 90.378709 
L 88.282394 89.839347 
L 90.18011 90.505868 
L 92.077826 90.858865 
L 93.975542 94.206421 
L 95.873258 88.952781 
L 97.770974 90.130294 
L 99.66869 86.191894 
L 101.566406 83.200722 
L 103.464122 91.439285 
L 105.361838 86.324477 
L 107.259553 89.584559 
L 109.157269 88.71161 
L 111.054985 95.493254 
L 112.952701 95.049952 
L 114.850417 88.366949 
L 116.748133 87.879848 
L 118.645849 81.206948 
L 120.543565 92.105069 
L 122.441281 85.546276 
L 124.338996 85.535832 
L 126.236712 97.321223 
L 128.134428 93.796991 
L 130.032144 87.230605 
L 131.92986 88.039837 
L 133.827576 101.93826 
L 135.725292 89.946866 
L 137.623008 85.925674 
L 139.520724 100.047092 
L 141.41844 91.421616 
L 143.316155 100.439241 
L 145.213871 91.236141 
L 147.111587 96.615082 
L 149.009303 98.659912 
L 150.907019 88.823691 
L 152.804735 95.159176 
L 154.702451 97.704791 
L 156.600167 94.020585 
L 158.497883 92.723334 
L 160.395598 95.793805 
L 162.293314 102.513453 
L 164.19103 93.194355 
L 166.088746 95.079844 
L 167.986462 103.712923 
L 169.884178 96.275908 
L 171.781894 99.799849 
L 173.67961 97.673705 
L 175.577326 95.200994 
L 177.475042 95.855614 
L 179.372757 99.67443 
L 181.270473 97.978583 
L 183.168189 103.746838 
L 185.065905 93.160453 
L 186.963621 99.642407 
L 188.861337 98.248453 
L 190.759053 97.8541 
L 192.656769 101.184322 
L 194.554485 104.798811 
L 196.4522 102.766794 
L 198.349916 107.011379 
L 200.247632 106.718888 
L 202.145348 115.131761 
L 204.043064 108.038019 
L 205.94078 112.397806 
L 207.838496 114.092649 
L 209.736212 113.11074 
L 211.633928 112.848899 
L 213.531643 112.843746 
L 215.429359 115.63156 
L 219.224791 122.257155 
L 221.122507 123.487534 
L 223.020223 124.416299 
L 224.917939 126.333703 
L 226.815655 125.121395 
L 228.713371 125.92455 
L 230.611087 128.152731 
L 232.508802 130.783641 
L 234.406518 125.684686 
L 236.304234 135.59338 
L 238.20195 133.821461 
L 240.099666 133.158459 
L 241.997382 138.926823 
L 243.895098 136.640965 
L 245.792814 143.202508 
L 247.69053 139.383032 
L 249.588245 134.421839 
L 251.485961 142.915801 
L 253.383677 137.288851 
L 255.281393 142.536693 
L 257.179109 146.215279 
L 259.076825 146.625505 
L 260.974541 153.585672 
L 262.872257 150.041391 
L 264.769973 156.258724 
L 266.667689 154.300964 
L 268.565404 154.557549 
L 270.46312 156.781385 
L 272.360836 154.74831 
L 274.258552 153.51209 
L 276.156268 155.435753 
L 278.053984 158.327421 
L 279.9517 156.537758 
L 281.849416 164.465287 
L 283.747132 166.448824 
L 287.542563 163.886281 
L 289.440279 161.683062 
L 291.337995 164.047684 
L 293.235711 167.037184 
L 295.133427 166.781306 
L 297.031143 172.834944 
L 298.928859 174.342218 
L 300.826575 172.45722 
L 302.724291 178.563904 
L 304.622006 175.900016 
L 306.519722 179.39701 
L 308.417438 181.387335 
L 310.315154 176.958477 
L 312.21287 178.098614 
L 314.110586 184.831119 
L 316.008302 186.330945 
L 317.906018 189.634728 
L 319.803734 189.352573 
L 321.701449 192.093437 
L 323.599165 190.138318 
L 325.496881 187.362256 
L 327.394597 189.952524 
L 329.292313 185.094037 
L 331.190029 187.279819 
L 333.087745 191.091713 
L 334.985461 195.420024 
L 336.883177 200.312098 
L 338.780893 200.289736 
L 340.678608 199.507158 
L 342.576324 198.934544 
L 344.47404 192.322447 
L 346.371756 191.486866 
L 348.269472 192.453203 
L 350.167188 196.589082 
L 352.064904 200.160165 
L 355.860336 206.518519 
L 357.758051 204.655459 
L 359.655767 204.628442 
L 361.553483 203.309909 
L 363.451199 205.374489 
L 365.348915 206.707771 
L 367.246631 205.598523 
L 369.144347 205.763758 
L 371.042063 207.768685 
L 372.939779 207.811425 
L 374.837495 208.645155 
L 376.73521 207.918243 
L 378.632926 208.585632 
L 380.530642 210.569334 
L 382.428358 210.739271 
L 384.326074 211.549364 
L 386.22379 214.020174 
L 388.121506 214.277262 
L 390.019222 214.979511 
L 391.916938 215.839539 
L 393.814653 215.929361 
L 395.712369 216.227592 
L 397.610085 217.857275 
L 399.507801 217.800545 
L 401.405517 218.052583 
L 403.303233 218.718601 
L 405.200949 219.930667 
L 407.098665 220.817835 
L 408.996381 220.963376 
L 410.894097 221.777278 
L 412.791812 222.167848 
L 414.689528 223.320321 
L 416.587244 224.082043 
L 420.382676 224.842291 
L 422.280392 225.723363 
L 424.178108 226.264408 
L 426.075824 225.568519 
L 427.97354 226.548959 
L 429.871255 227.283187 
L 431.768971 227.775008 
L 433.666687 228.518302 
L 435.564403 228.925386 
L 437.462119 229.512955 
L 437.462119 229.512955 
" clip-path="url(#pb497772470)" style="fill: none; stroke: #e64b35; stroke-width: 2.5; stroke-linecap: square"/>
   </g>
   <g id="line2d_15">
    <path d="M 59.816656 224.134985 
L 61.714087 225.351719 
L 63.611518 223.871781 
L 65.508949 222.186644 
L 67.40638 222.618028 
L 69.303811 220.969354 
L 71.201242 220.057556 
L 73.098673 221.040872 
L 74.996104 218.737575 
L 76.893535 217.411406 
L 78.790966 217.364547 
L 80.688397 216.637591 
L 82.585828 216.840553 
L 84.48326 216.50503 
L 86.380691 216.292311 
L 88.278122 215.125726 
L 90.175553 214.914281 
L 92.072984 214.385569 
L 93.970415 215.057015 
L 95.867846 213.155438 
L 97.765277 213.180088 
L 99.662708 214.770703 
L 101.560139 211.327296 
L 103.45757 212.069863 
L 105.355001 212.114704 
L 107.252432 209.27798 
L 109.149863 211.676505 
L 111.047294 210.730959 
L 112.944725 209.047262 
L 116.739587 206.504737 
L 118.637018 204.7787 
L 120.534449 204.898767 
L 122.43188 206.997803 
L 124.329311 205.585652 
L 126.226742 207.73446 
L 128.124173 208.340615 
L 130.021604 209.622895 
L 131.919035 208.069806 
L 133.816467 208.593212 
L 135.713898 207.624789 
L 137.611329 207.142661 
L 139.50876 207.21961 
L 141.406191 204.890578 
L 143.303622 205.401454 
L 145.201053 203.564215 
L 147.098484 204.470229 
L 148.995915 202.415069 
L 150.893346 202.697706 
L 152.790777 204.79707 
L 154.688208 199.337386 
L 156.585639 202.801388 
L 158.48307 205.195325 
L 160.380501 202.824366 
L 162.277932 202.632473 
L 164.175363 202.259734 
L 166.072794 202.653043 
L 167.970225 201.935605 
L 169.867656 202.76501 
L 171.765087 202.072989 
L 173.662518 200.995004 
L 175.559949 201.941437 
L 177.45738 199.590106 
L 179.354811 199.003964 
L 181.252242 196.94158 
L 185.047105 199.014343 
L 186.944536 196.570578 
L 188.841967 195.99285 
L 190.739398 197.448544 
L 192.636829 198.445012 
L 194.53426 192.597836 
L 196.431691 197.077088 
L 198.329122 192.202511 
L 200.226553 193.167717 
L 202.123984 192.514223 
L 204.021415 194.043974 
L 205.918846 190.766163 
L 207.816277 192.89638 
L 209.713708 192.374098 
L 211.611139 190.458855 
L 213.50857 191.951359 
L 215.406001 189.560594 
L 217.303432 186.72765 
L 219.200863 188.936551 
L 221.098294 182.869697 
L 222.995725 188.677047 
L 224.893156 181.167862 
L 226.790587 183.672474 
L 228.688018 180.397616 
L 230.585449 180.828745 
L 232.48288 178.970801 
L 234.380312 181.596222 
L 236.277743 177.9633 
L 238.175174 175.589778 
L 240.072605 177.491896 
L 241.970036 174.772962 
L 243.867467 173.915952 
L 245.764898 174.192483 
L 247.662329 170.408644 
L 249.55976 174.351381 
L 251.457191 172.107079 
L 253.354622 168.486518 
L 255.252053 173.256616 
L 257.149484 165.354061 
L 259.046915 169.121618 
L 260.944346 163.844516 
L 262.841777 168.595601 
L 264.739208 164.48912 
L 266.636639 163.721896 
L 268.53407 163.153368 
L 270.431501 162.81268 
L 272.328932 159.794514 
L 274.226363 158.829825 
L 276.123794 155.577275 
L 278.021225 154.332632 
L 279.918656 155.730087 
L 281.816087 152.607961 
L 283.713518 153.268985 
L 285.61095 147.127646 
L 287.508381 151.06102 
L 289.405812 144.878341 
L 291.303243 142.541308 
L 293.200674 145.329106 
L 295.098105 137.858696 
L 296.995536 140.522685 
L 298.892967 138.177966 
L 300.790398 131.694536 
L 302.687829 139.740145 
L 304.58526 137.46015 
L 306.482691 131.969957 
L 308.380122 141.187472 
L 310.277553 129.723649 
L 312.174984 136.589228 
L 314.072415 128.070017 
L 315.969846 122.234008 
L 317.867277 138.284178 
L 319.764708 122.244967 
L 321.662139 125.397118 
L 323.55957 124.556813 
L 325.457001 119.485185 
L 327.354432 131.422475 
L 329.251863 117.016364 
L 331.149294 120.092061 
L 333.046725 121.68108 
L 334.944157 113.905389 
L 336.841588 114.81728 
L 338.739019 113.055148 
L 340.63645 116.513167 
L 342.533881 113.425197 
L 344.431312 110.828152 
L 346.328743 114.311975 
L 348.226174 115.448008 
L 350.123605 109.18614 
L 352.021036 113.664646 
L 353.918467 107.802812 
L 355.815898 114.647954 
L 357.713329 115.22297 
L 359.61076 113.785121 
L 361.508191 119.036596 
L 363.405622 111.571757 
L 365.303053 120.227869 
L 367.200484 117.35108 
L 369.097915 112.704216 
L 370.995346 123.527818 
L 372.892777 113.183193 
L 374.790208 115.669975 
L 376.687639 114.223586 
L 378.58507 110.25697 
L 380.482501 107.888891 
L 382.379932 108.517447 
L 384.277363 101.283794 
L 386.174795 100.747286 
L 388.072226 101.715784 
L 389.969657 95.247998 
L 391.867088 100.094774 
L 393.764519 98.421342 
L 395.66195 93.080132 
L 397.559381 96.514243 
L 399.456812 90.651737 
L 401.354243 91.074425 
L 403.251674 90.105568 
L 405.149105 88.249132 
L 407.046536 88.30312 
L 408.943967 87.489081 
L 410.841398 84.601899 
L 412.738829 80.827019 
L 414.63626 73.582811 
L 416.533691 75.74762 
L 418.431122 81.821021 
L 420.328553 70.186599 
L 422.225984 67.137388 
L 424.123415 67.314895 
L 426.020846 62.784498 
L 427.918277 81.597127 
L 429.815708 92.366527 
L 431.713139 104.886863 
L 433.61057 122.963914 
L 435.508002 131.664788 
L 437.405433 89.26646 
L 437.405433 89.26646 
" clip-path="url(#pb497772470)" style="fill: none; stroke-dasharray: 9.25,4; stroke-dashoffset: 0; stroke: #e64b35; stroke-width: 2.5"/>
   </g>
   <g id="line2d_16">
    <path d="M 59.816656 238.332508 
L 437.726656 238.332508 
" clip-path="url(#pb497772470)" style="fill: none; stroke-dasharray: 1.5,2.475; stroke-dashoffset: 0; stroke: #808080; stroke-width: 1.5"/>
   </g>
   <g id="patch_3">
    <path d="M 59.816656 261.463918 
L 59.816656 7.2 
" style="fill: none; stroke: #000000; stroke-width: 1.5; stroke-linejoin: miter; stroke-linecap: square"/>
   </g>
   <g id="patch_4">
    <path d="M 437.726656 261.463918 
L 437.726656 7.2 
" style="fill: none; stroke: #000000; stroke-width: 1.5; stroke-linejoin: miter; stroke-linecap: square"/>
   </g>
   <g id="patch_5">
    <path d="M 59.816656 261.463918 
L 437.726656 261.463918 
" style="fill: none; stroke: #000000; stroke-width: 1.5; stroke-linejoin: miter; stroke-linecap: square"/>
   </g>
   <g id="patch_6">
    <path d="M 59.816656 7.2 
L 437.726656 7.2 
" style="fill: none; stroke: #000000; stroke-width: 1.5; stroke-linejoin: miter; stroke-linecap: square"/>
   </g>
   <g id="legend_1">
    <g id="line2d_17">
     <path d="M 186.542743 20.025 
L 200.042743 20.025 
L 213.542743 20.025 
" style="fill: none; stroke: #7b52ab; stroke-width: 2.5; stroke-linecap: square"/>
    </g>
    <g id="text_14">
     <!-- Soft -->
     <g transform="translate(224.342743 24.75) scale(0.135 -0.135)">
      <defs>
       <path id="CMR17-55" d="M 2803 4351 
C 2803 4467 2796 4473 2758 4473 
C 2720 4473 2707 4447 2681 4390 
L 2489 3965 
C 2246 4320 1875 4480 1472 4480 
C 819 4480 294 3958 294 3301 
C 294 3101 339 2817 556 2546 
C 793 2250 1017 2198 1529 2063 
C 1721 2011 2041 1927 2105 1901 
C 2470 1747 2662 1360 2662 999 
C 2662 534 2336 38 1779 38 
C 1094 38 454 425 409 1328 
C 403 1431 396 1437 352 1437 
C 300 1437 294 1431 294 1302 
L 294 0 
C 294 -116 300 -122 339 -122 
C 384 -122 396 -90 486 109 
C 492 128 492 141 614 386 
C 934 -39 1472 -128 1779 -128 
C 2476 -128 2969 457 2969 1141 
C 2969 1476 2848 1734 2777 1850 
C 2508 2263 2220 2340 1913 2417 
C 1868 2437 1856 2437 1497 2527 
C 1152 2617 1004 2662 844 2836 
C 665 3036 601 3243 601 3449 
C 601 3868 934 4326 1478 4326 
C 2156 4326 2579 3842 2675 3036 
C 2694 2920 2700 2914 2745 2914 
C 2803 2914 2803 2933 2803 3043 
L 2803 4351 
z
" transform="scale(0.015625)"/>
       <path id="CMR17-71" d="M 2758 1356 
C 2758 2176 2163 2816 1465 2816 
C 768 2816 172 2176 172 1356 
C 172 550 768 -64 1465 -64 
C 2163 -64 2758 550 2758 1356 
z
M 1465 51 
C 1164 51 908 230 761 480 
C 601 768 582 1126 582 1408 
C 582 1676 595 2009 761 2297 
C 889 2508 1139 2713 1465 2713 
C 1753 2713 1996 2553 2150 2329 
C 2348 2028 2348 1606 2348 1408 
C 2348 1158 2336 774 2163 467 
C 1984 172 1708 51 1465 51 
z
" transform="scale(0.015625)"/>
       <path id="CMR17-68" d="M 979 2585 
L 1708 2585 
L 1708 2752 
L 966 2752 
L 966 3539 
C 966 4076 1235 4377 1510 4377 
C 1593 4377 1689 4363 1753 4339 
C 1702 4326 1568 4281 1568 4121 
C 1568 3955 1696 3904 1785 3904 
C 1875 3904 2003 3955 2003 4121 
C 2003 4353 1772 4480 1516 4480 
C 1152 4480 652 4211 652 3526 
L 652 2752 
L 140 2752 
L 140 2585 
L 652 2585 
L 652 441 
C 652 198 627 166 217 166 
L 217 0 
C 371 12 665 12 832 12 
C 1017 12 1344 12 1516 0 
L 1516 166 
C 1056 166 979 166 979 454 
L 979 2585 
z
" transform="scale(0.015625)"/>
      </defs>
      <use xlink:href="#CMR17-55" transform="scale(0.996264)"/>
      <use xlink:href="#CMR17-71" transform="translate(50.89537 0) scale(0.996264)"/>
      <use xlink:href="#CMR17-68" transform="translate(96.585847 0) scale(0.996264)"/>
      <use xlink:href="#CMR17-76" transform="translate(124.059359 0) scale(0.996264)"/>
     </g>
    </g>
    <g id="line2d_18">
     <path d="M 274.388873 20.025 
L 287.888873 20.025 
L 301.388873 20.025 
" style="fill: none; stroke: #e64b35; stroke-width: 2.5; stroke-linecap: square"/>
    </g>
    <g id="text_15">
     <!-- Hard -->
     <g transform="translate(312.188873 24.75) scale(0.135 -0.135)">
      <defs>
       <path id="CMR17-4a" d="M 3590 3898 
C 3590 4185 3661 4185 4102 4185 
L 4102 4352 
C 3917 4339 3577 4339 3379 4339 
C 3180 4339 2841 4339 2656 4352 
L 2656 4185 
C 3097 4185 3168 4185 3168 3898 
L 3168 2342 
L 1260 2342 
L 1260 3898 
C 1260 4185 1331 4185 1772 4185 
L 1772 4352 
C 1587 4339 1248 4339 1049 4339 
C 851 4339 512 4339 326 4352 
L 326 4185 
C 768 4185 838 4185 838 3898 
L 838 452 
C 838 166 768 166 326 166 
L 326 0 
C 512 12 851 12 1049 12 
C 1248 12 1587 12 1772 0 
L 1772 166 
C 1331 166 1260 166 1260 452 
L 1260 2176 
L 3168 2176 
L 3168 452 
C 3168 166 3097 166 2656 166 
L 2656 0 
C 2841 12 3180 12 3379 12 
C 3577 12 3917 12 4102 0 
L 4102 166 
C 3661 166 3590 166 3590 452 
L 3590 3898 
z
" transform="scale(0.015625)"/>
      </defs>
      <use xlink:href="#CMR17-4a" transform="scale(0.996264)"/>
      <use xlink:href="#CMR17-63" transform="translate(69.07243 0) scale(0.996264)"/>
      <use xlink:href="#CMR17-74" transform="translate(114.762907 0) scale(0.996264)"/>
      <use xlink:href="#CMR17-66" transform="translate(150.043675 0) scale(0.996264)"/>
     </g>
    </g>
    <g id="line2d_19">
     <path d="M 368.083327 20.025 
L 381.583327 20.025 
L 395.083327 20.025 
" style="fill: none; stroke-dasharray: 1.5,2.475; stroke-dashoffset: 0; stroke: #808080; stroke-width: 1.5"/>
    </g>
    <g id="text_16">
     <!-- $K_{d,0}$ -->
     <g transform="translate(405.883327 24.75) scale(0.135 -0.135)">
      <defs>
       <path id="CMMI12-3c" d="M 1248 -26 
C 1248 345 1126 620 864 620 
C 659 620 556 454 556 313 
C 556 172 652 0 870 0 
C 953 0 1024 25 1081 83 
C 1094 96 1100 96 1107 96 
C 1120 96 1120 6 1120 -26 
C 1120 -233 1081 -642 710 -1051 
C 640 -1127 640 -1140 640 -1152 
C 640 -1184 672 -1216 704 -1216 
C 755 -1216 1248 -749 1248 -26 
z
" transform="scale(0.015625)"/>
      </defs>
      <use xlink:href="#CMMI12-4c" transform="scale(0.996264)"/>
      <use xlink:href="#CMMI12-65" transform="translate(82.992611 -14.943915) scale(0.697382)"/>
      <use xlink:href="#CMMI12-3c" transform="translate(118.474817 -14.943915) scale(0.697382)"/>
      <use xlink:href="#CMR17-32" transform="translate(137.44275 -14.943915) scale(0.697382)"/>
     </g>
    </g>
   </g>
  </g>
 </g>
 <defs>
  <clipPath id="pb497772470">
   <rect x="59.816656" y="7.2" width="377.91" height="254.263918"/>
  </clipPath>
 </defs>
</svg>
