<?xml version="1.0" encoding="utf-8" standalone="no"?>
<!DOCTYPE svg PUBLIC "-//W3C//DTD SVG 1.1//EN"
  "http://www.w3.org/Graphics/SVG/1.1/DTD/svg11.dtd">
<svg xmlns:xlink="http://www.w3.org/1999/xlink" width="454.608747pt" height="320.233536pt" viewBox="0 0 454.608747 320.233536" xmlns="http://www.w3.org/2000/svg" version="1.1">
 <metadata>
  <rdf:RDF xmlns:dc="http://purl.org/dc/elements/1.1/" xmlns:cc="http://creativecommons.org/ns#" xmlns:rdf="http://www.w3.org/1999/02/22-rdf-syntax-ns#">
   <cc:Work>
    <dc:type rdf:resource="http://purl.org/dc/dcmitype/StillImage"/>
    <dc:date>2026-07-11T18:02:41.197001</dc:date>
    <dc:format>image/svg+xml</dc:format>
    <dc:creator>
     <cc:Agent>
      <dc:title>Matplotlib v3.11.0, https://matplotlib.org/</dc:title>
     </cc:Agent>
    </dc:creator>
   </cc:Work>
  </rdf:RDF>
 </metadata>
 <defs>
  <style type="text/css">*{stroke-linejoin: round; stroke-linecap: butt}</style>
 </defs>
 <g id="figure_1">
  <g id="patch_1">
   <path d="M 0 320.233536 
L 454.608747 320.233536 
L 454.608747 0 
L 0 0 
z
" style="fill: #ffffff"/>
  </g>
  <g id="axes_1">
   <g id="patch_2">
    <path d="M 61.274461 267.690568 
L 439.184461 267.690568 
L 439.184461 13.42665 
L 61.274461 13.42665 
z
" style="fill: #ffffff"/>
   </g>
   <g id="FillBetweenPolyCollection_1">
    <defs>
     <path id="mc3c3ad9756" d="M 61.274461 -254.586171 
L 61.274461 -252.164783 
L 63.170278 -249.645255 
L 65.066095 -247.142381 
L 66.961912 -244.656151 
L 68.857729 -242.186558 
L 70.753546 -239.733591 
L 72.649362 -237.297243 
L 74.545179 -234.877504 
L 76.440996 -232.474365 
L 78.336813 -230.087817 
L 80.23263 -227.717852 
L 82.128447 -225.364461 
L 84.024264 -223.027637 
L 85.92008 -220.70737 
L 87.815897 -218.403654 
L 89.711714 -216.116482 
L 91.607531 -213.845846 
L 93.503348 -211.591741 
L 95.399165 -209.354163 
L 97.294982 -207.133105 
L 99.190798 -204.928565 
L 101.086615 -202.74054 
L 102.982432 -200.569029 
L 104.878249 -198.414029 
L 106.774066 -196.275542 
L 108.669883 -194.153568 
L 110.565699 -192.048111 
L 112.461516 -189.959175 
L 114.357333 -187.886763 
L 116.25315 -185.830883 
L 118.148967 -183.79154 
L 120.044784 -181.768745 
L 121.940601 -179.762506 
L 123.836417 -177.772834 
L 125.732234 -175.799741 
L 127.628051 -173.843239 
L 129.523868 -171.903342 
L 131.419685 -169.980064 
L 133.315502 -168.07342 
L 135.211318 -166.183426 
L 137.107135 -164.310097 
L 139.002952 -162.453452 
L 140.898769 -160.613506 
L 142.794586 -158.790277 
L 144.690403 -156.983783 
L 146.58622 -155.194041 
L 148.482036 -153.421069 
L 150.377853 -151.664885 
L 152.27367 -149.925505 
L 154.169487 -148.202948 
L 156.065304 -146.49723 
L 157.961121 -144.808369 
L 159.856938 -143.13638 
L 161.752754 -141.481281 
L 163.648571 -139.843086 
L 165.544388 -138.221812 
L 167.440205 -136.617473 
L 169.336022 -135.030084 
L 171.231839 -133.459658 
L 173.127655 -131.906211 
L 175.023472 -130.369754 
L 176.919289 -128.850301 
L 178.815106 -127.347864 
L 180.710923 -125.862454 
L 182.60674 -124.394083 
L 184.502557 -122.942762 
L 186.398373 -121.508502 
L 188.29419 -120.091312 
L 190.190007 -118.691202 
L 192.085824 -117.308182 
L 193.981641 -115.942259 
L 195.877458 -114.593444 
L 197.773275 -113.261743 
L 199.669091 -111.947164 
L 201.564908 -110.649716 
L 203.460725 -109.369404 
L 205.356542 -108.106237 
L 207.252359 -106.86022 
L 209.148176 -105.631359 
L 211.043992 -104.419661 
L 212.939809 -103.225131 
L 214.835626 -102.047775 
L 216.731443 -100.887597 
L 218.62726 -99.744604 
L 220.523077 -98.618798 
L 222.418894 -97.510186 
L 224.31471 -96.418771 
L 226.210527 -95.344557 
L 228.106344 -94.287549 
L 230.002161 -93.24775 
L 231.897978 -92.225163 
L 233.793795 -91.219793 
L 235.689612 -90.231643 
L 237.585428 -89.260715 
L 239.481245 -88.307013 
L 241.377062 -87.37054 
L 243.272879 -86.451298 
L 245.168696 -85.549291 
L 247.064513 -84.66452 
L 248.960329 -83.796988 
L 250.856146 -82.946697 
L 252.751963 -82.113651 
L 254.64778 -81.29785 
L 256.543597 -80.499297 
L 258.439414 -79.717994 
L 260.335231 -78.953942 
L 262.231047 -78.207145 
L 264.126864 -77.477602 
L 266.022681 -76.765317 
L 267.918498 -76.07029 
L 269.814315 -75.392524 
L 271.710132 -74.732019 
L 273.605948 -74.088777 
L 275.501765 -73.4628 
L 277.397582 -72.854088 
L 279.293399 -72.262643 
L 281.189216 -71.688467 
L 283.085033 -71.13156 
L 284.98085 -70.591924 
L 286.876666 -70.069559 
L 288.772483 -69.564467 
L 290.6683 -69.076648 
L 292.564117 -68.606104 
L 294.459934 -68.152835 
L 296.355751 -67.716843 
L 298.251568 -67.298128 
L 300.147384 -66.896691 
L 302.043201 -66.512533 
L 303.939018 -66.145654 
L 305.834835 -65.796056 
L 307.730652 -65.463738 
L 309.626469 -65.148702 
L 311.522285 -64.850949 
L 313.418102 -64.570478 
L 315.313919 -64.307291 
L 317.209736 -64.061388 
L 319.105553 -63.832769 
L 321.00137 -63.621436 
L 322.897187 -63.427388 
L 324.793003 -63.250626 
L 326.68882 -63.091151 
L 328.584637 -62.948962 
L 330.480454 -62.824061 
L 332.376271 -62.716448 
L 334.272088 -62.626123 
L 336.167905 -62.553086 
L 338.063721 -62.497338 
L 339.959538 -62.45888 
L 341.855355 -62.43771 
L 343.751172 -62.433831 
L 345.646989 -62.447242 
L 347.542806 -62.477942 
L 349.438622 -62.525934 
L 351.334439 -62.591216 
L 353.230256 -62.673789 
L 355.126073 -62.773653 
L 357.02189 -62.890808 
L 358.917707 -63.025255 
L 360.813524 -63.176993 
L 362.70934 -63.346024 
L 364.605157 -63.532346 
L 366.500974 -63.735959 
L 368.396791 -63.956865 
L 370.292608 -64.195063 
L 372.188425 -64.450553 
L 374.084241 -64.723336 
L 375.980058 -65.01341 
L 377.875875 -65.320776 
L 379.771692 -65.645435 
L 381.667509 -65.987385 
L 383.563326 -66.346628 
L 385.459143 -66.723162 
L 387.354959 -67.116989 
L 389.250776 -67.528107 
L 391.146593 -67.956516 
L 393.04241 -68.402217 
L 394.938227 -68.865209 
L 396.834044 -69.345493 
L 398.729861 -69.843066 
L 400.625677 -70.357931 
L 402.521494 -70.890085 
L 404.417311 -71.43953 
L 406.313128 -72.006264 
L 408.208945 -72.590287 
L 410.104762 -73.191598 
L 412.000578 -73.810199 
L 413.896395 -74.446087 
L 415.792212 -75.099262 
L 417.688029 -75.769724 
L 419.583846 -76.457472 
L 421.479663 -77.162505 
L 423.37548 -77.884824 
L 425.271296 -78.624426 
L 427.167113 -79.381311 
L 429.06293 -80.155479 
L 430.958747 -80.946929 
L 432.854564 -81.755658 
L 434.750381 -82.581667 
L 436.646198 -83.424954 
L 438.542014 -84.285518 
L 438.542014 -86.281581 
L 438.542014 -86.281581 
L 436.646198 -85.442734 
L 434.750381 -84.620839 
L 432.854564 -83.815897 
L 430.958747 -83.027906 
L 429.06293 -82.256864 
L 427.167113 -81.502771 
L 425.271296 -80.765625 
L 423.37548 -80.045427 
L 421.479663 -79.342174 
L 419.583846 -78.655867 
L 417.688029 -77.986504 
L 415.792212 -77.334086 
L 413.896395 -76.69861 
L 412.000578 -76.080078 
L 410.104762 -75.478488 
L 408.208945 -74.893839 
L 406.313128 -74.326132 
L 404.417311 -73.775366 
L 402.521494 -73.24154 
L 400.625677 -72.724655 
L 398.729861 -72.224709 
L 396.834044 -71.741703 
L 394.938227 -71.275637 
L 393.04241 -70.826509 
L 391.146593 -70.39432 
L 389.250776 -69.97907 
L 387.354959 -69.580759 
L 385.459143 -69.199386 
L 383.563326 -68.834951 
L 381.667509 -68.487455 
L 379.771692 -68.156896 
L 377.875875 -67.843275 
L 375.980058 -67.546593 
L 374.084241 -67.266848 
L 372.188425 -67.004042 
L 370.292608 -66.758173 
L 368.396791 -66.529242 
L 366.500974 -66.317249 
L 364.605157 -66.122195 
L 362.70934 -65.944078 
L 360.813524 -65.7829 
L 358.917707 -65.63866 
L 357.02189 -65.511359 
L 355.126073 -65.400996 
L 353.230256 -65.307572 
L 351.334439 -65.231087 
L 349.438622 -65.171541 
L 347.542806 -65.128935 
L 345.646989 -65.103268 
L 343.751172 -65.094541 
L 341.855355 -65.102754 
L 339.959538 -65.127907 
L 338.063721 -65.170001 
L 336.167905 -65.229035 
L 334.272088 -65.305011 
L 332.376271 -65.397929 
L 330.480454 -65.507789 
L 328.584637 -65.634591 
L 326.68882 -65.778335 
L 324.793003 -65.939023 
L 322.897187 -66.116654 
L 321.00137 -66.311229 
L 319.105553 -66.522749 
L 317.209736 -66.751214 
L 315.313919 -66.996624 
L 313.418102 -67.258981 
L 311.522285 -67.538284 
L 309.626469 -67.834534 
L 307.730652 -68.147732 
L 305.834835 -68.477878 
L 303.939018 -68.824973 
L 302.043201 -69.189019 
L 300.147384 -69.570015 
L 298.251568 -69.967962 
L 296.355751 -70.382861 
L 294.459934 -70.814713 
L 292.564117 -71.263519 
L 290.6683 -71.729279 
L 288.772483 -72.211995 
L 286.876666 -72.711667 
L 284.98085 -73.228297 
L 283.085033 -73.761885 
L 281.189216 -74.312433 
L 279.293399 -74.879942 
L 277.397582 -75.464412 
L 275.501765 -76.065846 
L 273.605948 -76.684243 
L 271.710132 -77.319607 
L 269.814315 -77.971937 
L 267.918498 -78.641236 
L 266.022681 -79.327505 
L 264.126864 -80.030745 
L 262.231047 -80.750958 
L 260.335231 -81.488146 
L 258.439414 -82.24231 
L 256.543597 -83.013453 
L 254.64778 -83.801576 
L 252.751963 -84.606681 
L 250.856146 -85.42877 
L 248.960329 -86.267846 
L 247.064513 -87.12391 
L 245.168696 -87.996966 
L 243.272879 -88.887014 
L 241.377062 -89.794059 
L 239.481245 -90.718102 
L 237.585428 -91.659147 
L 235.689612 -92.617196 
L 233.793795 -93.592252 
L 231.897978 -94.584319 
L 230.002161 -95.593399 
L 228.106344 -96.619497 
L 226.210527 -97.662616 
L 224.31471 -98.722759 
L 222.418894 -99.799931 
L 220.523077 -100.894136 
L 218.62726 -102.005378 
L 216.731443 -103.133662 
L 214.835626 -104.278992 
L 212.939809 -105.441373 
L 211.043992 -106.62081 
L 209.148176 -107.81731 
L 207.252359 -109.030877 
L 205.356542 -110.261518 
L 203.460725 -111.509238 
L 201.564908 -112.774045 
L 199.669091 -114.055945 
L 197.773275 -115.354945 
L 195.877458 -116.671052 
L 193.981641 -118.004274 
L 192.085824 -119.35462 
L 190.190007 -120.722098 
L 188.29419 -122.106717 
L 186.398373 -123.508486 
L 184.502557 -124.927414 
L 182.60674 -126.363512 
L 180.710923 -127.81679 
L 178.815106 -129.287259 
L 176.919289 -130.774931 
L 175.023472 -132.279817 
L 173.127655 -133.801929 
L 171.231839 -135.341281 
L 169.336022 -136.897885 
L 167.440205 -138.471755 
L 165.544388 -140.062906 
L 163.648571 -141.671351 
L 161.752754 -143.297106 
L 159.856938 -144.940186 
L 157.961121 -146.600607 
L 156.065304 -148.278386 
L 154.169487 -149.973538 
L 152.27367 -151.68608 
L 150.377853 -153.416031 
L 148.482036 -155.163406 
L 146.58622 -156.928225 
L 144.690403 -158.710503 
L 142.794586 -160.510259 
L 140.898769 -162.327511 
L 139.002952 -164.162276 
L 137.107135 -166.014571 
L 135.211318 -167.884413 
L 133.315502 -169.77182 
L 131.419685 -171.676807 
L 129.523868 -173.599389 
L 127.628051 -175.539583 
L 125.732234 -177.497402 
L 123.836417 -179.47286 
L 121.940601 -181.465969 
L 120.044784 -183.476742 
L 118.148967 -185.505188 
L 116.25315 -187.551317 
L 114.357333 -189.615138 
L 112.461516 -191.696658 
L 110.565699 -193.795883 
L 108.669883 -195.912818 
L 106.774066 -198.047466 
L 104.878249 -200.199831 
L 102.982432 -202.369913 
L 101.086615 -204.557713 
L 99.190798 -206.76323 
L 97.294982 -208.986463 
L 95.399165 -211.227407 
L 93.503348 -213.486061 
L 91.607531 -215.762419 
L 89.711714 -218.056476 
L 87.815897 -220.368226 
L 85.92008 -222.697662 
L 84.024264 -225.044779 
L 82.128447 -227.409567 
L 80.23263 -229.792019 
L 78.336813 -232.192127 
L 76.440996 -234.609882 
L 74.545179 -237.045276 
L 72.649362 -239.4983 
L 70.753546 -241.968945 
L 68.857729 -244.457202 
L 66.961912 -246.963062 
L 65.066095 -249.486516 
L 63.170278 -252.027555 
L 61.274461 -254.586171 
z
" style="stroke: #7b52ab; stroke-opacity: 0.2"/>
    </defs>
    <g clip-path="url(#pbbae85c334)">
     <use xlink:href="#mc3c3ad9756" x="0" y="320.233536" style="fill: #7b52ab; fill-opacity: 0.2; stroke: #7b52ab; stroke-opacity: 0.2"/>
    </g>
   </g>
   <g id="FillBetweenPolyCollection_2">
    <defs>
     <path id="me245a0498e" d="M 61.274461 -77.722673 
L 61.274461 -75.136586 
L 63.169993 -74.944195 
L 65.065525 -74.763712 
L 66.961057 -74.595104 
L 68.856589 -74.438335 
L 70.752121 -74.293361 
L 72.647653 -74.160131 
L 74.543185 -74.038583 
L 76.438717 -73.928642 
L 78.334249 -73.83022 
L 80.229781 -73.743207 
L 82.125313 -73.667472 
L 84.020845 -73.602854 
L 85.916377 -73.549156 
L 87.811909 -73.506139 
L 89.707441 -73.473516 
L 91.602973 -73.45094 
L 93.498505 -73.438013 
L 95.394037 -73.434281 
L 97.289569 -73.439268 
L 99.185101 -73.452508 
L 101.080633 -73.473617 
L 102.976165 -73.502363 
L 104.871697 -73.538732 
L 106.767229 -73.582955 
L 108.662761 -73.635483 
L 110.558293 -73.69692 
L 112.453825 -73.76794 
L 114.349357 -73.849214 
L 116.244889 -73.941362 
L 118.140421 -74.044925 
L 120.035953 -74.16036 
L 121.931485 -74.288046 
L 123.827017 -74.428293 
L 125.722549 -74.581351 
L 127.618081 -74.747426 
L 129.513613 -74.92668 
L 131.409145 -75.11925 
L 133.304677 -75.325243 
L 135.200209 -75.544751 
L 137.095741 -75.777847 
L 138.991273 -76.024594 
L 140.886805 -76.285041 
L 142.782337 -76.559232 
L 144.677869 -76.847204 
L 146.573401 -77.148986 
L 148.468933 -77.464606 
L 150.364465 -77.794085 
L 152.259997 -78.137442 
L 154.155529 -78.494693 
L 156.051061 -78.865853 
L 157.946593 -79.250934 
L 159.842125 -79.649946 
L 161.737657 -80.062898 
L 163.633189 -80.489798 
L 165.528721 -80.930653 
L 167.424253 -81.385469 
L 169.319785 -81.85425 
L 171.215317 -82.337001 
L 173.110849 -82.833725 
L 175.006381 -83.344426 
L 176.901913 -83.869106 
L 178.797445 -84.407766 
L 180.692977 -84.960409 
L 182.588509 -85.527035 
L 184.484041 -86.107644 
L 186.379573 -86.702237 
L 188.275105 -87.310813 
L 190.170637 -87.933372 
L 192.066169 -88.569913 
L 193.961701 -89.220434 
L 195.857233 -89.884933 
L 197.752765 -90.563408 
L 199.648297 -91.255855 
L 201.543829 -91.962272 
L 203.439361 -92.682655 
L 205.334893 -93.416998 
L 207.230425 -94.165297 
L 209.125957 -94.927546 
L 211.021489 -95.703737 
L 212.917021 -96.493865 
L 214.812553 -97.297919 
L 216.708085 -98.115891 
L 218.603617 -98.947769 
L 220.499149 -99.793541 
L 222.394681 -100.653193 
L 224.290213 -101.526709 
L 226.185745 -102.414071 
L 228.081277 -103.315258 
L 229.976809 -104.230248 
L 231.872341 -105.159013 
L 233.767873 -106.101523 
L 235.663405 -107.057742 
L 237.558937 -108.027629 
L 239.454469 -109.011138 
L 241.350001 -110.008214 
L 243.245533 -111.018793 
L 245.141065 -112.042801 
L 247.036597 -113.08015 
L 248.932129 -114.130739 
L 250.827661 -115.194447 
L 252.723193 -116.253931 
L 254.618725 -117.291964 
L 256.514257 -118.308599 
L 258.409789 -119.30389 
L 260.305321 -120.2779 
L 262.200853 -121.230696 
L 264.096385 -122.16235 
L 265.991917 -123.072937 
L 267.887449 -123.962536 
L 269.782981 -124.831231 
L 271.678513 -125.679105 
L 273.574045 -126.506242 
L 275.469577 -127.312728 
L 277.365109 -128.098647 
L 279.260641 -128.86408 
L 281.156172 -129.609109 
L 283.051704 -130.333811 
L 284.947236 -131.038258 
L 286.842768 -131.72252 
L 288.7383 -132.386662 
L 290.633832 -133.030743 
L 292.529364 -133.654816 
L 294.424896 -134.25893 
L 296.320428 -134.843126 
L 298.21596 -135.407436 
L 300.111492 -135.951886 
L 302.007024 -136.476491 
L 303.902556 -136.981255 
L 305.798088 -137.466167 
L 307.69362 -137.931199 
L 309.589152 -138.376298 
L 311.484684 -138.801383 
L 313.380216 -139.206328 
L 315.275748 -139.590951 
L 317.17128 -139.954987 
L 319.066812 -140.298065 
L 320.962344 -140.619668 
L 322.857876 -140.91911 
L 324.753408 -141.195542 
L 326.64894 -141.448044 
L 328.544472 -141.675816 
L 330.440004 -141.878416 
L 332.335536 -142.055876 
L 334.231068 -142.208611 
L 336.1266 -142.337213 
L 338.022132 -142.442278 
L 339.917664 -142.524311 
L 341.813196 -142.583708 
L 343.708728 -142.620767 
L 345.60426 -142.635706 
L 347.499792 -142.651092 
L 349.395324 -142.689492 
L 351.290856 -142.751036 
L 353.186388 -142.835808 
L 355.08192 -142.943862 
L 356.977452 -143.075235 
L 358.872984 -143.229952 
L 360.768516 -143.408032 
L 362.664048 -143.609484 
L 364.55958 -143.834315 
L 366.455112 -144.082527 
L 368.350644 -144.354117 
L 370.246176 -144.64908 
L 372.141708 -144.967405 
L 374.03724 -145.309077 
L 375.932772 -145.67407 
L 377.828304 -146.062353 
L 379.723836 -146.473877 
L 381.619368 -146.908571 
L 383.5149 -147.366332 
L 385.410432 -147.846997 
L 387.305964 -148.350305 
L 389.201496 -148.875811 
L 391.097028 -149.42271 
L 392.99256 -149.989433 
L 394.888092 -150.572752 
L 396.783624 -151.166203 
L 398.679156 -151.76025 
L 400.574688 -152.350088 
L 402.47022 -152.940799 
L 404.365752 -153.539391 
L 406.261284 -154.150098 
L 408.156816 -154.775039 
L 410.052348 -155.415288 
L 411.94788 -156.071422 
L 413.843412 -156.743772 
L 415.738944 -157.43254 
L 417.634476 -158.137854 
L 419.530008 -158.8598 
L 421.42554 -159.598438 
L 423.321072 -160.353809 
L 425.216604 -161.125944 
L 427.112136 -161.914866 
L 429.007668 -162.720592 
L 430.9032 -163.543135 
L 432.798732 -164.382506 
L 434.694264 -165.238713 
L 436.589796 -166.111764 
L 438.485328 -167.001663 
L 438.485328 -170.936596 
L 438.485328 -170.936596 
L 436.589796 -169.796354 
L 434.694264 -168.679626 
L 432.798732 -167.586415 
L 430.9032 -166.516728 
L 429.007668 -165.470575 
L 427.112136 -164.447966 
L 425.216604 -163.448913 
L 423.321072 -162.473435 
L 421.42554 -161.521555 
L 419.530008 -160.593301 
L 417.634476 -159.688718 
L 415.738944 -158.807864 
L 413.843412 -157.950824 
L 411.94788 -157.117728 
L 410.052348 -156.308776 
L 408.156816 -155.524301 
L 406.261284 -154.764878 
L 404.365752 -154.031583 
L 402.47022 -153.326535 
L 400.574688 -152.653965 
L 398.679156 -152.020884 
L 396.783624 -151.432374 
L 394.888092 -150.883628 
L 392.99256 -150.365111 
L 391.097028 -149.870359 
L 389.201496 -149.396145 
L 387.305964 -148.940899 
L 385.410432 -148.503816 
L 383.5149 -148.08445 
L 381.619368 -147.682542 
L 379.723836 -147.297928 
L 377.828304 -146.930505 
L 375.932772 -146.580202 
L 374.03724 -146.246971 
L 372.141708 -145.930778 
L 370.246176 -145.631601 
L 368.350644 -145.349423 
L 366.455112 -145.084233 
L 364.55958 -144.836025 
L 362.664048 -144.604797 
L 360.768516 -144.390552 
L 358.872984 -144.193296 
L 356.977452 -144.013038 
L 355.08192 -143.849797 
L 353.186388 -143.703598 
L 351.290856 -143.574478 
L 349.395324 -143.462492 
L 347.499792 -143.367723 
L 345.60426 -143.290299 
L 343.708728 -143.212357 
L 341.813196 -143.116025 
L 339.917664 -143.001524 
L 338.022132 -142.869151 
L 336.1266 -142.719301 
L 334.231068 -142.552481 
L 332.335536 -142.369286 
L 330.440004 -142.170307 
L 328.544472 -141.955961 
L 326.64894 -141.726278 
L 324.753408 -141.480816 
L 322.857876 -141.218777 
L 320.962344 -140.93924 
L 319.066812 -140.641356 
L 317.17128 -140.324439 
L 315.275748 -139.987972 
L 313.380216 -139.631583 
L 311.484684 -139.255009 
L 309.589152 -138.858066 
L 307.69362 -138.44063 
L 305.798088 -138.002618 
L 303.902556 -137.543979 
L 302.007024 -137.064683 
L 300.111492 -136.56472 
L 298.21596 -136.044094 
L 296.320428 -135.50282 
L 294.424896 -134.940923 
L 292.529364 -134.358436 
L 290.633832 -133.755401 
L 288.7383 -133.131866 
L 286.842768 -132.487883 
L 284.947236 -131.823513 
L 283.051704 -131.138819 
L 281.156172 -130.433872 
L 279.260641 -129.708744 
L 277.365109 -128.963512 
L 275.469577 -128.198258 
L 273.574045 -127.413063 
L 271.678513 -126.608011 
L 269.782981 -125.783187 
L 267.887449 -124.938676 
L 265.991917 -124.074563 
L 264.096385 -123.190928 
L 262.200853 -122.287852 
L 260.305321 -121.36541 
L 258.409789 -120.423674 
L 256.514257 -119.462712 
L 254.618725 -118.482584 
L 252.723193 -117.483348 
L 250.827661 -116.465053 
L 248.932129 -115.443829 
L 247.036597 -114.435687 
L 245.141065 -113.440506 
L 243.245533 -112.458183 
L 241.350001 -111.488632 
L 239.454469 -110.531779 
L 237.558937 -109.58756 
L 235.663405 -108.65592 
L 233.767873 -107.736811 
L 231.872341 -106.830195 
L 229.976809 -105.936034 
L 228.081277 -105.054298 
L 226.185745 -104.184961 
L 224.290213 -103.327999 
L 222.394681 -102.483391 
L 220.499149 -101.65112 
L 218.603617 -100.831169 
L 216.708085 -100.023526 
L 214.812553 -99.228176 
L 212.917021 -98.44511 
L 211.021489 -97.674317 
L 209.125957 -96.91579 
L 207.230425 -96.16952 
L 205.334893 -95.4355 
L 203.439361 -94.713726 
L 201.543829 -94.004191 
L 199.648297 -93.306892 
L 197.752765 -92.621824 
L 195.857233 -91.948983 
L 193.961701 -91.288367 
L 192.066169 -90.639974 
L 190.170637 -90.003802 
L 188.275105 -89.379848 
L 186.379573 -88.768112 
L 184.484041 -88.168593 
L 182.588509 -87.581292 
L 180.692977 -87.006207 
L 178.797445 -86.443339 
L 176.901913 -85.89269 
L 175.006381 -85.354262 
L 173.110849 -84.828054 
L 171.215317 -84.314071 
L 169.319785 -83.812316 
L 167.424253 -83.322791 
L 165.528721 -82.845501 
L 163.633189 -82.380451 
L 161.737657 -81.927646 
L 159.842125 -81.487094 
L 157.946593 -81.058803 
L 156.051061 -80.642781 
L 154.155529 -80.239039 
L 152.259997 -79.847589 
L 150.364465 -79.468445 
L 148.468933 -79.101623 
L 146.573401 -78.747143 
L 144.677869 -78.405026 
L 142.782337 -78.0753 
L 140.886805 -77.757993 
L 138.991273 -77.453143 
L 137.095741 -77.160792 
L 135.200209 -76.880992 
L 133.304677 -76.613805 
L 131.409145 -76.359303 
L 129.513613 -76.117578 
L 127.618081 -75.888739 
L 125.722549 -75.67292 
L 123.827017 -75.470287 
L 121.931485 -75.281041 
L 120.035953 -75.105436 
L 118.140421 -74.94378 
L 116.244889 -74.796453 
L 114.349357 -74.663911 
L 112.453825 -74.546696 
L 110.558293 -74.445428 
L 108.662761 -74.360777 
L 106.767229 -74.293418 
L 104.871697 -74.243954 
L 102.976165 -74.212838 
L 101.080633 -74.200298 
L 99.185101 -74.206322 
L 97.289569 -74.230678 
L 95.394037 -74.272981 
L 93.498505 -74.332766 
L 91.602973 -74.409556 
L 89.707441 -74.502899 
L 87.811909 -74.612395 
L 85.916377 -74.737697 
L 84.020845 -74.878519 
L 82.125313 -75.034622 
L 80.229781 -75.205808 
L 78.334249 -75.391917 
L 76.438717 -75.592817 
L 74.543185 -75.808399 
L 72.647653 -76.038574 
L 70.752121 -76.283269 
L 68.856589 -76.54242 
L 66.961057 -76.815976 
L 65.065525 -77.103894 
L 63.169993 -77.406137 
L 61.274461 -77.722673 
z
" style="stroke: #7b52ab; stroke-opacity: 0.2"/>
    </defs>
    <g clip-path="url(#pbbae85c334)">
     <use xlink:href="#me245a0498e" x="0" y="320.233536" style="fill: #7b52ab; fill-opacity: 0.2; stroke: #7b52ab; stroke-opacity: 0.2"/>
    </g>
   </g>
   <g id="FillBetweenPolyCollection_3">
    <defs>
     <path id="m4932d1b353" d="M 61.274461 -270.264346 
L 61.274461 -265.875799 
L 63.170183 -264.109683 
L 65.065905 -262.350754 
L 66.961627 -260.599012 
L 68.857349 -258.854456 
L 70.753071 -257.117086 
L 72.648793 -255.386903 
L 74.544515 -253.663906 
L 76.440237 -251.948094 
L 78.335958 -250.239469 
L 80.23168 -248.538029 
L 82.127402 -246.843774 
L 84.023124 -245.156705 
L 85.918846 -243.47682 
L 87.814568 -241.80412 
L 89.71029 -240.138605 
L 91.606012 -238.480274 
L 93.501734 -236.829127 
L 95.397456 -235.185164 
L 97.293177 -233.548385 
L 99.188899 -231.918789 
L 101.084621 -230.296376 
L 102.980343 -228.681147 
L 104.876065 -227.0731 
L 106.771787 -225.472235 
L 108.667509 -223.878553 
L 110.563231 -222.292052 
L 112.458953 -220.712733 
L 114.354674 -219.140596 
L 116.250396 -217.575639 
L 118.146118 -216.017864 
L 120.04184 -214.467269 
L 121.937562 -212.923854 
L 123.833284 -211.387619 
L 125.729006 -209.858563 
L 127.624728 -208.336687 
L 129.52045 -206.82199 
L 131.416172 -205.314472 
L 133.311893 -203.814132 
L 135.207615 -202.32097 
L 137.103337 -200.834986 
L 138.999059 -199.35618 
L 140.894781 -197.88455 
L 142.790503 -196.420098 
L 144.686225 -194.962822 
L 146.581947 -193.512723 
L 148.477669 -192.069799 
L 150.373391 -190.634052 
L 152.269112 -189.20548 
L 154.164834 -187.784083 
L 156.060556 -186.369861 
L 157.956278 -184.962814 
L 159.852 -183.562942 
L 161.747722 -182.170244 
L 163.643444 -180.78472 
L 165.539166 -179.40637 
L 167.434888 -178.035194 
L 169.330609 -176.671192 
L 171.226331 -175.314364 
L 173.122053 -173.964709 
L 175.017775 -172.622228 
L 176.913497 -171.28692 
L 178.809219 -169.958787 
L 180.704941 -168.637826 
L 182.600663 -167.32404 
L 184.496385 -166.017428 
L 186.392107 -164.717989 
L 188.287828 -163.425725 
L 190.18355 -162.140636 
L 192.079272 -160.862721 
L 193.974994 -159.591981 
L 195.870716 -158.328418 
L 197.766438 -157.07203 
L 199.66216 -155.822818 
L 201.557882 -154.580784 
L 203.453604 -153.345927 
L 205.349326 -152.118248 
L 207.245047 -150.897748 
L 209.140769 -149.684428 
L 211.036491 -148.478288 
L 212.932213 -147.279328 
L 214.827935 -146.087551 
L 216.723657 -144.902957 
L 218.619379 -143.725546 
L 220.515101 -142.55532 
L 222.410823 -141.392279 
L 224.306545 -140.236425 
L 226.202266 -139.087758 
L 228.097988 -137.94628 
L 229.99371 -136.811992 
L 231.889432 -135.684895 
L 233.785154 -134.564989 
L 235.680876 -133.452277 
L 237.576598 -132.346759 
L 239.47232 -131.248436 
L 241.368042 -130.157309 
L 243.263763 -129.07338 
L 245.159485 -127.996649 
L 247.055207 -126.927118 
L 248.950929 -125.864787 
L 250.846651 -124.809659 
L 252.742373 -123.761732 
L 254.638095 -122.72101 
L 256.533817 -121.687492 
L 258.429539 -120.66118 
L 260.325261 -119.642074 
L 262.220982 -118.630176 
L 264.116704 -117.625485 
L 266.012426 -116.628003 
L 267.908148 -115.637731 
L 269.80387 -114.654669 
L 271.699592 -113.678817 
L 273.595314 -112.710176 
L 275.491036 -111.748747 
L 277.386758 -110.794531 
L 279.28248 -109.847526 
L 281.178201 -108.907735 
L 283.073923 -107.975156 
L 284.969645 -107.049791 
L 286.865367 -106.131639 
L 288.761089 -105.220701 
L 290.656811 -104.316977 
L 292.552533 -103.420466 
L 294.448255 -102.531169 
L 296.343977 -101.649085 
L 298.239698 -100.774215 
L 300.13542 -99.906559 
L 302.031142 -99.046115 
L 303.926864 -98.192885 
L 305.822586 -97.346868 
L 307.718308 -96.508063 
L 309.61403 -95.67647 
L 311.509752 -94.852089 
L 313.405474 -94.034919 
L 315.301196 -93.224961 
L 317.196917 -92.422213 
L 319.092639 -91.626676 
L 320.988361 -90.838349 
L 322.884083 -90.057231 
L 324.779805 -89.283322 
L 326.675527 -88.516621 
L 328.571249 -87.757129 
L 330.466971 -87.004844 
L 332.362693 -86.259767 
L 334.258415 -85.521896 
L 336.154136 -84.791231 
L 338.049858 -84.067772 
L 339.94558 -83.351518 
L 341.841302 -82.642469 
L 343.737024 -81.940624 
L 345.632746 -81.245982 
L 347.528468 -80.558544 
L 349.42419 -79.878309 
L 351.319912 -79.205276 
L 353.215634 -78.539444 
L 355.111355 -77.880814 
L 357.007077 -77.229385 
L 358.902799 -76.585157 
L 360.798521 -75.948128 
L 362.694243 -75.3183 
L 364.589965 -74.69567 
L 366.485687 -74.08024 
L 368.381409 -73.472007 
L 370.277131 -72.870973 
L 372.172852 -72.277137 
L 374.068574 -71.690498 
L 375.964296 -71.111056 
L 377.860018 -70.53881 
L 379.75574 -69.973761 
L 381.651462 -69.415908 
L 383.547184 -68.865251 
L 385.442906 -68.321789 
L 387.338628 -67.785523 
L 389.23435 -67.256451 
L 391.130071 -66.734574 
L 393.025793 -66.219891 
L 394.921515 -65.712402 
L 396.817237 -65.212108 
L 398.712959 -64.719006 
L 400.608681 -64.233099 
L 402.504403 -63.754384 
L 404.400125 -63.282863 
L 406.295847 -62.818534 
L 408.191569 -62.361398 
L 410.08729 -61.911454 
L 411.983012 -61.468703 
L 413.878734 -61.033144 
L 415.774456 -60.604777 
L 417.670178 -60.183601 
L 419.5659 -59.769618 
L 421.461622 -59.362826 
L 423.357344 -58.963225 
L 425.253066 -58.570816 
L 427.148787 -58.185597 
L 429.044509 -57.80757 
L 430.940231 -57.436734 
L 432.835953 -57.073089 
L 434.731675 -56.716634 
L 436.627397 -56.36737 
L 438.523119 -56.025297 
L 438.523119 -60.468008 
L 438.523119 -60.468008 
L 436.627397 -60.753316 
L 434.731675 -61.046396 
L 432.835953 -61.347249 
L 430.940231 -61.655875 
L 429.044509 -61.972274 
L 427.148787 -62.296445 
L 425.253066 -62.628389 
L 423.357344 -62.968106 
L 421.461622 -63.315595 
L 419.5659 -63.670856 
L 417.670178 -64.033889 
L 415.774456 -64.404693 
L 413.878734 -64.78327 
L 411.983012 -65.169619 
L 410.08729 -65.563738 
L 408.191569 -65.96563 
L 406.295847 -66.375292 
L 404.400125 -66.792725 
L 402.504403 -67.217929 
L 400.608681 -67.650904 
L 398.712959 -68.091649 
L 396.817237 -68.540164 
L 394.921515 -68.996449 
L 393.025793 -69.460504 
L 391.130071 -69.932329 
L 389.23435 -70.411922 
L 387.338628 -70.899285 
L 385.442906 -71.394416 
L 383.547184 -71.897316 
L 381.651462 -72.407984 
L 379.75574 -72.92642 
L 377.860018 -73.452624 
L 375.964296 -73.986594 
L 374.068574 -74.528332 
L 372.172852 -75.077836 
L 370.277131 -75.635107 
L 368.381409 -76.200143 
L 366.485687 -76.772945 
L 364.589965 -77.353512 
L 362.694243 -77.941844 
L 360.798521 -78.537941 
L 358.902799 -79.141801 
L 357.007077 -79.753425 
L 355.111355 -80.372811 
L 353.215634 -80.999961 
L 351.319912 -81.634873 
L 349.42419 -82.277546 
L 347.528468 -82.927981 
L 345.632746 -83.586177 
L 343.737024 -84.252133 
L 341.841302 -84.925849 
L 339.94558 -85.607324 
L 338.049858 -86.296559 
L 336.154136 -86.993552 
L 334.258415 -87.698302 
L 332.362693 -88.410811 
L 330.466971 -89.131076 
L 328.571249 -89.859098 
L 326.675527 -90.594875 
L 324.779805 -91.338409 
L 322.884083 -92.089697 
L 320.988361 -92.84874 
L 319.092639 -93.615537 
L 317.196917 -94.390088 
L 315.301196 -95.172392 
L 313.405474 -95.962449 
L 311.509752 -96.760258 
L 309.61403 -97.56582 
L 307.718308 -98.379133 
L 305.822586 -99.200198 
L 303.926864 -100.029014 
L 302.031142 -100.86558 
L 300.13542 -101.709897 
L 298.239698 -102.561965 
L 296.343977 -103.421783 
L 294.448255 -104.289351 
L 292.552533 -105.164669 
L 290.656811 -106.047737 
L 288.761089 -106.938554 
L 286.865367 -107.837122 
L 284.969645 -108.74344 
L 283.073923 -109.657508 
L 281.178201 -110.579326 
L 279.28248 -111.508895 
L 277.386758 -112.446214 
L 275.491036 -113.391285 
L 273.595314 -114.344107 
L 271.699592 -115.304681 
L 269.80387 -116.273008 
L 267.908148 -117.249088 
L 266.012426 -118.232921 
L 264.116704 -119.224508 
L 262.220982 -120.22385 
L 260.325261 -121.230948 
L 258.429539 -122.245802 
L 256.533817 -123.268414 
L 254.638095 -124.298783 
L 252.742373 -125.336912 
L 250.846651 -126.3828 
L 248.950929 -127.43645 
L 247.055207 -128.497861 
L 245.159485 -129.567035 
L 243.263763 -130.643973 
L 241.368042 -131.728677 
L 239.47232 -132.821146 
L 237.576598 -133.921383 
L 235.680876 -135.029388 
L 233.785154 -136.145162 
L 231.889432 -137.268707 
L 229.99371 -138.400024 
L 228.097988 -139.539114 
L 226.202266 -140.685977 
L 224.306545 -141.840616 
L 222.410823 -143.003031 
L 220.515101 -144.173222 
L 218.619379 -145.351192 
L 216.723657 -146.53694 
L 214.827935 -147.730469 
L 212.932213 -148.931779 
L 211.036491 -150.14087 
L 209.140769 -151.357744 
L 207.245047 -152.582401 
L 205.349326 -153.814842 
L 203.453604 -155.055068 
L 201.557882 -156.303079 
L 199.66216 -157.558877 
L 197.766438 -158.822461 
L 195.870716 -160.093832 
L 193.974994 -161.372991 
L 192.079272 -162.659938 
L 190.18355 -163.954674 
L 188.287828 -165.257198 
L 186.392107 -166.567511 
L 184.496385 -167.885613 
L 182.600663 -169.211505 
L 180.704941 -170.545187 
L 178.809219 -171.886659 
L 176.913497 -173.23592 
L 175.017775 -174.592972 
L 173.122053 -175.957813 
L 171.226331 -177.330445 
L 169.330609 -178.710866 
L 167.434888 -180.099077 
L 165.539166 -181.495078 
L 163.643444 -182.898869 
L 161.747722 -184.31045 
L 159.852 -185.729819 
L 157.956278 -187.156978 
L 156.060556 -188.591927 
L 154.164834 -190.034663 
L 152.269112 -191.485189 
L 150.373391 -192.943503 
L 148.477669 -194.409605 
L 146.581947 -195.883494 
L 144.686225 -197.365172 
L 142.790503 -198.854636 
L 140.894781 -200.351888 
L 138.999059 -201.856926 
L 137.103337 -203.369751 
L 135.207615 -204.890361 
L 133.311893 -206.418758 
L 131.416172 -207.95494 
L 129.52045 -209.498907 
L 127.624728 -211.05066 
L 125.729006 -212.610196 
L 123.833284 -214.177518 
L 121.937562 -215.752623 
L 120.04184 -217.335511 
L 118.146118 -218.926184 
L 116.250396 -220.524639 
L 114.354674 -222.130877 
L 112.458953 -223.744898 
L 110.563231 -225.3667 
L 108.667509 -226.996285 
L 106.771787 -228.633652 
L 104.876065 -230.2788 
L 102.980343 -231.931729 
L 101.084621 -233.592439 
L 99.188899 -235.26093 
L 97.293177 -236.937201 
L 95.397456 -238.621252 
L 93.501734 -240.313084 
L 91.606012 -242.012695 
L 89.71029 -243.720085 
L 87.814568 -245.435255 
L 85.918846 -247.158204 
L 84.023124 -248.888932 
L 82.127402 -250.627438 
L 80.23168 -252.373723 
L 78.335958 -254.127786 
L 76.440237 -255.889627 
L 74.544515 -257.659246 
L 72.648793 -259.436643 
L 70.753071 -261.221817 
L 68.857349 -263.014769 
L 66.961627 -264.815498 
L 65.065905 -266.624004 
L 63.170183 -268.440287 
L 61.274461 -270.264346 
z
" style="stroke: #e64b35; stroke-opacity: 0.2"/>
    </defs>
    <g clip-path="url(#pbbae85c334)">
     <use xlink:href="#m4932d1b353" x="0" y="320.233536" style="fill: #e64b35; fill-opacity: 0.2; stroke: #e64b35; stroke-opacity: 0.2"/>
    </g>
   </g>
   <g id="FillBetweenPolyCollection_4">
    <defs>
     <path id="m10a6c0b0ec" d="M 61.274461 -78.253719 
L 61.274461 -69.023727 
L 63.169803 -70.368499 
L 65.065146 -71.703717 
L 66.960488 -73.029382 
L 68.85583 -74.345492 
L 70.751172 -75.652047 
L 72.646514 -76.949047 
L 74.541856 -78.23649 
L 76.437198 -79.514375 
L 78.33254 -80.782703 
L 80.227882 -82.041471 
L 82.123224 -83.290679 
L 84.018566 -84.530325 
L 85.913909 -85.760407 
L 87.809251 -86.980924 
L 89.704593 -88.191874 
L 91.599935 -89.393255 
L 93.495277 -90.585063 
L 95.390619 -91.767296 
L 97.285961 -92.93995 
L 99.181303 -94.10302 
L 101.076645 -95.256502 
L 102.971987 -96.40039 
L 104.867329 -97.534676 
L 106.762671 -98.659352 
L 108.658014 -99.774407 
L 110.553356 -100.879827 
L 112.448698 -101.975597 
L 114.34404 -103.061696 
L 116.239382 -104.138096 
L 118.134724 -105.204765 
L 120.030066 -106.261655 
L 121.925408 -107.308707 
L 123.82075 -108.345835 
L 125.716092 -109.37292 
L 127.611434 -110.389788 
L 129.506777 -111.396178 
L 131.402119 -112.391681 
L 133.297461 -113.375629 
L 135.192803 -114.346885 
L 137.088145 -115.30344 
L 138.983487 -116.241758 
L 140.878829 -117.156305 
L 142.774171 -118.041372 
L 144.669513 -118.896341 
L 146.564855 -119.727066 
L 148.460197 -120.540554 
L 150.35554 -121.341612 
L 152.250882 -122.132982 
L 154.146224 -122.916187 
L 156.041566 -123.692096 
L 157.936908 -124.461228 
L 159.83225 -125.223909 
L 161.727592 -125.98035 
L 163.622934 -126.730693 
L 165.518276 -127.475039 
L 167.413618 -128.213459 
L 169.30896 -128.946004 
L 171.204302 -129.672714 
L 173.099645 -130.393619 
L 174.994987 -131.108741 
L 176.890329 -131.818097 
L 178.785671 -132.521703 
L 180.681013 -133.21957 
L 182.576355 -133.911705 
L 184.471697 -134.598118 
L 186.367039 -135.278812 
L 188.262381 -135.953793 
L 190.157723 -136.623065 
L 192.053065 -137.286629 
L 193.948408 -137.94449 
L 195.84375 -138.596647 
L 197.739092 -139.243102 
L 199.634434 -139.883855 
L 201.529776 -140.518907 
L 203.425118 -141.148257 
L 205.32046 -141.771904 
L 207.215802 -142.389846 
L 209.111144 -143.002083 
L 211.006486 -143.608612 
L 212.901828 -144.209429 
L 214.79717 -144.804532 
L 216.692513 -145.393916 
L 218.587855 -145.977578 
L 220.483197 -146.55551 
L 222.378539 -147.127707 
L 224.273881 -147.69416 
L 226.169223 -148.254861 
L 228.064565 -148.809799 
L 229.959907 -149.35896 
L 231.855249 -149.90233 
L 233.750591 -150.439889 
L 235.645933 -150.971617 
L 237.541276 -151.497486 
L 239.436618 -152.017462 
L 241.33196 -152.531507 
L 243.227302 -153.039568 
L 245.122644 -153.541583 
L 247.017986 -154.037469 
L 248.913328 -154.527121 
L 250.80867 -155.010401 
L 252.704012 -155.485932 
L 254.599354 -155.952395 
L 256.494696 -156.4097 
L 258.390039 -156.857737 
L 260.285381 -157.296376 
L 262.180723 -157.725464 
L 264.076065 -158.144822 
L 265.971407 -158.554243 
L 267.866749 -158.953497 
L 269.762091 -159.342334 
L 271.657433 -159.720503 
L 273.552775 -160.087772 
L 275.448117 -160.443958 
L 277.343459 -160.788961 
L 279.238801 -161.122796 
L 281.134144 -161.445598 
L 283.029486 -161.757621 
L 284.924828 -162.059211 
L 286.82017 -162.350763 
L 288.715512 -162.632688 
L 290.610854 -162.905382 
L 292.506196 -163.169207 
L 294.401538 -163.424481 
L 296.29688 -163.671476 
L 298.192222 -163.910419 
L 300.087564 -164.1415 
L 301.982907 -164.364874 
L 303.878249 -164.580668 
L 305.773591 -164.788986 
L 307.668933 -164.989912 
L 309.564275 -165.183514 
L 311.459617 -165.369845 
L 313.354959 -165.548951 
L 315.250301 -165.720864 
L 317.145643 -165.885612 
L 319.040985 -166.043215 
L 320.936327 -166.193687 
L 322.83167 -166.337037 
L 324.727012 -166.473272 
L 326.622354 -166.602392 
L 328.517696 -166.724396 
L 330.413038 -166.839278 
L 332.30838 -166.947032 
L 334.203722 -167.047645 
L 336.099064 -167.141106 
L 337.994406 -167.227397 
L 339.889748 -167.306501 
L 341.78509 -167.378397 
L 343.680432 -167.443062 
L 345.575775 -167.50047 
L 347.471117 -167.550593 
L 349.366459 -167.593401 
L 351.261801 -167.62886 
L 353.157143 -167.656934 
L 355.052485 -167.677587 
L 356.947827 -167.690777 
L 358.843169 -167.69646 
L 360.738511 -167.694592 
L 362.633853 -167.685124 
L 364.529195 -167.668004 
L 366.424538 -167.643181 
L 368.31988 -167.610599 
L 370.215222 -167.570201 
L 372.110564 -167.521927 
L 374.005906 -167.465717 
L 375.901248 -167.40151 
L 377.79659 -167.329243 
L 379.691932 -167.248851 
L 381.587274 -167.160273 
L 383.482616 -167.063445 
L 385.377958 -166.958305 
L 387.2733 -166.844792 
L 389.168643 -166.722847 
L 391.063985 -166.592413 
L 392.959327 -166.453437 
L 394.854669 -166.305867 
L 396.750011 -166.149656 
L 398.645353 -165.984759 
L 400.540695 -165.811137 
L 402.436037 -165.628754 
L 404.331379 -165.437578 
L 406.226721 -165.237582 
L 408.122063 -165.028742 
L 410.017406 -164.811038 
L 411.912748 -164.584454 
L 413.80809 -164.348978 
L 415.703432 -164.104601 
L 417.598774 -163.851317 
L 419.494116 -163.589122 
L 421.389458 -163.318016 
L 423.2848 -163.037999 
L 425.180142 -162.749076 
L 427.075484 -162.45125 
L 428.970826 -162.144528 
L 430.866169 -161.828916 
L 432.761511 -161.504423 
L 434.656853 -161.171057 
L 436.552195 -160.828829 
L 438.447537 -160.477746 
L 438.447537 -163.482308 
L 438.447537 -163.482308 
L 436.552195 -163.748667 
L 434.656853 -164.008675 
L 432.761511 -164.262341 
L 430.866169 -164.509675 
L 428.970826 -164.750684 
L 427.075484 -164.985378 
L 425.180142 -165.213764 
L 423.2848 -165.435847 
L 421.389458 -165.651632 
L 419.494116 -165.861123 
L 417.598774 -166.06432 
L 415.703432 -166.261222 
L 413.80809 -166.451827 
L 411.912748 -166.636127 
L 410.017406 -166.814115 
L 408.122063 -166.985778 
L 406.226721 -167.151099 
L 404.331379 -167.310059 
L 402.436037 -167.462635 
L 400.540695 -167.608799 
L 398.645353 -167.748519 
L 396.750011 -167.881759 
L 394.854669 -168.008479 
L 392.959327 -168.128636 
L 391.063985 -168.242182 
L 389.168643 -168.349065 
L 387.2733 -168.449232 
L 385.377958 -168.542626 
L 383.482616 -168.629187 
L 381.587274 -168.708856 
L 379.691932 -168.78157 
L 377.79659 -168.847265 
L 375.901248 -168.90588 
L 374.005906 -168.957349 
L 372.110564 -169.001612 
L 370.215222 -169.038605 
L 368.31988 -169.068268 
L 366.424538 -169.090543 
L 364.529195 -169.105372 
L 362.633853 -169.1127 
L 360.738511 -169.112473 
L 358.843169 -169.104642 
L 356.947827 -169.089157 
L 355.052485 -169.065974 
L 353.157143 -169.035049 
L 351.261801 -168.996341 
L 349.366459 -168.949812 
L 347.471117 -168.895426 
L 345.575775 -168.833151 
L 343.680432 -168.762956 
L 341.78509 -168.684813 
L 339.889748 -168.598696 
L 337.994406 -168.504583 
L 336.099064 -168.402451 
L 334.203722 -168.292284 
L 332.30838 -168.174064 
L 330.413038 -168.04778 
L 328.517696 -167.91342 
L 326.622354 -167.770976 
L 324.727012 -167.620443 
L 322.83167 -167.46182 
L 320.936327 -167.295108 
L 319.040985 -167.120312 
L 317.145643 -166.937442 
L 315.250301 -166.746512 
L 313.354959 -166.547543 
L 311.459617 -166.34056 
L 309.564275 -166.125599 
L 307.668933 -165.902703 
L 305.773591 -165.671926 
L 303.878249 -165.433337 
L 301.982907 -165.187019 
L 300.087564 -164.933075 
L 298.192222 -164.671633 
L 296.29688 -164.402849 
L 294.401538 -164.12691 
L 292.506196 -163.844047 
L 290.610854 -163.55453 
L 288.715512 -163.258677 
L 286.82017 -162.956849 
L 284.924828 -162.649443 
L 283.029486 -162.33687 
L 281.134144 -162.019526 
L 279.238801 -161.697756 
L 277.343459 -161.371813 
L 275.448117 -161.041834 
L 273.552775 -160.707832 
L 271.657433 -160.369708 
L 269.762091 -160.02728 
L 267.866749 -159.680315 
L 265.971407 -159.328561 
L 264.076065 -158.97177 
L 262.180723 -158.60971 
L 260.285381 -158.242176 
L 258.390039 -157.868988 
L 256.494696 -157.489993 
L 254.599354 -157.10506 
L 252.704012 -156.714081 
L 250.80867 -156.316964 
L 248.913328 -155.912392 
L 247.017986 -155.498987 
L 245.122644 -155.076611 
L 243.227302 -154.645158 
L 241.33196 -154.204547 
L 239.436618 -153.754714 
L 237.541276 -153.295609 
L 235.645933 -152.82719 
L 233.750591 -152.349426 
L 231.855249 -151.862288 
L 229.959907 -151.365756 
L 228.064565 -150.85981 
L 226.169223 -150.344435 
L 224.273881 -149.819619 
L 222.378539 -149.28535 
L 220.483197 -148.74162 
L 218.587855 -148.18842 
L 216.692513 -147.625744 
L 214.79717 -147.053587 
L 212.901828 -146.471943 
L 211.006486 -145.880808 
L 209.111144 -145.280179 
L 207.215802 -144.670054 
L 205.32046 -144.05043 
L 203.425118 -143.421305 
L 201.529776 -142.782677 
L 199.634434 -142.134547 
L 197.739092 -141.476914 
L 195.84375 -140.809777 
L 193.948408 -140.133137 
L 192.053065 -139.446995 
L 190.157723 -138.751353 
L 188.262381 -138.046213 
L 186.367039 -137.331577 
L 184.471697 -136.607449 
L 182.576355 -135.873835 
L 180.681013 -135.130738 
L 178.785671 -134.378168 
L 176.890329 -133.616132 
L 174.994987 -132.844642 
L 173.099645 -132.063712 
L 171.204302 -131.27336 
L 169.30896 -130.473608 
L 167.413618 -129.664487 
L 165.518276 -128.846034 
L 163.622934 -128.018304 
L 161.727592 -127.181365 
L 159.83225 -126.33532 
L 157.936908 -125.480309 
L 156.041566 -124.616544 
L 154.146224 -123.744352 
L 152.250882 -122.86425 
L 150.35554 -121.977108 
L 148.460197 -121.08445 
L 146.564855 -120.189016 
L 144.669513 -119.295614 
L 142.774171 -118.411251 
L 140.878829 -117.541782 
L 138.983487 -116.686588 
L 137.088145 -115.839959 
L 135.192803 -114.996362 
L 133.297461 -114.152261 
L 131.402119 -113.305648 
L 129.506777 -112.455384 
L 127.611434 -111.600803 
L 125.716092 -110.741494 
L 123.82075 -109.877198 
L 121.925408 -109.007739 
L 120.030066 -108.133 
L 118.134724 -107.252894 
L 116.239382 -106.367361 
L 114.34404 -105.476355 
L 112.448698 -104.579842 
L 110.553356 -103.677795 
L 108.658014 -102.770195 
L 106.762671 -101.857023 
L 104.867329 -100.938267 
L 102.971987 -100.013917 
L 101.076645 -99.083964 
L 99.181303 -98.148399 
L 97.285961 -97.207219 
L 95.390619 -96.260416 
L 93.495277 -95.307988 
L 91.599935 -94.34993 
L 89.704593 -93.386239 
L 87.809251 -92.416912 
L 85.913909 -91.441948 
L 84.018566 -90.461345 
L 82.123224 -89.475099 
L 80.227882 -88.483211 
L 78.33254 -87.485678 
L 76.437198 -86.482499 
L 74.541856 -85.473674 
L 72.646514 -84.459201 
L 70.751172 -83.439079 
L 68.85583 -82.413308 
L 66.960488 -81.381887 
L 65.065146 -80.344816 
L 63.169803 -79.302093 
L 61.274461 -78.253719 
z
" style="stroke: #e64b35; stroke-opacity: 0.2"/>
    </defs>
    <g clip-path="url(#pbbae85c334)">
     <use xlink:href="#m10a6c0b0ec" x="0" y="320.233536" style="fill: #e64b35; fill-opacity: 0.2; stroke: #e64b35; stroke-opacity: 0.2"/>
    </g>
   </g>
   <g id="matplotlib.axis_1">
    <g id="xtick_1">
     <g id="line2d_1">
      <defs>
       <path id="mfb940188de" d="M 0 0 
L 0 6 
" style="stroke: #000000; stroke-width: 1.5"/>
      </defs>
      <g>
       <use xlink:href="#mfb940188de" x="61.274461" y="267.690568" style="stroke: #000000; stroke-width: 1.5"/>
      </g>
     </g>
     <g id="text_1">
      <!-- $\mathdefault{0}$ -->
      <g transform="translate(57.162318 289.643868) scale(0.18 -0.18)">
       <defs>
        <path id="CMR17-32" d="M 2688 2038 
C 2688 2430 2681 3099 2412 3613 
C 2176 4063 1798 4224 1465 4224 
C 1158 4224 768 4082 524 3620 
C 268 3137 243 2539 243 2038 
C 243 1671 249 1112 448 623 
C 723 -39 1216 -128 1465 -128 
C 1760 -128 2208 -7 2470 604 
C 2662 1048 2688 1568 2688 2038 
z
M 1465 -26 
C 1056 -26 812 328 723 816 
C 652 1196 652 1749 652 2109 
C 652 2604 652 3015 736 3407 
C 857 3954 1216 4121 1465 4121 
C 1728 4121 2067 3947 2188 3420 
C 2272 3054 2278 2623 2278 2109 
C 2278 1691 2278 1176 2201 797 
C 2067 96 1689 -26 1465 -26 
z
" transform="scale(0.015625)"/>
       </defs>
       <use xlink:href="#CMR17-32" transform="scale(0.996264)"/>
      </g>
     </g>
    </g>
    <g id="xtick_2">
     <g id="line2d_2">
      <g>
       <use xlink:href="#mfb940188de" x="155.751961" y="267.690568" style="stroke: #000000; stroke-width: 1.5"/>
      </g>
     </g>
     <g id="text_2">
      <!-- $\mathdefault{5}$ -->
      <g transform="translate(151.639818 289.643868) scale(0.18 -0.18)">
       <defs>
        <path id="CMR17-37" d="M 729 3750 
C 793 3724 1056 3641 1324 3641 
C 1920 3641 2246 3961 2432 4140 
C 2432 4191 2432 4224 2393 4224 
C 2387 4224 2374 4224 2323 4198 
C 2099 4102 1836 4032 1516 4032 
C 1324 4032 1036 4055 723 4191 
C 652 4224 640 4224 633 4224 
C 601 4224 595 4217 595 4090 
L 595 2231 
C 595 2113 595 2080 659 2080 
C 691 2080 704 2093 736 2139 
C 940 2435 1222 2560 1542 2560 
C 1766 2560 2246 2415 2246 1293 
C 2246 1087 2246 716 2054 422 
C 1894 159 1644 25 1369 25 
C 947 25 518 319 403 812 
C 428 806 480 793 505 793 
C 588 793 748 838 748 1036 
C 748 1209 627 1280 505 1280 
C 358 1280 262 1190 262 1011 
C 262 454 704 -128 1382 -128 
C 2041 -128 2668 441 2668 1267 
C 2668 2054 2169 2662 1548 2662 
C 1222 2662 947 2540 729 2304 
L 729 3750 
z
" transform="scale(0.015625)"/>
       </defs>
       <use xlink:href="#CMR17-37" transform="scale(0.996264)"/>
      </g>
     </g>
    </g>
    <g id="xtick_3">
     <g id="line2d_3">
      <g>
       <use xlink:href="#mfb940188de" x="250.229461" y="267.690568" style="stroke: #000000; stroke-width: 1.5"/>
      </g>
     </g>
     <g id="text_3">
      <!-- $\mathdefault{10}$ -->
      <g transform="translate(242.005175 289.643868) scale(0.18 -0.18)">
       <defs>
        <path id="CMR17-33" d="M 1702 4083 
C 1702 4217 1696 4224 1606 4224 
C 1356 3927 979 3833 620 3820 
C 601 3820 569 3820 563 3808 
C 556 3795 556 3782 556 3648 
C 755 3648 1088 3686 1344 3839 
L 1344 467 
C 1344 243 1331 166 780 166 
L 588 166 
L 588 0 
C 896 6 1216 12 1523 12 
C 1830 12 2150 6 2457 0 
L 2457 166 
L 2265 166 
C 1715 166 1702 236 1702 467 
L 1702 4083 
z
" transform="scale(0.015625)"/>
       </defs>
       <use xlink:href="#CMR17-33" transform="scale(0.996264)"/>
       <use xlink:href="#CMR17-32" transform="translate(45.690477 0) scale(0.996264)"/>
      </g>
     </g>
    </g>
    <g id="xtick_4">
     <g id="line2d_4">
      <g>
       <use xlink:href="#mfb940188de" x="344.706961" y="267.690568" style="stroke: #000000; stroke-width: 1.5"/>
      </g>
     </g>
     <g id="text_4">
      <!-- $\mathdefault{15}$ -->
      <g transform="translate(336.482675 289.643868) scale(0.18 -0.18)">
       <use xlink:href="#CMR17-33" transform="scale(0.996264)"/>
       <use xlink:href="#CMR17-37" transform="translate(45.690477 0) scale(0.996264)"/>
      </g>
     </g>
    </g>
    <g id="xtick_5">
     <g id="line2d_5">
      <g>
       <use xlink:href="#mfb940188de" x="439.184461" y="267.690568" style="stroke: #000000; stroke-width: 1.5"/>
      </g>
     </g>
     <g id="text_5">
      <!-- $\mathdefault{20}$ -->
      <g transform="translate(430.960175 289.643868) scale(0.18 -0.18)">
       <defs>
        <path id="CMR17-34" d="M 2668 990 
L 2553 990 
C 2489 537 2438 460 2412 422 
C 2380 371 1920 371 1830 371 
L 601 371 
C 832 620 1280 1073 1824 1596 
C 2214 1966 2668 2400 2668 3033 
C 2668 3788 2067 4224 1395 4224 
C 691 4224 262 3603 262 3027 
C 262 2777 448 2745 524 2745 
C 588 2745 780 2783 780 3007 
C 780 3206 614 3264 524 3264 
C 486 3264 448 3257 422 3244 
C 544 3788 915 4057 1305 4057 
C 1862 4057 2227 3616 2227 3033 
C 2227 2477 1900 1998 1536 1583 
L 262 147 
L 262 0 
L 2515 0 
L 2668 990 
z
" transform="scale(0.015625)"/>
       </defs>
       <use xlink:href="#CMR17-34" transform="scale(0.996264)"/>
       <use xlink:href="#CMR17-32" transform="translate(45.690477 0) scale(0.996264)"/>
      </g>
     </g>
    </g>
    <g id="text_6">
     <!-- Distance (mm) -->
     <g transform="translate(196.375239 308.565352) scale(0.18 -0.18)">
      <defs>
       <path id="CMR17-46" d="M 332 4352 
L 332 4185 
C 774 4185 844 4185 844 3898 
L 844 453 
C 844 166 774 166 332 166 
L 332 0 
L 2368 0 
C 3398 0 4224 943 4224 2140 
C 4224 3344 3411 4352 2368 4352 
L 332 4352 
z
M 1523 166 
C 1267 166 1254 198 1254 414 
L 1254 3936 
C 1254 4153 1267 4185 1523 4185 
L 2240 4185 
C 2771 4185 3750 3873 3750 2140 
C 3750 1242 3488 879 3366 707 
C 3212 510 2848 166 2240 166 
L 1523 166 
z
" transform="scale(0.015625)"/>
       <path id="CMR17-6b" d="M 992 3961 
C 992 4102 876 4224 729 4224 
C 588 4224 467 4108 467 3961 
C 467 3820 582 3699 729 3699 
C 870 3699 992 3814 992 3961 
z
M 243 2745 
L 243 2579 
C 601 2579 652 2540 652 2231 
L 652 443 
C 652 198 627 166 217 166 
L 217 0 
C 371 12 646 12 806 12 
C 960 12 1222 12 1369 0 
L 1369 166 
C 992 166 979 205 979 436 
L 979 2816 
L 243 2745 
z
" transform="scale(0.015625)"/>
       <path id="CMR17-75" d="M 1977 2688 
C 1977 2803 1971 2809 1932 2809 
C 1907 2809 1900 2803 1824 2707 
C 1804 2681 1747 2617 1728 2592 
C 1523 2809 1235 2816 1126 2816 
C 416 2816 160 2444 160 2073 
C 160 1497 812 1363 998 1324 
C 1401 1241 1542 1216 1676 1100 
C 1760 1024 1900 883 1900 652 
C 1900 384 1747 38 1158 38 
C 601 38 403 460 288 1024 
C 268 1113 268 1120 217 1120 
C 166 1120 160 1113 160 985 
L 160 64 
C 160 -52 166 -58 204 -58 
C 236 -58 243 -52 275 0 
C 313 57 409 211 448 275 
C 576 102 800 -64 1158 -64 
C 1792 -64 2131 281 2131 780 
C 2131 1107 1958 1280 1875 1356 
C 1683 1555 1459 1600 1190 1651 
C 838 1728 390 1817 390 2208 
C 390 2374 480 2726 1126 2726 
C 1811 2726 1849 2086 1862 1881 
C 1868 1849 1900 1843 1920 1843 
C 1977 1843 1977 1862 1977 1971 
L 1977 2688 
z
" transform="scale(0.015625)"/>
       <path id="CMR17-76" d="M 966 2585 
L 1862 2585 
L 1862 2752 
L 966 2752 
L 966 3968 
L 851 3968 
C 838 3292 614 2700 70 2687 
L 70 2585 
L 627 2585 
L 627 778 
C 627 655 627 -64 1369 -64 
C 1747 -64 1964 308 1964 784 
L 1964 1151 
L 1849 1151 
L 1849 790 
C 1849 347 1676 51 1408 51 
C 1222 51 966 179 966 765 
L 966 2585 
z
" transform="scale(0.015625)"/>
       <path id="CMR17-63" d="M 2304 1656 
C 2304 2048 2304 2275 2035 2534 
C 1798 2751 1523 2816 1305 2816 
C 800 2816 435 2408 435 1977 
C 435 1740 627 1728 665 1728 
C 748 1728 896 1779 896 1958 
C 896 2118 774 2188 665 2188 
C 640 2188 608 2182 588 2176 
C 723 2594 1068 2713 1292 2713 
C 1612 2713 1964 2421 1964 1875 
L 1964 1632 
C 1587 1619 1132 1568 774 1373 
C 371 1147 256 822 256 576 
C 256 77 832 -64 1171 -64 
C 1523 -64 1849 135 1990 505 
C 2003 219 2182 -39 2464 -39 
C 2598 -39 2937 51 2937 563 
L 2937 926 
L 2822 926 
L 2822 557 
C 2822 161 2649 109 2566 109 
C 2304 109 2304 446 2304 732 
L 2304 1656 
z
M 1964 887 
C 1964 323 1568 38 1216 38 
C 896 38 646 278 646 576 
C 646 771 729 1114 1100 1322 
C 1408 1497 1760 1523 1964 1536 
L 1964 887 
z
" transform="scale(0.015625)"/>
       <path id="CMR17-70" d="M 2656 1954 
C 2656 2282 2592 2816 1836 2816 
C 1331 2816 1068 2424 972 2166 
L 966 2166 
L 966 2816 
L 211 2745 
L 211 2578 
C 588 2578 646 2540 646 2231 
L 646 443 
C 646 198 620 166 211 166 
L 211 0 
C 364 12 646 12 812 12 
C 979 12 1267 12 1420 0 
L 1420 166 
C 1011 166 985 192 985 443 
L 985 1678 
C 985 2269 1344 2713 1792 2713 
C 2265 2713 2316 2289 2316 1980 
L 2316 443 
C 2316 198 2291 166 1881 166 
L 1881 0 
C 2035 12 2316 12 2483 12 
C 2649 12 2937 12 3091 0 
L 3091 166 
C 2681 166 2656 192 2656 443 
L 2656 1954 
z
" transform="scale(0.015625)"/>
       <path id="CMR17-65" d="M 2233 2240 
C 2112 2240 1932 2240 1932 2015 
C 1932 1836 2080 1785 2163 1785 
C 2208 1785 2393 1804 2393 2028 
C 2393 2476 1958 2816 1465 2816 
C 787 2816 211 2201 211 1379 
C 211 521 812 -64 1465 -64 
C 2259 -64 2457 676 2457 747 
C 2457 773 2451 792 2406 792 
C 2361 792 2355 786 2329 702 
C 2163 180 1798 51 1523 51 
C 1113 51 620 431 620 1385 
C 620 2358 1094 2700 1472 2700 
C 1721 2700 2092 2582 2233 2240 
z
" transform="scale(0.015625)"/>
       <path id="CMR17-67" d="M 2438 1503 
C 2464 1529 2464 1542 2464 1606 
C 2464 2251 2118 2816 1388 2816 
C 710 2816 172 2175 172 1394 
C 172 554 780 -64 1459 -64 
C 2176 -64 2457 619 2457 755 
C 2457 800 2419 800 2406 800 
C 2361 800 2355 787 2329 709 
C 2188 270 1836 51 1504 51 
C 1228 51 953 206 780 490 
C 582 819 582 1200 582 1503 
L 2438 1503 
z
M 588 1600 
C 633 2511 1126 2713 1382 2713 
C 1817 2713 2112 2308 2118 1600 
L 588 1600 
z
" transform="scale(0.015625)"/>
       <path id="CMR17-29" d="M 1958 -1562 
C 1958 -1556 1958 -1543 1939 -1524 
C 1644 -1223 857 -403 857 1596 
C 857 3595 1632 4408 1945 4729 
C 1945 4735 1958 4748 1958 4767 
C 1958 4787 1939 4800 1913 4800 
C 1843 4800 1299 4325 985 3620 
C 665 2909 576 2218 576 1603 
C 576 1141 620 360 1004 -467 
C 1312 -1133 1836 -1600 1913 -1600 
C 1945 -1600 1958 -1588 1958 -1562 
z
" transform="scale(0.015625)"/>
       <path id="CMR17-6f" d="M 4326 1954 
C 4326 2276 4269 2816 3507 2816 
C 3072 2816 2771 2520 2656 2173 
L 2649 2173 
C 2572 2700 2195 2816 1836 2816 
C 1331 2816 1068 2424 972 2166 
L 966 2166 
L 966 2816 
L 211 2745 
L 211 2578 
C 588 2578 646 2540 646 2231 
L 646 443 
C 646 198 620 166 211 166 
L 211 0 
C 364 12 646 12 812 12 
C 979 12 1267 12 1420 0 
L 1420 166 
C 1011 166 985 192 985 443 
L 985 1678 
C 985 2269 1344 2713 1792 2713 
C 2265 2713 2316 2289 2316 1980 
L 2316 443 
C 2316 198 2291 166 1881 166 
L 1881 0 
C 2035 12 2316 12 2483 12 
C 2649 12 2937 12 3091 0 
L 3091 166 
C 2681 166 2656 192 2656 443 
L 2656 1678 
C 2656 2269 3014 2713 3462 2713 
C 3936 2713 3987 2289 3987 1980 
L 3987 443 
C 3987 198 3961 166 3552 166 
L 3552 0 
C 3705 12 3987 12 4153 12 
C 4320 12 4608 12 4761 0 
L 4761 166 
C 4352 166 4326 192 4326 443 
L 4326 1954 
z
" transform="scale(0.015625)"/>
       <path id="CMR17-2a" d="M 1683 1596 
C 1683 2057 1638 2839 1254 3665 
C 947 4332 422 4800 345 4800 
C 326 4800 300 4793 300 4761 
C 300 4748 307 4742 313 4729 
C 620 4408 1401 3595 1401 1603 
C 1401 -396 627 -1210 313 -1530 
C 307 -1543 300 -1549 300 -1562 
C 300 -1594 326 -1600 345 -1600 
C 416 -1600 960 -1127 1273 -422 
C 1593 289 1683 981 1683 1596 
z
" transform="scale(0.015625)"/>
      </defs>
      <use xlink:href="#CMR17-46" transform="scale(0.996264)"/>
      <use xlink:href="#CMR17-6b" transform="translate(70.393556 0) scale(0.996264)"/>
      <use xlink:href="#CMR17-75" transform="translate(95.264614 0) scale(0.996264)"/>
      <use xlink:href="#CMR17-76" transform="translate(131.065952 0) scale(0.996264)"/>
      <use xlink:href="#CMR17-63" transform="translate(166.34672 0) scale(0.996264)"/>
      <use xlink:href="#CMR17-70" transform="translate(212.037197 0) scale(0.996264)"/>
      <use xlink:href="#CMR17-65" transform="translate(262.932567 0) scale(0.996264)"/>
      <use xlink:href="#CMR17-67" transform="translate(303.418227 0) scale(0.996264)"/>
      <use xlink:href="#CMR17-29" transform="translate(373.979854 0) scale(0.996264)"/>
      <use xlink:href="#CMR17-6f" transform="translate(409.260622 0) scale(0.996264)"/>
      <use xlink:href="#CMR17-6f" transform="translate(486.180212 0) scale(0.996264)"/>
      <use xlink:href="#CMR17-2a" transform="translate(563.099802 0) scale(0.996264)"/>
     </g>
    </g>
   </g>
   <g id="matplotlib.axis_2">
    <g id="ytick_1">
     <g id="line2d_6">
      <defs>
       <path id="m73e9b53d11" d="M 0 0 
L -6 0 
" style="stroke: #000000; stroke-width: 1.5"/>
      </defs>
      <g>
       <use xlink:href="#m73e9b53d11" x="61.274461" y="267.690568" style="stroke: #000000; stroke-width: 1.5"/>
      </g>
     </g>
     <g id="text_7">
      <!-- $\mathdefault{0}$ -->
      <g transform="translate(43.550175 273.917218) scale(0.18 -0.18)">
       <use xlink:href="#CMR17-32" transform="scale(0.996264)"/>
      </g>
     </g>
    </g>
    <g id="ytick_2">
     <g id="line2d_7">
      <g>
       <use xlink:href="#m73e9b53d11" x="61.274461" y="216.837784" style="stroke: #000000; stroke-width: 1.5"/>
      </g>
     </g>
     <g id="text_8">
      <!-- $\mathdefault{50}$ -->
      <g transform="translate(35.32589 223.064434) scale(0.18 -0.18)">
       <use xlink:href="#CMR17-37" transform="scale(0.996264)"/>
       <use xlink:href="#CMR17-32" transform="translate(45.690477 0) scale(0.996264)"/>
      </g>
     </g>
    </g>
    <g id="ytick_3">
     <g id="line2d_8">
      <g>
       <use xlink:href="#m73e9b53d11" x="61.274461" y="165.985001" style="stroke: #000000; stroke-width: 1.5"/>
      </g>
     </g>
     <g id="text_9">
      <!-- $\mathdefault{100}$ -->
      <g transform="translate(27.101604 172.211651) scale(0.18 -0.18)">
       <use xlink:href="#CMR17-33" transform="scale(0.996264)"/>
       <use xlink:href="#CMR17-32" transform="translate(45.690477 0) scale(0.996264)"/>
       <use xlink:href="#CMR17-32" transform="translate(91.380954 0) scale(0.996264)"/>
      </g>
     </g>
    </g>
    <g id="ytick_4">
     <g id="line2d_9">
      <g>
       <use xlink:href="#m73e9b53d11" x="61.274461" y="115.132217" style="stroke: #000000; stroke-width: 1.5"/>
      </g>
     </g>
     <g id="text_10">
      <!-- $\mathdefault{150}$ -->
      <g transform="translate(27.101604 121.358867) scale(0.18 -0.18)">
       <use xlink:href="#CMR17-33" transform="scale(0.996264)"/>
       <use xlink:href="#CMR17-37" transform="translate(45.690477 0) scale(0.996264)"/>
       <use xlink:href="#CMR17-32" transform="translate(91.380954 0) scale(0.996264)"/>
      </g>
     </g>
    </g>
    <g id="ytick_5">
     <g id="line2d_10">
      <g>
       <use xlink:href="#m73e9b53d11" x="61.274461" y="64.279434" style="stroke: #000000; stroke-width: 1.5"/>
      </g>
     </g>
     <g id="text_11">
      <!-- $\mathdefault{200}$ -->
      <g transform="translate(27.101604 70.506084) scale(0.18 -0.18)">
       <use xlink:href="#CMR17-34" transform="scale(0.996264)"/>
       <use xlink:href="#CMR17-32" transform="translate(45.690477 0) scale(0.996264)"/>
       <use xlink:href="#CMR17-32" transform="translate(91.380954 0) scale(0.996264)"/>
      </g>
     </g>
    </g>
    <g id="ytick_6">
     <g id="line2d_11">
      <g>
       <use xlink:href="#m73e9b53d11" x="61.274461" y="13.42665" style="stroke: #000000; stroke-width: 1.5"/>
      </g>
     </g>
     <g id="text_12">
      <!-- $\mathdefault{250}$ -->
      <g transform="translate(27.101604 19.6533) scale(0.18 -0.18)">
       <use xlink:href="#CMR17-34" transform="scale(0.996264)"/>
       <use xlink:href="#CMR17-37" transform="translate(45.690477 0) scale(0.996264)"/>
       <use xlink:href="#CMR17-32" transform="translate(91.380954 0) scale(0.996264)"/>
      </g>
     </g>
    </g>
    <g id="text_13">
     <!-- $K_x(d)$ (N/m) -->
     <g transform="translate(20.63342 188.990674) rotate(-90) scale(0.18 -0.18)">
      <defs>
       <path id="CMMI12-4c" d="M 3200 2574 
C 3193 2593 3168 2644 3168 2663 
C 3168 2669 3174 2675 3283 2758 
L 3904 3242 
C 4761 3905 5043 4128 5485 4166 
C 5529 4172 5593 4172 5593 4281 
C 5593 4319 5574 4352 5523 4352 
C 5453 4352 5376 4339 5305 4339 
L 5062 4339 
C 4864 4339 4653 4352 4461 4352 
C 4416 4352 4339 4352 4339 4236 
C 4339 4172 4384 4166 4422 4166 
C 4493 4159 4576 4134 4576 4045 
C 4576 3917 4384 3765 4333 3726 
L 1824 1784 
L 2355 3886 
C 2412 4102 2425 4166 2880 4166 
C 3001 4166 3059 4166 3059 4287 
C 3059 4352 2995 4352 2963 4352 
C 2848 4352 2713 4339 2592 4339 
L 1836 4339 
C 1721 4339 1580 4352 1465 4352 
C 1414 4352 1344 4352 1344 4230 
C 1344 4166 1401 4166 1497 4166 
C 1888 4166 1888 4115 1888 4045 
C 1888 4032 1888 3994 1862 3898 
L 998 472 
C 940 249 928 185 480 185 
C 358 185 294 185 294 70 
C 294 0 352 0 390 0 
C 512 0 640 12 761 12 
L 1510 12 
C 1632 12 1766 0 1888 0 
C 1939 0 2009 0 2009 121 
C 2009 185 1952 185 1856 185 
C 1465 185 1465 236 1465 300 
C 1465 344 1504 504 1529 605 
L 1779 1593 
L 2752 2351 
C 2937 1943 3277 1128 3539 504 
C 3558 465 3571 427 3571 383 
C 3571 191 3315 185 3257 185 
C 3200 185 3136 185 3136 64 
C 3136 0 3206 0 3225 0 
C 3449 0 3686 12 3910 12 
L 4217 12 
C 4313 12 4422 0 4518 0 
C 4557 0 4627 0 4627 121 
C 4627 185 4569 185 4505 185 
C 4269 191 4185 242 4089 472 
L 3200 2574 
z
" transform="scale(0.015625)"/>
       <path id="CMMI12-79" d="M 3033 2624 
C 2828 2585 2752 2431 2752 2310 
C 2752 2156 2873 2105 2963 2105 
C 3155 2105 3289 2271 3289 2444 
C 3289 2694 2982 2816 2713 2816 
C 2323 2816 2105 2451 2048 2329 
C 1900 2790 1504 2816 1388 2816 
C 736 2816 390 1993 390 1849 
C 390 1823 416 1790 460 1790 
C 512 1790 524 1829 537 1855 
C 755 2572 1184 2687 1369 2687 
C 1657 2687 1715 2438 1715 2284 
C 1715 2143 1676 1993 1600 1678 
L 1382 778 
C 1286 390 1100 64 761 64 
C 729 64 569 64 435 126 
C 665 166 716 358 716 435 
C 716 563 620 640 499 640 
C 345 640 179 505 179 300 
C 179 57 480 -64 755 -64 
C 1062 -64 1280 153 1414 415 
C 1516 64 1836 -64 2073 -64 
C 2726 -64 3072 751 3072 896 
C 3072 929 3046 955 3008 955 
C 2950 955 2944 922 2924 870 
C 2752 300 2380 64 2092 64 
C 1868 64 1747 204 1747 467 
C 1747 607 1772 712 1875 1146 
L 2099 2039 
C 2195 2425 2412 2687 2707 2687 
C 2720 2687 2899 2687 3033 2624 
z
" transform="scale(0.015625)"/>
       <path id="CMMI12-65" d="M 3219 4255 
C 3225 4281 3238 4319 3238 4351 
C 3238 4416 3174 4416 3161 4416 
C 3155 4416 2841 4390 2809 4383 
C 2700 4377 2604 4364 2489 4358 
C 2329 4345 2284 4339 2284 4223 
C 2284 4159 2336 4159 2425 4159 
C 2739 4159 2745 4103 2745 4040 
C 2745 4002 2732 3951 2726 3932 
L 2336 2394 
C 2265 2560 2092 2816 1760 2816 
C 1036 2816 256 1883 256 938 
C 256 306 627 -64 1062 -64 
C 1414 -64 1715 210 1894 421 
C 1958 44 2259 -64 2451 -64 
C 2643 -64 2796 51 2912 281 
C 3014 498 3104 887 3104 913 
C 3104 945 3078 970 3040 970 
C 2982 970 2976 938 2950 842 
C 2854 466 2732 64 2470 64 
C 2284 64 2272 230 2272 357 
C 2272 383 2272 517 2316 696 
L 3219 4255 
z
M 1926 759 
C 1894 651 1894 638 1804 517 
C 1664 338 1382 64 1081 64 
C 819 64 672 300 672 676 
C 672 1028 870 1743 992 2011 
C 1209 2458 1510 2687 1760 2687 
C 2182 2687 2265 2164 2265 2113 
C 2265 2107 2246 2024 2240 2011 
L 1926 759 
z
" transform="scale(0.015625)"/>
       <path id="CMR17-50" d="M 1312 4275 
C 1267 4345 1260 4352 1139 4352 
L 326 4352 
L 326 4185 
L 448 4185 
C 704 4185 819 4153 838 4147 
L 838 624 
C 838 465 838 166 326 166 
L 326 0 
C 473 12 742 12 902 12 
C 1062 12 1331 12 1478 0 
L 1478 166 
C 966 166 966 465 966 624 
L 966 4057 
C 1011 4019 1011 4007 1056 3943 
L 3430 76 
C 3475 0 3494 0 3526 0 
C 3590 0 3590 19 3590 140 
L 3590 3726 
C 3590 3885 3590 4185 4102 4185 
L 4102 4352 
C 3955 4339 3686 4339 3526 4339 
C 3366 4339 3097 4339 2950 4352 
L 2950 4185 
C 3462 4185 3462 3885 3462 3726 
L 3462 777 
L 1312 4275 
z
" transform="scale(0.015625)"/>
       <path id="CMR17-31" d="M 2604 4575 
C 2636 4658 2636 4671 2636 4684 
C 2636 4761 2579 4800 2528 4800 
C 2451 4800 2425 4748 2400 4671 
L 326 -1376 
C 294 -1460 294 -1472 294 -1485 
C 294 -1562 352 -1600 403 -1600 
C 480 -1600 505 -1549 531 -1472 
L 2604 4575 
z
" transform="scale(0.015625)"/>
      </defs>
      <use xlink:href="#CMMI12-4c" transform="scale(0.996264)"/>
      <use xlink:href="#CMMI12-79" transform="translate(82.992611 -14.943915) scale(0.697382)"/>
      <use xlink:href="#CMR17-29" transform="translate(122.294402 0) scale(0.996264)"/>
      <use xlink:href="#CMMI12-65" transform="translate(157.57517 0) scale(0.996264)"/>
      <use xlink:href="#CMR17-2a" transform="translate(208.264267 0) scale(0.996264)"/>
      <use xlink:href="#CMR17-29" transform="translate(273.621001 0) scale(0.996264)"/>
      <use xlink:href="#CMR17-50" transform="translate(308.901769 0) scale(0.996264)"/>
      <use xlink:href="#CMR17-31" transform="translate(377.974198 0) scale(0.996264)"/>
      <use xlink:href="#CMR17-6f" transform="translate(423.664675 0) scale(0.996264)"/>
      <use xlink:href="#CMR17-2a" transform="translate(500.584265 0) scale(0.996264)"/>
     </g>
    </g>
   </g>
   <g id="line2d_12">
    <path d="M 61.274461 66.858059 
L 70.753546 79.382267 
L 80.23263 91.4786 
L 89.711714 103.147057 
L 99.190798 114.387638 
L 106.774066 123.072032 
L 114.357333 131.482585 
L 121.940601 139.619298 
L 129.523868 147.48217 
L 137.107135 155.071202 
L 144.690403 162.386392 
L 152.27367 169.427743 
L 159.856938 176.195253 
L 167.440205 182.688922 
L 175.023472 188.90875 
L 182.60674 194.854738 
L 190.190007 200.526885 
L 197.773275 205.925192 
L 205.356542 211.049658 
L 212.939809 215.900284 
L 220.523077 220.477068 
L 228.106344 224.780013 
L 235.689612 228.809116 
L 243.272879 232.564379 
L 250.856146 236.045802 
L 258.439414 239.253384 
L 266.022681 242.187125 
L 273.605948 244.847025 
L 281.189216 247.233085 
L 288.772483 249.345305 
L 296.355751 251.183684 
L 303.939018 252.748222 
L 311.522285 254.038919 
L 319.105553 255.055776 
L 326.68882 255.798793 
L 334.272088 256.267968 
L 341.855355 256.463304 
L 349.438622 256.384798 
L 357.02189 256.032452 
L 364.605157 255.406265 
L 372.188425 254.506238 
L 379.771692 253.33237 
L 387.354959 251.884662 
L 394.938227 250.163113 
L 402.521494 248.167723 
L 410.104762 245.898493 
L 417.688029 243.355422 
L 425.271296 240.53851 
L 432.854564 237.447758 
L 438.542014 234.949986 
L 438.542014 234.949986 
" clip-path="url(#pbbae85c334)" style="fill: none; stroke: #7b52ab; stroke-width: 2.5; stroke-linecap: square"/>
   </g>
   <g id="line2d_13">
    <path d="M 61.274461 243.803906 
L 68.856589 244.743158 
L 76.438717 245.472806 
L 84.020845 245.992849 
L 91.602973 246.303287 
L 99.185101 246.404121 
L 106.767229 246.295349 
L 114.349357 245.976973 
L 121.931485 245.448992 
L 129.513613 244.711406 
L 137.095741 243.764216 
L 144.677869 242.60742 
L 152.259997 241.24102 
L 159.842125 239.665016 
L 167.424253 237.879406 
L 175.006381 235.884192 
L 182.588509 233.679373 
L 190.170637 231.264949 
L 197.752765 228.64092 
L 205.334893 225.807286 
L 212.917021 222.764048 
L 220.499149 219.511205 
L 228.081277 216.048758 
L 235.663405 212.376705 
L 243.245533 208.495048 
L 252.723193 203.364896 
L 260.305321 199.411881 
L 267.887449 195.782929 
L 275.469577 192.478043 
L 281.156172 190.212045 
L 286.842768 188.128334 
L 292.529364 186.226909 
L 298.21596 184.507771 
L 303.902556 182.970919 
L 309.589152 181.616353 
L 315.275748 180.444074 
L 320.962344 179.454081 
L 326.64894 178.646375 
L 332.335536 178.020955 
L 338.022132 177.577821 
L 343.708728 177.316974 
L 351.290856 177.070778 
L 356.977452 176.689399 
L 362.664048 176.126395 
L 368.350644 175.381766 
L 374.03724 174.455512 
L 379.723836 173.347633 
L 385.410432 172.058129 
L 391.097028 170.587001 
L 396.783624 168.934247 
L 402.47022 167.099869 
L 408.156816 165.083866 
L 413.843412 162.886238 
L 419.530008 160.506985 
L 427.112136 157.05212 
L 434.694264 153.274366 
L 438.485328 151.264406 
L 438.485328 151.264406 
" clip-path="url(#pbbae85c334)" style="fill: none; stroke-dasharray: 9.25,4; stroke-dashoffset: 0; stroke: #7b52ab; stroke-width: 2.5"/>
   </g>
   <g id="line2d_14">
    <path d="M 61.274461 52.163463 
L 72.648793 62.821763 
L 84.023124 73.210718 
L 95.397456 83.330327 
L 106.771787 93.180592 
L 118.146118 102.761512 
L 129.52045 112.073087 
L 140.894781 121.115317 
L 152.269112 129.888201 
L 163.643444 138.391741 
L 175.017775 146.625936 
L 186.392107 154.590786 
L 197.766438 162.28629 
L 209.140769 169.71245 
L 220.515101 176.869265 
L 231.889432 183.756734 
L 243.263763 190.374859 
L 254.638095 196.723639 
L 266.012426 202.803074 
L 277.386758 208.613163 
L 288.761089 214.153908 
L 300.13542 219.425308 
L 311.509752 224.427362 
L 322.884083 229.160072 
L 334.258415 233.623436 
L 345.632746 237.817456 
L 357.007077 241.742131 
L 368.381409 245.39746 
L 379.75574 248.783445 
L 391.130071 251.900084 
L 402.504403 254.747379 
L 413.878734 257.325329 
L 425.253066 259.633933 
L 436.627397 261.673193 
L 438.523119 261.986883 
L 438.523119 261.986883 
" clip-path="url(#pbbae85c334)" style="fill: none; stroke: #e64b35; stroke-width: 2.5; stroke-linecap: square"/>
   </g>
   <g id="line2d_15">
    <path d="M 61.274461 246.594813 
L 72.646514 239.529412 
L 84.018566 232.737701 
L 95.390619 226.21968 
L 106.762671 219.975348 
L 118.134724 214.004706 
L 129.506777 208.307754 
L 140.878829 202.884492 
L 152.250882 197.73492 
L 163.622934 192.859037 
L 174.994987 188.256844 
L 186.367039 183.928341 
L 197.739092 179.873528 
L 209.111144 176.092404 
L 220.483197 172.584971 
L 231.855249 169.351227 
L 243.227302 166.391172 
L 254.599354 163.704808 
L 264.076065 161.67524 
L 273.552775 159.835734 
L 283.029486 158.18629 
L 292.506196 156.726908 
L 301.982907 155.457589 
L 311.459617 154.378333 
L 320.936327 153.489138 
L 330.413038 152.790006 
L 339.889748 152.280937 
L 349.366459 151.96193 
L 358.843169 151.832985 
L 368.31988 151.894102 
L 377.79659 152.145282 
L 387.2733 152.586524 
L 396.750011 153.217828 
L 406.226721 154.039195 
L 415.703432 155.050624 
L 425.180142 156.252116 
L 434.656853 157.643669 
L 438.447537 158.253508 
L 438.447537 158.253508 
" clip-path="url(#pbbae85c334)" style="fill: none; stroke-dasharray: 9.25,4; stroke-dashoffset: 0; stroke: #e64b35; stroke-width: 2.5"/>
   </g>
   <g id="patch_3">
    <path d="M 61.274461 267.690568 
L 61.274461 13.42665 
" style="fill: none; stroke: #000000; stroke-width: 1.5; stroke-linejoin: miter; stroke-linecap: square"/>
   </g>
   <g id="patch_4">
    <path d="M 439.184461 267.690568 
L 439.184461 13.42665 
" style="fill: none; stroke: #000000; stroke-width: 1.5; stroke-linejoin: miter; stroke-linecap: square"/>
   </g>
   <g id="patch_5">
    <path d="M 61.274461 267.690568 
L 439.184461 267.690568 
" style="fill: none; stroke: #000000; stroke-width: 1.5; stroke-linejoin: miter; stroke-linecap: square"/>
   </g>
   <g id="patch_6">
    <path d="M 61.274461 13.42665 
L 439.184461 13.42665 
" style="fill: none; stroke: #000000; stroke-width: 1.5; stroke-linejoin: miter; stroke-linecap: square"/>
   </g>
   <g id="legend_1">
    <g id="line2d_16">
     <path d="M 364.390008 26.25165 
L 377.890008 26.25165 
L 391.390008 26.25165 
" style="fill: none; stroke: #7b52ab; stroke-width: 2.5; stroke-linecap: square"/>
    </g>
    <g id="text_14">
     <!-- Soft -->
     <g transform="translate(402.190008 30.97665) scale(0.135 -0.135)">
      <defs>
       <path id="CMR17-55" d="M 2803 4351 
C 2803 4467 2796 4473 2758 4473 
C 2720 4473 2707 4447 2681 4390 
L 2489 3965 
C 2246 4320 1875 4480 1472 4480 
C 819 4480 294 3958 294 3301 
C 294 3101 339 2817 556 2546 
C 793 2250 1017 2198 1529 2063 
C 1721 2011 2041 1927 2105 1901 
C 2470 1747 2662 1360 2662 999 
C 2662 534 2336 38 1779 38 
C 1094 38 454 425 409 1328 
C 403 1431 396 1437 352 1437 
C 300 1437 294 1431 294 1302 
L 294 0 
C 294 -116 300 -122 339 -122 
C 384 -122 396 -90 486 109 
C 492 128 492 141 614 386 
C 934 -39 1472 -128 1779 -128 
C 2476 -128 2969 457 2969 1141 
C 2969 1476 2848 1734 2777 1850 
C 2508 2263 2220 2340 1913 2417 
C 1868 2437 1856 2437 1497 2527 
C 1152 2617 1004 2662 844 2836 
C 665 3036 601 3243 601 3449 
C 601 3868 934 4326 1478 4326 
C 2156 4326 2579 3842 2675 3036 
C 2694 2920 2700 2914 2745 2914 
C 2803 2914 2803 2933 2803 3043 
L 2803 4351 
z
" transform="scale(0.015625)"/>
       <path id="CMR17-71" d="M 2758 1356 
C 2758 2176 2163 2816 1465 2816 
C 768 2816 172 2176 172 1356 
C 172 550 768 -64 1465 -64 
C 2163 -64 2758 550 2758 1356 
z
M 1465 51 
C 1164 51 908 230 761 480 
C 601 768 582 1126 582 1408 
C 582 1676 595 2009 761 2297 
C 889 2508 1139 2713 1465 2713 
C 1753 2713 1996 2553 2150 2329 
C 2348 2028 2348 1606 2348 1408 
C 2348 1158 2336 774 2163 467 
C 1984 172 1708 51 1465 51 
z
" transform="scale(0.015625)"/>
       <path id="CMR17-68" d="M 979 2585 
L 1708 2585 
L 1708 2752 
L 966 2752 
L 966 3539 
C 966 4076 1235 4377 1510 4377 
C 1593 4377 1689 4363 1753 4339 
C 1702 4326 1568 4281 1568 4121 
C 1568 3955 1696 3904 1785 3904 
C 1875 3904 2003 3955 2003 4121 
C 2003 4353 1772 4480 1516 4480 
C 1152 4480 652 4211 652 3526 
L 652 2752 
L 140 2752 
L 140 2585 
L 652 2585 
L 652 441 
C 652 198 627 166 217 166 
L 217 0 
C 371 12 665 12 832 12 
C 1017 12 1344 12 1516 0 
L 1516 166 
C 1056 166 979 166 979 454 
L 979 2585 
z
" transform="scale(0.015625)"/>
      </defs>
      <use xlink:href="#CMR17-55" transform="scale(0.996264)"/>
      <use xlink:href="#CMR17-71" transform="translate(50.89537 0) scale(0.996264)"/>
      <use xlink:href="#CMR17-68" transform="translate(96.585847 0) scale(0.996264)"/>
      <use xlink:href="#CMR17-76" transform="translate(124.059359 0) scale(0.996264)"/>
     </g>
    </g>
    <g id="line2d_17">
     <path d="M 364.390008 45.066828 
L 377.890008 45.066828 
L 391.390008 45.066828 
" style="fill: none; stroke: #e64b35; stroke-width: 2.5; stroke-linecap: square"/>
    </g>
    <g id="text_15">
     <!-- Hard -->
     <g transform="translate(402.190008 49.791828) scale(0.135 -0.135)">
      <defs>
       <path id="CMR17-4a" d="M 3590 3898 
C 3590 4185 3661 4185 4102 4185 
L 4102 4352 
C 3917 4339 3577 4339 3379 4339 
C 3180 4339 2841 4339 2656 4352 
L 2656 4185 
C 3097 4185 3168 4185 3168 3898 
L 3168 2342 
L 1260 2342 
L 1260 3898 
C 1260 4185 1331 4185 1772 4185 
L 1772 4352 
C 1587 4339 1248 4339 1049 4339 
C 851 4339 512 4339 326 4352 
L 326 4185 
C 768 4185 838 4185 838 3898 
L 838 452 
C 838 166 768 166 326 166 
L 326 0 
C 512 12 851 12 1049 12 
C 1248 12 1587 12 1772 0 
L 1772 166 
C 1331 166 1260 166 1260 452 
L 1260 2176 
L 3168 2176 
L 3168 452 
C 3168 166 3097 166 2656 166 
L 2656 0 
C 2841 12 3180 12 3379 12 
C 3577 12 3917 12 4102 0 
L 4102 166 
C 3661 166 3590 166 3590 452 
L 3590 3898 
z
" transform="scale(0.015625)"/>
       <path id="CMR17-74" d="M 960 1517 
C 960 2134 1222 2713 1702 2713 
C 1747 2713 1792 2707 1836 2687 
C 1836 2687 1696 2642 1696 2475 
C 1696 2321 1817 2257 1913 2257 
C 1990 2257 2131 2302 2131 2482 
C 2131 2687 1926 2816 1708 2816 
C 1222 2816 1011 2340 947 2115 
L 940 2115 
L 940 2816 
L 198 2745 
L 198 2578 
C 576 2578 633 2540 633 2231 
L 633 443 
C 633 198 608 166 198 166 
L 198 0 
C 352 12 646 12 812 12 
C 998 12 1324 12 1497 0 
L 1497 166 
C 1036 166 960 166 960 455 
L 960 1517 
z
" transform="scale(0.015625)"/>
       <path id="CMR17-66" d="M 1868 4345 
L 1868 4179 
C 2246 4179 2304 4141 2304 3843 
L 2304 2371 
C 2278 2403 2016 2816 1497 2816 
C 844 2816 211 2228 211 1376 
C 211 529 806 -64 1433 -64 
C 1977 -64 2259 361 2291 406 
L 2291 -64 
L 3065 -13 
L 3065 154 
C 2688 154 2630 193 2630 503 
L 2630 4416 
L 1868 4345 
z
M 2291 762 
C 2291 568 2176 393 2028 264 
C 1811 70 1593 38 1472 38 
C 1286 38 620 135 620 1369 
C 620 2636 1363 2713 1529 2713 
C 1824 2713 2060 2545 2208 2313 
C 2291 2177 2291 2157 2291 2041 
L 2291 762 
z
" transform="scale(0.015625)"/>
      </defs>
      <use xlink:href="#CMR17-4a" transform="scale(0.996264)"/>
      <use xlink:href="#CMR17-63" transform="translate(69.07243 0) scale(0.996264)"/>
      <use xlink:href="#CMR17-74" transform="translate(114.762907 0) scale(0.996264)"/>
      <use xlink:href="#CMR17-66" transform="translate(150.043675 0) scale(0.996264)"/>
     </g>
    </g>
   </g>
  </g>
 </g>
 <defs>
  <clipPath id="pbbae85c334">
   <rect x="61.274461" y="13.42665" width="377.91" height="254.263918"/>
  </clipPath>
 </defs>
</svg>
