<?xml version="1.0" encoding="utf-8" standalone="no"?>
<!DOCTYPE svg PUBLIC "-//W3C//DTD SVG 1.1//EN"
  "http://www.w3.org/Graphics/SVG/1.1/DTD/svg11.dtd">
<svg xmlns:xlink="http://www.w3.org/1999/xlink" width="470.447305pt" height="279.212508pt" viewBox="0 0 470.447305 279.212508" xmlns="http://www.w3.org/2000/svg" version="1.1">
 <metadata>
  <rdf:RDF xmlns:dc="http://purl.org/dc/elements/1.1/" xmlns:cc="http://creativecommons.org/ns#" xmlns:rdf="http://www.w3.org/1999/02/22-rdf-syntax-ns#">
   <cc:Work>
    <dc:type rdf:resource="http://purl.org/dc/dcmitype/StillImage"/>
    <dc:date>2026-07-04T13:51:08.037497</dc:date>
    <dc:format>image/svg+xml</dc:format>
    <dc:creator>
     <cc:Agent>
      <dc:title>Matplotlib v3.11.0, https://matplotlib.org/</dc:title>
     </cc:Agent>
    </dc:creator>
   </cc:Work>
  </rdf:RDF>
 </metadata>
 <defs>
  <style type="text/css">*{stroke-linejoin: round; stroke-linecap: butt}</style>
 </defs>
 <g id="figure_1">
  <g id="patch_1">
   <path d="M 0 279.212508 
L 470.447305 279.212508 
L 470.447305 0 
L 0 0 
z
" style="fill: #ffffff"/>
  </g>
  <g id="axes_1">
   <g id="patch_2">
    <path d="M 273.826398 139.606254 
C 273.826398 124.143664 270.780604 108.831428 264.863327 94.545857 
C 258.94605 80.260286 250.272365 67.279199 239.338663 56.345497 
C 228.40496 45.411794 215.423873 36.738109 201.138302 30.820832 
C 186.852732 24.903555 171.540496 21.857762 156.077905 21.857762 
C 140.615315 21.857762 125.303079 24.903555 111.017508 30.820832 
C 96.731937 36.738109 83.75085 45.411794 72.817148 56.345497 
C 61.883445 67.279199 53.20976 80.260286 47.292483 94.545857 
C 41.375206 108.831428 38.329413 124.143664 38.329413 139.606254 
C 38.329413 155.068844 41.375206 170.381081 47.292483 184.666651 
C 53.20976 198.952222 61.883445 211.933309 72.817148 222.867012 
C 83.75085 233.800714 96.731937 242.474399 111.017508 248.391676 
C 125.303079 254.308953 140.615315 257.354746 156.077905 257.354746 
C 171.540496 257.354746 186.852732 254.308953 201.138302 248.391676 
C 215.423873 242.474399 228.40496 233.800714 239.338663 222.867012 
C 250.272365 211.933309 258.94605 198.952222 264.863327 184.666651 
C 270.780604 170.381081 273.826398 155.068844 273.826398 139.606254 
M 156.077905 139.606254 
C 156.077905 139.606254 156.077905 139.606254 156.077905 139.606254 
C 156.077905 139.606254 156.077905 139.606254 156.077905 139.606254 
C 156.077905 139.606254 156.077905 139.606254 156.077905 139.606254 
C 156.077905 139.606254 156.077905 139.606254 156.077905 139.606254 
C 156.077905 139.606254 156.077905 139.606254 156.077905 139.606254 
C 156.077905 139.606254 156.077905 139.606254 156.077905 139.606254 
C 156.077905 139.606254 156.077905 139.606254 156.077905 139.606254 
C 156.077905 139.606254 156.077905 139.606254 156.077905 139.606254 
C 156.077905 139.606254 156.077905 139.606254 156.077905 139.606254 
C 156.077905 139.606254 156.077905 139.606254 156.077905 139.606254 
C 156.077905 139.606254 156.077905 139.606254 156.077905 139.606254 
C 156.077905 139.606254 156.077905 139.606254 156.077905 139.606254 
C 156.077905 139.606254 156.077905 139.606254 156.077905 139.606254 
C 156.077905 139.606254 156.077905 139.606254 156.077905 139.606254 
C 156.077905 139.606254 156.077905 139.606254 156.077905 139.606254 
C 156.077905 139.606254 156.077905 139.606254 156.077905 139.606254 
z
" style="fill: #ffffff"/>
   </g>
   <g id="patch_3">
    <path d="M 224.383987 139.606254 
L 181.774237 60.521078 
L 79.86948 84.237592 
L 95.190688 183.843407 
L 172.81337 191.112717 
z
" clip-path="url(#pe35ba40d96)" style="fill: #00a087; opacity: 0.1"/>
   </g>
   <g id="patch_4">
    <path d="M 173.180568 139.606254 
L 161.291592 123.560177 
L 142.473058 129.721754 
L 142.453861 149.504702 
L 161.281064 155.619929 
z
" clip-path="url(#pe35ba40d96)" style="fill: #00a087; opacity: 0.22"/>
   </g>
   <g id="matplotlib.axis_1">
    <g id="xtick_1">
     <g id="line2d_1">
      <path d="M 156.077905 139.606254 
L 273.826398 139.606254 
" clip-path="url(#pe35ba40d96)" style="fill: none; stroke-dasharray: 3.7,1.6; stroke-dashoffset: 0; stroke: #b0b0b0; stroke-opacity: 0.3"/>
     </g>
    </g>
    <g id="xtick_2">
     <g id="line2d_2">
      <path d="M 156.077905 139.606254 
L 192.46419 27.620783 
" clip-path="url(#pe35ba40d96)" style="fill: none; stroke-dasharray: 3.7,1.6; stroke-dashoffset: 0; stroke: #b0b0b0; stroke-opacity: 0.3"/>
     </g>
    </g>
    <g id="xtick_3">
     <g id="line2d_3">
      <path d="M 156.077905 139.606254 
L 60.817374 70.395427 
" clip-path="url(#pe35ba40d96)" style="fill: none; stroke-dasharray: 3.7,1.6; stroke-dashoffset: 0; stroke: #b0b0b0; stroke-opacity: 0.3"/>
     </g>
    </g>
    <g id="xtick_4">
     <g id="line2d_4">
      <path d="M 156.077905 139.606254 
L 60.817374 208.817081 
" clip-path="url(#pe35ba40d96)" style="fill: none; stroke-dasharray: 3.7,1.6; stroke-dashoffset: 0; stroke: #b0b0b0; stroke-opacity: 0.3"/>
     </g>
    </g>
    <g id="xtick_5">
     <g id="line2d_5">
      <path d="M 156.077905 139.606254 
L 192.46419 251.591725 
" clip-path="url(#pe35ba40d96)" style="fill: none; stroke-dasharray: 3.7,1.6; stroke-dashoffset: 0; stroke: #b0b0b0; stroke-opacity: 0.3"/>
     </g>
    </g>
   </g>
   <g id="matplotlib.axis_2">
    <g id="ytick_1">
     <g id="line2d_6">
      <path d="M 179.627604 139.606254 
C 179.627604 136.513736 179.018445 133.451289 177.83499 130.594175 
C 176.651534 127.73706 174.916797 125.140843 172.730057 122.954103 
C 170.543316 120.767362 167.947099 119.032625 165.089985 117.84917 
C 162.232871 116.665714 159.170423 116.056556 156.077905 116.056556 
C 152.985387 116.056556 149.92294 116.665714 147.065826 117.84917 
C 144.208712 119.032625 141.612494 120.767362 139.425754 122.954103 
C 137.239013 125.140843 135.504276 127.73706 134.320821 130.594175 
C 133.137365 133.451289 132.528207 136.513736 132.528207 139.606254 
C 132.528207 142.698772 133.137365 145.761219 134.320821 148.618334 
C 135.504276 151.475448 137.239013 154.071665 139.425754 156.258406 
C 141.612494 158.445146 144.208712 160.179883 147.065826 161.363338 
C 149.92294 162.546794 152.985387 163.155953 156.077905 163.155953 
C 159.170423 163.155953 162.232871 162.546794 165.089985 161.363338 
C 167.947099 160.179883 170.543316 158.445146 172.730057 156.258406 
C 174.916797 154.071665 176.651534 151.475448 177.83499 148.618334 
C 179.018445 145.761219 179.627604 142.698772 179.627604 139.606254 
" clip-path="url(#pe35ba40d96)" style="fill: none; stroke-dasharray: 3.7,1.6; stroke-dashoffset: 0; stroke: #b0b0b0; stroke-opacity: 0.3"/>
     </g>
    </g>
    <g id="ytick_2">
     <g id="line2d_7">
      <path d="M 203.177302 139.606254 
C 203.177302 133.421218 201.958985 127.296323 199.592074 121.582095 
C 197.225163 115.867867 193.755689 110.675432 189.382208 106.301951 
C 185.008727 101.92847 179.816292 98.458996 174.102064 96.092085 
C 168.387836 93.725174 162.262941 92.506857 156.077905 92.506857 
C 149.892869 92.506857 143.767975 93.725174 138.053746 96.092085 
C 132.339518 98.458996 127.147083 101.92847 122.773602 106.301951 
C 118.400121 110.675432 114.930647 115.867867 112.563736 121.582095 
C 110.196826 127.296323 108.978508 133.421218 108.978508 139.606254 
C 108.978508 145.79129 110.196826 151.916185 112.563736 157.630413 
C 114.930647 163.344641 118.400121 168.537076 122.773602 172.910557 
C 127.147083 177.284038 132.339518 180.753512 138.053746 183.120423 
C 143.767975 185.487334 149.892869 186.705651 156.077905 186.705651 
C 162.262941 186.705651 168.387836 185.487334 174.102064 183.120423 
C 179.816292 180.753512 185.008727 177.284038 189.382208 172.910557 
C 193.755689 168.537076 197.225163 163.344641 199.592074 157.630413 
C 201.958985 151.916185 203.177302 145.79129 203.177302 139.606254 
" clip-path="url(#pe35ba40d96)" style="fill: none; stroke-dasharray: 3.7,1.6; stroke-dashoffset: 0; stroke: #b0b0b0; stroke-opacity: 0.3"/>
     </g>
    </g>
    <g id="ytick_3">
     <g id="line2d_8">
      <path d="M 226.727001 139.606254 
C 226.727001 130.3287 224.899525 121.141358 221.349158 112.570016 
C 217.798792 103.998673 212.594581 96.210021 206.03436 89.6498 
C 199.474138 83.089578 191.685486 77.885367 183.114144 74.335001 
C 174.542801 70.784635 165.355459 68.957159 156.077905 68.957159 
C 146.800351 68.957159 137.613009 70.784635 129.041667 74.335001 
C 120.470324 77.885367 112.681672 83.089578 106.121451 89.6498 
C 99.561229 96.210021 94.357018 103.998673 90.806652 112.570016 
C 87.256286 121.141358 85.42881 130.3287 85.42881 139.606254 
C 85.42881 148.883808 87.256286 158.07115 90.806652 166.642492 
C 94.357018 175.213835 99.561229 183.002487 106.121451 189.562709 
C 112.681672 196.12293 120.470324 201.327141 129.041667 204.877507 
C 137.613009 208.427874 146.800351 210.255349 156.077905 210.255349 
C 165.355459 210.255349 174.542801 208.427874 183.114144 204.877507 
C 191.685486 201.327141 199.474138 196.12293 206.03436 189.562709 
C 212.594581 183.002487 217.798792 175.213835 221.349158 166.642492 
C 224.899525 158.07115 226.727001 148.883808 226.727001 139.606254 
" clip-path="url(#pe35ba40d96)" style="fill: none; stroke-dasharray: 3.7,1.6; stroke-dashoffset: 0; stroke: #b0b0b0; stroke-opacity: 0.3"/>
     </g>
    </g>
    <g id="ytick_4">
     <g id="line2d_9">
      <path d="M 250.276699 139.606254 
C 250.276699 127.236182 247.840065 114.986393 243.106243 103.557936 
C 238.372421 92.12948 231.433473 81.74461 222.686511 72.997648 
C 213.939549 64.250686 203.55468 57.311738 192.126223 52.577916 
C 180.697766 47.844095 168.447977 45.40746 156.077905 45.40746 
C 143.707833 45.40746 131.458044 47.844095 120.029587 52.577916 
C 108.601131 57.311738 98.216261 64.250686 89.469299 72.997648 
C 80.722337 81.74461 73.783389 92.12948 69.049568 103.557936 
C 64.315746 114.986393 61.879111 127.236182 61.879111 139.606254 
C 61.879111 151.976326 64.315746 164.226115 69.049568 175.654572 
C 73.783389 187.083028 80.722337 197.467898 89.469299 206.21486 
C 98.216261 214.961822 108.601131 221.90077 120.029587 226.634592 
C 131.458044 231.368413 143.707833 233.805048 156.077905 233.805048 
C 168.447977 233.805048 180.697766 231.368413 192.126223 226.634592 
C 203.55468 221.90077 213.939549 214.961822 222.686511 206.21486 
C 231.433473 197.467898 238.372421 187.083028 243.106243 175.654572 
C 247.840065 164.226115 250.276699 151.976326 250.276699 139.606254 
" clip-path="url(#pe35ba40d96)" style="fill: none; stroke-dasharray: 3.7,1.6; stroke-dashoffset: 0; stroke: #b0b0b0; stroke-opacity: 0.3"/>
     </g>
    </g>
    <g id="ytick_5">
     <g id="line2d_10">
      <path d="M 273.826398 139.606254 
C 273.826398 124.143664 270.780604 108.831428 264.863327 94.545857 
C 258.94605 80.260286 250.272365 67.279199 239.338663 56.345497 
C 228.40496 45.411794 215.423873 36.738109 201.138302 30.820832 
C 186.852732 24.903555 171.540496 21.857762 156.077905 21.857762 
C 140.615315 21.857762 125.303079 24.903555 111.017508 30.820832 
C 96.731937 36.738109 83.75085 45.411794 72.817148 56.345497 
C 61.883445 67.279199 53.20976 80.260286 47.292483 94.545857 
C 41.375206 108.831428 38.329413 124.143664 38.329413 139.606254 
C 38.329413 155.068844 41.375206 170.381081 47.292483 184.666651 
C 53.20976 198.952222 61.883445 211.933309 72.817148 222.867012 
C 83.75085 233.800714 96.731937 242.474399 111.017508 248.391676 
C 125.303079 254.308953 140.615315 257.354746 156.077905 257.354746 
C 171.540496 257.354746 186.852732 254.308953 201.138302 248.391676 
C 215.423873 242.474399 228.40496 233.800714 239.338663 222.867012 
C 250.272365 211.933309 258.94605 198.952222 264.863327 184.666651 
C 270.780604 170.381081 273.826398 155.068844 273.826398 139.606254 
" clip-path="url(#pe35ba40d96)" style="fill: none; stroke-dasharray: 3.7,1.6; stroke-dashoffset: 0; stroke: #b0b0b0; stroke-opacity: 0.3"/>
     </g>
    </g>
   </g>
   <g id="line2d_11">
    <path d="M 224.383987 139.606254 
L 181.774237 60.521078 
L 79.86948 84.237592 
L 95.190688 183.843407 
L 172.81337 191.112717 
L 224.383987 139.606254 
" clip-path="url(#pe35ba40d96)" style="fill: none; stroke-dasharray: 6.66,2.88; stroke-dashoffset: 0; stroke: #00a087; stroke-width: 1.8"/>
    <defs>
     <path id="m0d2c583723" d="M 0 2.5 
C 0.663008 2.5 1.29895 2.236584 1.767767 1.767767 
C 2.236584 1.29895 2.5 0.663008 2.5 0 
C 2.5 -0.663008 2.236584 -1.29895 1.767767 -1.767767 
C 1.29895 -2.236584 0.663008 -2.5 0 -2.5 
C -0.663008 -2.5 -1.29895 -2.236584 -1.767767 -1.767767 
C -2.236584 -1.29895 -2.5 -0.663008 -2.5 0 
C -2.5 0.663008 -2.236584 1.29895 -1.767767 1.767767 
C -1.29895 2.236584 -0.663008 2.5 0 2.5 
z
" style="stroke: #00a087"/>
    </defs>
    <g clip-path="url(#pe35ba40d96)">
     <use xlink:href="#m0d2c583723" x="224.383987" y="139.606254" style="fill: #00a087; stroke: #00a087"/>
     <use xlink:href="#m0d2c583723" x="181.774237" y="60.521078" style="fill: #00a087; stroke: #00a087"/>
     <use xlink:href="#m0d2c583723" x="79.86948" y="84.237592" style="fill: #00a087; stroke: #00a087"/>
     <use xlink:href="#m0d2c583723" x="95.190688" y="183.843407" style="fill: #00a087; stroke: #00a087"/>
     <use xlink:href="#m0d2c583723" x="172.81337" y="191.112717" style="fill: #00a087; stroke: #00a087"/>
     <use xlink:href="#m0d2c583723" x="224.383987" y="139.606254" style="fill: #00a087; stroke: #00a087"/>
    </g>
   </g>
   <g id="line2d_12">
    <path d="M 173.180568 139.606254 
L 161.291592 123.560177 
L 142.473058 129.721754 
L 142.453861 149.504702 
L 161.281064 155.619929 
L 173.180568 139.606254 
" clip-path="url(#pe35ba40d96)" style="fill: none; stroke: #00a087; stroke-width: 2.8; stroke-linecap: square"/>
    <g clip-path="url(#pe35ba40d96)">
     <use xlink:href="#m0d2c583723" x="173.180568" y="139.606254" style="fill: #00a087; stroke: #00a087"/>
     <use xlink:href="#m0d2c583723" x="161.291592" y="123.560177" style="fill: #00a087; stroke: #00a087"/>
     <use xlink:href="#m0d2c583723" x="142.473058" y="129.721754" style="fill: #00a087; stroke: #00a087"/>
     <use xlink:href="#m0d2c583723" x="142.453861" y="149.504702" style="fill: #00a087; stroke: #00a087"/>
     <use xlink:href="#m0d2c583723" x="161.281064" y="155.619929" style="fill: #00a087; stroke: #00a087"/>
     <use xlink:href="#m0d2c583723" x="173.180568" y="139.606254" style="fill: #00a087; stroke: #00a087"/>
    </g>
   </g>
   <g id="patch_5">
    <path d="M 273.826398 139.606254 
C 273.826398 124.143664 270.780604 108.831428 264.863327 94.545857 
C 258.94605 80.260286 250.272365 67.279199 239.338663 56.345497 
C 228.40496 45.411794 215.423873 36.738109 201.138302 30.820832 
C 186.852732 24.903555 171.540496 21.857762 156.077905 21.857762 
C 140.615315 21.857762 125.303079 24.903555 111.017508 30.820832 
C 96.731937 36.738109 83.75085 45.411794 72.817148 56.345497 
C 61.883445 67.279199 53.20976 80.260286 47.292483 94.545857 
C 41.375206 108.831428 38.329413 124.143664 38.329413 139.606254 
C 38.329413 155.068844 41.375206 170.381081 47.292483 184.666651 
C 53.20976 198.952222 61.883445 211.933309 72.817148 222.867012 
C 83.75085 233.800714 96.731937 242.474399 111.017508 248.391676 
C 125.303079 254.308953 140.615315 257.354746 156.077905 257.354746 
C 171.540496 257.354746 186.852732 254.308953 201.138302 248.391676 
C 215.423873 242.474399 228.40496 233.800714 239.338663 222.867012 
C 250.272365 211.933309 258.94605 198.952222 264.863327 184.666651 
C 270.780604 170.381081 273.826398 155.068844 273.826398 139.606254 
" style="fill: none; stroke: #000000; stroke-width: 1.5; stroke-linejoin: miter; stroke-linecap: square"/>
   </g>
   <g id="text_1">
    <!-- Thumb -->
    <g transform="translate(278.536337 144.088872) scale(0.18 -0.18)">
     <defs>
      <path id="CMR17-56" d="M 3981 4332 
L 288 4332 
L 179 2924 
L 294 2924 
C 377 3981 467 4166 1452 4166 
C 1568 4166 1753 4166 1804 4159 
C 1926 4140 1926 4064 1926 3917 
L 1926 465 
C 1926 236 1907 166 1376 166 
L 1196 166 
L 1196 0 
C 1504 6 1824 12 2137 12 
C 2451 12 2771 6 3078 0 
L 3078 166 
L 2899 166 
C 2368 166 2348 236 2348 465 
L 2348 3917 
C 2348 4057 2348 4134 2464 4159 
C 2515 4166 2700 4166 2816 4166 
C 3795 4166 3891 3981 3974 2924 
L 4089 2924 
L 3981 4332 
z
" transform="scale(0.015625)"/>
      <path id="CMR17-6a" d="M 2656 1954 
C 2656 2282 2592 2816 1836 2816 
C 1312 2816 1056 2392 979 2179 
L 972 2179 
L 972 4416 
L 211 4345 
L 211 4179 
C 588 4179 646 4141 646 3843 
L 646 443 
C 646 198 620 166 211 166 
L 211 0 
C 364 12 646 12 812 12 
C 979 12 1267 12 1420 0 
L 1420 166 
C 1011 166 985 192 985 443 
L 985 1678 
C 985 2269 1344 2713 1792 2713 
C 2265 2713 2316 2289 2316 1980 
L 2316 443 
C 2316 198 2291 166 1881 166 
L 1881 0 
C 2035 12 2316 12 2483 12 
C 2649 12 2937 12 3091 0 
L 3091 166 
C 2681 166 2656 192 2656 443 
L 2656 1954 
z
" transform="scale(0.015625)"/>
      <path id="CMR17-77" d="M 1881 2745 
L 1881 2579 
C 2259 2579 2316 2540 2316 2229 
L 2316 1053 
C 2316 510 2028 38 1555 38 
C 1030 38 985 355 985 691 
L 985 2816 
L 211 2745 
L 211 2579 
C 467 2579 640 2579 646 2320 
L 646 1079 
C 646 646 646 368 812 187 
C 896 103 1056 -64 1516 -64 
C 2060 -64 2272 400 2323 536 
L 2329 536 
L 2329 -64 
L 3091 -13 
L 3091 154 
C 2713 154 2656 193 2656 503 
L 2656 2816 
L 1881 2745 
z
" transform="scale(0.015625)"/>
      <path id="CMR17-6f" d="M 4326 1954 
C 4326 2276 4269 2816 3507 2816 
C 3072 2816 2771 2520 2656 2173 
L 2649 2173 
C 2572 2700 2195 2816 1836 2816 
C 1331 2816 1068 2424 972 2166 
L 966 2166 
L 966 2816 
L 211 2745 
L 211 2578 
C 588 2578 646 2540 646 2231 
L 646 443 
C 646 198 620 166 211 166 
L 211 0 
C 364 12 646 12 812 12 
C 979 12 1267 12 1420 0 
L 1420 166 
C 1011 166 985 192 985 443 
L 985 1678 
C 985 2269 1344 2713 1792 2713 
C 2265 2713 2316 2289 2316 1980 
L 2316 443 
C 2316 198 2291 166 1881 166 
L 1881 0 
C 2035 12 2316 12 2483 12 
C 2649 12 2937 12 3091 0 
L 3091 166 
C 2681 166 2656 192 2656 443 
L 2656 1678 
C 2656 2269 3014 2713 3462 2713 
C 3936 2713 3987 2289 3987 1980 
L 3987 443 
C 3987 198 3961 166 3552 166 
L 3552 0 
C 3705 12 3987 12 4153 12 
C 4320 12 4608 12 4761 0 
L 4761 166 
C 4352 166 4326 192 4326 443 
L 4326 1954 
z
" transform="scale(0.015625)"/>
      <path id="CMR17-64" d="M 960 4416 
L 198 4345 
L 198 4179 
C 576 4179 633 4141 633 3843 
L 633 -13 
L 748 -13 
L 934 445 
C 1120 141 1395 -64 1766 -64 
C 2406 -64 3052 503 3052 1382 
C 3052 2209 2476 2816 1830 2816 
C 1433 2816 1152 2603 960 2351 
L 960 4416 
z
M 972 2022 
C 972 2138 972 2157 1062 2293 
C 1312 2681 1670 2713 1792 2713 
C 1984 2713 2643 2610 2643 1388 
C 2643 109 1888 38 1734 38 
C 1536 38 1248 115 1043 490 
C 972 613 972 626 972 742 
L 972 2022 
z
" transform="scale(0.015625)"/>
     </defs>
     <use xlink:href="#CMR17-56" transform="scale(0.996264)"/>
     <use xlink:href="#CMR17-6a" transform="translate(66.509881 0) scale(0.996264)"/>
     <use xlink:href="#CMR17-77" transform="translate(114.802796 0) scale(0.996264)"/>
     <use xlink:href="#CMR17-6f" transform="translate(165.698166 0) scale(0.996264)"/>
     <use xlink:href="#CMR17-64" transform="translate(240.015302 0) scale(0.996264)"/>
    </g>
   </g>
   <g id="text_2">
    <!-- Index -->
    <g transform="translate(193.919642 19.6533) scale(0.18 -0.18)">
     <defs>
      <path id="CMR17-4b" d="M 1260 3898 
C 1260 4185 1337 4185 1798 4185 
L 1798 4352 
C 1593 4339 1267 4339 1049 4339 
C 832 4339 505 4339 300 4352 
L 300 4185 
C 761 4185 838 4185 838 3898 
L 838 453 
C 838 166 761 166 300 166 
L 300 0 
C 505 12 832 12 1049 12 
C 1267 12 1593 12 1798 0 
L 1798 166 
C 1337 166 1260 166 1260 453 
L 1260 3898 
z
" transform="scale(0.015625)"/>
      <path id="CMR17-70" d="M 2656 1954 
C 2656 2282 2592 2816 1836 2816 
C 1331 2816 1068 2424 972 2166 
L 966 2166 
L 966 2816 
L 211 2745 
L 211 2578 
C 588 2578 646 2540 646 2231 
L 646 443 
C 646 198 620 166 211 166 
L 211 0 
C 364 12 646 12 812 12 
C 979 12 1267 12 1420 0 
L 1420 166 
C 1011 166 985 192 985 443 
L 985 1678 
C 985 2269 1344 2713 1792 2713 
C 2265 2713 2316 2289 2316 1980 
L 2316 443 
C 2316 198 2291 166 1881 166 
L 1881 0 
C 2035 12 2316 12 2483 12 
C 2649 12 2937 12 3091 0 
L 3091 166 
C 2681 166 2656 192 2656 443 
L 2656 1954 
z
" transform="scale(0.015625)"/>
      <path id="CMR17-66" d="M 1868 4345 
L 1868 4179 
C 2246 4179 2304 4141 2304 3843 
L 2304 2371 
C 2278 2403 2016 2816 1497 2816 
C 844 2816 211 2228 211 1376 
C 211 529 806 -64 1433 -64 
C 1977 -64 2259 361 2291 406 
L 2291 -64 
L 3065 -13 
L 3065 154 
C 2688 154 2630 193 2630 503 
L 2630 4416 
L 1868 4345 
z
M 2291 762 
C 2291 568 2176 393 2028 264 
C 1811 70 1593 38 1472 38 
C 1286 38 620 135 620 1369 
C 620 2636 1363 2713 1529 2713 
C 1824 2713 2060 2545 2208 2313 
C 2291 2177 2291 2157 2291 2041 
L 2291 762 
z
" transform="scale(0.015625)"/>
      <path id="CMR17-67" d="M 2438 1503 
C 2464 1529 2464 1542 2464 1606 
C 2464 2251 2118 2816 1388 2816 
C 710 2816 172 2175 172 1394 
C 172 554 780 -64 1459 -64 
C 2176 -64 2457 619 2457 755 
C 2457 800 2419 800 2406 800 
C 2361 800 2355 787 2329 709 
C 2188 270 1836 51 1504 51 
C 1228 51 953 206 780 490 
C 582 819 582 1200 582 1503 
L 2438 1503 
z
M 588 1600 
C 633 2511 1126 2713 1382 2713 
C 1817 2713 2112 2308 2118 1600 
L 588 1600 
z
" transform="scale(0.015625)"/>
      <path id="CMR17-7a" d="M 1664 1491 
C 1856 1740 2073 2022 2252 2233 
C 2464 2476 2707 2579 2988 2585 
L 2988 2752 
C 2880 2745 2656 2739 2540 2739 
C 2368 2739 2169 2739 2022 2752 
L 2022 2585 
C 2112 2572 2163 2508 2163 2419 
C 2163 2304 2099 2233 2067 2188 
L 1593 1587 
L 1030 2323 
C 972 2393 972 2406 972 2438 
C 972 2515 1036 2579 1145 2585 
L 1145 2752 
C 992 2739 716 2739 556 2739 
C 384 2739 179 2739 38 2752 
L 38 2585 
C 384 2585 460 2560 614 2368 
L 1350 1414 
C 1363 1401 1395 1363 1395 1344 
C 1395 1318 838 633 768 544 
C 480 198 179 172 6 166 
L 6 0 
C 115 6 339 12 454 12 
C 582 12 864 12 979 0 
L 979 166 
C 940 172 838 185 838 332 
C 838 448 889 518 947 595 
L 1478 1248 
L 2035 524 
C 2086 454 2163 358 2163 313 
C 2163 224 2086 172 1984 166 
L 1984 0 
C 2137 12 2412 12 2572 12 
C 2745 12 2950 12 3091 0 
L 3091 166 
C 2771 166 2675 179 2521 377 
L 1664 1491 
z
" transform="scale(0.015625)"/>
     </defs>
     <use xlink:href="#CMR17-4b" transform="scale(0.996264)"/>
     <use xlink:href="#CMR17-70" transform="translate(32.638409 0) scale(0.996264)"/>
     <use xlink:href="#CMR17-66" transform="translate(83.533779 0) scale(0.996264)"/>
     <use xlink:href="#CMR17-67" transform="translate(134.429149 0) scale(0.996264)"/>
     <use xlink:href="#CMR17-7a" transform="translate(174.914809 0) scale(0.996264)"/>
    </g>
   </g>
   <g id="text_3">
    <!-- Middle -->
    <g transform="translate(7.2 64.13893) scale(0.18 -0.18)">
     <defs>
      <path id="CMR17-4f" d="M 1337 4249 
C 1299 4345 1292 4352 1158 4352 
L 339 4352 
L 339 4185 
C 780 4185 851 4185 851 3898 
L 851 624 
C 851 465 851 166 339 166 
L 339 0 
C 486 12 755 12 915 12 
C 1075 12 1344 12 1491 0 
L 1491 166 
C 979 166 979 465 979 624 
L 979 4159 
L 985 4159 
L 2489 102 
C 2515 38 2528 0 2579 0 
C 2630 0 2643 38 2668 102 
L 4185 4191 
L 4192 4191 
L 4192 453 
C 4192 166 4121 166 3680 166 
L 3680 0 
C 3853 12 4198 12 4384 12 
C 4569 12 4921 12 5094 0 
L 5094 166 
C 4653 166 4582 166 4582 453 
L 4582 3898 
C 4582 4185 4653 4185 5094 4185 
L 5094 4352 
L 4281 4352 
C 4147 4352 4141 4345 4102 4249 
L 2720 516 
L 1337 4249 
z
" transform="scale(0.015625)"/>
      <path id="CMR17-6b" d="M 992 3961 
C 992 4102 876 4224 729 4224 
C 588 4224 467 4108 467 3961 
C 467 3820 582 3699 729 3699 
C 870 3699 992 3814 992 3961 
z
M 243 2745 
L 243 2579 
C 601 2579 652 2540 652 2231 
L 652 443 
C 652 198 627 166 217 166 
L 217 0 
C 371 12 646 12 806 12 
C 960 12 1222 12 1369 0 
L 1369 166 
C 992 166 979 205 979 436 
L 979 2816 
L 243 2745 
z
" transform="scale(0.015625)"/>
      <path id="CMR17-6e" d="M 979 4416 
L 217 4345 
L 217 4179 
C 595 4179 652 4141 652 3835 
L 652 439 
C 652 198 627 166 217 166 
L 217 0 
C 371 12 652 12 812 12 
C 979 12 1260 12 1414 0 
L 1414 166 
C 1004 166 979 191 979 439 
L 979 4416 
z
" transform="scale(0.015625)"/>
     </defs>
     <use xlink:href="#CMR17-4f" transform="scale(0.996264)"/>
     <use xlink:href="#CMR17-6b" transform="translate(84.686941 0) scale(0.996264)"/>
     <use xlink:href="#CMR17-66" transform="translate(109.557999 0) scale(0.996264)"/>
     <use xlink:href="#CMR17-66" transform="translate(160.453369 0) scale(0.996264)"/>
     <use xlink:href="#CMR17-6e" transform="translate(211.348739 0) scale(0.996264)"/>
     <use xlink:href="#CMR17-67" transform="translate(236.219797 0) scale(0.996264)"/>
    </g>
   </g>
   <g id="text_4">
    <!-- Ring -->
    <g transform="translate(22.942327 224.038815) scale(0.18 -0.18)">
     <defs>
      <path id="CMR17-54" d="M 2508 2156 
C 3116 2278 3629 2689 3629 3203 
C 3629 3806 2950 4352 2054 4352 
L 332 4352 
L 332 4185 
C 774 4185 844 4185 844 3896 
L 844 428 
C 844 140 774 140 332 140 
L 332 -26 
C 518 -13 851 -13 1049 -13 
C 1248 -13 1580 -13 1766 -26 
L 1766 140 
C 1324 140 1254 140 1254 428 
L 1254 2112 
L 2003 2112 
C 2368 2112 2572 1964 2662 1881 
C 2918 1632 2918 1459 2918 1024 
C 2918 595 2918 377 3110 160 
C 3353 -103 3680 -128 3821 -128 
C 4294 -128 4365 403 4365 512 
C 4365 550 4365 595 4307 595 
C 4256 595 4249 556 4249 531 
C 4217 115 4032 -26 3833 -26 
C 3481 -26 3443 377 3405 768 
C 3385 902 3373 998 3360 1139 
C 3321 1459 3270 1926 2508 2156 
z
M 1984 2214 
L 1254 2214 
L 1254 3935 
C 1254 4153 1267 4185 1523 4185 
L 1990 4185 
C 2521 4185 3142 3999 3142 3203 
C 3142 2374 2464 2214 1984 2214 
z
" transform="scale(0.015625)"/>
      <path id="CMR17-69" d="M 710 1165 
C 832 1068 1043 960 1299 960 
C 1804 960 2240 1359 2240 1895 
C 2240 2063 2188 2321 1996 2521 
C 2176 2713 2438 2777 2585 2777 
C 2611 2777 2649 2777 2681 2758 
C 2656 2751 2598 2726 2598 2623 
C 2598 2540 2656 2483 2739 2483 
C 2835 2483 2886 2547 2886 2630 
C 2886 2751 2790 2880 2585 2880 
C 2329 2880 2105 2758 1926 2591 
C 1734 2764 1504 2828 1299 2828 
C 793 2828 358 2431 358 1895 
C 358 1527 569 1294 633 1230 
C 441 1004 441 742 441 710 
C 441 544 505 300 723 166 
C 390 82 128 -184 128 -517 
C 128 -996 736 -1344 1465 -1344 
C 2169 -1344 2803 -1009 2803 -510 
C 2803 384 1856 384 1363 384 
C 1216 384 953 384 921 390 
C 723 422 588 601 588 825 
C 588 883 588 1024 710 1165 
z
M 1299 1068 
C 736 1068 736 1766 736 1895 
C 736 2024 736 2719 1299 2719 
C 1862 2719 1862 2024 1862 1895 
C 1862 1766 1862 1068 1299 1068 
z
M 1465 -1236 
C 825 -1236 384 -883 384 -517 
C 384 -311 492 -118 633 -11 
C 793 102 857 102 1292 102 
C 1817 102 2547 102 2547 -517 
C 2547 -883 2105 -1236 1465 -1236 
z
" transform="scale(0.015625)"/>
     </defs>
     <use xlink:href="#CMR17-54" transform="scale(0.996264)"/>
     <use xlink:href="#CMR17-6b" transform="translate(67.791102 0) scale(0.996264)"/>
     <use xlink:href="#CMR17-70" transform="translate(92.66216 0) scale(0.996264)"/>
     <use xlink:href="#CMR17-69" transform="translate(143.55753 0) scale(0.996264)"/>
    </g>
   </g>
   <g id="text_5">
    <!-- Pinky -->
    <g transform="translate(193.919642 268.524444) scale(0.18 -0.18)">
     <defs>
      <path id="CMR17-52" d="M 1267 2048 
L 2291 2048 
C 3116 2048 3718 2583 3718 3187 
C 3718 3791 3129 4352 2291 4352 
L 332 4352 
L 332 4185 
C 774 4185 844 4185 844 3899 
L 844 453 
C 844 166 774 166 332 166 
L 332 0 
C 518 12 857 12 1056 12 
C 1254 12 1593 12 1779 0 
L 1779 166 
C 1337 166 1267 166 1267 453 
L 1267 2048 
z
M 1254 2182 
L 1254 3937 
C 1254 4153 1267 4185 1523 4185 
L 2169 4185 
C 2995 4185 3232 3715 3232 3187 
C 3232 2608 2950 2182 2169 2182 
L 1254 2182 
z
" transform="scale(0.015625)"/>
      <path id="CMR17-6d" d="M 1670 1679 
C 1664 1692 1632 1730 1632 1749 
C 1632 1762 2086 2175 2144 2226 
C 2508 2532 2739 2563 2905 2570 
L 2905 2735 
C 2867 2735 2854 2735 2848 2729 
L 2534 2722 
C 2355 2722 2080 2722 1907 2735 
L 1907 2570 
C 1996 2563 2060 2513 2060 2423 
C 2060 2296 1932 2175 1926 2175 
L 960 1298 
L 960 4416 
L 198 4345 
L 198 4179 
C 576 4179 633 4141 633 3835 
L 633 439 
C 633 198 608 166 198 166 
L 198 0 
C 352 12 633 12 793 12 
C 953 12 1235 12 1388 0 
L 1388 166 
C 979 166 953 191 953 439 
L 953 1139 
L 1395 1540 
L 2041 586 
C 2118 471 2182 382 2182 299 
C 2182 185 2067 166 1990 166 
L 1990 0 
C 2144 12 2419 12 2579 12 
C 2694 12 2931 6 3040 0 
L 3040 166 
C 2739 166 2668 223 2476 503 
L 1670 1679 
z
" transform="scale(0.015625)"/>
      <path id="CMR17-7b" d="M 2496 2183 
C 2656 2579 2944 2585 3033 2585 
L 3033 2752 
C 2912 2745 2752 2739 2630 2739 
C 2496 2739 2284 2739 2156 2752 
L 2156 2585 
C 2400 2566 2406 2384 2406 2332 
C 2406 2268 2393 2235 2361 2158 
L 1664 409 
L 902 2300 
C 870 2378 870 2423 870 2430 
C 870 2572 1017 2585 1171 2585 
L 1171 2752 
C 1017 2739 742 2739 582 2739 
C 409 2739 204 2739 64 2752 
L 64 2585 
C 409 2585 448 2553 531 2345 
L 1484 -31 
C 1196 -795 1030 -1242 627 -1242 
C 556 -1242 396 -1223 281 -1106 
C 428 -1093 492 -1002 492 -892 
C 492 -782 416 -685 288 -685 
C 147 -685 76 -782 76 -899 
C 76 -1158 339 -1344 627 -1344 
C 998 -1344 1228 -983 1356 -659 
L 2496 2183 
z
" transform="scale(0.015625)"/>
     </defs>
     <use xlink:href="#CMR17-52" transform="scale(0.996264)"/>
     <use xlink:href="#CMR17-6b" transform="translate(62.586301 0) scale(0.996264)"/>
     <use xlink:href="#CMR17-70" transform="translate(87.457359 0) scale(0.996264)"/>
     <use xlink:href="#CMR17-6d" transform="translate(138.352729 0) scale(0.996264)"/>
     <use xlink:href="#CMR17-7b" transform="translate(186.645645 0) scale(0.996264)"/>
    </g>
   </g>
   <g id="text_6">
    <!-- 0.20 N -->
    <g style="fill: #00a087" transform="translate(206.980224 184.734049) scale(0.18 -0.18)">
     <defs>
      <path id="CMR17-32" d="M 2688 2038 
C 2688 2430 2681 3099 2412 3613 
C 2176 4063 1798 4224 1465 4224 
C 1158 4224 768 4082 524 3620 
C 268 3137 243 2539 243 2038 
C 243 1671 249 1112 448 623 
C 723 -39 1216 -128 1465 -128 
C 1760 -128 2208 -7 2470 604 
C 2662 1048 2688 1568 2688 2038 
z
M 1465 -26 
C 1056 -26 812 328 723 816 
C 652 1196 652 1749 652 2109 
C 652 2604 652 3015 736 3407 
C 857 3954 1216 4121 1465 4121 
C 1728 4121 2067 3947 2188 3420 
C 2272 3054 2278 2623 2278 2109 
C 2278 1691 2278 1176 2201 797 
C 2067 96 1689 -26 1465 -26 
z
" transform="scale(0.015625)"/>
      <path id="CMR17-30" d="M 1062 262 
C 1062 422 934 524 800 524 
C 672 524 537 422 537 262 
C 537 102 665 0 800 0 
C 928 0 1062 102 1062 262 
z
" transform="scale(0.015625)"/>
      <path id="CMR17-34" d="M 2668 990 
L 2553 990 
C 2489 537 2438 460 2412 422 
C 2380 371 1920 371 1830 371 
L 601 371 
C 832 620 1280 1073 1824 1596 
C 2214 1966 2668 2400 2668 3033 
C 2668 3788 2067 4224 1395 4224 
C 691 4224 262 3603 262 3027 
C 262 2777 448 2745 524 2745 
C 588 2745 780 2783 780 3007 
C 780 3206 614 3264 524 3264 
C 486 3264 448 3257 422 3244 
C 544 3788 915 4057 1305 4057 
C 1862 4057 2227 3616 2227 3033 
C 2227 2477 1900 1998 1536 1583 
L 262 147 
L 262 0 
L 2515 0 
L 2668 990 
z
" transform="scale(0.015625)"/>
      <path id="CMR17-50" d="M 1312 4275 
C 1267 4345 1260 4352 1139 4352 
L 326 4352 
L 326 4185 
L 448 4185 
C 704 4185 819 4153 838 4147 
L 838 624 
C 838 465 838 166 326 166 
L 326 0 
C 473 12 742 12 902 12 
C 1062 12 1331 12 1478 0 
L 1478 166 
C 966 166 966 465 966 624 
L 966 4057 
C 1011 4019 1011 4007 1056 3943 
L 3430 76 
C 3475 0 3494 0 3526 0 
C 3590 0 3590 19 3590 140 
L 3590 3726 
C 3590 3885 3590 4185 4102 4185 
L 4102 4352 
C 3955 4339 3686 4339 3526 4339 
C 3366 4339 3097 4339 2950 4352 
L 2950 4185 
C 3462 4185 3462 3885 3462 3726 
L 3462 777 
L 1312 4275 
z
" transform="scale(0.015625)"/>
     </defs>
     <use xlink:href="#CMR17-32" transform="scale(0.996264)"/>
     <use xlink:href="#CMR17-30" transform="translate(45.690477 0) scale(0.996264)"/>
     <use xlink:href="#CMR17-34" transform="translate(70.561536 0) scale(0.996264)"/>
     <use xlink:href="#CMR17-32" transform="translate(116.252013 0) scale(0.996264)"/>
     <use xlink:href="#CMR17-50" transform="translate(192.018456 0) scale(0.996264)"/>
    </g>
   </g>
  </g>
  <g id="legend_1">
   <g id="line2d_13">
    <path d="M 369.210275 125.31819 
L 387.210275 125.31819 
L 405.210275 125.31819 
" style="fill: none; stroke-dasharray: 8.14,3.52; stroke-dashoffset: 0; stroke: #595959; stroke-opacity: 0.6; stroke-width: 2.2"/>
   </g>
   <g id="text_7">
    <!-- Start -->
    <g transform="translate(419.610275 131.61819) scale(0.18 -0.18)">
     <defs>
      <path id="CMR17-55" d="M 2803 4351 
C 2803 4467 2796 4473 2758 4473 
C 2720 4473 2707 4447 2681 4390 
L 2489 3965 
C 2246 4320 1875 4480 1472 4480 
C 819 4480 294 3958 294 3301 
C 294 3101 339 2817 556 2546 
C 793 2250 1017 2198 1529 2063 
C 1721 2011 2041 1927 2105 1901 
C 2470 1747 2662 1360 2662 999 
C 2662 534 2336 38 1779 38 
C 1094 38 454 425 409 1328 
C 403 1431 396 1437 352 1437 
C 300 1437 294 1431 294 1302 
L 294 0 
C 294 -116 300 -122 339 -122 
C 384 -122 396 -90 486 109 
C 492 128 492 141 614 386 
C 934 -39 1472 -128 1779 -128 
C 2476 -128 2969 457 2969 1141 
C 2969 1476 2848 1734 2777 1850 
C 2508 2263 2220 2340 1913 2417 
C 1868 2437 1856 2437 1497 2527 
C 1152 2617 1004 2662 844 2836 
C 665 3036 601 3243 601 3449 
C 601 3868 934 4326 1478 4326 
C 2156 4326 2579 3842 2675 3036 
C 2694 2920 2700 2914 2745 2914 
C 2803 2914 2803 2933 2803 3043 
L 2803 4351 
z
" transform="scale(0.015625)"/>
      <path id="CMR17-76" d="M 966 2585 
L 1862 2585 
L 1862 2752 
L 966 2752 
L 966 3968 
L 851 3968 
C 838 3292 614 2700 70 2687 
L 70 2585 
L 627 2585 
L 627 778 
C 627 655 627 -64 1369 -64 
C 1747 -64 1964 308 1964 784 
L 1964 1151 
L 1849 1151 
L 1849 790 
C 1849 347 1676 51 1408 51 
C 1222 51 966 179 966 765 
L 966 2585 
z
" transform="scale(0.015625)"/>
      <path id="CMR17-63" d="M 2304 1656 
C 2304 2048 2304 2275 2035 2534 
C 1798 2751 1523 2816 1305 2816 
C 800 2816 435 2408 435 1977 
C 435 1740 627 1728 665 1728 
C 748 1728 896 1779 896 1958 
C 896 2118 774 2188 665 2188 
C 640 2188 608 2182 588 2176 
C 723 2594 1068 2713 1292 2713 
C 1612 2713 1964 2421 1964 1875 
L 1964 1632 
C 1587 1619 1132 1568 774 1373 
C 371 1147 256 822 256 576 
C 256 77 832 -64 1171 -64 
C 1523 -64 1849 135 1990 505 
C 2003 219 2182 -39 2464 -39 
C 2598 -39 2937 51 2937 563 
L 2937 926 
L 2822 926 
L 2822 557 
C 2822 161 2649 109 2566 109 
C 2304 109 2304 446 2304 732 
L 2304 1656 
z
M 1964 887 
C 1964 323 1568 38 1216 38 
C 896 38 646 278 646 576 
C 646 771 729 1114 1100 1322 
C 1408 1497 1760 1523 1964 1536 
L 1964 887 
z
" transform="scale(0.015625)"/>
      <path id="CMR17-74" d="M 960 1517 
C 960 2134 1222 2713 1702 2713 
C 1747 2713 1792 2707 1836 2687 
C 1836 2687 1696 2642 1696 2475 
C 1696 2321 1817 2257 1913 2257 
C 1990 2257 2131 2302 2131 2482 
C 2131 2687 1926 2816 1708 2816 
C 1222 2816 1011 2340 947 2115 
L 940 2115 
L 940 2816 
L 198 2745 
L 198 2578 
C 576 2578 633 2540 633 2231 
L 633 443 
C 633 198 608 166 198 166 
L 198 0 
C 352 12 646 12 812 12 
C 998 12 1324 12 1497 0 
L 1497 166 
C 1036 166 960 166 960 455 
L 960 1517 
z
" transform="scale(0.015625)"/>
     </defs>
     <use xlink:href="#CMR17-55" transform="scale(0.996264)"/>
     <use xlink:href="#CMR17-76" transform="translate(50.89537 0) scale(0.996264)"/>
     <use xlink:href="#CMR17-63" transform="translate(86.176138 0) scale(0.996264)"/>
     <use xlink:href="#CMR17-74" transform="translate(131.866615 0) scale(0.996264)"/>
     <use xlink:href="#CMR17-76" transform="translate(167.147382 0) scale(0.996264)"/>
    </g>
   </g>
   <g id="line2d_14">
    <path d="M 369.210275 150.406254 
L 387.210275 150.406254 
L 405.210275 150.406254 
" style="fill: none; stroke: #595959; stroke-opacity: 0.9; stroke-width: 2.8; stroke-linecap: square"/>
   </g>
   <g id="text_8">
    <!-- End -->
    <g transform="translate(419.610275 156.706254) scale(0.18 -0.18)">
     <defs>
      <path id="CMR17-47" d="M 3885 1614 
L 3769 1614 
C 3629 676 3545 166 2419 166 
L 1529 166 
C 1273 166 1260 198 1260 415 
L 1260 2176 
L 1862 2176 
C 2464 2176 2521 1959 2521 1429 
L 2636 1429 
L 2636 3086 
L 2521 3086 
C 2521 2558 2464 2342 1862 2342 
L 1260 2342 
L 1260 3924 
C 1260 4141 1273 4172 1529 4172 
L 2406 4172 
C 3398 4172 3513 3778 3603 2933 
L 3718 2933 
L 3565 4339 
L 326 4339 
L 326 4172 
C 768 4172 838 4172 838 3886 
L 838 453 
C 838 166 768 166 326 166 
L 326 0 
L 3654 0 
L 3885 1614 
z
" transform="scale(0.015625)"/>
     </defs>
     <use xlink:href="#CMR17-47" transform="scale(0.996264)"/>
     <use xlink:href="#CMR17-70" transform="translate(62.586301 0) scale(0.996264)"/>
     <use xlink:href="#CMR17-66" transform="translate(113.48167 0) scale(0.996264)"/>
    </g>
   </g>
  </g>
 </g>
 <defs>
  <clipPath id="pe35ba40d96">
   <path d="M 273.826398 139.606254 
C 273.826398 124.143664 270.780604 108.831428 264.863327 94.545857 
C 258.94605 80.260286 250.272365 67.279199 239.338663 56.345497 
C 228.40496 45.411794 215.423873 36.738109 201.138302 30.820832 
C 186.852732 24.903555 171.540496 21.857762 156.077905 21.857762 
C 140.615315 21.857762 125.303079 24.903555 111.017508 30.820832 
C 96.731937 36.738109 83.75085 45.411794 72.817148 56.345497 
C 61.883445 67.279199 53.20976 80.260286 47.292483 94.545857 
C 41.375206 108.831428 38.329413 124.143664 38.329413 139.606254 
C 38.329413 155.068844 41.375206 170.381081 47.292483 184.666651 
C 53.20976 198.952222 61.883445 211.933309 72.817148 222.867012 
C 83.75085 233.800714 96.731937 242.474399 111.017508 248.391676 
C 125.303079 254.308953 140.615315 257.354746 156.077905 257.354746 
C 171.540496 257.354746 186.852732 254.308953 201.138302 248.391676 
C 215.423873 242.474399 228.40496 233.800714 239.338663 222.867012 
C 250.272365 211.933309 258.94605 198.952222 264.863327 184.666651 
C 270.780604 170.381081 273.826398 155.068844 273.826398 139.606254 
M 156.077905 139.606254 
C 156.077905 139.606254 156.077905 139.606254 156.077905 139.606254 
C 156.077905 139.606254 156.077905 139.606254 156.077905 139.606254 
C 156.077905 139.606254 156.077905 139.606254 156.077905 139.606254 
C 156.077905 139.606254 156.077905 139.606254 156.077905 139.606254 
C 156.077905 139.606254 156.077905 139.606254 156.077905 139.606254 
C 156.077905 139.606254 156.077905 139.606254 156.077905 139.606254 
C 156.077905 139.606254 156.077905 139.606254 156.077905 139.606254 
C 156.077905 139.606254 156.077905 139.606254 156.077905 139.606254 
C 156.077905 139.606254 156.077905 139.606254 156.077905 139.606254 
C 156.077905 139.606254 156.077905 139.606254 156.077905 139.606254 
C 156.077905 139.606254 156.077905 139.606254 156.077905 139.606254 
C 156.077905 139.606254 156.077905 139.606254 156.077905 139.606254 
C 156.077905 139.606254 156.077905 139.606254 156.077905 139.606254 
C 156.077905 139.606254 156.077905 139.606254 156.077905 139.606254 
C 156.077905 139.606254 156.077905 139.606254 156.077905 139.606254 
C 156.077905 139.606254 156.077905 139.606254 156.077905 139.606254 
z
"/>
  </clipPath>
 </defs>
</svg>
